0
SECTION
2
HEADER
9
$INSUNITS
70
4
9
$ACADVER
1
AC1014
9
$HANDSEED
5
FFFF
0
ENDSEC
0
SECTION
2
TABLES
0
TABLE
2
VPORT
5
8
100
AcDbSymbolTable
0
ENDTAB
0
TABLE
2
LTYPE
5
5
100
AcDbSymbolTable
0
LTYPE
5
14
100
AcDbSymbolTableRecord
100
AcDbLinetypeTableRecord
2
BYBLOCK
70
0
0
LTYPE
5
15
100
AcDbSymbolTableRecord
100
AcDbLinetypeTableRecord
2
BYLAYER
70
0
0
ENDTAB
0
TABLE
2
LAYER
5
2
100
AcDbSymbolTable
70
2
0
LAYER
5
50
100
AcDbSymbolTableRecord
100
AcDbLayerTableRecord
2
0
70
0
6
CONTINUOUS
0
ENDTAB
0
TABLE
2
STYLE
5
3
100
AcDbSymbolTable
70
1
0
STYLE
5
11
100
AcDbSymbolTableRecord
100
AcDbTextStyleTableRecord
2
STANDARD
70
0
0
ENDTAB
0
TABLE
2
VIEW
5
6
100
AcDbSymbolTable
70
0
0
ENDTAB
0
TABLE
2
UCS
5
7
100
AcDbSymbolTable
70
0
0
ENDTAB
0
TABLE
2
APPID
5
9
100
AcDbSymbolTable
70
2
0
APPID
5
12
100
AcDbSymbolTableRecord
100
AcDbRegAppTableRecord
2
ACAD
70
0
0
ENDTAB
0
TABLE
2
DIMSTYLE
5
A
100
AcDbSymbolTable
70
1
0
ENDTAB
0
TABLE
2
BLOCK_RECORD
5
1
100
AcDbSymbolTable
70
1
0
BLOCK_RECORD
5
1F
100
AcDbSymbolTableRecord
100
AcDbBlockTableRecord
2
*MODEL_SPACE
0
BLOCK_RECORD
5
1B
100
AcDbSymbolTableRecord
100
AcDbBlockTableRecord
2
*PAPER_SPACE
0
ENDTAB
0
ENDSEC
0
SECTION
2
BLOCKS
0
BLOCK
5
20
100
AcDbEntity
100
AcDbBlockBegin
2
*MODEL_SPACE
0
ENDBLK
5
21
100
AcDbEntity
100
AcDbBlockEnd
0
BLOCK
5
1C
100
AcDbEntity
100
AcDbBlockBegin
2
*PAPER_SPACE
0
ENDBLK
5
1D
100
AcDbEntity
100
AcDbBlockEnd
0
ENDSEC
0
SECTION
2
ENTITIES
0
LWPOLYLINE
5
100
100
AcDbEntity
8
0
100
AcDbPolyline
90
4
70
1
43
0.0
10
264.00000151246792
20
638.50000000745058
10
264.00000151246792
20
581.50000000745058
10
207.00000151246792
20
581.50000000745058
10
207.00000151246792
20
638.50000000745058
0
LWPOLYLINE
5
101
100
AcDbEntity
8
0
100
AcDbPolyline
90
4
70
1
43
0.0
10
-43
20
692.5
10
-73
20
692.5
10
-73
20
722.5
10
-43
20
722.5
0
LINE
5
102
100
AcDbEntity
8
0
100
AcDbLine
10
-189.00000356137764
20
745
30
0
11
-189.00000356137764
21
485
31
0
0
LINE
5
103
100
AcDbEntity
8
0
100
AcDbLine
10
-113.94448724535999
20
465
30
0
11
413.94448724536011
21
465
31
0
0
LWPOLYLINE
5
104
100
AcDbEntity
8
0
100
AcDbPolyline
90
4
70
1
43
0.0
10
193
20
685
10
107
20
685
42
0.99999999999999989
10
107.00000000000014
20
671
10
192.99999999999986
20
671
42
0.99999999999999989
0
LWPOLYLINE
5
105
100
AcDbEntity
8
0
100
AcDbPolyline
90
4
70
1
43
0.0
10
373.00000000000006
20
692.5
10
343.00000000000006
20
692.5
10
343.00000000000006
20
722.5
10
373.00000000000006
20
722.5
0
LINE
5
106
100
AcDbEntity
8
0
100
AcDbLine
10
489.00000803172594
20
485
30
0
11
489.00000803172594
21
745
31
0
0
LWPOLYLINE
5
107
100
AcDbEntity
8
0
100
AcDbPolyline
90
4
70
1
43
0.0
10
-32.999998487532125
20
581.50000000745058
10
-32.999998487532153
20
638.50000000745058
10
24.000001512467858
20
638.50000000745058
10
24.000001512467854
20
581.50000000745058
0
LWPOLYLINE
5
108
100
AcDbEntity
8
0
100
AcDbPolyline
90
4
70
1
43
0.0
10
402.0000015124682
20
638.50000000745058
10
345.00000151246797
20
638.50000000745058
10
345.00000151246797
20
581.50000000745058
10
402.0000015124682
20
581.50000000745058
0
LWPOLYLINE
5
109
100
AcDbEntity
8
0
100
AcDbPolyline
90
4
70
1
43
0.0
10
333.00000151246786
20
581.50000000745058
10
276.00000151246792
20
581.50000000745058
10
276.00000151246792
20
638.50000000745058
10
333.00000151246786
20
638.50000000745058
0
LINE
5
110
100
AcDbEntity
8
0
100
AcDbLine
10
413.94448724536011
20
765
30
0
11
-113.94448724536007
21
765
31
0
0
LWPOLYLINE
5
111
100
AcDbEntity
8
0
100
AcDbPolyline
90
4
70
1
43
0.0
10
93.000001512467847
20
638.50000000745058
10
36.000001512467847
20
638.50000000745058
10
36.000001512467847
20
581.50000000745058
10
93.000001512467847
20
581.50000000745058
0
LWPOLYLINE
5
112
100
AcDbEntity
8
0
100
AcDbPolyline
90
4
70
1
43
0.0
10
-44.99999848753216
20
638.50000000745058
10
-44.99999848753216
20
581.50000000745058
10
-101.99999848753215
20
581.50000000745058
10
-101.99999848753215
20
638.50000000745058
0
CIRCLE
5
113
100
AcDbEntity
8
0
100
AcDbCircle
10
-170
20
504
30
0
40
2.75
210
0
220
0
230
1
0
CIRCLE
5
114
100
AcDbEntity
8
0
100
AcDbCircle
10
470
20
504
30
0
40
2.75
210
0
220
0
230
1
0
CIRCLE
5
115
100
AcDbEntity
8
0
100
AcDbCircle
10
150.00000223517412
20
485.000000745058
30
0
40
2.7500000000000036
210
0
220
0
230
1
0
CIRCLE
5
116
100
AcDbEntity
8
0
100
AcDbCircle
10
150.00000223517412
20
745.00000074505806
30
0
40
2.7500000000000036
210
0
220
0
230
1
0
CIRCLE
5
117
100
AcDbEntity
8
0
100
AcDbCircle
10
-170
20
726
30
0
40
2.75
210
0
220
0
230
1
0
CIRCLE
5
118
100
AcDbEntity
8
0
100
AcDbCircle
10
470
20
726
30
0
40
2.75
210
0
220
0
230
1
0
LINE
5
119
100
AcDbEntity
8
0
100
AcDbLine
10
-189.00000356137764
20
745
30
0
11
-189.00000356137764
21
765
31
0
0
LINE
5
120
100
AcDbEntity
8
0
100
AcDbLine
10
-189.00000356137764
20
765
30
0
11
-113.94448724536007
21
765
31
0
0
LINE
5
121
100
AcDbEntity
8
0
100
AcDbLine
10
-189.00000356137764
20
485
30
0
11
-189.00000356137764
21
465
31
0
0
LINE
5
122
100
AcDbEntity
8
0
100
AcDbLine
10
-189.00000356137764
20
465
30
0
11
-110
21
465
31
0
0
LINE
5
123
100
AcDbEntity
8
0
100
AcDbLine
10
489.00000803172594
20
485
30
0
11
489.00000803172594
21
465
31
0
0
LINE
5
124
100
AcDbEntity
8
0
100
AcDbLine
10
489.00000803172594
20
465
30
0
11
413.94448724536011
21
465
31
0
0
LINE
5
125
100
AcDbEntity
8
0
100
AcDbLine
10
489.00000803172594
20
745
30
0
11
489.00000803172594
21
765
31
0
0
LINE
5
126
100
AcDbEntity
8
0
100
AcDbLine
10
489.00000803172594
20
765
30
0
11
413.94448724536011
21
765
31
0
0
ENDSEC
0
SECTION
2
OBJECTS
0
DICTIONARY
5
C
100
AcDbDictionary
3
ACAD_GROUP
350
D
3
ACAD_MLINESTYLE
350
17
0
DICTIONARY
5
D
100
AcDbDictionary
0
DICTIONARY
5
1A
330
C
100
AcDbDictionary
0
DICTIONARY
5
17
100
AcDbDictionary
0
ENDSEC
0
EOF
