0
SECTION
2
HEADER
9
$INSUNITS
70
4
9
$ACADVER
1
AC1014
9
$HANDSEED
5
FFFF
0
ENDSEC
0
SECTION
2
TABLES
0
TABLE
2
VPORT
5
8
100
AcDbSymbolTable
0
ENDTAB
0
TABLE
2
LTYPE
5
5
100
AcDbSymbolTable
0
LTYPE
5
14
100
AcDbSymbolTableRecord
100
AcDbLinetypeTableRecord
2
BYBLOCK
70
0
0
LTYPE
5
15
100
AcDbSymbolTableRecord
100
AcDbLinetypeTableRecord
2
BYLAYER
70
0
0
ENDTAB
0
TABLE
2
LAYER
5
2
100
AcDbSymbolTable
70
2
0
LAYER
5
50
100
AcDbSymbolTableRecord
100
AcDbLayerTableRecord
2
0
70
0
6
CONTINUOUS
0
ENDTAB
0
TABLE
2
STYLE
5
3
100
AcDbSymbolTable
70
1
0
STYLE
5
11
100
AcDbSymbolTableRecord
100
AcDbTextStyleTableRecord
2
STANDARD
70
0
0
ENDTAB
0
TABLE
2
VIEW
5
6
100
AcDbSymbolTable
70
0
0
ENDTAB
0
TABLE
2
UCS
5
7
100
AcDbSymbolTable
70
0
0
ENDTAB
0
TABLE
2
APPID
5
9
100
AcDbSymbolTable
70
2
0
APPID
5
12
100
AcDbSymbolTableRecord
100
AcDbRegAppTableRecord
2
ACAD
70
0
0
ENDTAB
0
TABLE
2
DIMSTYLE
5
A
100
AcDbSymbolTable
70
1
0
ENDTAB
0
TABLE
2
BLOCK_RECORD
5
1
100
AcDbSymbolTable
70
1
0
BLOCK_RECORD
5
1F
100
AcDbSymbolTableRecord
100
AcDbBlockTableRecord
2
*MODEL_SPACE
0
BLOCK_RECORD
5
1B
100
AcDbSymbolTableRecord
100
AcDbBlockTableRecord
2
*PAPER_SPACE
0
ENDTAB
0
ENDSEC
0
SECTION
2
BLOCKS
0
BLOCK
5
20
100
AcDbEntity
100
AcDbBlockBegin
2
*MODEL_SPACE
0
ENDBLK
5
21
100
AcDbEntity
100
AcDbBlockEnd
0
BLOCK
5
1C
100
AcDbEntity
100
AcDbBlockBegin
2
*PAPER_SPACE
0
ENDBLK
5
1D
100
AcDbEntity
100
AcDbBlockEnd
0
ENDSEC
0
SECTION
2
ENTITIES
0
LWPOLYLINE
5
100
100
AcDbEntity
8
0
100
AcDbPolyline
90
4
70
1
43
0.0
10
354
20
-1.7763568394002505e-14
10
354
20
-56.000000387430191
10
409.99999859929085
20
-56.000000387430191
10
409.99999859929085
20
4.4408920985006262e-15
0
LWPOLYLINE
5
101
100
AcDbEntity
8
0
100
AcDbPolyline
90
20
70
1
43
0.0
10
-126.14835192865506
20
-150
10
426.14835192865507
20
-150
42
0.095414572399751735
10
433.57616545573711
20
-148.56953381770515
10
476.42383454426289
20
-131.43046618229485
42
-0.095414572399760991
10
483.85164807134493
20
-130
10
500
20
-130
10
500
20
130
10
483.85164807134487
20
130
42
-0.095414572399760991
10
476.42383454426289
20
131.43046618229485
10
433.576165455737
20
148.56953381770521
42
0.095414572399751291
10
426.14835192865485
20
149.99999999999997
10
-126.1483519286551
20
150
42
0.095414572399753012
10
-133.57616545573717
20
148.56953381770512
10
-176.42383454426283
20
131.43046618229485
42
-0.095414572399765696
10
-183.8516480713449
20
130
10
-200
20
130
10
-200
20
-130
10
-183.8516480713449
20
-130
42
-0.095414572399765696
10
-176.42383454426283
20
-131.43046618229485
10
-133.57616545573717
20
-148.56953381770512
42
0.095414572399753247
0
LWPOLYLINE
5
102
100
AcDbEntity
8
0
100
AcDbPolyline
90
4
70
1
43
0.0
10
332.49999859929085
20
4.4408920985006262e-15
10
276.5
20
0
10
276.5
20
-56.000000387430191
10
332.49999859929085
20
-56.000000387430191
0
LWPOLYLINE
5
103
100
AcDbEntity
8
0
100
AcDbPolyline
90
4
70
1
43
0.0
10
23.499998599290848
20
0
10
-32.5
20
0
10
-32.5
20
-56.000000387430191
10
23.499998599290848
20
-56.000000387430191
0
LWPOLYLINE
5
104
100
AcDbEntity
8
0
100
AcDbPolyline
90
4
70
1
43
0.0
10
100.99999859929085
20
-56.000000387430191
10
100.99999859929085
20
0
10
45
20
0
10
45
20
-56.000000387430191
0
CIRCLE
5
105
100
AcDbEntity
8
0
100
AcDbCircle
10
150
20
140
30
0
40
1.5000000000000036
210
0
220
0
230
1
0
LWPOLYLINE
5
106
100
AcDbEntity
8
0
100
AcDbPolyline
90
4
70
1
43
0.0
10
-80
20
90
10
-80
20
60
10
-50
20
60
10
-50
20
90
0
LWPOLYLINE
5
107
100
AcDbEntity
8
0
100
AcDbPolyline
90
4
70
1
43
0.0
10
-54.000001400709152
20
-56.000000387430191
10
-54.000001400709152
20
0
10
-110
20
0
10
-110
20
-56.000000387430191
0
LWPOLYLINE
5
108
100
AcDbEntity
8
0
100
AcDbPolyline
90
4
70
1
43
0.0
10
190
20
30
10
110
20
30
42
-0.99999999999999989
10
110
20
50
10
190
20
50
42
-0.99999999999999989
0
CIRCLE
5
109
100
AcDbEntity
8
0
100
AcDbCircle
10
-190
20
0
30
0
40
1.4999999999999871
210
0
220
0
230
1
0
LWPOLYLINE
5
110
100
AcDbEntity
8
0
100
AcDbPolyline
90
4
70
1
43
0.0
10
380
20
90
10
350
20
90
10
350
20
60
10
380
20
60
0
LINE
5
111
100
AcDbEntity
8
0
100
AcDbLine
10
254.99999859929085
20
-56.000000387430191
30
0
11
199
21
-56.000000387430191
31
0
0
LINE
5
112
100
AcDbEntity
8
0
100
AcDbLine
10
254.99999859929085
20
4.4408920985006262e-15
30
0
11
254.99999859929085
21
-56.000000387430191
31
0
0
LINE
5
113
100
AcDbEntity
8
0
100
AcDbLine
10
199
20
-56.000000387430191
30
0
11
199
21
0
31
0
0
LINE
5
114
100
AcDbEntity
8
0
100
AcDbLine
10
199
20
0
30
0
11
254.99999859929085
21
4.4408920985006262e-15
31
0
0
CIRCLE
5
115
100
AcDbEntity
8
0
100
AcDbCircle
10
150
20
-140
30
0
40
1.5000000000000031
210
0
220
0
230
1
0
CIRCLE
5
116
100
AcDbEntity
8
0
100
AcDbCircle
10
490
20
0
30
0
40
1.5000000000000002
210
0
220
0
230
1
0
ENDSEC
0
SECTION
2
OBJECTS
0
DICTIONARY
5
C
100
AcDbDictionary
3
ACAD_GROUP
350
D
3
ACAD_MLINESTYLE
350
17
0
DICTIONARY
5
D
100
AcDbDictionary
0
DICTIONARY
5
1A
330
C
100
AcDbDictionary
0
DICTIONARY
5
17
100
AcDbDictionary
0
ENDSEC
0
EOF
