0
SECTION
2
HEADER
9
$INSUNITS
70
4
9
$ACADVER
1
AC1014
9
$HANDSEED
5
FFFF
0
ENDSEC
0
SECTION
2
TABLES
0
TABLE
2
VPORT
5
8
100
AcDbSymbolTable
0
ENDTAB
0
TABLE
2
LTYPE
5
5
100
AcDbSymbolTable
0
LTYPE
5
14
100
AcDbSymbolTableRecord
100
AcDbLinetypeTableRecord
2
BYBLOCK
70
0
0
LTYPE
5
15
100
AcDbSymbolTableRecord
100
AcDbLinetypeTableRecord
2
BYLAYER
70
0
0
ENDTAB
0
TABLE
2
LAYER
5
2
100
AcDbSymbolTable
70
2
0
LAYER
5
50
100
AcDbSymbolTableRecord
100
AcDbLayerTableRecord
2
0
70
0
6
CONTINUOUS
0
ENDTAB
0
TABLE
2
STYLE
5
3
100
AcDbSymbolTable
70
1
0
STYLE
5
11
100
AcDbSymbolTableRecord
100
AcDbTextStyleTableRecord
2
STANDARD
70
0
0
ENDTAB
0
TABLE
2
VIEW
5
6
100
AcDbSymbolTable
70
0
0
ENDTAB
0
TABLE
2
UCS
5
7
100
AcDbSymbolTable
70
0
0
ENDTAB
0
TABLE
2
APPID
5
9
100
AcDbSymbolTable
70
2
0
APPID
5
12
100
AcDbSymbolTableRecord
100
AcDbRegAppTableRecord
2
ACAD
70
0
0
ENDTAB
0
TABLE
2
DIMSTYLE
5
A
100
AcDbSymbolTable
70
1
0
ENDTAB
0
TABLE
2
BLOCK_RECORD
5
1
100
AcDbSymbolTable
70
1
0
BLOCK_RECORD
5
1F
100
AcDbSymbolTableRecord
100
AcDbBlockTableRecord
2
*MODEL_SPACE
0
BLOCK_RECORD
5
1B
100
AcDbSymbolTableRecord
100
AcDbBlockTableRecord
2
*PAPER_SPACE
0
ENDTAB
0
ENDSEC
0
SECTION
2
BLOCKS
0
BLOCK
5
20
100
AcDbEntity
100
AcDbBlockBegin
2
*MODEL_SPACE
0
ENDBLK
5
21
100
AcDbEntity
100
AcDbBlockEnd
0
BLOCK
5
1C
100
AcDbEntity
100
AcDbBlockBegin
2
*PAPER_SPACE
0
ENDBLK
5
1D
100
AcDbEntity
100
AcDbBlockEnd
0
ENDSEC
0
SECTION
2
ENTITIES
0
LWPOLYLINE
5
100
100
AcDbEntity
8
0
100
AcDbPolyline
90
4
70
1
43
0.0
10
113.99999848753211
20
906.49999999254942
10
113.99999848753211
20
849.49999999254942
10
56.999998487532153
20
849.49999999254942
10
56.999998487532153
20
906.49999999254942
0
LWPOLYLINE
5
101
100
AcDbEntity
8
0
100
AcDbPolyline
90
4
70
1
43
0.0
10
125.99999848753214
20
849.49999999254942
10
125.99999848753214
20
906.49999999254942
10
182.99999848753217
20
906.49999999254942
10
182.99999848753217
20
849.49999999254942
0
LWPOLYLINE
5
102
100
AcDbEntity
8
0
100
AcDbPolyline
90
6
70
1
43
0.0
10
380
20
1023
10
-183.00000151246786
20
1023
10
-380
20
1023
10
-380
20
713
10
-182.99999848753217
20
713
10
380
20
713
0
LWPOLYLINE
5
103
100
AcDbEntity
8
0
100
AcDbPolyline
90
4
70
1
43
0.0
10
-57.000001512467904
20
906.49999999254942
10
-57.000001512467904
20
849.49999999254942
10
-114.00000151246793
20
849.49999999254942
10
-114.00000151246793
20
906.49999999254942
0
LWPOLYLINE
5
104
100
AcDbEntity
8
0
100
AcDbPolyline
90
4
70
1
43
0.0
10
42.99999821186077
20
802.99999925494194
10
-43.000001788139315
20
802.99999925494194
42
-0.99999999999999989
10
-43.000001788139315
20
816.99999925494194
10
42.999998211860628
20
816.99999955296516
42
-0.99999999999999989
0
LWPOLYLINE
5
105
100
AcDbEntity
8
0
100
AcDbPolyline
90
4
70
1
43
0.0
10
194.99999848753214
20
849.49999999254942
10
194.99999848753214
20
906.49999999254942
10
251.99999848753214
20
906.49999999254942
10
251.99999848753214
20
849.49999999254942
0
LWPOLYLINE
5
106
100
AcDbEntity
8
0
100
AcDbPolyline
90
4
70
1
43
0.0
10
222.99999999999997
20
765.5
10
192.99999999999997
20
765.5
10
192.99999999999997
20
795.5
10
222.99999999999997
20
795.5
0
LWPOLYLINE
5
107
100
AcDbEntity
8
0
100
AcDbPolyline
90
8
70
1
43
0.0
10
355
20
923.5
10
355
20
938.5
42
-0.41421356237311169
10
357.5
20
941.00000000000011
10
362.5
20
941.00000000000011
42
-0.41421356237309503
10
365
20
938.50000000000011
10
365
20
923.5
42
-0.41421356237309503
10
362.5
20
921
10
357.5
20
921
42
-0.41421356237309503
0
LWPOLYLINE
5
108
100
AcDbEntity
8
0
100
AcDbPolyline
90
4
70
1
43
0.0
10
-194.99999848753214
20
906.49999999254942
10
-194.99999848753214
20
849.49999999254942
10
-251.99999848753214
20
849.49999999254942
10
-251.99999848753214
20
906.49999999254942
0
LWPOLYLINE
5
109
100
AcDbEntity
8
0
100
AcDbPolyline
90
8
70
1
43
0.0
10
-355
20
938.5
10
-355
20
923.5
42
-0.41421356237309503
10
-357.5
20
921
10
-362.5
20
921
42
-0.41421356237309503
10
-365
20
923.5
10
-365
20
938.5
42
-0.41421356237311169
10
-362.5
20
941.00000000000011
10
-357.5
20
941.00000000000011
42
-0.41421356237311169
0
LWPOLYLINE
5
110
100
AcDbEntity
8
0
100
AcDbPolyline
90
4
70
1
43
0.0
10
-183.00000151246786
20
906.49999999254942
10
-126.00000151246789
20
906.49999999254942
10
-126.00000151246789
20
849.49999999254942
10
-183.00000151246786
20
849.49999999254942
0
LWPOLYLINE
5
111
100
AcDbEntity
8
0
100
AcDbPolyline
90
4
70
1
43
0.0
10
-192.99999999999997
20
765.5
10
-222.99999999999997
20
765.5
10
-222.99999999999997
20
795.5
10
-192.99999999999997
20
795.5
0
CIRCLE
5
112
100
AcDbEntity
8
0
100
AcDbCircle
10
-2.2351741080228749e-06
20
1002.9999992549419
30
0
40
2.75
210
0
220
0
230
1
0
CIRCLE
5
113
100
AcDbEntity
8
0
100
AcDbCircle
10
54.99999798834331
20
788.44039940395362
30
0
40
2.8999999999999999
210
0
220
0
230
1
0
CIRCLE
5
114
100
AcDbEntity
8
0
100
AcDbCircle
10
32.999997988343317
20
773.49999940395355
30
0
40
2.9000000000000088
210
0
220
0
230
1
0
CIRCLE
5
115
100
AcDbEntity
8
0
100
AcDbCircle
10
10.999997988343324
20
773.49999940395355
30
0
40
2.8999999999999999
210
0
220
0
230
1
0
CIRCLE
5
116
100
AcDbEntity
8
0
100
AcDbCircle
10
54.99999798834331
20
803.38079940395346
30
0
40
2.8999999999999999
210
0
220
0
230
1
0
CIRCLE
5
117
100
AcDbEntity
8
0
100
AcDbCircle
10
54.99999798834331
20
833.2615994039536
30
0
40
2.8999999999999999
210
0
220
0
230
1
0
CIRCLE
5
118
100
AcDbEntity
8
0
100
AcDbCircle
10
54.99999798834331
20
818.32119940395364
30
0
40
2.8999999999999999
210
0
220
0
230
1
0
CIRCLE
5
119
100
AcDbEntity
8
0
100
AcDbCircle
10
32.999997988343281
20
848.20199940395355
30
0
40
2.8999999999999999
210
0
220
0
230
1
0
CIRCLE
5
120
100
AcDbEntity
8
0
100
AcDbCircle
10
10.999997988343289
20
848.20199940395355
30
0
40
2.8999999999999999
210
0
220
0
230
1
0
CIRCLE
5
121
100
AcDbEntity
8
0
100
AcDbCircle
10
320.00000034152504
20
762
30
0
40
2.7499999999999858
210
0
220
0
230
1
0
CIRCLE
5
122
100
AcDbEntity
8
0
100
AcDbCircle
10
320.00000034152504
20
984
30
0
40
2.7499999999999858
210
0
220
0
230
1
0
CIRCLE
5
123
100
AcDbEntity
8
0
100
AcDbCircle
10
360
20
974
30
0
40
2.75
210
0
220
0
230
1
0
CIRCLE
5
124
100
AcDbEntity
8
0
100
AcDbCircle
10
360
20
888
30
0
40
2.75
210
0
220
0
230
1
0
CIRCLE
5
125
100
AcDbEntity
8
0
100
AcDbCircle
10
-33.000002011656697
20
773.49999940395355
30
0
40
2.8999999999999999
210
0
220
0
230
1
0
CIRCLE
5
126
100
AcDbEntity
8
0
100
AcDbCircle
10
-11.000002011656704
20
773.49999940395355
30
0
40
2.8999999999999999
210
0
220
0
230
1
0
CIRCLE
5
127
100
AcDbEntity
8
0
100
AcDbCircle
10
-33.000002011656733
20
848.20199940395355
30
0
40
2.899999999999991
210
0
220
0
230
1
0
CIRCLE
5
128
100
AcDbEntity
8
0
100
AcDbCircle
10
-11.000002011656704
20
848.20199940395355
30
0
40
2.899999999999991
210
0
220
0
230
1
0
CIRCLE
5
129
100
AcDbEntity
8
0
100
AcDbCircle
10
-55.00000201165669
20
788.44039940395362
30
0
40
2.899999999999991
210
0
220
0
230
1
0
CIRCLE
5
130
100
AcDbEntity
8
0
100
AcDbCircle
10
-55.000002011656726
20
803.38079940395346
30
0
40
2.899999999999991
210
0
220
0
230
1
0
CIRCLE
5
131
100
AcDbEntity
8
0
100
AcDbCircle
10
-55.000002011656726
20
818.32119940395364
30
0
40
2.899999999999991
210
0
220
0
230
1
0
CIRCLE
5
132
100
AcDbEntity
8
0
100
AcDbCircle
10
-55.000002011656726
20
833.2615994039536
30
0
40
2.899999999999991
210
0
220
0
230
1
0
CIRCLE
5
133
100
AcDbEntity
8
0
100
AcDbCircle
10
-1.8936490775445236e-06
20
742.99999925494194
30
0
40
2.7500000000000036
210
0
220
0
230
1
0
CIRCLE
5
134
100
AcDbEntity
8
0
100
AcDbCircle
10
-360
20
888
30
0
40
2.75
210
0
220
0
230
1
0
CIRCLE
5
135
100
AcDbEntity
8
0
100
AcDbCircle
10
-360
20
974
30
0
40
2.75
210
0
220
0
230
1
0
CIRCLE
5
136
100
AcDbEntity
8
0
100
AcDbCircle
10
-320.00000034152504
20
984
30
0
40
2.7499999999999858
210
0
220
0
230
1
0
CIRCLE
5
137
100
AcDbEntity
8
0
100
AcDbCircle
10
-320.00000034152504
20
762
30
0
40
2.7499999999999858
210
0
220
0
230
1
0
ENDSEC
0
SECTION
2
OBJECTS
0
DICTIONARY
5
C
100
AcDbDictionary
3
ACAD_GROUP
350
D
3
ACAD_MLINESTYLE
350
17
0
DICTIONARY
5
D
100
AcDbDictionary
0
DICTIONARY
5
1A
330
C
100
AcDbDictionary
0
DICTIONARY
5
17
100
AcDbDictionary
0
ENDSEC
0
EOF
