0
SECTION
2
HEADER
9
$INSUNITS
70
4
9
$ACADVER
1
AC1014
9
$HANDSEED
5
FFFF
0
ENDSEC
0
SECTION
2
TABLES
0
TABLE
2
VPORT
5
8
100
AcDbSymbolTable
0
ENDTAB
0
TABLE
2
LTYPE
5
5
100
AcDbSymbolTable
0
LTYPE
5
14
100
AcDbSymbolTableRecord
100
AcDbLinetypeTableRecord
2
BYBLOCK
70
0
0
LTYPE
5
15
100
AcDbSymbolTableRecord
100
AcDbLinetypeTableRecord
2
BYLAYER
70
0
0
ENDTAB
0
TABLE
2
LAYER
5
2
100
AcDbSymbolTable
70
2
0
LAYER
5
50
100
AcDbSymbolTableRecord
100
AcDbLayerTableRecord
2
0
70
0
6
CONTINUOUS
0
ENDTAB
0
TABLE
2
STYLE
5
3
100
AcDbSymbolTable
70
1
0
STYLE
5
11
100
AcDbSymbolTableRecord
100
AcDbTextStyleTableRecord
2
STANDARD
70
0
0
ENDTAB
0
TABLE
2
VIEW
5
6
100
AcDbSymbolTable
70
0
0
ENDTAB
0
TABLE
2
UCS
5
7
100
AcDbSymbolTable
70
0
0
ENDTAB
0
TABLE
2
APPID
5
9
100
AcDbSymbolTable
70
2
0
APPID
5
12
100
AcDbSymbolTableRecord
100
AcDbRegAppTableRecord
2
ACAD
70
0
0
ENDTAB
0
TABLE
2
DIMSTYLE
5
A
100
AcDbSymbolTable
70
1
0
ENDTAB
0
TABLE
2
BLOCK_RECORD
5
1
100
AcDbSymbolTable
70
1
0
BLOCK_RECORD
5
1F
100
AcDbSymbolTableRecord
100
AcDbBlockTableRecord
2
*MODEL_SPACE
0
BLOCK_RECORD
5
1B
100
AcDbSymbolTableRecord
100
AcDbBlockTableRecord
2
*PAPER_SPACE
0
ENDTAB
0
ENDSEC
0
SECTION
2
BLOCKS
0
BLOCK
5
20
100
AcDbEntity
100
AcDbBlockBegin
2
*MODEL_SPACE
0
ENDBLK
5
21
100
AcDbEntity
100
AcDbBlockEnd
0
BLOCK
5
1C
100
AcDbEntity
100
AcDbBlockBegin
2
*PAPER_SPACE
0
ENDBLK
5
1D
100
AcDbEntity
100
AcDbBlockEnd
0
ENDSEC
0
SECTION
2
ENTITIES
0
LWPOLYLINE
5
100
100
AcDbEntity
8
0
100
AcDbPolyline
90
24
70
1
43
0.0
10
-557.66300685881561
20
1012.3161239549518
10
-556.90843112944765
20
1012.4154682084918
10
-556.15384586333653
20
1012.3161239549518
10
-555.45069225311465
20
1012.0248718187213
10
-554.84687812804964
20
1011.5615482255816
10
-554.38355453491704
20
1010.957729332149
10
-554.0922976303101
20
1010.2545757219195
10
-553.99296291350788
20
1009.4999952241778
10
-554.0922976303101
20
1008.7454147264361
10
-554.38355453491704
20
1008.0422611162066
10
-554.84687812804964
20
1007.438442222774
10
-555.45069225311465
20
1006.9751186296344
10
-556.15384586333653
20
1006.6838664934039
10
-556.90843112944765
20
1006.5845222398639
10
-557.66300685881561
20
1006.6838664934039
10
-558.36617000578053
20
1006.9751186296344
10
-558.96998413083986
20
1007.438442222774
10
-559.43330295561236
20
1008.0422611162066
10
-559.72456462858509
20
1008.7454147264361
10
-559.823904113759
20
1009.4999952241778
10
-559.72456462858509
20
1010.2545757219195
10
-559.43330295561236
20
1010.957729332149
10
-558.96998413083986
20
1011.5615482255816
10
-558.36617000578053
20
1012.0248718187213
0
LWPOLYLINE
5
101
100
AcDbEntity
8
0
100
AcDbPolyline
90
24
70
1
43
0.0
10
-557.6404858398281
20
852.23205279558897
10
-556.90843112944765
20
852.32842158526182
10
-556.17638118743309
20
852.23205279558897
10
-555.49421794890395
20
851.94948863238096
10
-554.90843303679628
20
851.50000285357237
10
-554.45893772125146
20
850.91420840471983
10
-554.17637832641014
20
850.23204039782286
10
-554.08000000000004
20
849.49999999254942
10
-554.17637832641014
20
848.76794051378965
10
-554.45893772125146
20
848.08577727526426
10
-554.90843303679628
20
847.49999236315489
10
-555.49421794890395
20
847.05050658434629
10
-556.17638118743309
20
846.76795195788145
10
-556.90843112944765
20
846.67155455797911
10
-557.6404858398281
20
846.76795195788145
10
-558.32264430998555
20
847.05050658434629
10
-558.90842922209333
20
847.49999236315489
10
-559.35792453763816
20
848.08577727526426
10
-559.64048393247947
20
848.76794051378965
10
-559.73686225889514
20
849.49999999254942
10
-559.64048393247947
20
850.23204039782286
10
-559.35792453763816
20
850.91420840471983
10
-558.90842922209333
20
851.50000285357237
10
-558.32264430998555
20
851.94948863238096
0
LINE
5
102
100
AcDbEntity
8
0
100
AcDbLine
10
-697.84852512319333
20
1039.8449439927936
30
0
11
-697.84852512319333
21
820.47263335436583
31
-4.8849813083506888e-14
0
LINE
5
103
100
AcDbEntity
8
0
100
AcDbLine
10
-697.84852512319333
20
820.47263335436583
30
-4.8849813083506888e-14
11
-697.70230777700237
21
819.39603041857481
31
-4.8849813083506888e-14
0
LINE
5
104
100
AcDbEntity
8
0
100
AcDbLine
10
-697.70230777700237
20
819.39603041857481
30
-4.8849813083506888e-14
11
-697.31126316030418
21
818.38236998766661
31
-4.8849813083506888e-14
0
LINE
5
105
100
AcDbEntity
8
0
100
AcDbLine
10
-697.31126316030418
20
818.38236998766661
30
-4.8849813083506888e-14
11
-696.69658191640951
21
817.48646926134825
31
-1.1990408665951691e-13
0
LINE
5
106
100
AcDbEntity
8
0
100
AcDbLine
10
-696.69658191640951
20
817.48646926134825
30
-1.1990408665951691e-13
11
-695.89150913198807
21
816.75685118883848
31
2.2204460492503131e-14
0
LINE
5
107
100
AcDbEntity
8
0
100
AcDbLine
10
-695.89150913198807
20
816.75685118883848
30
2.2204460492503131e-14
11
-694.93964679676856
21
816.23303603380919
31
-1.1990408665951691e-13
0
LINE
5
108
100
AcDbEntity
8
0
100
AcDbLine
10
-694.93964679676856
20
816.23303603380919
30
-1.1990408665951691e-13
11
-693.89249332387124
21
815.94332884997129
31
-5.3290705182007514e-14
0
LINE
5
109
100
AcDbEntity
8
0
100
AcDbLine
10
-693.89249332387124
20
815.94332884997129
30
-5.3290705182007514e-14
11
-692.80673511466273
21
815.90342711657286
31
-1.2434497875801753e-13
0
LINE
5
110
100
AcDbEntity
8
0
100
AcDbLine
10
-692.80673511466273
20
815.90342711657286
30
-1.2434497875801753e-13
11
-556.90843112944765
21
831.52392803095779
31
6.2172489379008766e-14
0
LINE
5
111
100
AcDbEntity
8
0
100
AcDbLine
10
-556.90843112944765
20
831.52392803095779
30
6.2172489379008766e-14
11
-512.00000000000011
21
713
31
2.6645352591003757e-14
0
LINE
5
112
100
AcDbEntity
8
0
100
AcDbLine
10
-512.00000000000011
20
713
30
2.6645352591003757e-14
11
-404.5
21
713
31
4.4408920985006262e-15
0
LINE
5
113
100
AcDbEntity
8
0
100
AcDbLine
10
-404.5
20
1023.0000000000001
30
0
11
-512.00000000000011
21
1023.0000000000001
31
2.6645352591003757e-14
0
LINE
5
114
100
AcDbEntity
8
0
100
AcDbLine
10
-512.00000000000011
20
1023.0000000000001
30
2.6645352591003757e-14
11
-556.90843112944765
21
1027.274511062988
31
3.5527136788005009e-14
0
LINE
5
115
100
AcDbEntity
8
0
100
AcDbLine
10
-556.90843112944765
20
1027.274511062988
30
3.5527136788005009e-14
11
-692.36886508901216
21
1044.6990127488971
31
0
0
LINE
5
116
100
AcDbEntity
8
0
100
AcDbLine
10
-692.36886508901216
20
1044.6990127488971
30
0
11
-693.40022571524696
21
1044.7128219529986
31
0
0
LINE
5
117
100
AcDbEntity
8
0
100
AcDbLine
10
-693.40022571524696
20
1044.7128219529986
30
0
11
-694.41165454825182
21
1044.5103664323688
31
-7.1054273576010019e-14
0
LINE
5
118
100
AcDbEntity
8
0
100
AcDbLine
10
-694.41165454825182
20
1044.5103664323688
30
-7.1054273576010019e-14
11
-695.35823352775287
21
1044.1006202623248
31
-7.1054273576010019e-14
0
LINE
5
119
100
AcDbEntity
8
0
100
AcDbLine
10
-695.35823352775287
20
1044.1006202623248
30
-7.1054273576010019e-14
11
-696.19807727773923
21
1043.5017509385943
31
-7.1054273576010019e-14
0
LINE
5
120
100
AcDbEntity
8
0
100
AcDbLine
10
-696.19807727773923
20
1043.5017509385943
30
-7.1054273576010019e-14
11
-696.89387805898718
21
1042.7403087541461
31
-7.1054273576010019e-14
0
LINE
5
121
100
AcDbEntity
8
0
100
AcDbLine
10
-696.89387805898718
20
1042.7403087541461
30
-7.1054273576010019e-14
11
-697.41483219106556
21
1041.8500537797809
31
0
0
LINE
5
122
100
AcDbEntity
8
0
100
AcDbLine
10
-697.41483219106556
20
1041.8500537797809
30
0
11
-697.73782260852818
21
1040.8704585954547
31
-7.1054273576010019e-14
0
LINE
5
123
100
AcDbEntity
8
0
100
AcDbLine
10
-697.73782260852818
20
1040.8704585954547
30
-7.1054273576010019e-14
11
-697.84852512319333
21
1039.8449439927936
31
0
0
LWPOLYLINE
5
124
100
AcDbEntity
8
0
100
AcDbPolyline
90
24
70
1
43
0.0
10
-687.6404906078244
20
932.2320456430316
10
-686.90843112908374
20
932.32842158526182
10
-686.17639072381257
20
932.2320456430316
10
-685.49422748527206
20
931.94948386400938
10
-684.90842349969489
20
931.499995701015
10
-684.45893772088766
20
930.91420602053404
10
-684.17638309440667
20
930.23204755038023
10
-684.08000476800794
20
929.49999522417784
10
-684.17638309440667
20
928.76794051378965
10
-684.45893772088766
20
928.08577727526426
10
-684.90842349969489
20
927.49999236315489
10
-685.49422748527206
20
927.05050658434629
10
-686.17639072381257
20
926.76794242113829
10
-686.90843112908374
20
926.67156886309385
10
-687.6404906078244
20
926.76794242113829
10
-688.3226538463648
20
927.05050658434629
10
-688.90843875847258
20
927.49999236315489
10
-689.35792453728004
20
928.08577727526426
10
-689.6404982372303
20
928.76794051378965
10
-689.73685749015976
20
929.49999522417784
10
-689.6404982372303
20
930.23204755038023
10
-689.35792453728004
20
930.91420602053404
10
-688.90843875847258
20
931.499995701015
10
-688.3226538463648
20
931.94948386400938
0
CIRCLE
5
125
100
AcDbEntity
8
0
100
AcDbCircle
10
-507.5
20
1018.5000000000001
30
2.2204460492503131e-14
40
2.250000000000008
210
0
220
-2.4651903288156619e-32
230
1
0
CIRCLE
5
126
100
AcDbEntity
8
0
100
AcDbCircle
10
-507.5
20
949.47825760629985
30
8.8817841970012523e-15
40
2.250000000000008
210
0
220
-2.4651903288156619e-32
230
1
0
CIRCLE
5
127
100
AcDbEntity
8
0
100
AcDbCircle
10
-507.5
20
909.47825760629985
30
0
40
2.250000000000008
210
0
220
-2.4651903288156619e-32
230
1
0
CIRCLE
5
128
100
AcDbEntity
8
0
100
AcDbCircle
10
-470.75000000000148
20
1018.5
30
1.3322676295501878e-14
40
2.250000000000008
210
0
220
-2.4651903288156619e-32
230
1
0
CIRCLE
5
129
100
AcDbEntity
8
0
100
AcDbCircle
10
-437.25000000000142
20
1018.5
30
8.8817841970012523e-15
40
2.250000000000008
210
0
220
-2.4651903288156619e-32
230
1
0
CIRCLE
5
130
100
AcDbEntity
8
0
100
AcDbCircle
10
-540.94483847212518
20
904.5
30
4.4408920985006262e-15
40
2.828500000000008
210
0
220
-2.4651903288156619e-32
230
1
0
CIRCLE
5
131
100
AcDbEntity
8
0
100
AcDbCircle
10
-540.94483847212518
20
957.5
30
1.7763568394002505e-14
40
2.828500000000008
210
0
220
-2.4651903288156619e-32
230
1
0
CIRCLE
5
132
100
AcDbEntity
8
0
100
AcDbCircle
10
-540.94483847212518
20
988.49999522417772
30
2.2204460492503131e-14
40
2.828500000000008
210
0
220
-2.4651903288156619e-32
230
1
0
CIRCLE
5
133
100
AcDbEntity
8
0
100
AcDbCircle
10
-415.00000007450586
20
970.98875201165697
30
-8.8817841970012523e-15
40
1.2999999999999901
210
0
220
-2.2204460492503128e-16
230
1
0
CIRCLE
5
134
100
AcDbEntity
8
0
100
AcDbCircle
10
-415.00000007450586
20
935.98875201165686
30
-1.3322676295501878e-14
40
1.3000000000000078
210
0
220
-2.2204460492503128e-16
230
1
0
CIRCLE
5
135
100
AcDbEntity
8
0
100
AcDbCircle
10
-474.25000000000136
20
717.5
30
2.2204460492503131e-14
40
2.250000000000008
210
0
220
-2.4651903288156619e-32
230
1
0
CIRCLE
5
136
100
AcDbEntity
8
0
100
AcDbCircle
10
-433.75000000000142
20
717.5
30
1.3322676295501878e-14
40
2.250000000000008
210
0
220
-2.4651903288156619e-32
230
1
0
CIRCLE
5
137
100
AcDbEntity
8
0
100
AcDbCircle
10
-507.5
20
717.5
30
2.6645352591003757e-14
40
2.250000000000008
210
0
220
-2.4651903288156619e-32
230
1
0
CIRCLE
5
138
100
AcDbEntity
8
0
100
AcDbCircle
10
-507.5
20
850.66875939443912
30
-1.3322676295501878e-14
40
2.250000000000008
210
0
220
-2.4651903288156619e-32
230
1
0
CIRCLE
5
139
100
AcDbEntity
8
0
100
AcDbCircle
10
-507.5
20
784.16875939443923
30
-2.6645352591003757e-14
40
2.250000000000008
210
0
220
-2.4651903288156619e-32
230
1
0
CIRCLE
5
140
100
AcDbEntity
8
0
100
AcDbCircle
10
-540.94483847212518
20
869.49999999254942
30
0
40
2.8285
210
0
220
-2.4651903288156619e-32
230
1
0
CIRCLE
5
141
100
AcDbEntity
8
0
100
AcDbCircle
10
-415.00000007450586
20
765.15000201165685
30
-5.3290705182007514e-14
40
1.2999999999999989
210
0
220
-2.2204460492503128e-16
230
1
0
CIRCLE
5
142
100
AcDbEntity
8
0
100
AcDbCircle
10
-415.00000007450586
20
800.15000201165685
30
-4.4408920985006262e-14
40
1.3
210
0
220
1.5860328923215603e-17
230
1
0
LINE
5
143
100
AcDbEntity
8
0
100
AcDbLine
10
-404.5
20
1023.0000000000001
30
0
11
-402
21
1023.0000000000002
31
0
0
LINE
5
144
100
AcDbEntity
8
0
100
AcDbLine
10
-404.5
20
713
30
4.4408920985006262e-15
11
-402.00000000000017
21
713
31
4.4408920985006262e-15
0
LINE
5
145
100
AcDbEntity
8
0
100
AcDbLine
10
-402
20
1023.0000000000002
30
0
11
-402.00000000000017
21
713
31
4.4408920985006262e-15
0
ENDSEC
0
SECTION
2
OBJECTS
0
DICTIONARY
5
C
100
AcDbDictionary
3
ACAD_GROUP
350
D
3
ACAD_MLINESTYLE
350
17
0
DICTIONARY
5
D
100
AcDbDictionary
0
DICTIONARY
5
1A
330
C
100
AcDbDictionary
0
DICTIONARY
5
17
100
AcDbDictionary
0
ENDSEC
0
EOF
