%TF.GenerationSoftware,KiCad,Pcbnew,(6.0.6)*%
%TF.CreationDate,2022-07-31T16:56:07+07:00*%
%TF.ProjectId,ONGEKI PCB,4f4e4745-4b49-4205-9043-422e6b696361,rev?*%
%TF.SameCoordinates,Original*%
%TF.FileFunction,Copper,L1,Top*%
%TF.FilePolarity,Positive*%
%FSLAX46Y46*%
G04 Gerber Fmt 4.6, Leading zero omitted, Abs format (unit mm)*
G04 Created by KiCad (PCBNEW (6.0.6)) date 2022-07-31 16:56:07*
%MOMM*%
%LPD*%
G01*
G04 APERTURE LIST*
G04 Aperture macros list*
%AMRoundRect*
0 Rectangle with rounded corners*
0 $1 Rounding radius*
0 $2 $3 $4 $5 $6 $7 $8 $9 X,Y pos of 4 corners*
0 Add a 4 corners polygon primitive as box body*
4,1,4,$2,$3,$4,$5,$6,$7,$8,$9,$2,$3,0*
0 Add four circle primitives for the rounded corners*
1,1,$1+$1,$2,$3*
1,1,$1+$1,$4,$5*
1,1,$1+$1,$6,$7*
1,1,$1+$1,$8,$9*
0 Add four rect primitives between the rounded corners*
20,1,$1+$1,$2,$3,$4,$5,0*
20,1,$1+$1,$4,$5,$6,$7,0*
20,1,$1+$1,$6,$7,$8,$9,0*
20,1,$1+$1,$8,$9,$2,$3,0*%
G04 Aperture macros list end*
%TA.AperFunction,ComponentPad*%
%ADD10RoundRect,0.250000X0.725000X-0.600000X0.725000X0.600000X-0.725000X0.600000X-0.725000X-0.600000X0*%
%TD*%
%TA.AperFunction,ComponentPad*%
%ADD11O,1.950000X1.700000*%
%TD*%
%TA.AperFunction,ComponentPad*%
%ADD12RoundRect,0.250000X-0.725000X0.600000X-0.725000X-0.600000X0.725000X-0.600000X0.725000X0.600000X0*%
%TD*%
%TA.AperFunction,ComponentPad*%
%ADD13RoundRect,0.250000X-0.600000X-0.725000X0.600000X-0.725000X0.600000X0.725000X-0.600000X0.725000X0*%
%TD*%
%TA.AperFunction,ComponentPad*%
%ADD14O,1.700000X1.950000*%
%TD*%
%TA.AperFunction,ComponentPad*%
%ADD15C,1.600000*%
%TD*%
%TA.AperFunction,ComponentPad*%
%ADD16R,1.600000X1.600000*%
%TD*%
%TA.AperFunction,ViaPad*%
%ADD17C,0.800000*%
%TD*%
%TA.AperFunction,Conductor*%
%ADD18C,0.250000*%
%TD*%
G04 APERTURE END LIST*
D10*
%TO.P,Func-L,1*%
%TO.N,GND1*%
X46465000Y-87570000D03*
D11*
%TO.P,Func-L,2*%
X46465000Y-85070000D03*
%TO.P,Func-L,3*%
%TO.N,PIN15*%
X46465000Y-82570000D03*
%TO.P,Func-L,4*%
X46465000Y-80070000D03*
%TD*%
D12*
%TO.P,Power VCC,1*%
%TO.N,VCC*%
X118110000Y-49784000D03*
D11*
%TO.P,Power VCC,2*%
X118110000Y-52284000D03*
%TO.P,Power VCC,3*%
X118110000Y-54784000D03*
%TO.P,Power VCC,4*%
X118110000Y-57284000D03*
%TD*%
D12*
%TO.P,Func-R,1*%
%TO.N,PIN10*%
X118093000Y-80324000D03*
D11*
%TO.P,Func-R,2*%
X118093000Y-82824000D03*
%TO.P,Func-R,3*%
%TO.N,GND1*%
X118093000Y-85324000D03*
%TO.P,Func-R,4*%
X118093000Y-87824000D03*
%TD*%
D12*
%TO.P,R-Button-1,1*%
%TO.N,L3OUT*%
X101600000Y-49530000D03*
D11*
%TO.P,R-Button-1,2*%
%TO.N,PIN6*%
X101600000Y-52030000D03*
%TO.P,R-Button-1,3*%
X101600000Y-54530000D03*
%TO.P,R-Button-1,4*%
%TO.N,GND1*%
X101600000Y-57030000D03*
%TO.P,R-Button-1,5*%
X101600000Y-59530000D03*
%TO.P,R-Button-1,6*%
%TO.N,R1OUT*%
X101600000Y-62030000D03*
%TD*%
D13*
%TO.P,Encoder/Potentiometer,1*%
%TO.N,VCC*%
X78546000Y-82279000D03*
D14*
%TO.P,Encoder/Potentiometer,2*%
%TO.N,PIN2/17*%
X81046000Y-82279000D03*
%TO.P,Encoder/Potentiometer,3*%
%TO.N,PIN3*%
X83546000Y-82279000D03*
%TO.P,Encoder/Potentiometer,4*%
%TO.N,GND2*%
X86046000Y-82279000D03*
%TD*%
D15*
%TO.P,ProMicro,VCC*%
%TO.N,VCC*%
X89916000Y-51562000D03*
D16*
%TO.P,ProMicro,TX0*%
%TO.N,TX0*%
X74676000Y-43942000D03*
D15*
%TO.P,ProMicro,RX1*%
%TO.N,RX1*%
X74676000Y-46482000D03*
%TO.P,ProMicro,RST*%
%TO.N,N/C*%
X89916000Y-49022000D03*
%TO.P,ProMicro,RAW*%
X89916000Y-43942000D03*
%TO.P,ProMicro,PIN8*%
%TO.N,PIN8*%
X74676000Y-69342000D03*
%TO.P,ProMicro,GND1*%
%TO.N,GND1*%
X74676000Y-49022000D03*
%TO.P,ProMicro,GND*%
%TO.N,GND2*%
X89916000Y-46482000D03*
%TO.N,GND1*%
X74676000Y-51562000D03*
%TO.P,ProMicro,A3*%
%TO.N,A3*%
X89916000Y-54102000D03*
%TO.P,ProMicro,A2*%
%TO.N,A2*%
X89916000Y-56642000D03*
%TO.P,ProMicro,A1*%
%TO.N,A1*%
X89916000Y-59182000D03*
%TO.P,ProMicro,A0*%
%TO.N,A0*%
X89916000Y-61722000D03*
%TO.P,ProMicro,16*%
%TO.N,PIN16*%
X89916000Y-69342000D03*
%TO.P,ProMicro,15*%
%TO.N,PIN15*%
X89916000Y-64262000D03*
%TO.P,ProMicro,14*%
%TO.N,PIN14*%
X89916000Y-66802000D03*
%TO.P,ProMicro,10*%
%TO.N,PIN10*%
X89916000Y-71882000D03*
%TO.P,ProMicro,9*%
%TO.N,PIN9*%
X74676000Y-71882000D03*
%TO.P,ProMicro,7*%
%TO.N,PIN7*%
X74676000Y-66802000D03*
%TO.P,ProMicro,6*%
%TO.N,PIN6*%
X74676000Y-64262000D03*
%TO.P,ProMicro,5*%
%TO.N,PIN5*%
X74676000Y-61722000D03*
%TO.P,ProMicro,4*%
%TO.N,PIN4*%
X74676000Y-59182000D03*
%TO.P,ProMicro,3*%
%TO.N,PIN3*%
X74676000Y-56642000D03*
%TO.P,ProMicro,2*%
%TO.N,PIN2/17*%
X74676000Y-54102000D03*
%TD*%
D10*
%TO.P,L-Button-1,1*%
%TO.N,L1OUT*%
X63500000Y-62130000D03*
D11*
%TO.P,L-Button-1,2*%
%TO.N,GND1*%
X63500000Y-59630000D03*
%TO.P,L-Button-1,3*%
X63500000Y-57130000D03*
%TO.P,L-Button-1,4*%
%TO.N,PIN9*%
X63500000Y-54630000D03*
%TO.P,L-Button-1,5*%
X63500000Y-52130000D03*
%TO.P,L-Button-1,6*%
%TO.N,A1*%
X63500000Y-49630000D03*
%TD*%
D12*
%TO.P,Side-R,1*%
%TO.N,PIN14*%
X118093000Y-95444000D03*
D11*
%TO.P,Side-R,2*%
X118093000Y-97944000D03*
%TO.P,Side-R,3*%
%TO.N,GND1*%
X118093000Y-100444000D03*
%TO.P,Side-R,4*%
X118093000Y-102944000D03*
%TD*%
D12*
%TO.P,R-Button-3,1*%
%TO.N,R2OUT*%
X101600000Y-90230000D03*
D11*
%TO.P,R-Button-3,2*%
%TO.N,PIN4*%
X101600000Y-92730000D03*
%TO.P,R-Button-3,3*%
X101600000Y-95230000D03*
%TO.P,R-Button-3,4*%
%TO.N,GND1*%
X101600000Y-97730000D03*
%TO.P,R-Button-3,5*%
X101600000Y-100230000D03*
%TO.P,R-Button-3,6*%
%TO.N,N/C*%
X101600000Y-102730000D03*
%TD*%
D12*
%TO.P,R-Button-2,1*%
%TO.N,R1OUT*%
X101600000Y-69810000D03*
D11*
%TO.P,R-Button-2,2*%
%TO.N,PIN5*%
X101600000Y-72310000D03*
%TO.P,R-Button-2,3*%
X101600000Y-74810000D03*
%TO.P,R-Button-2,4*%
%TO.N,GND1*%
X101600000Y-77310000D03*
%TO.P,R-Button-2,5*%
X101600000Y-79810000D03*
%TO.P,R-Button-2,6*%
%TO.N,R2OUT*%
X101600000Y-82310000D03*
%TD*%
D12*
%TO.P,Power GND,1*%
%TO.N,GND2*%
X118093000Y-64964000D03*
D11*
%TO.P,Power GND,2*%
X118093000Y-67464000D03*
%TO.P,Power GND,3*%
X118093000Y-69964000D03*
%TO.P,Power GND,4*%
X118093000Y-72464000D03*
%TD*%
D10*
%TO.P,Analog port,1*%
%TO.N,A0*%
X46465000Y-72330000D03*
D11*
%TO.P,Analog port,2*%
%TO.N,A1*%
X46465000Y-69830000D03*
%TO.P,Analog port,3*%
%TO.N,A2*%
X46465000Y-67330000D03*
%TO.P,Analog port,4*%
%TO.N,A3*%
X46465000Y-64830000D03*
%TD*%
D10*
%TO.P,Serial port,1*%
%TO.N,GND2*%
X46465000Y-57090000D03*
D11*
%TO.P,Serial port,2*%
%TO.N,RX1*%
X46465000Y-54590000D03*
%TO.P,Serial port,3*%
%TO.N,TX0*%
X46465000Y-52090000D03*
%TO.P,Serial port,4*%
%TO.N,VCC*%
X46465000Y-49590000D03*
%TD*%
D10*
%TO.P,L-Button-3,1*%
%TO.N,L3OUT*%
X63500000Y-102670000D03*
D11*
%TO.P,L-Button-3,2*%
%TO.N,GND1*%
X63500000Y-100170000D03*
%TO.P,L-Button-3,3*%
X63500000Y-97670000D03*
%TO.P,L-Button-3,4*%
%TO.N,PIN7*%
X63500000Y-95170000D03*
%TO.P,L-Button-3,5*%
X63500000Y-92670000D03*
%TO.P,L-Button-3,6*%
%TO.N,L2OUT*%
X63500000Y-90170000D03*
%TD*%
D10*
%TO.P,L-Button-2,1*%
%TO.N,L2OUT*%
X63500000Y-82350000D03*
D11*
%TO.P,L-Button-2,2*%
%TO.N,GND1*%
X63500000Y-79850000D03*
%TO.P,L-Button-2,3*%
X63500000Y-77350000D03*
%TO.P,L-Button-2,4*%
%TO.N,PIN8*%
X63500000Y-74850000D03*
%TO.P,L-Button-2,5*%
X63500000Y-72350000D03*
%TO.P,L-Button-2,6*%
%TO.N,L1OUT*%
X63500000Y-69850000D03*
%TD*%
D10*
%TO.P,Side-L,1*%
%TO.N,GND1*%
X46465000Y-102750000D03*
D11*
%TO.P,Side-L,2*%
X46465000Y-100250000D03*
%TO.P,Side-L,3*%
%TO.N,PIN16*%
X46465000Y-97750000D03*
%TO.P,Side-L,4*%
%TO.N,PIN10*%
X46465000Y-95250000D03*
%TD*%
D17*
%TO.N,PIN4*%
X81746600Y-77502900D03*
%TO.N,PIN5*%
X79581300Y-66217600D03*
%TD*%
D18*
%TO.N,PIN16*%
X45950800Y-96574700D02*
X46465000Y-96574700D01*
X45140400Y-95764300D02*
X45950800Y-96574700D01*
X45140400Y-94776000D02*
X45140400Y-95764300D01*
X54329200Y-85587200D02*
X45140400Y-94776000D01*
X62449800Y-85587200D02*
X54329200Y-85587200D01*
X73986700Y-74050300D02*
X62449800Y-85587200D01*
X85207700Y-74050300D02*
X73986700Y-74050300D01*
X89916000Y-69342000D02*
X85207700Y-74050300D01*
X46465000Y-97750000D02*
X46465000Y-96574700D01*
%TO.N,A0*%
X50120400Y-68674600D02*
X46465000Y-72330000D01*
X68935100Y-68674600D02*
X50120400Y-68674600D01*
X72117500Y-65492200D02*
X68935100Y-68674600D01*
X86145800Y-65492200D02*
X72117500Y-65492200D01*
X89916000Y-61722000D02*
X86145800Y-65492200D01*
%TO.N,A2*%
X86106000Y-60452000D02*
X89916000Y-56642000D01*
X68260300Y-60452000D02*
X86106000Y-60452000D01*
X61382300Y-67330000D02*
X68260300Y-60452000D01*
X46465000Y-67330000D02*
X61382300Y-67330000D01*
%TO.N,A3*%
X63245400Y-64830000D02*
X46465000Y-64830000D01*
X72703400Y-55372000D02*
X63245400Y-64830000D01*
X88646000Y-55372000D02*
X72703400Y-55372000D01*
X89916000Y-54102000D02*
X88646000Y-55372000D01*
%TO.N,PIN15*%
X51834400Y-73525300D02*
X46465000Y-78894700D01*
X80652700Y-73525300D02*
X51834400Y-73525300D01*
X89916000Y-64262000D02*
X80652700Y-73525300D01*
X46465000Y-80070000D02*
X46465000Y-78894700D01*
%TO.N,PIN10*%
X116329000Y-78560000D02*
X118093000Y-80324000D01*
X96594000Y-78560000D02*
X116329000Y-78560000D01*
X89916000Y-71882000D02*
X96594000Y-78560000D01*
X52720400Y-88994600D02*
X46465000Y-95250000D01*
X67523300Y-88994600D02*
X52720400Y-88994600D01*
X79740300Y-76777600D02*
X67523300Y-88994600D01*
X85020400Y-76777600D02*
X79740300Y-76777600D01*
X89916000Y-71882000D02*
X85020400Y-76777600D01*
%TO.N,GND2*%
X86106000Y-50292000D02*
X89916000Y-46482000D01*
X74145800Y-50292000D02*
X86106000Y-50292000D01*
X68557800Y-55880000D02*
X74145800Y-50292000D01*
X47675000Y-55880000D02*
X68557800Y-55880000D01*
X46465000Y-57090000D02*
X47675000Y-55880000D01*
%TO.N,GND1*%
X47640300Y-83894700D02*
X46465000Y-83894700D01*
X50509700Y-81025300D02*
X47640300Y-83894700D01*
X63500000Y-81025300D02*
X50509700Y-81025300D01*
X63500000Y-79850000D02*
X63500000Y-81025300D01*
X46465000Y-85070000D02*
X46465000Y-83894700D01*
X62119700Y-100250000D02*
X46465000Y-100250000D01*
X62199700Y-100170000D02*
X62119700Y-100250000D01*
X63500000Y-100170000D02*
X62199700Y-100170000D01*
X118093000Y-87824000D02*
X118093000Y-85324000D01*
X74676000Y-52832000D02*
X74676000Y-51562000D01*
X102904000Y-55726000D02*
X101600000Y-57030000D01*
X102904000Y-53992200D02*
X102904000Y-55726000D01*
X102191800Y-53280000D02*
X102904000Y-53992200D01*
X99199900Y-53280000D02*
X102191800Y-53280000D01*
X98751900Y-52832000D02*
X99199900Y-53280000D01*
X74676000Y-52832000D02*
X98751900Y-52832000D01*
X69108000Y-57130000D02*
X63500000Y-57130000D01*
X73406000Y-52832000D02*
X69108000Y-57130000D01*
X74676000Y-52832000D02*
X73406000Y-52832000D01*
X102114200Y-76134700D02*
X101600000Y-76134700D01*
X102924600Y-75324300D02*
X102114200Y-76134700D01*
X102924600Y-61515700D02*
X102924600Y-75324300D01*
X102114200Y-60705300D02*
X102924600Y-61515700D01*
X101600000Y-60705300D02*
X102114200Y-60705300D01*
X101600000Y-59530000D02*
X101600000Y-60705300D01*
X101600000Y-77310000D02*
X101600000Y-76134700D01*
%TO.N,PIN4*%
X86372900Y-77502900D02*
X81746600Y-77502900D01*
X100424700Y-91554700D02*
X86372900Y-77502900D01*
X101600000Y-91554700D02*
X100424700Y-91554700D01*
X101600000Y-92730000D02*
X101600000Y-91554700D01*
%TO.N,PIN5*%
X101600000Y-72310000D02*
X101600000Y-71134700D01*
X86294800Y-66217600D02*
X79581300Y-66217600D01*
X89414700Y-63097700D02*
X86294800Y-66217600D01*
X92387700Y-63097700D02*
X89414700Y-63097700D01*
X100424700Y-71134700D02*
X92387700Y-63097700D01*
X101600000Y-71134700D02*
X100424700Y-71134700D01*
%TO.N,PIN6*%
X101600000Y-54530000D02*
X101600000Y-55705300D01*
X82932900Y-64262000D02*
X74676000Y-64262000D01*
X89282900Y-57912000D02*
X82932900Y-64262000D01*
X98218000Y-57912000D02*
X89282900Y-57912000D01*
X100424700Y-55705300D02*
X98218000Y-57912000D01*
X101600000Y-55705300D02*
X100424700Y-55705300D01*
%TO.N,PIN8*%
X71668000Y-72350000D02*
X74676000Y-69342000D01*
X63500000Y-72350000D02*
X71668000Y-72350000D01*
%TO.N,VCC*%
X118110000Y-52284000D02*
X118110000Y-51108700D01*
X118110000Y-51108700D02*
X117447700Y-50446300D01*
X117056900Y-50837100D02*
X117447700Y-50446300D01*
X90640900Y-50837100D02*
X117056900Y-50837100D01*
X89916000Y-51562000D02*
X90640900Y-50837100D01*
X117447700Y-50446300D02*
X118110000Y-49784000D01*
%TO.N,TX0*%
X66578000Y-50914700D02*
X73550700Y-43942000D01*
X46465000Y-50914700D02*
X66578000Y-50914700D01*
X46465000Y-52090000D02*
X46465000Y-50914700D01*
X74676000Y-43942000D02*
X73550700Y-43942000D01*
%TD*%
%TA.AperFunction,Conductor*%
%TO.N,GND2*%
G36*
X126687621Y-40660502D02*
G01*
X126734114Y-40714158D01*
X126745500Y-40766500D01*
X126745500Y-111633500D01*
X126725498Y-111701621D01*
X126671842Y-111748114D01*
X126619500Y-111759500D01*
X37464500Y-111759500D01*
X37396379Y-111739498D01*
X37349886Y-111685842D01*
X37338500Y-111633500D01*
X37338500Y-108844703D01*
X38530743Y-108844703D01*
X38568268Y-109129734D01*
X38644129Y-109407036D01*
X38756923Y-109671476D01*
X38904561Y-109918161D01*
X39084313Y-110142528D01*
X39292851Y-110340423D01*
X39526317Y-110508186D01*
X39530112Y-110510195D01*
X39530113Y-110510196D01*
X39551869Y-110521715D01*
X39780392Y-110642712D01*
X40050373Y-110741511D01*
X40331264Y-110802755D01*
X40359841Y-110805004D01*
X40554282Y-110820307D01*
X40554291Y-110820307D01*
X40556739Y-110820500D01*
X40712271Y-110820500D01*
X40714407Y-110820354D01*
X40714418Y-110820354D01*
X40922548Y-110806165D01*
X40922554Y-110806164D01*
X40926825Y-110805873D01*
X40931020Y-110805004D01*
X40931022Y-110805004D01*
X41067583Y-110776724D01*
X41208342Y-110747574D01*
X41479343Y-110651607D01*
X41734812Y-110519750D01*
X41738313Y-110517289D01*
X41738317Y-110517287D01*
X41852418Y-110437095D01*
X41970023Y-110354441D01*
X42180622Y-110158740D01*
X42362713Y-109936268D01*
X42512927Y-109691142D01*
X42628483Y-109427898D01*
X42707244Y-109151406D01*
X42747751Y-108866784D01*
X42747845Y-108848951D01*
X42747867Y-108844703D01*
X121334743Y-108844703D01*
X121372268Y-109129734D01*
X121448129Y-109407036D01*
X121560923Y-109671476D01*
X121708561Y-109918161D01*
X121888313Y-110142528D01*
X122096851Y-110340423D01*
X122330317Y-110508186D01*
X122334112Y-110510195D01*
X122334113Y-110510196D01*
X122355869Y-110521715D01*
X122584392Y-110642712D01*
X122854373Y-110741511D01*
X123135264Y-110802755D01*
X123163841Y-110805004D01*
X123358282Y-110820307D01*
X123358291Y-110820307D01*
X123360739Y-110820500D01*
X123516271Y-110820500D01*
X123518407Y-110820354D01*
X123518418Y-110820354D01*
X123726548Y-110806165D01*
X123726554Y-110806164D01*
X123730825Y-110805873D01*
X123735020Y-110805004D01*
X123735022Y-110805004D01*
X123871583Y-110776724D01*
X124012342Y-110747574D01*
X124283343Y-110651607D01*
X124538812Y-110519750D01*
X124542313Y-110517289D01*
X124542317Y-110517287D01*
X124656418Y-110437095D01*
X124774023Y-110354441D01*
X124984622Y-110158740D01*
X125166713Y-109936268D01*
X125316927Y-109691142D01*
X125432483Y-109427898D01*
X125511244Y-109151406D01*
X125551751Y-108866784D01*
X125551845Y-108848951D01*
X125553235Y-108583583D01*
X125553235Y-108583576D01*
X125553257Y-108579297D01*
X125515732Y-108294266D01*
X125439871Y-108016964D01*
X125327077Y-107752524D01*
X125179439Y-107505839D01*
X124999687Y-107281472D01*
X124791149Y-107083577D01*
X124557683Y-106915814D01*
X124535843Y-106904250D01*
X124512654Y-106891972D01*
X124303608Y-106781288D01*
X124033627Y-106682489D01*
X123752736Y-106621245D01*
X123721685Y-106618801D01*
X123529718Y-106603693D01*
X123529709Y-106603693D01*
X123527261Y-106603500D01*
X123371729Y-106603500D01*
X123369593Y-106603646D01*
X123369582Y-106603646D01*
X123161452Y-106617835D01*
X123161446Y-106617836D01*
X123157175Y-106618127D01*
X123152980Y-106618996D01*
X123152978Y-106618996D01*
X123016416Y-106647277D01*
X122875658Y-106676426D01*
X122604657Y-106772393D01*
X122349188Y-106904250D01*
X122345687Y-106906711D01*
X122345683Y-106906713D01*
X122335594Y-106913804D01*
X122113977Y-107069559D01*
X121903378Y-107265260D01*
X121721287Y-107487732D01*
X121571073Y-107732858D01*
X121455517Y-107996102D01*
X121376756Y-108272594D01*
X121336249Y-108557216D01*
X121336227Y-108561505D01*
X121336226Y-108561512D01*
X121334765Y-108840417D01*
X121334743Y-108844703D01*
X42747867Y-108844703D01*
X42749235Y-108583583D01*
X42749235Y-108583576D01*
X42749257Y-108579297D01*
X42711732Y-108294266D01*
X42635871Y-108016964D01*
X42523077Y-107752524D01*
X42375439Y-107505839D01*
X42195687Y-107281472D01*
X41987149Y-107083577D01*
X41753683Y-106915814D01*
X41731843Y-106904250D01*
X41708654Y-106891972D01*
X41499608Y-106781288D01*
X41229627Y-106682489D01*
X40948736Y-106621245D01*
X40917685Y-106618801D01*
X40725718Y-106603693D01*
X40725709Y-106603693D01*
X40723261Y-106603500D01*
X40567729Y-106603500D01*
X40565593Y-106603646D01*
X40565582Y-106603646D01*
X40357452Y-106617835D01*
X40357446Y-106617836D01*
X40353175Y-106618127D01*
X40348980Y-106618996D01*
X40348978Y-106618996D01*
X40212416Y-106647277D01*
X40071658Y-106676426D01*
X39800657Y-106772393D01*
X39545188Y-106904250D01*
X39541687Y-106906711D01*
X39541683Y-106906713D01*
X39531594Y-106913804D01*
X39309977Y-107069559D01*
X39099378Y-107265260D01*
X38917287Y-107487732D01*
X38767073Y-107732858D01*
X38651517Y-107996102D01*
X38572756Y-108272594D01*
X38532249Y-108557216D01*
X38532227Y-108561505D01*
X38532226Y-108561512D01*
X38530765Y-108840417D01*
X38530743Y-108844703D01*
X37338500Y-108844703D01*
X37338500Y-94755943D01*
X44502180Y-94755943D01*
X44502926Y-94763835D01*
X44506341Y-94799961D01*
X44506900Y-94811819D01*
X44506900Y-95685533D01*
X44506373Y-95696716D01*
X44504698Y-95704209D01*
X44504947Y-95712135D01*
X44504947Y-95712136D01*
X44506838Y-95772286D01*
X44506900Y-95776221D01*
X44506900Y-95804156D01*
X44507397Y-95808090D01*
X44507397Y-95808091D01*
X44507405Y-95808156D01*
X44508338Y-95819993D01*
X44509727Y-95864189D01*
X44515378Y-95883639D01*
X44519387Y-95903000D01*
X44521926Y-95923097D01*
X44524845Y-95930468D01*
X44524845Y-95930470D01*
X44538204Y-95964212D01*
X44542049Y-95975442D01*
X44552171Y-96010283D01*
X44554382Y-96017893D01*
X44558415Y-96024712D01*
X44558417Y-96024717D01*
X44564693Y-96035328D01*
X44573388Y-96053076D01*
X44580848Y-96071917D01*
X44585510Y-96078333D01*
X44585510Y-96078334D01*
X44606836Y-96107687D01*
X44613352Y-96117607D01*
X44635858Y-96155662D01*
X44650179Y-96169983D01*
X44663019Y-96185016D01*
X44674928Y-96201407D01*
X44681034Y-96206458D01*
X44709005Y-96229598D01*
X44717784Y-96237588D01*
X45245265Y-96765069D01*
X45279291Y-96827381D01*
X45274226Y-96898196D01*
X45257259Y-96929377D01*
X45181246Y-97031542D01*
X45178830Y-97036293D01*
X45178828Y-97036297D01*
X45136670Y-97119217D01*
X45076760Y-97237051D01*
X45075178Y-97242145D01*
X45075177Y-97242148D01*
X45017997Y-97426296D01*
X45008393Y-97457227D01*
X45007692Y-97462516D01*
X44980753Y-97665774D01*
X44978102Y-97685774D01*
X44978302Y-97691103D01*
X44978302Y-97691105D01*
X44981973Y-97788895D01*
X44986751Y-97916158D01*
X45034093Y-98141791D01*
X45036051Y-98146750D01*
X45036052Y-98146752D01*
X45110878Y-98336221D01*
X45118776Y-98356221D01*
X45121543Y-98360780D01*
X45121544Y-98360783D01*
X45138338Y-98388458D01*
X45238377Y-98553317D01*
X45241874Y-98557347D01*
X45328438Y-98657103D01*
X45389477Y-98727445D01*
X45408151Y-98742757D01*
X45563627Y-98870240D01*
X45563633Y-98870244D01*
X45567755Y-98873624D01*
X45599250Y-98891552D01*
X45648555Y-98942632D01*
X45662417Y-99012262D01*
X45636434Y-99078333D01*
X45607284Y-99105573D01*
X45485681Y-99187441D01*
X45481824Y-99191120D01*
X45481822Y-99191122D01*
X45420975Y-99249168D01*
X45318865Y-99346576D01*
X45181246Y-99531542D01*
X45178830Y-99536293D01*
X45178828Y-99536297D01*
X45149342Y-99594293D01*
X45076760Y-99737051D01*
X45008393Y-99957227D01*
X45007692Y-99962516D01*
X44980753Y-100165774D01*
X44978102Y-100185774D01*
X44978302Y-100191103D01*
X44978302Y-100191105D01*
X44981973Y-100288895D01*
X44986751Y-100416158D01*
X45034093Y-100641791D01*
X45036051Y-100646750D01*
X45036052Y-100646752D01*
X45110878Y-100836221D01*
X45118776Y-100856221D01*
X45121543Y-100860780D01*
X45121544Y-100860783D01*
X45174747Y-100948458D01*
X45238377Y-101053317D01*
X45241874Y-101057347D01*
X45359546Y-101192952D01*
X45389477Y-101227445D01*
X45425120Y-101256670D01*
X45465114Y-101315329D01*
X45467046Y-101386299D01*
X45430302Y-101447048D01*
X45411532Y-101461248D01*
X45286391Y-101538688D01*
X45265652Y-101551522D01*
X45140695Y-101676697D01*
X45136855Y-101682927D01*
X45136854Y-101682928D01*
X45052130Y-101820376D01*
X45047885Y-101827262D01*
X45045581Y-101834209D01*
X45019171Y-101913834D01*
X44992203Y-101995139D01*
X44991503Y-102001975D01*
X44991502Y-102001978D01*
X44987548Y-102040576D01*
X44981500Y-102099600D01*
X44981500Y-103400400D01*
X44981837Y-103403646D01*
X44981837Y-103403650D01*
X44987861Y-103461704D01*
X44992474Y-103506166D01*
X45048450Y-103673946D01*
X45141522Y-103824348D01*
X45266697Y-103949305D01*
X45272927Y-103953145D01*
X45272928Y-103953146D01*
X45410090Y-104037694D01*
X45417262Y-104042115D01*
X45483967Y-104064240D01*
X45578611Y-104095632D01*
X45578613Y-104095632D01*
X45585139Y-104097797D01*
X45591975Y-104098497D01*
X45591978Y-104098498D01*
X45635031Y-104102909D01*
X45689600Y-104108500D01*
X47240400Y-104108500D01*
X47243646Y-104108163D01*
X47243650Y-104108163D01*
X47339308Y-104098238D01*
X47339312Y-104098237D01*
X47346166Y-104097526D01*
X47352702Y-104095345D01*
X47352704Y-104095345D01*
X47505056Y-104044516D01*
X47513946Y-104041550D01*
X47664348Y-103948478D01*
X47694447Y-103918327D01*
X47784134Y-103828483D01*
X47789305Y-103823303D01*
X47838618Y-103743303D01*
X47878275Y-103678968D01*
X47878276Y-103678966D01*
X47882115Y-103672738D01*
X47937797Y-103504861D01*
X47948500Y-103400400D01*
X47948500Y-102099600D01*
X47941994Y-102036897D01*
X47938238Y-102000692D01*
X47938237Y-102000688D01*
X47937526Y-101993834D01*
X47929771Y-101970588D01*
X47883868Y-101833002D01*
X47881550Y-101826054D01*
X47788478Y-101675652D01*
X47663303Y-101550695D01*
X47517660Y-101460919D01*
X47470168Y-101408148D01*
X47458744Y-101338076D01*
X47487018Y-101272952D01*
X47496805Y-101262490D01*
X47550956Y-101210832D01*
X47611135Y-101153424D01*
X47626016Y-101133424D01*
X47689010Y-101048757D01*
X47748754Y-100968458D01*
X47751170Y-100963706D01*
X47751175Y-100963698D01*
X47756922Y-100952394D01*
X47805625Y-100900737D01*
X47869238Y-100883500D01*
X62040933Y-100883500D01*
X62052116Y-100884027D01*
X62059609Y-100885702D01*
X62067535Y-100885453D01*
X62067536Y-100885453D01*
X62127686Y-100883562D01*
X62131645Y-100883500D01*
X62147950Y-100883500D01*
X62216071Y-100903502D01*
X62255669Y-100944135D01*
X62273377Y-100973317D01*
X62276874Y-100977347D01*
X62415503Y-101137103D01*
X62424477Y-101147445D01*
X62460120Y-101176670D01*
X62500114Y-101235329D01*
X62502046Y-101306299D01*
X62465302Y-101367048D01*
X62446532Y-101381248D01*
X62388092Y-101417412D01*
X62300652Y-101471522D01*
X62175695Y-101596697D01*
X62171855Y-101602927D01*
X62171854Y-101602928D01*
X62115080Y-101695033D01*
X62082885Y-101747262D01*
X62027203Y-101915139D01*
X62016500Y-102019600D01*
X62016500Y-103320400D01*
X62016837Y-103323646D01*
X62016837Y-103323650D01*
X62025138Y-103403650D01*
X62027474Y-103426166D01*
X62029655Y-103432702D01*
X62029655Y-103432704D01*
X62064567Y-103537347D01*
X62083450Y-103593946D01*
X62176522Y-103744348D01*
X62301697Y-103869305D01*
X62307927Y-103873145D01*
X62307928Y-103873146D01*
X62445090Y-103957694D01*
X62452262Y-103962115D01*
X62532005Y-103988564D01*
X62613611Y-104015632D01*
X62613613Y-104015632D01*
X62620139Y-104017797D01*
X62626975Y-104018497D01*
X62626978Y-104018498D01*
X62670031Y-104022909D01*
X62724600Y-104028500D01*
X64275400Y-104028500D01*
X64278646Y-104028163D01*
X64278650Y-104028163D01*
X64374308Y-104018238D01*
X64374312Y-104018237D01*
X64381166Y-104017526D01*
X64387702Y-104015345D01*
X64387704Y-104015345D01*
X64538509Y-103965032D01*
X64548946Y-103961550D01*
X64699348Y-103868478D01*
X64824305Y-103743303D01*
X64828146Y-103737072D01*
X64913275Y-103598968D01*
X64913276Y-103598966D01*
X64917115Y-103592738D01*
X64944097Y-103511389D01*
X64970632Y-103431389D01*
X64970632Y-103431387D01*
X64972797Y-103424861D01*
X64983500Y-103320400D01*
X64983500Y-102019600D01*
X64983163Y-102016350D01*
X64973238Y-101920692D01*
X64973237Y-101920688D01*
X64972526Y-101913834D01*
X64916550Y-101746054D01*
X64823478Y-101595652D01*
X64698303Y-101470695D01*
X64677522Y-101457885D01*
X64596833Y-101408148D01*
X64552660Y-101380919D01*
X64505168Y-101328148D01*
X64493744Y-101258076D01*
X64522018Y-101192952D01*
X64531805Y-101182490D01*
X64642278Y-101077103D01*
X64646135Y-101073424D01*
X64783754Y-100888458D01*
X64786244Y-100883562D01*
X64857734Y-100742949D01*
X64888240Y-100682949D01*
X64910843Y-100610158D01*
X64955024Y-100467871D01*
X64956607Y-100462773D01*
X64966901Y-100385105D01*
X64986198Y-100239511D01*
X64986198Y-100239506D01*
X64986898Y-100234226D01*
X64978249Y-100003842D01*
X64930907Y-99778209D01*
X64910108Y-99725542D01*
X64848185Y-99568744D01*
X64848184Y-99568742D01*
X64846224Y-99563779D01*
X64841423Y-99555866D01*
X64729390Y-99371243D01*
X64726623Y-99366683D01*
X64691820Y-99326576D01*
X64579023Y-99196588D01*
X64579021Y-99196586D01*
X64575523Y-99192555D01*
X64491595Y-99123738D01*
X64401373Y-99049760D01*
X64401367Y-99049756D01*
X64397245Y-99046376D01*
X64365750Y-99028448D01*
X64316445Y-98977368D01*
X64302583Y-98907738D01*
X64328566Y-98841667D01*
X64357716Y-98814427D01*
X64464171Y-98742757D01*
X64479319Y-98732559D01*
X64646135Y-98573424D01*
X64783754Y-98388458D01*
X64802669Y-98351256D01*
X64857734Y-98242949D01*
X64888240Y-98182949D01*
X64910843Y-98110158D01*
X64955024Y-97967871D01*
X64956607Y-97962773D01*
X64966901Y-97885105D01*
X64986198Y-97739511D01*
X64986198Y-97739506D01*
X64986898Y-97734226D01*
X64978249Y-97503842D01*
X64930907Y-97278209D01*
X64910108Y-97225542D01*
X64848185Y-97068744D01*
X64848184Y-97068742D01*
X64846224Y-97063779D01*
X64829548Y-97036297D01*
X64735578Y-96881441D01*
X64726623Y-96866683D01*
X64664041Y-96794563D01*
X64579023Y-96696588D01*
X64579021Y-96696586D01*
X64575523Y-96692555D01*
X64491595Y-96623738D01*
X64401373Y-96549760D01*
X64401367Y-96549756D01*
X64397245Y-96546376D01*
X64365750Y-96528448D01*
X64316445Y-96477368D01*
X64302583Y-96407738D01*
X64328566Y-96341667D01*
X64357716Y-96314427D01*
X64471849Y-96237588D01*
X64479319Y-96232559D01*
X64507801Y-96205389D01*
X64610218Y-96107687D01*
X64646135Y-96073424D01*
X64652741Y-96064546D01*
X64780568Y-95892740D01*
X64783754Y-95888458D01*
X64786205Y-95883639D01*
X64860326Y-95737852D01*
X64888240Y-95682949D01*
X64924321Y-95566752D01*
X64955024Y-95467871D01*
X64956607Y-95462773D01*
X64966143Y-95390827D01*
X64986198Y-95239511D01*
X64986198Y-95239506D01*
X64986898Y-95234226D01*
X64978249Y-95003842D01*
X64930907Y-94778209D01*
X64928948Y-94773248D01*
X64848185Y-94568744D01*
X64848184Y-94568742D01*
X64846224Y-94563779D01*
X64811928Y-94507260D01*
X64747252Y-94400679D01*
X64726623Y-94366683D01*
X64639755Y-94266576D01*
X64579023Y-94196588D01*
X64579021Y-94196586D01*
X64575523Y-94192555D01*
X64530606Y-94155725D01*
X64401373Y-94049760D01*
X64401367Y-94049756D01*
X64397245Y-94046376D01*
X64365750Y-94028448D01*
X64316445Y-93977368D01*
X64302583Y-93907738D01*
X64328566Y-93841667D01*
X64357716Y-93814427D01*
X64395665Y-93788878D01*
X64479319Y-93732559D01*
X64646135Y-93573424D01*
X64783754Y-93388458D01*
X64888240Y-93182949D01*
X64924321Y-93066752D01*
X64955024Y-92967871D01*
X64956607Y-92962773D01*
X64966143Y-92890827D01*
X64986198Y-92739511D01*
X64986198Y-92739506D01*
X64986898Y-92734226D01*
X64978249Y-92503842D01*
X64930907Y-92278209D01*
X64928948Y-92273248D01*
X64848185Y-92068744D01*
X64848184Y-92068742D01*
X64846224Y-92063779D01*
X64832413Y-92041018D01*
X64729390Y-91871243D01*
X64726623Y-91866683D01*
X64639755Y-91766576D01*
X64579023Y-91696588D01*
X64579021Y-91696586D01*
X64575523Y-91692555D01*
X64533970Y-91658484D01*
X64401373Y-91549760D01*
X64401367Y-91549756D01*
X64397245Y-91546376D01*
X64365750Y-91528448D01*
X64316445Y-91477368D01*
X64302583Y-91407738D01*
X64328566Y-91341667D01*
X64357716Y-91314427D01*
X64393642Y-91290240D01*
X64479319Y-91232559D01*
X64646135Y-91073424D01*
X64783754Y-90888458D01*
X64789487Y-90877183D01*
X64885822Y-90687704D01*
X64888240Y-90682949D01*
X64924321Y-90566752D01*
X64955024Y-90467871D01*
X64956607Y-90462773D01*
X64971475Y-90350596D01*
X64986198Y-90239511D01*
X64986198Y-90239506D01*
X64986898Y-90234226D01*
X64978249Y-90003842D01*
X64931277Y-89779973D01*
X64936864Y-89709198D01*
X64979829Y-89652677D01*
X65046531Y-89628358D01*
X65054592Y-89628100D01*
X67444533Y-89628100D01*
X67455716Y-89628627D01*
X67463209Y-89630302D01*
X67471135Y-89630053D01*
X67471136Y-89630053D01*
X67531286Y-89628162D01*
X67535245Y-89628100D01*
X67563156Y-89628100D01*
X67567091Y-89627603D01*
X67567156Y-89627595D01*
X67578993Y-89626662D01*
X67611251Y-89625648D01*
X67615270Y-89625522D01*
X67623189Y-89625273D01*
X67642643Y-89619621D01*
X67662000Y-89615613D01*
X67674230Y-89614068D01*
X67674231Y-89614068D01*
X67682097Y-89613074D01*
X67689468Y-89610155D01*
X67689470Y-89610155D01*
X67723212Y-89596796D01*
X67734442Y-89592951D01*
X67769283Y-89582829D01*
X67769284Y-89582829D01*
X67776893Y-89580618D01*
X67783712Y-89576585D01*
X67783717Y-89576583D01*
X67794328Y-89570307D01*
X67812076Y-89561612D01*
X67830917Y-89554152D01*
X67866687Y-89528164D01*
X67876607Y-89521648D01*
X67907835Y-89503180D01*
X67907838Y-89503178D01*
X67914662Y-89499142D01*
X67928983Y-89484821D01*
X67944017Y-89471980D01*
X67953994Y-89464731D01*
X67960407Y-89460072D01*
X67988598Y-89425995D01*
X67996588Y-89417216D01*
X74359405Y-83054400D01*
X77187500Y-83054400D01*
X77187837Y-83057646D01*
X77187837Y-83057650D01*
X77196875Y-83144752D01*
X77198474Y-83160166D01*
X77200655Y-83166702D01*
X77200655Y-83166704D01*
X77232405Y-83261870D01*
X77254450Y-83327946D01*
X77347522Y-83478348D01*
X77472697Y-83603305D01*
X77478927Y-83607145D01*
X77478928Y-83607146D01*
X77616090Y-83691694D01*
X77623262Y-83696115D01*
X77695852Y-83720192D01*
X77784611Y-83749632D01*
X77784613Y-83749632D01*
X77791139Y-83751797D01*
X77797975Y-83752497D01*
X77797978Y-83752498D01*
X77833663Y-83756154D01*
X77895600Y-83762500D01*
X79196400Y-83762500D01*
X79199646Y-83762163D01*
X79199650Y-83762163D01*
X79295308Y-83752238D01*
X79295312Y-83752237D01*
X79302166Y-83751526D01*
X79308702Y-83749345D01*
X79308704Y-83749345D01*
X79461110Y-83698498D01*
X79469946Y-83695550D01*
X79620348Y-83602478D01*
X79745305Y-83477303D01*
X79835081Y-83331660D01*
X79887852Y-83284168D01*
X79957924Y-83272744D01*
X80023048Y-83301018D01*
X80033510Y-83310805D01*
X80075215Y-83354523D01*
X80142576Y-83425135D01*
X80327542Y-83562754D01*
X80332293Y-83565170D01*
X80332297Y-83565172D01*
X80397129Y-83598134D01*
X80533051Y-83667240D01*
X80538145Y-83668822D01*
X80538148Y-83668823D01*
X80675751Y-83711550D01*
X80753227Y-83735607D01*
X80758516Y-83736308D01*
X80976489Y-83765198D01*
X80976494Y-83765198D01*
X80981774Y-83765898D01*
X80987103Y-83765698D01*
X80987105Y-83765698D01*
X81096966Y-83761574D01*
X81212158Y-83757249D01*
X81234802Y-83752498D01*
X81432572Y-83711002D01*
X81437791Y-83709907D01*
X81442750Y-83707949D01*
X81442752Y-83707948D01*
X81647256Y-83627185D01*
X81647258Y-83627184D01*
X81652221Y-83625224D01*
X81657525Y-83622006D01*
X81844757Y-83508390D01*
X81844756Y-83508390D01*
X81849317Y-83505623D01*
X81889134Y-83471072D01*
X82019412Y-83358023D01*
X82019414Y-83358021D01*
X82023445Y-83354523D01*
X82067316Y-83301018D01*
X82166240Y-83180373D01*
X82166244Y-83180367D01*
X82169624Y-83176245D01*
X82187552Y-83144750D01*
X82238632Y-83095445D01*
X82308262Y-83081583D01*
X82374333Y-83107566D01*
X82401573Y-83136716D01*
X82483441Y-83258319D01*
X82487120Y-83262176D01*
X82487122Y-83262178D01*
X82508100Y-83284168D01*
X82642576Y-83425135D01*
X82827542Y-83562754D01*
X82832293Y-83565170D01*
X82832297Y-83565172D01*
X82897129Y-83598134D01*
X83033051Y-83667240D01*
X83038145Y-83668822D01*
X83038148Y-83668823D01*
X83175751Y-83711550D01*
X83253227Y-83735607D01*
X83258516Y-83736308D01*
X83476489Y-83765198D01*
X83476494Y-83765198D01*
X83481774Y-83765898D01*
X83487103Y-83765698D01*
X83487105Y-83765698D01*
X83596966Y-83761574D01*
X83712158Y-83757249D01*
X83734802Y-83752498D01*
X83932572Y-83711002D01*
X83937791Y-83709907D01*
X83942750Y-83707949D01*
X83942752Y-83707948D01*
X84147256Y-83627185D01*
X84147258Y-83627184D01*
X84152221Y-83625224D01*
X84157525Y-83622006D01*
X84344757Y-83508390D01*
X84344756Y-83508390D01*
X84349317Y-83505623D01*
X84389134Y-83471072D01*
X84519412Y-83358023D01*
X84519414Y-83358021D01*
X84523445Y-83354523D01*
X84567316Y-83301018D01*
X84666240Y-83180373D01*
X84666244Y-83180367D01*
X84669624Y-83176245D01*
X84682681Y-83153308D01*
X84687829Y-83144265D01*
X84738912Y-83094959D01*
X84808542Y-83081098D01*
X84874613Y-83107082D01*
X84901851Y-83136232D01*
X84980852Y-83253578D01*
X84987519Y-83261870D01*
X85139228Y-83420900D01*
X85147186Y-83427941D01*
X85323525Y-83559141D01*
X85332562Y-83564745D01*
X85528484Y-83664357D01*
X85538335Y-83668357D01*
X85748240Y-83733534D01*
X85758624Y-83735817D01*
X85774043Y-83737861D01*
X85788207Y-83735665D01*
X85792000Y-83722478D01*
X85792000Y-83720192D01*
X86300000Y-83720192D01*
X86303973Y-83733723D01*
X86314580Y-83735248D01*
X86432421Y-83710523D01*
X86442617Y-83707463D01*
X86647029Y-83626737D01*
X86656561Y-83622006D01*
X86844462Y-83507984D01*
X86853052Y-83501720D01*
X87019052Y-83357673D01*
X87026472Y-83350042D01*
X87165826Y-83180089D01*
X87171850Y-83171322D01*
X87280576Y-82980318D01*
X87285041Y-82970654D01*
X87360031Y-82764059D01*
X87362802Y-82753792D01*
X87399504Y-82550826D01*
X87398085Y-82537586D01*
X87383450Y-82533000D01*
X86318115Y-82533000D01*
X86302876Y-82537475D01*
X86301671Y-82538865D01*
X86300000Y-82546548D01*
X86300000Y-83720192D01*
X85792000Y-83720192D01*
X85792000Y-82006885D01*
X86300000Y-82006885D01*
X86304475Y-82022124D01*
X86305865Y-82023329D01*
X86313548Y-82025000D01*
X87379849Y-82025000D01*
X87394527Y-82020690D01*
X87396590Y-82008807D01*
X87389876Y-81929675D01*
X87388086Y-81919203D01*
X87332870Y-81706465D01*
X87329335Y-81696425D01*
X87239063Y-81496030D01*
X87233894Y-81486744D01*
X87111150Y-81304425D01*
X87104481Y-81296130D01*
X86952772Y-81137100D01*
X86944814Y-81130059D01*
X86768475Y-80998859D01*
X86759438Y-80993255D01*
X86563516Y-80893643D01*
X86553665Y-80889643D01*
X86343760Y-80824466D01*
X86333376Y-80822183D01*
X86317957Y-80820139D01*
X86303793Y-80822335D01*
X86300000Y-80835522D01*
X86300000Y-82006885D01*
X85792000Y-82006885D01*
X85792000Y-80837808D01*
X85788027Y-80824277D01*
X85777420Y-80822752D01*
X85659579Y-80847477D01*
X85649383Y-80850537D01*
X85444971Y-80931263D01*
X85435439Y-80935994D01*
X85247538Y-81050016D01*
X85238948Y-81056280D01*
X85072948Y-81200327D01*
X85065528Y-81207958D01*
X84926174Y-81377911D01*
X84920152Y-81386674D01*
X84904762Y-81413711D01*
X84853680Y-81463018D01*
X84784049Y-81476880D01*
X84717978Y-81450897D01*
X84690739Y-81421747D01*
X84613983Y-81307738D01*
X84608559Y-81299681D01*
X84585637Y-81275652D01*
X84520725Y-81207608D01*
X84449424Y-81132865D01*
X84430370Y-81118688D01*
X84274385Y-81002632D01*
X84264458Y-80995246D01*
X84259707Y-80992830D01*
X84259703Y-80992828D01*
X84141588Y-80932776D01*
X84058949Y-80890760D01*
X84053855Y-80889178D01*
X84053852Y-80889177D01*
X83843871Y-80823976D01*
X83838773Y-80822393D01*
X83833484Y-80821692D01*
X83615511Y-80792802D01*
X83615506Y-80792802D01*
X83610226Y-80792102D01*
X83604897Y-80792302D01*
X83604895Y-80792302D01*
X83495034Y-80796427D01*
X83379842Y-80800751D01*
X83374623Y-80801846D01*
X83352566Y-80806474D01*
X83154209Y-80848093D01*
X83149250Y-80850051D01*
X83149248Y-80850052D01*
X82944744Y-80930815D01*
X82944742Y-80930816D01*
X82939779Y-80932776D01*
X82935220Y-80935543D01*
X82935217Y-80935544D01*
X82840113Y-80993255D01*
X82742683Y-81052377D01*
X82738653Y-81055874D01*
X82576870Y-81196262D01*
X82568555Y-81203477D01*
X82565168Y-81207608D01*
X82425760Y-81377627D01*
X82425756Y-81377633D01*
X82422376Y-81381755D01*
X82404448Y-81413250D01*
X82353368Y-81462555D01*
X82283738Y-81476417D01*
X82217667Y-81450434D01*
X82190427Y-81421284D01*
X82175518Y-81399139D01*
X82108559Y-81299681D01*
X82085637Y-81275652D01*
X82020725Y-81207608D01*
X81949424Y-81132865D01*
X81930370Y-81118688D01*
X81774385Y-81002632D01*
X81764458Y-80995246D01*
X81759707Y-80992830D01*
X81759703Y-80992828D01*
X81641588Y-80932776D01*
X81558949Y-80890760D01*
X81553855Y-80889178D01*
X81553852Y-80889177D01*
X81343871Y-80823976D01*
X81338773Y-80822393D01*
X81333484Y-80821692D01*
X81115511Y-80792802D01*
X81115506Y-80792802D01*
X81110226Y-80792102D01*
X81104897Y-80792302D01*
X81104895Y-80792302D01*
X80995034Y-80796427D01*
X80879842Y-80800751D01*
X80874623Y-80801846D01*
X80852566Y-80806474D01*
X80654209Y-80848093D01*
X80649250Y-80850051D01*
X80649248Y-80850052D01*
X80444744Y-80930815D01*
X80444742Y-80930816D01*
X80439779Y-80932776D01*
X80435220Y-80935543D01*
X80435217Y-80935544D01*
X80340113Y-80993255D01*
X80242683Y-81052377D01*
X80238653Y-81055874D01*
X80076870Y-81196262D01*
X80068555Y-81203477D01*
X80039330Y-81239120D01*
X79980671Y-81279114D01*
X79909701Y-81281046D01*
X79848952Y-81244302D01*
X79834752Y-81225532D01*
X79748332Y-81085880D01*
X79744478Y-81079652D01*
X79619303Y-80954695D01*
X79592342Y-80938076D01*
X79474968Y-80865725D01*
X79474966Y-80865724D01*
X79468738Y-80861885D01*
X79355353Y-80824277D01*
X79307389Y-80808368D01*
X79307387Y-80808368D01*
X79300861Y-80806203D01*
X79294025Y-80805503D01*
X79294022Y-80805502D01*
X79250969Y-80801091D01*
X79196400Y-80795500D01*
X77895600Y-80795500D01*
X77892354Y-80795837D01*
X77892350Y-80795837D01*
X77796692Y-80805762D01*
X77796688Y-80805763D01*
X77789834Y-80806474D01*
X77783298Y-80808655D01*
X77783296Y-80808655D01*
X77651194Y-80852728D01*
X77622054Y-80862450D01*
X77471652Y-80955522D01*
X77346695Y-81080697D01*
X77342855Y-81086927D01*
X77342854Y-81086928D01*
X77266036Y-81211550D01*
X77253885Y-81231262D01*
X77237096Y-81281880D01*
X77200879Y-81391072D01*
X77198203Y-81399139D01*
X77197503Y-81405975D01*
X77197502Y-81405978D01*
X77195445Y-81426054D01*
X77187500Y-81503600D01*
X77187500Y-83054400D01*
X74359405Y-83054400D01*
X79965800Y-77448005D01*
X80028112Y-77413979D01*
X80054895Y-77411100D01*
X80709996Y-77411100D01*
X80778117Y-77431102D01*
X80824610Y-77484758D01*
X80835306Y-77523929D01*
X80853058Y-77692828D01*
X80912073Y-77874456D01*
X80915376Y-77880178D01*
X80915377Y-77880179D01*
X80930572Y-77906498D01*
X81007560Y-78039844D01*
X81011978Y-78044751D01*
X81011979Y-78044752D01*
X81117101Y-78161502D01*
X81135347Y-78181766D01*
X81289848Y-78294018D01*
X81295876Y-78296702D01*
X81295878Y-78296703D01*
X81458281Y-78369009D01*
X81464312Y-78371694D01*
X81555365Y-78391048D01*
X81644656Y-78410028D01*
X81644661Y-78410028D01*
X81651113Y-78411400D01*
X81842087Y-78411400D01*
X81848539Y-78410028D01*
X81848544Y-78410028D01*
X81937835Y-78391048D01*
X82028888Y-78371694D01*
X82034919Y-78369009D01*
X82197322Y-78296703D01*
X82197324Y-78296702D01*
X82203352Y-78294018D01*
X82357853Y-78181766D01*
X82362268Y-78176863D01*
X82367180Y-78172440D01*
X82368305Y-78173689D01*
X82421614Y-78140849D01*
X82454800Y-78136400D01*
X86058306Y-78136400D01*
X86126427Y-78156402D01*
X86147401Y-78173305D01*
X99921043Y-91946947D01*
X99928587Y-91955237D01*
X99932700Y-91961718D01*
X99938477Y-91967143D01*
X99982367Y-92008358D01*
X99985209Y-92011113D01*
X100004930Y-92030834D01*
X100008125Y-92033312D01*
X100017147Y-92041018D01*
X100049379Y-92071286D01*
X100056328Y-92075106D01*
X100067132Y-92081046D01*
X100083656Y-92091899D01*
X100099659Y-92104313D01*
X100125499Y-92115495D01*
X100180070Y-92160905D01*
X100201429Y-92228613D01*
X100195786Y-92268494D01*
X100160381Y-92382516D01*
X100143393Y-92437227D01*
X100142692Y-92442516D01*
X100120348Y-92611105D01*
X100113102Y-92665774D01*
X100121751Y-92896158D01*
X100169093Y-93121791D01*
X100171051Y-93126750D01*
X100171052Y-93126752D01*
X100193246Y-93182949D01*
X100253776Y-93336221D01*
X100256543Y-93340780D01*
X100256544Y-93340783D01*
X100346045Y-93488276D01*
X100373377Y-93533317D01*
X100376874Y-93537347D01*
X100463438Y-93637103D01*
X100524477Y-93707445D01*
X100555106Y-93732559D01*
X100698627Y-93850240D01*
X100698633Y-93850244D01*
X100702755Y-93853624D01*
X100734250Y-93871552D01*
X100783555Y-93922632D01*
X100797417Y-93992262D01*
X100771434Y-94058333D01*
X100742284Y-94085573D01*
X100620681Y-94167441D01*
X100453865Y-94326576D01*
X100450682Y-94330854D01*
X100421815Y-94369652D01*
X100316246Y-94511542D01*
X100313830Y-94516293D01*
X100313828Y-94516297D01*
X100292007Y-94559217D01*
X100211760Y-94717051D01*
X100210178Y-94722145D01*
X100210177Y-94722148D01*
X100169472Y-94853238D01*
X100143393Y-94937227D01*
X100142692Y-94942516D01*
X100120348Y-95111105D01*
X100113102Y-95165774D01*
X100121751Y-95396158D01*
X100169093Y-95621791D01*
X100171051Y-95626750D01*
X100171052Y-95626752D01*
X100247370Y-95819999D01*
X100253776Y-95836221D01*
X100256543Y-95840780D01*
X100256544Y-95840783D01*
X100346045Y-95988276D01*
X100373377Y-96033317D01*
X100376874Y-96037347D01*
X100519238Y-96201407D01*
X100524477Y-96207445D01*
X100551495Y-96229598D01*
X100698627Y-96350240D01*
X100698633Y-96350244D01*
X100702755Y-96353624D01*
X100734250Y-96371552D01*
X100783555Y-96422632D01*
X100797417Y-96492262D01*
X100771434Y-96558333D01*
X100742284Y-96585573D01*
X100620681Y-96667441D01*
X100453865Y-96826576D01*
X100450682Y-96830854D01*
X100432029Y-96855924D01*
X100316246Y-97011542D01*
X100313830Y-97016293D01*
X100313828Y-97016297D01*
X100306077Y-97031542D01*
X100211760Y-97217051D01*
X100210178Y-97222145D01*
X100210177Y-97222148D01*
X100169469Y-97353248D01*
X100143393Y-97437227D01*
X100142692Y-97442516D01*
X100115706Y-97646129D01*
X100113102Y-97665774D01*
X100121751Y-97896158D01*
X100169093Y-98121791D01*
X100171051Y-98126750D01*
X100171052Y-98126752D01*
X100193246Y-98182949D01*
X100253776Y-98336221D01*
X100256543Y-98340780D01*
X100256544Y-98340783D01*
X100346045Y-98488276D01*
X100373377Y-98533317D01*
X100376874Y-98537347D01*
X100480793Y-98657103D01*
X100524477Y-98707445D01*
X100555106Y-98732559D01*
X100698627Y-98850240D01*
X100698633Y-98850244D01*
X100702755Y-98853624D01*
X100734250Y-98871552D01*
X100783555Y-98922632D01*
X100797417Y-98992262D01*
X100771434Y-99058333D01*
X100742284Y-99085573D01*
X100620681Y-99167441D01*
X100616824Y-99171120D01*
X100616822Y-99171122D01*
X100597905Y-99189168D01*
X100453865Y-99326576D01*
X100450682Y-99330854D01*
X100435802Y-99350854D01*
X100316246Y-99511542D01*
X100313830Y-99516293D01*
X100313828Y-99516297D01*
X100285686Y-99571649D01*
X100211760Y-99717051D01*
X100210178Y-99722145D01*
X100210177Y-99722148D01*
X100148115Y-99922020D01*
X100143393Y-99937227D01*
X100142692Y-99942516D01*
X100115706Y-100146129D01*
X100113102Y-100165774D01*
X100121751Y-100396158D01*
X100169093Y-100621791D01*
X100171051Y-100626750D01*
X100171052Y-100626752D01*
X100193246Y-100682949D01*
X100253776Y-100836221D01*
X100256543Y-100840780D01*
X100256544Y-100840783D01*
X100346045Y-100988276D01*
X100373377Y-101033317D01*
X100376874Y-101037347D01*
X100511901Y-101192952D01*
X100524477Y-101207445D01*
X100528608Y-101210832D01*
X100698627Y-101350240D01*
X100698633Y-101350244D01*
X100702755Y-101353624D01*
X100734250Y-101371552D01*
X100783555Y-101422632D01*
X100797417Y-101492262D01*
X100771434Y-101558333D01*
X100742284Y-101585573D01*
X100620681Y-101667441D01*
X100616824Y-101671120D01*
X100616822Y-101671122D01*
X100610978Y-101676697D01*
X100453865Y-101826576D01*
X100316246Y-102011542D01*
X100313830Y-102016293D01*
X100313828Y-102016297D01*
X100303355Y-102036897D01*
X100211760Y-102217051D01*
X100210178Y-102222145D01*
X100210177Y-102222148D01*
X100148115Y-102422020D01*
X100143393Y-102437227D01*
X100142692Y-102442516D01*
X100115706Y-102646129D01*
X100113102Y-102665774D01*
X100121751Y-102896158D01*
X100169093Y-103121791D01*
X100253776Y-103336221D01*
X100256543Y-103340780D01*
X100256544Y-103340783D01*
X100307564Y-103424861D01*
X100373377Y-103533317D01*
X100376874Y-103537347D01*
X100488332Y-103665791D01*
X100524477Y-103707445D01*
X100528608Y-103710832D01*
X100698627Y-103850240D01*
X100698633Y-103850244D01*
X100702755Y-103853624D01*
X100707391Y-103856263D01*
X100707394Y-103856265D01*
X100860286Y-103943296D01*
X100903114Y-103967675D01*
X101119825Y-104046337D01*
X101125074Y-104047286D01*
X101125077Y-104047287D01*
X101342608Y-104086623D01*
X101342615Y-104086624D01*
X101346692Y-104087361D01*
X101364414Y-104088197D01*
X101369356Y-104088430D01*
X101369363Y-104088430D01*
X101370844Y-104088500D01*
X101782890Y-104088500D01*
X101849809Y-104082822D01*
X101949409Y-104074371D01*
X101949413Y-104074370D01*
X101954720Y-104073920D01*
X101959875Y-104072582D01*
X101959881Y-104072581D01*
X102172703Y-104017343D01*
X102172707Y-104017342D01*
X102177872Y-104016001D01*
X102182738Y-104013809D01*
X102182741Y-104013808D01*
X102383202Y-103923507D01*
X102388075Y-103921312D01*
X102579319Y-103792559D01*
X102625523Y-103748483D01*
X102711211Y-103666740D01*
X102746135Y-103633424D01*
X102883754Y-103448458D01*
X102892433Y-103431389D01*
X102943690Y-103330572D01*
X102988240Y-103242949D01*
X103024321Y-103126752D01*
X103055024Y-103027871D01*
X103056607Y-103022773D01*
X103059242Y-103002895D01*
X103075560Y-102879774D01*
X116606102Y-102879774D01*
X116614751Y-103110158D01*
X116662093Y-103335791D01*
X116664051Y-103340750D01*
X116664052Y-103340752D01*
X116708279Y-103452740D01*
X116746776Y-103550221D01*
X116866377Y-103747317D01*
X116869874Y-103751347D01*
X116971515Y-103868478D01*
X117017477Y-103921445D01*
X117021608Y-103924832D01*
X117191627Y-104064240D01*
X117191633Y-104064244D01*
X117195755Y-104067624D01*
X117200391Y-104070263D01*
X117200394Y-104070265D01*
X117267564Y-104108500D01*
X117396114Y-104181675D01*
X117612825Y-104260337D01*
X117618074Y-104261286D01*
X117618077Y-104261287D01*
X117835608Y-104300623D01*
X117835615Y-104300624D01*
X117839692Y-104301361D01*
X117857414Y-104302197D01*
X117862356Y-104302430D01*
X117862363Y-104302430D01*
X117863844Y-104302500D01*
X118275890Y-104302500D01*
X118342809Y-104296822D01*
X118442409Y-104288371D01*
X118442413Y-104288370D01*
X118447720Y-104287920D01*
X118452875Y-104286582D01*
X118452881Y-104286581D01*
X118665703Y-104231343D01*
X118665707Y-104231342D01*
X118670872Y-104230001D01*
X118675738Y-104227809D01*
X118675741Y-104227808D01*
X118876202Y-104137507D01*
X118881075Y-104135312D01*
X119072319Y-104006559D01*
X119115851Y-103965032D01*
X119212171Y-103873146D01*
X119239135Y-103847424D01*
X119376754Y-103662458D01*
X119412202Y-103592738D01*
X119440364Y-103537347D01*
X119481240Y-103456949D01*
X119488769Y-103432704D01*
X119548024Y-103241871D01*
X119549607Y-103236773D01*
X119564189Y-103126752D01*
X119579198Y-103013511D01*
X119579198Y-103013506D01*
X119579898Y-103008226D01*
X119571249Y-102777842D01*
X119523907Y-102552209D01*
X119439224Y-102337779D01*
X119319623Y-102140683D01*
X119232755Y-102040576D01*
X119172023Y-101970588D01*
X119172021Y-101970586D01*
X119168523Y-101966555D01*
X119114981Y-101922653D01*
X118994373Y-101823760D01*
X118994367Y-101823756D01*
X118990245Y-101820376D01*
X118958750Y-101802448D01*
X118909445Y-101751368D01*
X118895583Y-101681738D01*
X118921566Y-101615667D01*
X118950716Y-101588427D01*
X118997836Y-101556704D01*
X119072319Y-101506559D01*
X119104494Y-101475866D01*
X119184611Y-101399437D01*
X119239135Y-101347424D01*
X119376754Y-101162458D01*
X119381348Y-101153424D01*
X119440364Y-101037347D01*
X119481240Y-100956949D01*
X119498695Y-100900737D01*
X119548024Y-100741871D01*
X119549607Y-100736773D01*
X119550308Y-100731484D01*
X119579198Y-100513511D01*
X119579198Y-100513506D01*
X119579898Y-100508226D01*
X119576242Y-100410827D01*
X119571449Y-100283173D01*
X119571249Y-100277842D01*
X119523907Y-100052209D01*
X119502745Y-99998623D01*
X119441185Y-99842744D01*
X119441184Y-99842742D01*
X119439224Y-99837779D01*
X119319623Y-99640683D01*
X119256382Y-99567804D01*
X119172023Y-99470588D01*
X119172021Y-99470586D01*
X119168523Y-99466555D01*
X119114981Y-99422653D01*
X118994373Y-99323760D01*
X118994367Y-99323756D01*
X118990245Y-99320376D01*
X118958750Y-99302448D01*
X118909445Y-99251368D01*
X118895583Y-99181738D01*
X118921566Y-99115667D01*
X118950716Y-99088427D01*
X118995416Y-99058333D01*
X119072319Y-99006559D01*
X119080278Y-98998967D01*
X119208905Y-98876262D01*
X119239135Y-98847424D01*
X119376754Y-98662458D01*
X119381348Y-98653424D01*
X119440364Y-98537347D01*
X119481240Y-98456949D01*
X119517321Y-98340752D01*
X119548024Y-98241871D01*
X119549607Y-98236773D01*
X119550308Y-98231484D01*
X119579198Y-98013511D01*
X119579198Y-98013506D01*
X119579898Y-98008226D01*
X119576242Y-97910827D01*
X119571449Y-97783173D01*
X119571249Y-97777842D01*
X119523907Y-97552209D01*
X119502745Y-97498623D01*
X119441185Y-97342744D01*
X119441184Y-97342742D01*
X119439224Y-97337779D01*
X119319623Y-97140683D01*
X119257198Y-97068744D01*
X119172023Y-96970588D01*
X119172021Y-96970586D01*
X119168523Y-96966555D01*
X119132880Y-96937330D01*
X119092886Y-96878671D01*
X119090954Y-96807701D01*
X119127698Y-96746952D01*
X119146468Y-96732752D01*
X119286120Y-96646332D01*
X119292348Y-96642478D01*
X119417305Y-96517303D01*
X119441108Y-96478688D01*
X119506275Y-96372968D01*
X119506276Y-96372966D01*
X119510115Y-96366738D01*
X119555841Y-96228878D01*
X119563632Y-96205389D01*
X119563632Y-96205387D01*
X119565797Y-96198861D01*
X119567216Y-96185017D01*
X119574646Y-96112492D01*
X119576500Y-96094400D01*
X119576500Y-94793600D01*
X119574903Y-94778209D01*
X119566238Y-94694692D01*
X119566237Y-94694688D01*
X119565526Y-94687834D01*
X119556957Y-94662148D01*
X119511868Y-94527002D01*
X119509550Y-94520054D01*
X119416478Y-94369652D01*
X119291303Y-94244695D01*
X119285072Y-94240854D01*
X119146968Y-94155725D01*
X119146966Y-94155724D01*
X119140738Y-94151885D01*
X119017841Y-94111122D01*
X118979389Y-94098368D01*
X118979387Y-94098368D01*
X118972861Y-94096203D01*
X118966025Y-94095503D01*
X118966022Y-94095502D01*
X118922969Y-94091091D01*
X118868400Y-94085500D01*
X117317600Y-94085500D01*
X117314354Y-94085837D01*
X117314350Y-94085837D01*
X117218692Y-94095762D01*
X117218688Y-94095763D01*
X117211834Y-94096474D01*
X117205298Y-94098655D01*
X117205296Y-94098655D01*
X117073194Y-94142728D01*
X117044054Y-94152450D01*
X116893652Y-94245522D01*
X116768695Y-94370697D01*
X116764855Y-94376927D01*
X116764854Y-94376928D01*
X116681877Y-94511542D01*
X116675885Y-94521262D01*
X116620203Y-94689139D01*
X116619503Y-94695975D01*
X116619502Y-94695978D01*
X116617830Y-94712296D01*
X116609500Y-94793600D01*
X116609500Y-96094400D01*
X116609837Y-96097646D01*
X116609837Y-96097650D01*
X116616439Y-96161273D01*
X116620474Y-96200166D01*
X116676450Y-96367946D01*
X116769522Y-96518348D01*
X116894697Y-96643305D01*
X117040340Y-96733081D01*
X117087832Y-96785852D01*
X117099256Y-96855924D01*
X117070982Y-96921048D01*
X117061195Y-96931510D01*
X116946865Y-97040576D01*
X116809246Y-97225542D01*
X116806830Y-97230293D01*
X116806828Y-97230297D01*
X116800803Y-97242148D01*
X116704760Y-97431051D01*
X116703178Y-97436145D01*
X116703177Y-97436148D01*
X116663527Y-97563842D01*
X116636393Y-97651227D01*
X116635692Y-97656516D01*
X116611883Y-97836158D01*
X116606102Y-97879774D01*
X116614751Y-98110158D01*
X116662093Y-98335791D01*
X116664051Y-98340750D01*
X116664052Y-98340752D01*
X116708279Y-98452740D01*
X116746776Y-98550221D01*
X116866377Y-98747317D01*
X116869874Y-98751347D01*
X117005583Y-98907738D01*
X117017477Y-98921445D01*
X117021608Y-98924832D01*
X117191627Y-99064240D01*
X117191633Y-99064244D01*
X117195755Y-99067624D01*
X117227250Y-99085552D01*
X117276555Y-99136632D01*
X117290417Y-99206262D01*
X117264434Y-99272333D01*
X117235284Y-99299573D01*
X117113681Y-99381441D01*
X116946865Y-99540576D01*
X116943682Y-99544854D01*
X116938718Y-99551526D01*
X116809246Y-99725542D01*
X116806830Y-99730293D01*
X116806828Y-99730297D01*
X116800803Y-99742148D01*
X116704760Y-99931051D01*
X116703178Y-99936145D01*
X116703177Y-99936148D01*
X116663527Y-100063842D01*
X116636393Y-100151227D01*
X116635692Y-100156516D01*
X116620304Y-100272623D01*
X116606102Y-100379774D01*
X116614751Y-100610158D01*
X116662093Y-100835791D01*
X116664051Y-100840750D01*
X116664052Y-100840752D01*
X116708279Y-100952740D01*
X116746776Y-101050221D01*
X116866377Y-101247317D01*
X116869874Y-101251347D01*
X117000780Y-101402203D01*
X117017477Y-101421445D01*
X117021608Y-101424832D01*
X117191627Y-101564240D01*
X117191633Y-101564244D01*
X117195755Y-101567624D01*
X117227250Y-101585552D01*
X117276555Y-101636632D01*
X117290417Y-101706262D01*
X117264434Y-101772333D01*
X117235284Y-101799573D01*
X117113681Y-101881441D01*
X117109824Y-101885120D01*
X117109822Y-101885122D01*
X117079724Y-101913834D01*
X116946865Y-102040576D01*
X116809246Y-102225542D01*
X116704760Y-102431051D01*
X116703178Y-102436145D01*
X116703177Y-102436148D01*
X116663527Y-102563842D01*
X116636393Y-102651227D01*
X116635692Y-102656516D01*
X116620304Y-102772623D01*
X116606102Y-102879774D01*
X103075560Y-102879774D01*
X103086198Y-102799511D01*
X103086198Y-102799506D01*
X103086898Y-102794226D01*
X103078249Y-102563842D01*
X103030907Y-102338209D01*
X102988290Y-102230297D01*
X102948185Y-102128744D01*
X102948184Y-102128742D01*
X102946224Y-102123779D01*
X102826623Y-101926683D01*
X102784778Y-101878461D01*
X102679023Y-101756588D01*
X102679021Y-101756586D01*
X102675523Y-101752555D01*
X102633970Y-101718484D01*
X102501373Y-101609760D01*
X102501367Y-101609756D01*
X102497245Y-101606376D01*
X102465750Y-101588448D01*
X102416445Y-101537368D01*
X102402583Y-101467738D01*
X102428566Y-101401667D01*
X102457716Y-101374427D01*
X102511710Y-101338076D01*
X102579319Y-101292559D01*
X102599873Y-101272952D01*
X102694701Y-101182490D01*
X102746135Y-101133424D01*
X102883754Y-100948458D01*
X102912083Y-100892740D01*
X102985822Y-100747704D01*
X102988240Y-100742949D01*
X103008454Y-100677852D01*
X103055024Y-100527871D01*
X103056607Y-100522773D01*
X103070046Y-100421377D01*
X103086198Y-100299511D01*
X103086198Y-100299506D01*
X103086898Y-100294226D01*
X103084646Y-100234226D01*
X103078449Y-100069173D01*
X103078249Y-100063842D01*
X103030907Y-99838209D01*
X103005253Y-99773248D01*
X102948185Y-99628744D01*
X102948184Y-99628742D01*
X102946224Y-99623779D01*
X102936439Y-99607653D01*
X102829390Y-99431243D01*
X102826623Y-99426683D01*
X102757110Y-99346576D01*
X102679023Y-99256588D01*
X102679021Y-99256586D01*
X102675523Y-99252555D01*
X102633970Y-99218484D01*
X102501373Y-99109760D01*
X102501367Y-99109756D01*
X102497245Y-99106376D01*
X102465750Y-99088448D01*
X102416445Y-99037368D01*
X102402583Y-98967738D01*
X102428566Y-98901667D01*
X102457716Y-98874427D01*
X102506376Y-98841667D01*
X102579319Y-98792559D01*
X102746135Y-98633424D01*
X102883754Y-98448458D01*
X102912083Y-98392740D01*
X102969004Y-98280783D01*
X102988240Y-98242949D01*
X103008454Y-98177852D01*
X103055024Y-98027871D01*
X103056607Y-98022773D01*
X103070046Y-97921377D01*
X103086198Y-97799511D01*
X103086198Y-97799506D01*
X103086898Y-97794226D01*
X103084646Y-97734226D01*
X103078449Y-97569173D01*
X103078249Y-97563842D01*
X103030907Y-97338209D01*
X103005253Y-97273248D01*
X102948185Y-97128744D01*
X102948184Y-97128742D01*
X102946224Y-97123779D01*
X102826623Y-96926683D01*
X102787364Y-96881441D01*
X102679023Y-96756588D01*
X102679021Y-96756586D01*
X102675523Y-96752555D01*
X102633970Y-96718484D01*
X102501373Y-96609760D01*
X102501367Y-96609756D01*
X102497245Y-96606376D01*
X102465750Y-96588448D01*
X102416445Y-96537368D01*
X102402583Y-96467738D01*
X102428566Y-96401667D01*
X102457716Y-96374427D01*
X102506376Y-96341667D01*
X102579319Y-96292559D01*
X102746135Y-96133424D01*
X102883754Y-95948458D01*
X102896649Y-95923097D01*
X102971311Y-95776245D01*
X102988240Y-95742949D01*
X103006069Y-95685533D01*
X103055024Y-95527871D01*
X103056607Y-95522773D01*
X103065260Y-95457484D01*
X103086198Y-95299511D01*
X103086198Y-95299506D01*
X103086898Y-95294226D01*
X103084646Y-95234226D01*
X103078449Y-95069173D01*
X103078249Y-95063842D01*
X103030907Y-94838209D01*
X103014580Y-94796866D01*
X102948185Y-94628744D01*
X102948184Y-94628742D01*
X102946224Y-94623779D01*
X102926079Y-94590580D01*
X102829390Y-94431243D01*
X102826623Y-94426683D01*
X102771061Y-94362653D01*
X102679023Y-94256588D01*
X102679021Y-94256586D01*
X102675523Y-94252555D01*
X102633970Y-94218484D01*
X102501373Y-94109760D01*
X102501367Y-94109756D01*
X102497245Y-94106376D01*
X102465750Y-94088448D01*
X102416445Y-94037368D01*
X102402583Y-93967738D01*
X102428566Y-93901667D01*
X102457716Y-93874427D01*
X102546837Y-93814427D01*
X102579319Y-93792559D01*
X102746135Y-93633424D01*
X102883754Y-93448458D01*
X102912083Y-93392740D01*
X102969004Y-93280783D01*
X102988240Y-93242949D01*
X103008454Y-93177852D01*
X103055024Y-93027871D01*
X103056607Y-93022773D01*
X103065260Y-92957484D01*
X103086198Y-92799511D01*
X103086198Y-92799506D01*
X103086898Y-92794226D01*
X103084646Y-92734226D01*
X103078449Y-92569173D01*
X103078249Y-92563842D01*
X103030907Y-92338209D01*
X102983059Y-92217051D01*
X102948185Y-92128744D01*
X102948184Y-92128742D01*
X102946224Y-92123779D01*
X102936322Y-92107460D01*
X102839109Y-91947260D01*
X102826623Y-91926683D01*
X102687690Y-91766576D01*
X102679023Y-91756588D01*
X102679021Y-91756586D01*
X102675523Y-91752555D01*
X102639880Y-91723330D01*
X102599886Y-91664671D01*
X102597954Y-91593701D01*
X102634698Y-91532952D01*
X102653468Y-91518752D01*
X102793120Y-91432332D01*
X102799348Y-91428478D01*
X102924305Y-91303303D01*
X102966076Y-91235539D01*
X103013275Y-91158968D01*
X103013276Y-91158966D01*
X103017115Y-91152738D01*
X103072797Y-90984861D01*
X103083500Y-90880400D01*
X103083500Y-89579600D01*
X103072526Y-89473834D01*
X103065898Y-89453966D01*
X103018868Y-89313002D01*
X103016550Y-89306054D01*
X102923478Y-89155652D01*
X102798303Y-89030695D01*
X102776908Y-89017507D01*
X102653968Y-88941725D01*
X102653966Y-88941724D01*
X102647738Y-88937885D01*
X102567995Y-88911436D01*
X102486389Y-88884368D01*
X102486387Y-88884368D01*
X102479861Y-88882203D01*
X102473025Y-88881503D01*
X102473022Y-88881502D01*
X102429969Y-88877091D01*
X102375400Y-88871500D01*
X100824600Y-88871500D01*
X100821354Y-88871837D01*
X100821350Y-88871837D01*
X100725692Y-88881762D01*
X100725688Y-88881763D01*
X100718834Y-88882474D01*
X100712298Y-88884655D01*
X100712296Y-88884655D01*
X100610857Y-88918498D01*
X100551054Y-88938450D01*
X100400652Y-89031522D01*
X100395479Y-89036704D01*
X100368733Y-89063497D01*
X100275695Y-89156697D01*
X100271855Y-89162927D01*
X100271854Y-89162928D01*
X100260372Y-89181556D01*
X100182885Y-89307262D01*
X100127203Y-89475139D01*
X100126503Y-89481975D01*
X100126502Y-89481978D01*
X100124744Y-89499142D01*
X100116500Y-89579600D01*
X100116500Y-90046406D01*
X100096498Y-90114527D01*
X100042842Y-90161020D01*
X99972568Y-90171124D01*
X99907988Y-90141630D01*
X99901405Y-90135501D01*
X93493329Y-83727424D01*
X86876552Y-77110647D01*
X86869012Y-77102361D01*
X86864900Y-77095882D01*
X86815248Y-77049256D01*
X86812407Y-77046502D01*
X86792670Y-77026765D01*
X86789473Y-77024285D01*
X86780451Y-77016580D01*
X86754000Y-76991741D01*
X86748221Y-76986314D01*
X86741275Y-76982495D01*
X86741272Y-76982493D01*
X86730466Y-76976552D01*
X86713947Y-76965701D01*
X86713483Y-76965341D01*
X86697941Y-76953286D01*
X86690672Y-76950141D01*
X86690668Y-76950138D01*
X86657363Y-76935726D01*
X86646713Y-76930509D01*
X86607960Y-76909205D01*
X86588337Y-76904167D01*
X86569634Y-76897763D01*
X86558320Y-76892867D01*
X86558319Y-76892867D01*
X86551045Y-76889719D01*
X86543222Y-76888480D01*
X86543212Y-76888477D01*
X86507376Y-76882801D01*
X86495756Y-76880395D01*
X86460611Y-76871372D01*
X86460610Y-76871372D01*
X86452930Y-76869400D01*
X86432676Y-76869400D01*
X86412965Y-76867849D01*
X86400786Y-76865920D01*
X86392957Y-76864680D01*
X86385065Y-76865426D01*
X86348939Y-76868841D01*
X86337081Y-76869400D01*
X86128694Y-76869400D01*
X86060573Y-76849398D01*
X86014080Y-76795742D01*
X86003976Y-76725468D01*
X86033470Y-76660888D01*
X86039599Y-76654305D01*
X89502752Y-73191152D01*
X89565064Y-73157126D01*
X89624459Y-73158541D01*
X89682591Y-73174118D01*
X89682602Y-73174120D01*
X89687913Y-73175543D01*
X89916000Y-73195498D01*
X90144087Y-73175543D01*
X90149398Y-73174120D01*
X90149409Y-73174118D01*
X90207541Y-73158541D01*
X90278517Y-73160230D01*
X90329248Y-73191152D01*
X96090343Y-78952247D01*
X96097887Y-78960537D01*
X96102000Y-78967018D01*
X96107777Y-78972443D01*
X96151667Y-79013658D01*
X96154509Y-79016413D01*
X96174230Y-79036134D01*
X96177425Y-79038612D01*
X96186447Y-79046318D01*
X96218679Y-79076586D01*
X96225628Y-79080406D01*
X96236432Y-79086346D01*
X96252956Y-79097199D01*
X96268959Y-79109613D01*
X96309543Y-79127176D01*
X96320173Y-79132383D01*
X96358940Y-79153695D01*
X96366617Y-79155666D01*
X96366622Y-79155668D01*
X96378558Y-79158732D01*
X96397266Y-79165137D01*
X96415855Y-79173181D01*
X96423683Y-79174421D01*
X96423690Y-79174423D01*
X96459524Y-79180099D01*
X96471144Y-79182505D01*
X96506289Y-79191528D01*
X96513970Y-79193500D01*
X96534224Y-79193500D01*
X96553934Y-79195051D01*
X96573943Y-79198220D01*
X96581835Y-79197474D01*
X96617961Y-79194059D01*
X96629819Y-79193500D01*
X100072855Y-79193500D01*
X100140976Y-79213502D01*
X100187469Y-79267158D01*
X100197573Y-79337432D01*
X100193187Y-79356864D01*
X100160098Y-79463428D01*
X100143393Y-79517227D01*
X100142692Y-79522516D01*
X100114344Y-79736404D01*
X100113102Y-79745774D01*
X100113302Y-79751103D01*
X100113302Y-79751105D01*
X100114804Y-79791105D01*
X100121751Y-79976158D01*
X100122846Y-79981377D01*
X100130144Y-80016158D01*
X100169093Y-80201791D01*
X100171051Y-80206750D01*
X100171052Y-80206752D01*
X100250066Y-80406826D01*
X100253776Y-80416221D01*
X100256543Y-80420780D01*
X100256544Y-80420783D01*
X100321883Y-80528458D01*
X100373377Y-80613317D01*
X100376874Y-80617347D01*
X100498148Y-80757103D01*
X100524477Y-80787445D01*
X100564350Y-80820139D01*
X100698627Y-80930240D01*
X100698633Y-80930244D01*
X100702755Y-80933624D01*
X100734250Y-80951552D01*
X100783555Y-81002632D01*
X100797417Y-81072262D01*
X100771434Y-81138333D01*
X100742284Y-81165573D01*
X100620681Y-81247441D01*
X100616824Y-81251120D01*
X100616822Y-81251122D01*
X100557540Y-81307675D01*
X100453865Y-81406576D01*
X100316246Y-81591542D01*
X100313830Y-81596293D01*
X100313828Y-81596297D01*
X100279967Y-81662897D01*
X100211760Y-81797051D01*
X100210178Y-81802145D01*
X100210177Y-81802148D01*
X100161406Y-81959217D01*
X100143393Y-82017227D01*
X100142692Y-82022516D01*
X100127304Y-82138623D01*
X100113102Y-82245774D01*
X100121751Y-82476158D01*
X100122846Y-82481377D01*
X100134415Y-82536516D01*
X100169093Y-82701791D01*
X100171051Y-82706750D01*
X100171052Y-82706752D01*
X100189905Y-82754489D01*
X100253776Y-82916221D01*
X100256543Y-82920780D01*
X100256544Y-82920783D01*
X100292671Y-82980318D01*
X100373377Y-83113317D01*
X100376874Y-83117347D01*
X100463438Y-83217103D01*
X100524477Y-83287445D01*
X100552967Y-83310805D01*
X100698627Y-83430240D01*
X100698633Y-83430244D01*
X100702755Y-83433624D01*
X100707391Y-83436263D01*
X100707394Y-83436265D01*
X100823096Y-83502126D01*
X100903114Y-83547675D01*
X101119825Y-83626337D01*
X101125074Y-83627286D01*
X101125077Y-83627287D01*
X101342608Y-83666623D01*
X101342615Y-83666624D01*
X101346692Y-83667361D01*
X101364414Y-83668197D01*
X101369356Y-83668430D01*
X101369363Y-83668430D01*
X101370844Y-83668500D01*
X101782890Y-83668500D01*
X101849809Y-83662822D01*
X101949409Y-83654371D01*
X101949413Y-83654370D01*
X101954720Y-83653920D01*
X101959875Y-83652582D01*
X101959881Y-83652581D01*
X102172703Y-83597343D01*
X102172707Y-83597342D01*
X102177872Y-83596001D01*
X102182738Y-83593809D01*
X102182741Y-83593808D01*
X102372362Y-83508390D01*
X102388075Y-83501312D01*
X102579319Y-83372559D01*
X102746135Y-83213424D01*
X102883754Y-83028458D01*
X102898020Y-83000400D01*
X102952364Y-82893511D01*
X102988240Y-82822949D01*
X103024321Y-82706752D01*
X103055024Y-82607871D01*
X103056607Y-82602773D01*
X103065247Y-82537586D01*
X103086198Y-82379511D01*
X103086198Y-82379506D01*
X103086898Y-82374226D01*
X103083257Y-82277227D01*
X103078449Y-82149173D01*
X103078249Y-82143842D01*
X103030907Y-81918209D01*
X103028948Y-81913248D01*
X102948185Y-81708744D01*
X102948184Y-81708742D01*
X102946224Y-81703779D01*
X102941762Y-81696425D01*
X102829390Y-81511243D01*
X102826623Y-81506683D01*
X102777228Y-81449760D01*
X102679023Y-81336588D01*
X102679021Y-81336586D01*
X102675523Y-81332555D01*
X102630724Y-81295822D01*
X102501373Y-81189760D01*
X102501367Y-81189756D01*
X102497245Y-81186376D01*
X102465750Y-81168448D01*
X102416445Y-81117368D01*
X102402583Y-81047738D01*
X102428566Y-80981667D01*
X102457716Y-80954427D01*
X102493642Y-80930240D01*
X102579319Y-80872559D01*
X102592924Y-80859581D01*
X102742278Y-80717103D01*
X102746135Y-80713424D01*
X102883754Y-80528458D01*
X102902429Y-80491728D01*
X102953266Y-80391738D01*
X102988240Y-80322949D01*
X103013441Y-80241791D01*
X103055024Y-80107871D01*
X103056607Y-80102773D01*
X103068087Y-80016158D01*
X103086198Y-79879511D01*
X103086198Y-79879506D01*
X103086898Y-79874226D01*
X103083778Y-79791105D01*
X103078449Y-79649173D01*
X103078249Y-79643842D01*
X103030907Y-79418209D01*
X103010202Y-79365780D01*
X103003784Y-79295077D01*
X103036611Y-79232125D01*
X103098261Y-79196914D01*
X103127394Y-79193500D01*
X116014406Y-79193500D01*
X116082527Y-79213502D01*
X116103501Y-79230405D01*
X116572595Y-79699499D01*
X116606621Y-79761811D01*
X116609500Y-79788594D01*
X116609500Y-80974400D01*
X116609837Y-80977646D01*
X116609837Y-80977650D01*
X116619654Y-81072262D01*
X116620474Y-81080166D01*
X116622655Y-81086702D01*
X116622655Y-81086704D01*
X116648968Y-81165573D01*
X116676450Y-81247946D01*
X116769522Y-81398348D01*
X116894697Y-81523305D01*
X117040340Y-81613081D01*
X117087832Y-81665852D01*
X117099256Y-81735924D01*
X117070982Y-81801048D01*
X117061195Y-81811510D01*
X116946865Y-81920576D01*
X116809246Y-82105542D01*
X116806830Y-82110293D01*
X116806828Y-82110297D01*
X116772300Y-82178209D01*
X116704760Y-82311051D01*
X116703178Y-82316145D01*
X116703177Y-82316148D01*
X116651872Y-82481377D01*
X116636393Y-82531227D01*
X116635692Y-82536516D01*
X116606895Y-82753792D01*
X116606102Y-82759774D01*
X116614751Y-82990158D01*
X116662093Y-83215791D01*
X116664051Y-83220750D01*
X116664052Y-83220752D01*
X116744457Y-83424348D01*
X116746776Y-83430221D01*
X116749543Y-83434780D01*
X116749544Y-83434783D01*
X116771565Y-83471072D01*
X116866377Y-83627317D01*
X116869874Y-83631347D01*
X117000741Y-83782158D01*
X117017477Y-83801445D01*
X117021608Y-83804832D01*
X117191627Y-83944240D01*
X117191633Y-83944244D01*
X117195755Y-83947624D01*
X117227250Y-83965552D01*
X117276555Y-84016632D01*
X117290417Y-84086262D01*
X117264434Y-84152333D01*
X117235284Y-84179573D01*
X117113681Y-84261441D01*
X116946865Y-84420576D01*
X116809246Y-84605542D01*
X116806830Y-84610293D01*
X116806828Y-84610297D01*
X116772300Y-84678209D01*
X116704760Y-84811051D01*
X116703178Y-84816145D01*
X116703177Y-84816148D01*
X116655800Y-84968726D01*
X116636393Y-85031227D01*
X116635692Y-85036516D01*
X116609939Y-85230827D01*
X116606102Y-85259774D01*
X116614751Y-85490158D01*
X116662093Y-85715791D01*
X116664051Y-85720750D01*
X116664052Y-85720752D01*
X116722503Y-85868757D01*
X116746776Y-85930221D01*
X116749543Y-85934780D01*
X116749544Y-85934783D01*
X116797631Y-86014027D01*
X116866377Y-86127317D01*
X116869874Y-86131347D01*
X116997033Y-86277885D01*
X117017477Y-86301445D01*
X117021608Y-86304832D01*
X117191627Y-86444240D01*
X117191633Y-86444244D01*
X117195755Y-86447624D01*
X117227250Y-86465552D01*
X117276555Y-86516632D01*
X117290417Y-86586262D01*
X117264434Y-86652333D01*
X117235284Y-86679573D01*
X117113681Y-86761441D01*
X116946865Y-86920576D01*
X116809246Y-87105542D01*
X116704760Y-87311051D01*
X116703178Y-87316145D01*
X116703177Y-87316148D01*
X116641115Y-87516020D01*
X116636393Y-87531227D01*
X116635692Y-87536516D01*
X116620304Y-87652623D01*
X116606102Y-87759774D01*
X116614751Y-87990158D01*
X116662093Y-88215791D01*
X116664051Y-88220750D01*
X116664052Y-88220752D01*
X116723920Y-88372345D01*
X116746776Y-88430221D01*
X116866377Y-88627317D01*
X116869874Y-88631347D01*
X116956438Y-88731103D01*
X117017477Y-88801445D01*
X117021608Y-88804832D01*
X117191627Y-88944240D01*
X117191633Y-88944244D01*
X117195755Y-88947624D01*
X117200391Y-88950263D01*
X117200394Y-88950265D01*
X117309422Y-89012327D01*
X117396114Y-89061675D01*
X117612825Y-89140337D01*
X117618074Y-89141286D01*
X117618077Y-89141287D01*
X117835608Y-89180623D01*
X117835615Y-89180624D01*
X117839692Y-89181361D01*
X117857414Y-89182197D01*
X117862356Y-89182430D01*
X117862363Y-89182430D01*
X117863844Y-89182500D01*
X118275890Y-89182500D01*
X118342809Y-89176822D01*
X118442409Y-89168371D01*
X118442413Y-89168370D01*
X118447720Y-89167920D01*
X118452875Y-89166582D01*
X118452881Y-89166581D01*
X118665703Y-89111343D01*
X118665707Y-89111342D01*
X118670872Y-89110001D01*
X118675738Y-89107809D01*
X118675741Y-89107808D01*
X118833586Y-89036704D01*
X118881075Y-89015312D01*
X119072319Y-88886559D01*
X119076886Y-88882203D01*
X119192059Y-88772332D01*
X119239135Y-88727424D01*
X119376754Y-88542458D01*
X119383532Y-88529128D01*
X119436342Y-88425256D01*
X119481240Y-88336949D01*
X119482967Y-88331389D01*
X119548024Y-88121871D01*
X119549607Y-88116773D01*
X119550308Y-88111484D01*
X119579198Y-87893511D01*
X119579198Y-87893506D01*
X119579898Y-87888226D01*
X119571249Y-87657842D01*
X119523907Y-87432209D01*
X119439224Y-87217779D01*
X119319623Y-87020683D01*
X119231908Y-86919600D01*
X119172023Y-86850588D01*
X119172021Y-86850586D01*
X119168523Y-86846555D01*
X119120643Y-86807296D01*
X118994373Y-86703760D01*
X118994367Y-86703756D01*
X118990245Y-86700376D01*
X118958750Y-86682448D01*
X118909445Y-86631368D01*
X118895583Y-86561738D01*
X118921566Y-86495667D01*
X118950716Y-86468427D01*
X118986642Y-86444240D01*
X119072319Y-86386559D01*
X119239135Y-86227424D01*
X119242500Y-86222902D01*
X119317010Y-86122757D01*
X119376754Y-86042458D01*
X119481240Y-85836949D01*
X119494968Y-85792740D01*
X119548024Y-85621871D01*
X119549607Y-85616773D01*
X119554090Y-85582949D01*
X119579198Y-85393511D01*
X119579198Y-85393506D01*
X119579898Y-85388226D01*
X119578943Y-85362773D01*
X119571449Y-85163173D01*
X119571249Y-85157842D01*
X119559951Y-85103993D01*
X119525002Y-84937428D01*
X119523907Y-84932209D01*
X119464790Y-84782516D01*
X119441185Y-84722744D01*
X119441184Y-84722742D01*
X119439224Y-84717779D01*
X119415213Y-84678209D01*
X119322390Y-84525243D01*
X119319623Y-84520683D01*
X119297085Y-84494710D01*
X119172023Y-84350588D01*
X119172021Y-84350586D01*
X119168523Y-84346555D01*
X119126970Y-84312484D01*
X118994373Y-84203760D01*
X118994367Y-84203756D01*
X118990245Y-84200376D01*
X118958750Y-84182448D01*
X118909445Y-84131368D01*
X118895583Y-84061738D01*
X118921566Y-83995667D01*
X118950716Y-83968427D01*
X119054830Y-83898333D01*
X119072319Y-83886559D01*
X119239135Y-83727424D01*
X119253987Y-83707463D01*
X119368802Y-83553146D01*
X119376754Y-83542458D01*
X119394282Y-83507984D01*
X119439971Y-83418120D01*
X119481240Y-83336949D01*
X119501177Y-83272744D01*
X119548024Y-83121871D01*
X119549607Y-83116773D01*
X119565464Y-82997134D01*
X119579198Y-82893511D01*
X119579198Y-82893506D01*
X119579898Y-82888226D01*
X119571249Y-82657842D01*
X119559695Y-82602773D01*
X119525002Y-82437428D01*
X119523907Y-82432209D01*
X119510644Y-82398624D01*
X119441185Y-82222744D01*
X119441184Y-82222742D01*
X119439224Y-82217779D01*
X119415213Y-82178209D01*
X119322390Y-82025243D01*
X119319623Y-82020683D01*
X119281306Y-81976526D01*
X119172023Y-81850588D01*
X119172021Y-81850586D01*
X119168523Y-81846555D01*
X119132880Y-81817330D01*
X119092886Y-81758671D01*
X119090954Y-81687701D01*
X119127698Y-81626952D01*
X119146468Y-81612752D01*
X119286120Y-81526332D01*
X119292348Y-81522478D01*
X119308116Y-81506683D01*
X119412134Y-81402483D01*
X119417305Y-81397303D01*
X119428780Y-81378688D01*
X119506275Y-81252968D01*
X119506276Y-81252966D01*
X119510115Y-81246738D01*
X119546480Y-81137100D01*
X119563632Y-81085389D01*
X119563632Y-81085387D01*
X119565797Y-81078861D01*
X119567836Y-81058967D01*
X119573651Y-81002203D01*
X119576500Y-80974400D01*
X119576500Y-79673600D01*
X119573966Y-79649173D01*
X119566238Y-79574692D01*
X119566237Y-79574688D01*
X119565526Y-79567834D01*
X119561929Y-79557051D01*
X119511868Y-79407002D01*
X119509550Y-79400054D01*
X119416478Y-79249652D01*
X119291303Y-79124695D01*
X119258951Y-79104753D01*
X119146968Y-79035725D01*
X119146966Y-79035724D01*
X119140738Y-79031885D01*
X119058057Y-79004461D01*
X118979389Y-78978368D01*
X118979387Y-78978368D01*
X118972861Y-78976203D01*
X118966025Y-78975503D01*
X118966022Y-78975502D01*
X118922969Y-78971091D01*
X118868400Y-78965500D01*
X117682595Y-78965500D01*
X117614474Y-78945498D01*
X117593500Y-78928595D01*
X116832652Y-78167747D01*
X116825112Y-78159461D01*
X116821000Y-78152982D01*
X116771348Y-78106356D01*
X116768507Y-78103602D01*
X116748770Y-78083865D01*
X116745573Y-78081385D01*
X116736551Y-78073680D01*
X116710100Y-78048841D01*
X116704321Y-78043414D01*
X116697375Y-78039595D01*
X116697372Y-78039593D01*
X116686566Y-78033652D01*
X116670047Y-78022801D01*
X116669583Y-78022441D01*
X116654041Y-78010386D01*
X116646772Y-78007241D01*
X116646768Y-78007238D01*
X116613463Y-77992826D01*
X116602813Y-77987609D01*
X116564060Y-77966305D01*
X116544437Y-77961267D01*
X116525734Y-77954863D01*
X116514420Y-77949967D01*
X116514419Y-77949967D01*
X116507145Y-77946819D01*
X116499322Y-77945580D01*
X116499312Y-77945577D01*
X116463476Y-77939901D01*
X116451856Y-77937495D01*
X116416711Y-77928472D01*
X116416710Y-77928472D01*
X116409030Y-77926500D01*
X116388776Y-77926500D01*
X116369065Y-77924949D01*
X116356886Y-77923020D01*
X116349057Y-77921780D01*
X116341165Y-77922526D01*
X116305039Y-77925941D01*
X116293181Y-77926500D01*
X103127145Y-77926500D01*
X103059024Y-77906498D01*
X103012531Y-77852842D01*
X103002427Y-77782568D01*
X103006813Y-77763136D01*
X103055023Y-77607875D01*
X103055024Y-77607873D01*
X103056607Y-77602773D01*
X103069844Y-77502900D01*
X103086198Y-77379511D01*
X103086198Y-77379506D01*
X103086898Y-77374226D01*
X103083778Y-77291105D01*
X103078449Y-77149173D01*
X103078249Y-77143842D01*
X103030907Y-76918209D01*
X103024388Y-76901701D01*
X102948185Y-76708744D01*
X102948184Y-76708742D01*
X102946224Y-76703779D01*
X102916203Y-76654305D01*
X102829390Y-76511243D01*
X102826623Y-76506683D01*
X102823128Y-76502656D01*
X102823122Y-76502647D01*
X102815983Y-76494420D01*
X102786446Y-76429860D01*
X102796502Y-76359579D01*
X102822056Y-76322748D01*
X103316847Y-75827957D01*
X103325137Y-75820413D01*
X103331618Y-75816300D01*
X103378259Y-75766632D01*
X103381013Y-75763791D01*
X103400735Y-75744069D01*
X103403212Y-75740876D01*
X103410917Y-75731855D01*
X103435759Y-75705400D01*
X103441186Y-75699621D01*
X103445007Y-75692671D01*
X103450946Y-75681868D01*
X103461802Y-75665341D01*
X103469357Y-75655602D01*
X103469358Y-75655600D01*
X103474214Y-75649340D01*
X103491776Y-75608757D01*
X103496991Y-75598112D01*
X103514475Y-75566309D01*
X103514476Y-75566307D01*
X103518295Y-75559360D01*
X103523333Y-75539737D01*
X103529737Y-75521034D01*
X103534633Y-75509720D01*
X103534633Y-75509719D01*
X103537781Y-75502445D01*
X103539020Y-75494622D01*
X103539023Y-75494612D01*
X103544699Y-75458776D01*
X103547105Y-75447156D01*
X103556128Y-75412011D01*
X103556128Y-75412010D01*
X103558100Y-75404330D01*
X103558100Y-75384076D01*
X103559651Y-75364365D01*
X103561580Y-75352186D01*
X103562820Y-75344357D01*
X103558659Y-75300338D01*
X103558100Y-75288481D01*
X103558100Y-72732580D01*
X116636752Y-72732580D01*
X116661477Y-72850421D01*
X116664537Y-72860617D01*
X116745263Y-73065029D01*
X116749994Y-73074561D01*
X116864016Y-73262462D01*
X116870280Y-73271052D01*
X117014327Y-73437052D01*
X117021958Y-73444472D01*
X117191911Y-73583826D01*
X117200678Y-73589850D01*
X117391682Y-73698576D01*
X117401346Y-73703041D01*
X117607941Y-73778031D01*
X117618208Y-73780802D01*
X117821174Y-73817504D01*
X117834414Y-73816085D01*
X117839000Y-73801450D01*
X117839000Y-73797849D01*
X118347000Y-73797849D01*
X118351310Y-73812527D01*
X118363193Y-73814590D01*
X118442325Y-73807876D01*
X118452797Y-73806086D01*
X118665535Y-73750870D01*
X118675575Y-73747335D01*
X118875970Y-73657063D01*
X118885256Y-73651894D01*
X119067575Y-73529150D01*
X119075870Y-73522481D01*
X119234900Y-73370772D01*
X119241941Y-73362814D01*
X119373141Y-73186475D01*
X119378745Y-73177438D01*
X119478357Y-72981516D01*
X119482357Y-72971665D01*
X119547534Y-72761760D01*
X119549817Y-72751376D01*
X119551861Y-72735957D01*
X119549665Y-72721793D01*
X119536478Y-72718000D01*
X118365115Y-72718000D01*
X118349876Y-72722475D01*
X118348671Y-72723865D01*
X118347000Y-72731548D01*
X118347000Y-73797849D01*
X117839000Y-73797849D01*
X117839000Y-72736115D01*
X117834525Y-72720876D01*
X117833135Y-72719671D01*
X117825452Y-72718000D01*
X116651808Y-72718000D01*
X116638277Y-72721973D01*
X116636752Y-72732580D01*
X103558100Y-72732580D01*
X103558100Y-72192043D01*
X116634139Y-72192043D01*
X116636335Y-72206207D01*
X116649522Y-72210000D01*
X117820885Y-72210000D01*
X117836124Y-72205525D01*
X117837329Y-72204135D01*
X117839000Y-72196452D01*
X117839000Y-72191885D01*
X118347000Y-72191885D01*
X118351475Y-72207124D01*
X118352865Y-72208329D01*
X118360548Y-72210000D01*
X119534192Y-72210000D01*
X119547723Y-72206027D01*
X119549248Y-72195420D01*
X119524523Y-72077579D01*
X119521463Y-72067383D01*
X119440737Y-71862971D01*
X119436006Y-71853439D01*
X119321984Y-71665538D01*
X119315720Y-71656948D01*
X119171673Y-71490948D01*
X119164042Y-71483528D01*
X118994089Y-71344174D01*
X118985323Y-71338150D01*
X118957801Y-71322483D01*
X118908496Y-71271400D01*
X118894635Y-71201770D01*
X118920619Y-71135699D01*
X118949768Y-71108462D01*
X119067575Y-71029150D01*
X119075870Y-71022481D01*
X119234900Y-70870772D01*
X119241941Y-70862814D01*
X119373141Y-70686475D01*
X119378745Y-70677438D01*
X119478357Y-70481516D01*
X119482357Y-70471665D01*
X119547534Y-70261760D01*
X119549817Y-70251376D01*
X119551861Y-70235957D01*
X119549665Y-70221793D01*
X119536478Y-70218000D01*
X118365115Y-70218000D01*
X118349876Y-70222475D01*
X118348671Y-70223865D01*
X118347000Y-70231548D01*
X118347000Y-72191885D01*
X117839000Y-72191885D01*
X117839000Y-70236115D01*
X117834525Y-70220876D01*
X117833135Y-70219671D01*
X117825452Y-70218000D01*
X116651808Y-70218000D01*
X116638277Y-70221973D01*
X116636752Y-70232580D01*
X116661477Y-70350421D01*
X116664537Y-70360617D01*
X116745263Y-70565029D01*
X116749994Y-70574561D01*
X116864016Y-70762462D01*
X116870280Y-70771052D01*
X117014327Y-70937052D01*
X117021958Y-70944472D01*
X117191911Y-71083826D01*
X117200677Y-71089850D01*
X117228199Y-71105517D01*
X117277504Y-71156600D01*
X117291365Y-71226230D01*
X117265381Y-71292301D01*
X117236232Y-71319538D01*
X117118425Y-71398850D01*
X117110130Y-71405519D01*
X116951100Y-71557228D01*
X116944059Y-71565186D01*
X116812859Y-71741525D01*
X116807255Y-71750562D01*
X116707643Y-71946484D01*
X116703643Y-71956335D01*
X116638466Y-72166240D01*
X116636183Y-72176624D01*
X116634139Y-72192043D01*
X103558100Y-72192043D01*
X103558100Y-69692043D01*
X116634139Y-69692043D01*
X116636335Y-69706207D01*
X116649522Y-69710000D01*
X117820885Y-69710000D01*
X117836124Y-69705525D01*
X117837329Y-69704135D01*
X117839000Y-69696452D01*
X117839000Y-69691885D01*
X118347000Y-69691885D01*
X118351475Y-69707124D01*
X118352865Y-69708329D01*
X118360548Y-69710000D01*
X119534192Y-69710000D01*
X119547723Y-69706027D01*
X119549248Y-69695420D01*
X119524523Y-69577579D01*
X119521463Y-69567383D01*
X119440737Y-69362971D01*
X119436006Y-69353439D01*
X119321984Y-69165538D01*
X119315720Y-69156948D01*
X119171673Y-68990948D01*
X119164042Y-68983528D01*
X118994089Y-68844174D01*
X118985323Y-68838150D01*
X118957801Y-68822483D01*
X118908496Y-68771400D01*
X118894635Y-68701770D01*
X118920619Y-68635699D01*
X118949768Y-68608462D01*
X119067575Y-68529150D01*
X119075870Y-68522481D01*
X119234900Y-68370772D01*
X119241941Y-68362814D01*
X119373141Y-68186475D01*
X119378745Y-68177438D01*
X119478357Y-67981516D01*
X119482357Y-67971665D01*
X119547534Y-67761760D01*
X119549817Y-67751376D01*
X119551861Y-67735957D01*
X119549665Y-67721793D01*
X119536478Y-67718000D01*
X118365115Y-67718000D01*
X118349876Y-67722475D01*
X118348671Y-67723865D01*
X118347000Y-67731548D01*
X118347000Y-69691885D01*
X117839000Y-69691885D01*
X117839000Y-67736115D01*
X117834525Y-67720876D01*
X117833135Y-67719671D01*
X117825452Y-67718000D01*
X116651808Y-67718000D01*
X116638277Y-67721973D01*
X116636752Y-67732580D01*
X116661477Y-67850421D01*
X116664537Y-67860617D01*
X116745263Y-68065029D01*
X116749994Y-68074561D01*
X116864016Y-68262462D01*
X116870280Y-68271052D01*
X117014327Y-68437052D01*
X117021958Y-68444472D01*
X117191911Y-68583826D01*
X117200677Y-68589850D01*
X117228199Y-68605517D01*
X117277504Y-68656600D01*
X117291365Y-68726230D01*
X117265381Y-68792301D01*
X117236232Y-68819538D01*
X117118425Y-68898850D01*
X117110130Y-68905519D01*
X116951100Y-69057228D01*
X116944059Y-69065186D01*
X116812859Y-69241525D01*
X116807255Y-69250562D01*
X116707643Y-69446484D01*
X116703643Y-69456335D01*
X116638466Y-69666240D01*
X116636183Y-69676624D01*
X116634139Y-69692043D01*
X103558100Y-69692043D01*
X103558100Y-65611095D01*
X116610001Y-65611095D01*
X116610338Y-65617614D01*
X116620257Y-65713206D01*
X116623149Y-65726600D01*
X116674588Y-65880784D01*
X116680761Y-65893962D01*
X116766063Y-66031807D01*
X116775099Y-66043208D01*
X116889829Y-66157739D01*
X116901240Y-66166751D01*
X117041154Y-66252995D01*
X117088647Y-66305767D01*
X117100071Y-66375839D01*
X117071797Y-66440963D01*
X117062010Y-66451424D01*
X116951100Y-66557228D01*
X116944059Y-66565186D01*
X116812859Y-66741525D01*
X116807255Y-66750562D01*
X116707643Y-66946484D01*
X116703643Y-66956335D01*
X116638466Y-67166240D01*
X116636183Y-67176624D01*
X116634139Y-67192043D01*
X116636335Y-67206207D01*
X116649522Y-67210000D01*
X117820885Y-67210000D01*
X117836124Y-67205525D01*
X117837329Y-67204135D01*
X117839000Y-67196452D01*
X117839000Y-67191885D01*
X118347000Y-67191885D01*
X118351475Y-67207124D01*
X118352865Y-67208329D01*
X118360548Y-67210000D01*
X119534192Y-67210000D01*
X119547723Y-67206027D01*
X119549248Y-67195420D01*
X119524523Y-67077579D01*
X119521463Y-67067383D01*
X119440737Y-66862971D01*
X119436006Y-66853439D01*
X119321984Y-66665538D01*
X119315720Y-66656948D01*
X119171673Y-66490948D01*
X119164044Y-66483530D01*
X119132022Y-66457274D01*
X119092027Y-66398615D01*
X119090094Y-66327645D01*
X119126838Y-66266896D01*
X119145609Y-66252695D01*
X119285807Y-66165937D01*
X119297208Y-66156901D01*
X119411739Y-66042171D01*
X119420751Y-66030760D01*
X119505816Y-65892757D01*
X119511963Y-65879576D01*
X119563138Y-65725290D01*
X119566005Y-65711914D01*
X119575672Y-65617562D01*
X119576000Y-65611146D01*
X119576000Y-65236115D01*
X119571525Y-65220876D01*
X119570135Y-65219671D01*
X119562452Y-65218000D01*
X118365115Y-65218000D01*
X118349876Y-65222475D01*
X118348671Y-65223865D01*
X118347000Y-65231548D01*
X118347000Y-67191885D01*
X117839000Y-67191885D01*
X117839000Y-65236115D01*
X117834525Y-65220876D01*
X117833135Y-65219671D01*
X117825452Y-65218000D01*
X116628116Y-65218000D01*
X116612877Y-65222475D01*
X116611672Y-65223865D01*
X116610001Y-65231548D01*
X116610001Y-65611095D01*
X103558100Y-65611095D01*
X103558100Y-64691885D01*
X116610000Y-64691885D01*
X116614475Y-64707124D01*
X116615865Y-64708329D01*
X116623548Y-64710000D01*
X117820885Y-64710000D01*
X117836124Y-64705525D01*
X117837329Y-64704135D01*
X117839000Y-64696452D01*
X117839000Y-64691885D01*
X118347000Y-64691885D01*
X118351475Y-64707124D01*
X118352865Y-64708329D01*
X118360548Y-64710000D01*
X119557884Y-64710000D01*
X119573123Y-64705525D01*
X119574328Y-64704135D01*
X119575999Y-64696452D01*
X119575999Y-64316905D01*
X119575662Y-64310386D01*
X119565743Y-64214794D01*
X119562851Y-64201400D01*
X119511412Y-64047216D01*
X119505239Y-64034038D01*
X119419937Y-63896193D01*
X119410901Y-63884792D01*
X119296171Y-63770261D01*
X119284760Y-63761249D01*
X119146757Y-63676184D01*
X119133576Y-63670037D01*
X118979290Y-63618862D01*
X118965914Y-63615995D01*
X118871562Y-63606328D01*
X118865145Y-63606000D01*
X118365115Y-63606000D01*
X118349876Y-63610475D01*
X118348671Y-63611865D01*
X118347000Y-63619548D01*
X118347000Y-64691885D01*
X117839000Y-64691885D01*
X117839000Y-63624116D01*
X117834525Y-63608877D01*
X117833135Y-63607672D01*
X117825452Y-63606001D01*
X117320905Y-63606001D01*
X117314386Y-63606338D01*
X117218794Y-63616257D01*
X117205400Y-63619149D01*
X117051216Y-63670588D01*
X117038038Y-63676761D01*
X116900193Y-63762063D01*
X116888792Y-63771099D01*
X116774261Y-63885829D01*
X116765249Y-63897240D01*
X116680184Y-64035243D01*
X116674037Y-64048424D01*
X116622862Y-64202710D01*
X116619995Y-64216086D01*
X116610328Y-64310438D01*
X116610000Y-64316855D01*
X116610000Y-64691885D01*
X103558100Y-64691885D01*
X103558100Y-61594468D01*
X103558627Y-61583285D01*
X103560302Y-61575792D01*
X103558162Y-61507701D01*
X103558100Y-61503744D01*
X103558100Y-61475844D01*
X103557596Y-61471853D01*
X103556663Y-61460011D01*
X103555523Y-61423736D01*
X103555274Y-61415811D01*
X103549621Y-61396352D01*
X103545612Y-61376993D01*
X103544553Y-61368611D01*
X103543074Y-61356903D01*
X103540158Y-61349537D01*
X103540156Y-61349531D01*
X103526800Y-61315798D01*
X103522955Y-61304568D01*
X103512830Y-61269717D01*
X103512830Y-61269716D01*
X103510619Y-61262107D01*
X103500305Y-61244666D01*
X103491608Y-61226913D01*
X103487072Y-61215458D01*
X103484152Y-61208083D01*
X103458163Y-61172312D01*
X103451647Y-61162392D01*
X103429142Y-61124338D01*
X103414821Y-61110017D01*
X103401980Y-61094983D01*
X103394731Y-61085006D01*
X103390072Y-61078593D01*
X103383967Y-61073542D01*
X103383962Y-61073537D01*
X103355996Y-61050401D01*
X103347218Y-61042413D01*
X102819735Y-60514930D01*
X102785709Y-60452618D01*
X102790774Y-60381803D01*
X102807739Y-60350625D01*
X102883754Y-60248458D01*
X102887657Y-60240783D01*
X102985822Y-60047704D01*
X102988240Y-60042949D01*
X102993270Y-60026752D01*
X103055024Y-59827871D01*
X103056607Y-59822773D01*
X103059824Y-59798498D01*
X103086198Y-59599511D01*
X103086198Y-59599506D01*
X103086898Y-59594226D01*
X103085632Y-59560489D01*
X103078449Y-59369173D01*
X103078249Y-59363842D01*
X103030907Y-59138209D01*
X103022551Y-59117051D01*
X102948185Y-58928744D01*
X102948184Y-58928742D01*
X102946224Y-58923779D01*
X102938799Y-58911542D01*
X102829390Y-58731243D01*
X102826623Y-58726683D01*
X102739755Y-58626576D01*
X102679023Y-58556588D01*
X102679021Y-58556586D01*
X102675523Y-58552555D01*
X102619204Y-58506376D01*
X102501373Y-58409760D01*
X102501367Y-58409756D01*
X102497245Y-58406376D01*
X102465750Y-58388448D01*
X102416445Y-58337368D01*
X102402583Y-58267738D01*
X102428566Y-58201667D01*
X102457716Y-58174427D01*
X102473398Y-58163870D01*
X102579319Y-58092559D01*
X102626413Y-58047634D01*
X102678753Y-57997703D01*
X102746135Y-57933424D01*
X102788649Y-57876284D01*
X102858910Y-57781849D01*
X102883754Y-57748458D01*
X102886244Y-57743562D01*
X102985822Y-57547704D01*
X102988240Y-57542949D01*
X102993270Y-57526752D01*
X103055024Y-57327871D01*
X103056607Y-57322773D01*
X103059791Y-57298749D01*
X103086198Y-57099511D01*
X103086198Y-57099506D01*
X103086898Y-57094226D01*
X103086527Y-57084327D01*
X103078449Y-56869173D01*
X103078249Y-56863842D01*
X103057782Y-56766296D01*
X103032004Y-56643435D01*
X103032002Y-56643430D01*
X103030907Y-56638209D01*
X103020734Y-56612449D01*
X103014316Y-56541743D01*
X103048831Y-56477073D01*
X103296247Y-56229657D01*
X103304537Y-56222113D01*
X103311018Y-56218000D01*
X103357659Y-56168332D01*
X103360413Y-56165491D01*
X103380134Y-56145770D01*
X103382612Y-56142575D01*
X103390318Y-56133553D01*
X103415158Y-56107101D01*
X103420586Y-56101321D01*
X103430346Y-56083568D01*
X103441199Y-56067045D01*
X103448753Y-56057306D01*
X103453613Y-56051041D01*
X103471176Y-56010457D01*
X103476383Y-55999827D01*
X103497695Y-55961060D01*
X103499666Y-55953383D01*
X103499668Y-55953378D01*
X103502732Y-55941442D01*
X103509138Y-55922730D01*
X103514034Y-55911417D01*
X103517181Y-55904145D01*
X103519858Y-55887247D01*
X103524097Y-55860481D01*
X103526504Y-55848860D01*
X103535528Y-55813711D01*
X103535528Y-55813710D01*
X103537500Y-55806030D01*
X103537500Y-55785769D01*
X103539051Y-55766058D01*
X103540421Y-55757412D01*
X103542219Y-55746057D01*
X103538059Y-55702046D01*
X103537500Y-55690189D01*
X103537500Y-54070967D01*
X103538027Y-54059784D01*
X103539702Y-54052291D01*
X103538595Y-54017051D01*
X103537562Y-53984201D01*
X103537500Y-53980243D01*
X103537500Y-53952344D01*
X103536996Y-53948353D01*
X103536063Y-53936511D01*
X103535969Y-53933502D01*
X103534674Y-53892311D01*
X103532462Y-53884697D01*
X103532461Y-53884692D01*
X103529023Y-53872859D01*
X103525012Y-53853495D01*
X103523467Y-53841264D01*
X103522474Y-53833403D01*
X103519557Y-53826036D01*
X103519556Y-53826031D01*
X103506198Y-53792292D01*
X103502354Y-53781065D01*
X103498069Y-53766317D01*
X103490018Y-53738607D01*
X103479707Y-53721172D01*
X103471012Y-53703424D01*
X103463552Y-53684583D01*
X103448424Y-53663760D01*
X103437564Y-53648813D01*
X103431048Y-53638893D01*
X103412580Y-53607665D01*
X103412578Y-53607662D01*
X103408542Y-53600838D01*
X103394221Y-53586517D01*
X103381380Y-53571483D01*
X103374132Y-53561507D01*
X103369472Y-53555093D01*
X103335407Y-53526912D01*
X103326626Y-53518922D01*
X102820972Y-53013267D01*
X102786947Y-52950955D01*
X102792012Y-52880139D01*
X102808979Y-52848959D01*
X102880568Y-52752740D01*
X102883754Y-52748458D01*
X102887657Y-52740783D01*
X102940818Y-52636221D01*
X102988240Y-52542949D01*
X102993270Y-52526752D01*
X103055024Y-52327871D01*
X103056607Y-52322773D01*
X103059833Y-52298436D01*
X103086198Y-52099511D01*
X103086198Y-52099506D01*
X103086898Y-52094226D01*
X103085632Y-52060489D01*
X103080702Y-51929173D01*
X103078249Y-51863842D01*
X103071597Y-51832136D01*
X103040251Y-51682744D01*
X103030907Y-51638209D01*
X103028947Y-51633247D01*
X103028816Y-51632809D01*
X103028398Y-51561814D01*
X103066429Y-51501863D01*
X103130835Y-51471990D01*
X103149501Y-51470600D01*
X116669105Y-51470600D01*
X116737226Y-51490602D01*
X116783719Y-51544258D01*
X116793823Y-51614532D01*
X116781423Y-51653703D01*
X116721760Y-51771051D01*
X116720178Y-51776145D01*
X116720177Y-51776148D01*
X116675937Y-51918624D01*
X116653393Y-51991227D01*
X116652692Y-51996516D01*
X116624062Y-52212533D01*
X116623102Y-52219774D01*
X116623302Y-52225103D01*
X116623302Y-52225105D01*
X116626186Y-52301927D01*
X116631751Y-52450158D01*
X116679093Y-52675791D01*
X116763776Y-52890221D01*
X116883377Y-53087317D01*
X116886874Y-53091347D01*
X117024754Y-53250240D01*
X117034477Y-53261445D01*
X117038608Y-53264832D01*
X117208627Y-53404240D01*
X117208633Y-53404244D01*
X117212755Y-53407624D01*
X117244250Y-53425552D01*
X117293555Y-53476632D01*
X117307417Y-53546262D01*
X117281434Y-53612333D01*
X117252284Y-53639573D01*
X117244590Y-53644753D01*
X117130681Y-53721441D01*
X117126824Y-53725120D01*
X117126822Y-53725122D01*
X117114986Y-53736413D01*
X116963865Y-53880576D01*
X116960682Y-53884854D01*
X116948649Y-53901027D01*
X116826246Y-54065542D01*
X116823830Y-54070293D01*
X116823828Y-54070297D01*
X116797466Y-54122148D01*
X116721760Y-54271051D01*
X116720178Y-54276145D01*
X116720177Y-54276148D01*
X116675937Y-54418623D01*
X116653393Y-54491227D01*
X116652692Y-54496516D01*
X116625788Y-54699511D01*
X116623102Y-54719774D01*
X116623302Y-54725103D01*
X116623302Y-54725105D01*
X116626581Y-54812448D01*
X116631751Y-54950158D01*
X116679093Y-55175791D01*
X116681051Y-55180750D01*
X116681052Y-55180752D01*
X116756186Y-55371001D01*
X116763776Y-55390221D01*
X116766543Y-55394780D01*
X116766544Y-55394783D01*
X116823805Y-55489146D01*
X116883377Y-55587317D01*
X116886874Y-55591347D01*
X117027917Y-55753885D01*
X117034477Y-55761445D01*
X117038608Y-55764832D01*
X117208627Y-55904240D01*
X117208633Y-55904244D01*
X117212755Y-55907624D01*
X117244250Y-55925552D01*
X117293555Y-55976632D01*
X117307417Y-56046262D01*
X117281434Y-56112333D01*
X117252284Y-56139573D01*
X117130681Y-56221441D01*
X117126824Y-56225120D01*
X117126822Y-56225122D01*
X117057464Y-56291287D01*
X116963865Y-56380576D01*
X116826246Y-56565542D01*
X116823830Y-56570293D01*
X116823828Y-56570297D01*
X116790156Y-56636525D01*
X116721760Y-56771051D01*
X116720178Y-56776145D01*
X116720177Y-56776148D01*
X116680258Y-56904709D01*
X116653393Y-56991227D01*
X116652692Y-56996516D01*
X116637304Y-57112623D01*
X116623102Y-57219774D01*
X116623302Y-57225103D01*
X116623302Y-57225105D01*
X116626236Y-57303257D01*
X116631751Y-57450158D01*
X116679093Y-57675791D01*
X116681051Y-57680750D01*
X116681052Y-57680752D01*
X116748919Y-57852600D01*
X116763776Y-57890221D01*
X116766543Y-57894780D01*
X116766544Y-57894783D01*
X116776992Y-57912000D01*
X116883377Y-58087317D01*
X116886874Y-58091347D01*
X117024754Y-58250240D01*
X117034477Y-58261445D01*
X117071665Y-58291937D01*
X117208627Y-58404240D01*
X117208633Y-58404244D01*
X117212755Y-58407624D01*
X117217391Y-58410263D01*
X117217394Y-58410265D01*
X117301838Y-58458333D01*
X117413114Y-58521675D01*
X117629825Y-58600337D01*
X117635074Y-58601286D01*
X117635077Y-58601287D01*
X117852608Y-58640623D01*
X117852615Y-58640624D01*
X117856692Y-58641361D01*
X117874414Y-58642197D01*
X117879356Y-58642430D01*
X117879363Y-58642430D01*
X117880844Y-58642500D01*
X118292890Y-58642500D01*
X118359809Y-58636822D01*
X118459409Y-58628371D01*
X118459413Y-58628370D01*
X118464720Y-58627920D01*
X118469875Y-58626582D01*
X118469881Y-58626581D01*
X118682703Y-58571343D01*
X118682707Y-58571342D01*
X118687872Y-58570001D01*
X118692738Y-58567809D01*
X118692741Y-58567808D01*
X118856627Y-58493983D01*
X118898075Y-58475312D01*
X119089319Y-58346559D01*
X119097425Y-58338827D01*
X119171944Y-58267738D01*
X119256135Y-58187424D01*
X119393754Y-58002458D01*
X119405540Y-57979278D01*
X119469874Y-57852740D01*
X119498240Y-57796949D01*
X119504632Y-57776366D01*
X119565024Y-57581871D01*
X119566607Y-57576773D01*
X119571090Y-57542949D01*
X119596198Y-57353511D01*
X119596198Y-57353506D01*
X119596898Y-57348226D01*
X119595943Y-57322773D01*
X119588449Y-57123173D01*
X119588249Y-57117842D01*
X119540907Y-56892209D01*
X119538948Y-56887248D01*
X119458185Y-56682744D01*
X119458184Y-56682742D01*
X119456224Y-56677779D01*
X119432213Y-56638209D01*
X119339390Y-56485243D01*
X119336623Y-56480683D01*
X119297733Y-56435866D01*
X119189023Y-56310588D01*
X119189021Y-56310586D01*
X119185523Y-56306555D01*
X119093199Y-56230854D01*
X119011373Y-56163760D01*
X119011367Y-56163756D01*
X119007245Y-56160376D01*
X118975750Y-56142448D01*
X118926445Y-56091368D01*
X118912583Y-56021738D01*
X118938566Y-55955667D01*
X118967716Y-55928427D01*
X119038113Y-55881033D01*
X119089319Y-55846559D01*
X119109115Y-55827675D01*
X119240807Y-55702046D01*
X119256135Y-55687424D01*
X119393754Y-55502458D01*
X119398348Y-55493424D01*
X119469874Y-55352740D01*
X119498240Y-55296949D01*
X119502670Y-55282684D01*
X119565024Y-55081871D01*
X119566607Y-55076773D01*
X119579358Y-54980567D01*
X119596198Y-54853511D01*
X119596198Y-54853506D01*
X119596898Y-54848226D01*
X119593242Y-54750827D01*
X119588449Y-54623173D01*
X119588249Y-54617842D01*
X119540907Y-54392209D01*
X119521282Y-54342516D01*
X119458185Y-54182744D01*
X119458184Y-54182742D01*
X119456224Y-54177779D01*
X119413563Y-54107475D01*
X119347180Y-53998080D01*
X119336623Y-53980683D01*
X119308619Y-53948411D01*
X119189023Y-53810588D01*
X119189021Y-53810586D01*
X119185523Y-53806555D01*
X119136449Y-53766317D01*
X119011373Y-53663760D01*
X119011367Y-53663756D01*
X119007245Y-53660376D01*
X118975750Y-53642448D01*
X118926445Y-53591368D01*
X118912583Y-53521738D01*
X118938566Y-53455667D01*
X118967716Y-53428427D01*
X119011889Y-53398688D01*
X119089319Y-53346559D01*
X119097278Y-53338967D01*
X119228670Y-53213624D01*
X119256135Y-53187424D01*
X119393754Y-53002458D01*
X119398348Y-52993424D01*
X119471797Y-52848959D01*
X119498240Y-52796949D01*
X119511968Y-52752740D01*
X119565024Y-52581871D01*
X119566607Y-52576773D01*
X119571090Y-52542949D01*
X119596198Y-52353511D01*
X119596198Y-52353506D01*
X119596898Y-52348226D01*
X119595943Y-52322773D01*
X119588449Y-52123173D01*
X119588249Y-52117842D01*
X119540907Y-51892209D01*
X119521282Y-51842516D01*
X119458185Y-51682744D01*
X119458184Y-51682742D01*
X119456224Y-51677779D01*
X119432213Y-51638209D01*
X119339390Y-51485243D01*
X119336623Y-51480683D01*
X119333126Y-51476653D01*
X119189023Y-51310588D01*
X119189021Y-51310586D01*
X119185523Y-51306555D01*
X119149880Y-51277330D01*
X119109886Y-51218671D01*
X119107954Y-51147701D01*
X119144698Y-51086952D01*
X119163468Y-51072752D01*
X119303120Y-50986332D01*
X119309348Y-50982478D01*
X119434305Y-50857303D01*
X119511821Y-50731550D01*
X119523275Y-50712968D01*
X119523276Y-50712966D01*
X119527115Y-50706738D01*
X119574654Y-50563412D01*
X119580632Y-50545389D01*
X119580632Y-50545387D01*
X119582797Y-50538861D01*
X119593500Y-50434400D01*
X119593500Y-49133600D01*
X119591290Y-49112296D01*
X119583238Y-49034692D01*
X119583237Y-49034688D01*
X119582526Y-49027834D01*
X119526550Y-48860054D01*
X119433478Y-48709652D01*
X119308303Y-48584695D01*
X119302072Y-48580854D01*
X119163968Y-48495725D01*
X119163966Y-48495724D01*
X119157738Y-48491885D01*
X119051649Y-48456697D01*
X118996389Y-48438368D01*
X118996387Y-48438368D01*
X118989861Y-48436203D01*
X118983025Y-48435503D01*
X118983022Y-48435502D01*
X118939969Y-48431091D01*
X118885400Y-48425500D01*
X117334600Y-48425500D01*
X117331354Y-48425837D01*
X117331350Y-48425837D01*
X117235692Y-48435762D01*
X117235688Y-48435763D01*
X117228834Y-48436474D01*
X117222298Y-48438655D01*
X117222296Y-48438655D01*
X117168218Y-48456697D01*
X117061054Y-48492450D01*
X116910652Y-48585522D01*
X116785695Y-48710697D01*
X116781855Y-48716927D01*
X116781854Y-48716928D01*
X116736046Y-48791243D01*
X116692885Y-48861262D01*
X116637203Y-49029139D01*
X116626500Y-49133600D01*
X116626500Y-50077600D01*
X116606498Y-50145721D01*
X116552842Y-50192214D01*
X116500500Y-50203600D01*
X103209500Y-50203600D01*
X103141379Y-50183598D01*
X103094886Y-50129942D01*
X103083500Y-50077600D01*
X103083500Y-48879600D01*
X103083163Y-48876350D01*
X103073238Y-48780692D01*
X103073237Y-48780688D01*
X103072526Y-48773834D01*
X103056760Y-48726576D01*
X103018868Y-48613002D01*
X103016550Y-48606054D01*
X102923478Y-48455652D01*
X102798303Y-48330695D01*
X102792072Y-48326854D01*
X102653968Y-48241725D01*
X102653966Y-48241724D01*
X102647738Y-48237885D01*
X102487254Y-48184655D01*
X102486389Y-48184368D01*
X102486387Y-48184368D01*
X102479861Y-48182203D01*
X102473025Y-48181503D01*
X102473022Y-48181502D01*
X102429969Y-48177091D01*
X102375400Y-48171500D01*
X100824600Y-48171500D01*
X100821354Y-48171837D01*
X100821350Y-48171837D01*
X100725692Y-48181762D01*
X100725688Y-48181763D01*
X100718834Y-48182474D01*
X100712298Y-48184655D01*
X100712296Y-48184655D01*
X100580194Y-48228728D01*
X100551054Y-48238450D01*
X100400652Y-48331522D01*
X100275695Y-48456697D01*
X100271855Y-48462927D01*
X100271854Y-48462928D01*
X100193092Y-48590704D01*
X100182885Y-48607262D01*
X100167862Y-48652555D01*
X100141892Y-48730854D01*
X100127203Y-48775139D01*
X100116500Y-48879600D01*
X100116500Y-50077600D01*
X100096498Y-50145721D01*
X100042842Y-50192214D01*
X99990500Y-50203600D01*
X90889088Y-50203600D01*
X90820967Y-50183598D01*
X90774474Y-50129942D01*
X90764370Y-50059668D01*
X90793864Y-49995088D01*
X90799993Y-49988505D01*
X90922198Y-49866300D01*
X91053523Y-49678749D01*
X91055846Y-49673767D01*
X91055849Y-49673762D01*
X91147961Y-49476225D01*
X91147961Y-49476224D01*
X91150284Y-49471243D01*
X91209543Y-49250087D01*
X91229498Y-49022000D01*
X91209543Y-48793913D01*
X91206345Y-48781978D01*
X91151707Y-48578067D01*
X91151706Y-48578065D01*
X91150284Y-48572757D01*
X91146416Y-48564461D01*
X91055849Y-48370238D01*
X91055846Y-48370233D01*
X91053523Y-48365251D01*
X90922198Y-48177700D01*
X90760300Y-48015802D01*
X90755792Y-48012645D01*
X90755789Y-48012643D01*
X90677611Y-47957902D01*
X90572749Y-47884477D01*
X90567767Y-47882154D01*
X90567762Y-47882151D01*
X90532951Y-47865919D01*
X90479666Y-47819002D01*
X90460205Y-47750725D01*
X90480747Y-47682765D01*
X90532951Y-47637529D01*
X90567511Y-47621414D01*
X90577006Y-47615931D01*
X90629048Y-47579491D01*
X90637424Y-47569012D01*
X90630356Y-47555566D01*
X89928812Y-46854022D01*
X89914868Y-46846408D01*
X89913035Y-46846539D01*
X89906420Y-46850790D01*
X89200923Y-47556287D01*
X89194493Y-47568062D01*
X89203789Y-47580077D01*
X89254994Y-47615931D01*
X89264489Y-47621414D01*
X89299049Y-47637529D01*
X89352334Y-47684446D01*
X89371795Y-47752723D01*
X89351253Y-47820683D01*
X89299049Y-47865919D01*
X89264238Y-47882151D01*
X89264233Y-47882154D01*
X89259251Y-47884477D01*
X89154389Y-47957902D01*
X89076211Y-48012643D01*
X89076208Y-48012645D01*
X89071700Y-48015802D01*
X88909802Y-48177700D01*
X88778477Y-48365251D01*
X88776154Y-48370233D01*
X88776151Y-48370238D01*
X88685584Y-48564461D01*
X88681716Y-48572757D01*
X88680294Y-48578065D01*
X88680293Y-48578067D01*
X88625655Y-48781978D01*
X88622457Y-48793913D01*
X88602502Y-49022000D01*
X88622457Y-49250087D01*
X88681716Y-49471243D01*
X88684039Y-49476224D01*
X88684039Y-49476225D01*
X88776151Y-49673762D01*
X88776154Y-49673767D01*
X88778477Y-49678749D01*
X88909802Y-49866300D01*
X89071700Y-50028198D01*
X89076208Y-50031355D01*
X89076211Y-50031357D01*
X89142253Y-50077600D01*
X89259251Y-50159523D01*
X89264233Y-50161846D01*
X89264238Y-50161849D01*
X89298457Y-50177805D01*
X89351742Y-50224722D01*
X89371203Y-50292999D01*
X89350661Y-50360959D01*
X89298457Y-50406195D01*
X89264238Y-50422151D01*
X89264233Y-50422154D01*
X89259251Y-50424477D01*
X89154389Y-50497902D01*
X89076211Y-50552643D01*
X89076208Y-50552645D01*
X89071700Y-50555802D01*
X88909802Y-50717700D01*
X88778477Y-50905251D01*
X88776154Y-50910233D01*
X88776151Y-50910238D01*
X88699066Y-51075550D01*
X88681716Y-51112757D01*
X88680294Y-51118065D01*
X88680293Y-51118067D01*
X88628707Y-51310588D01*
X88622457Y-51333913D01*
X88602502Y-51562000D01*
X88622457Y-51790087D01*
X88623881Y-51795400D01*
X88623881Y-51795402D01*
X88674987Y-51986129D01*
X88681716Y-52011243D01*
X88684039Y-52016225D01*
X88684041Y-52016230D01*
X88685448Y-52019247D01*
X88685669Y-52020704D01*
X88685922Y-52021398D01*
X88685782Y-52021449D01*
X88696111Y-52089438D01*
X88667133Y-52154252D01*
X88607715Y-52193110D01*
X88571255Y-52198500D01*
X76020745Y-52198500D01*
X75952624Y-52178498D01*
X75906131Y-52124842D01*
X75896027Y-52054568D01*
X75906552Y-52019247D01*
X75907959Y-52016230D01*
X75907961Y-52016225D01*
X75910284Y-52011243D01*
X75917014Y-51986129D01*
X75968119Y-51795402D01*
X75968119Y-51795400D01*
X75969543Y-51790087D01*
X75989498Y-51562000D01*
X75969543Y-51333913D01*
X75963293Y-51310588D01*
X75911707Y-51118067D01*
X75911706Y-51118065D01*
X75910284Y-51112757D01*
X75892934Y-51075550D01*
X75815849Y-50910238D01*
X75815846Y-50910233D01*
X75813523Y-50905251D01*
X75682198Y-50717700D01*
X75520300Y-50555802D01*
X75515792Y-50552645D01*
X75515789Y-50552643D01*
X75437611Y-50497902D01*
X75332749Y-50424477D01*
X75327767Y-50422154D01*
X75327762Y-50422151D01*
X75293543Y-50406195D01*
X75240258Y-50359278D01*
X75220797Y-50291001D01*
X75241339Y-50223041D01*
X75293543Y-50177805D01*
X75327762Y-50161849D01*
X75327767Y-50161846D01*
X75332749Y-50159523D01*
X75449747Y-50077600D01*
X75515789Y-50031357D01*
X75515792Y-50031355D01*
X75520300Y-50028198D01*
X75682198Y-49866300D01*
X75813523Y-49678749D01*
X75815846Y-49673767D01*
X75815849Y-49673762D01*
X75907961Y-49476225D01*
X75907961Y-49476224D01*
X75910284Y-49471243D01*
X75969543Y-49250087D01*
X75989498Y-49022000D01*
X75969543Y-48793913D01*
X75966345Y-48781978D01*
X75911707Y-48578067D01*
X75911706Y-48578065D01*
X75910284Y-48572757D01*
X75906416Y-48564461D01*
X75815849Y-48370238D01*
X75815846Y-48370233D01*
X75813523Y-48365251D01*
X75682198Y-48177700D01*
X75520300Y-48015802D01*
X75515792Y-48012645D01*
X75515789Y-48012643D01*
X75437611Y-47957902D01*
X75332749Y-47884477D01*
X75327767Y-47882154D01*
X75327762Y-47882151D01*
X75293543Y-47866195D01*
X75240258Y-47819278D01*
X75220797Y-47751001D01*
X75241339Y-47683041D01*
X75293543Y-47637805D01*
X75327762Y-47621849D01*
X75327767Y-47621846D01*
X75332749Y-47619523D01*
X75437611Y-47546098D01*
X75515789Y-47491357D01*
X75515792Y-47491355D01*
X75520300Y-47488198D01*
X75682198Y-47326300D01*
X75813523Y-47138749D01*
X75815846Y-47133767D01*
X75815849Y-47133762D01*
X75907961Y-46936225D01*
X75907961Y-46936224D01*
X75910284Y-46931243D01*
X75930976Y-46854022D01*
X75968119Y-46715402D01*
X75968119Y-46715400D01*
X75969543Y-46710087D01*
X75989019Y-46487475D01*
X88603483Y-46487475D01*
X88622472Y-46704519D01*
X88624375Y-46715312D01*
X88680764Y-46925761D01*
X88684510Y-46936053D01*
X88776586Y-47133511D01*
X88782069Y-47143006D01*
X88818509Y-47195048D01*
X88828988Y-47203424D01*
X88842434Y-47196356D01*
X89543978Y-46494812D01*
X89550356Y-46483132D01*
X90280408Y-46483132D01*
X90280539Y-46484965D01*
X90284790Y-46491580D01*
X90990287Y-47197077D01*
X91002062Y-47203507D01*
X91014077Y-47194211D01*
X91049931Y-47143006D01*
X91055414Y-47133511D01*
X91147490Y-46936053D01*
X91151236Y-46925761D01*
X91207625Y-46715312D01*
X91209528Y-46704519D01*
X91228517Y-46487475D01*
X91228517Y-46476525D01*
X91209528Y-46259481D01*
X91207625Y-46248688D01*
X91151236Y-46038239D01*
X91147490Y-46027947D01*
X91055414Y-45830489D01*
X91049931Y-45820994D01*
X91013491Y-45768952D01*
X91003012Y-45760576D01*
X90989566Y-45767644D01*
X90288022Y-46469188D01*
X90280408Y-46483132D01*
X89550356Y-46483132D01*
X89551592Y-46480868D01*
X89551461Y-46479035D01*
X89547210Y-46472420D01*
X88841713Y-45766923D01*
X88829938Y-45760493D01*
X88817923Y-45769789D01*
X88782069Y-45820994D01*
X88776586Y-45830489D01*
X88684510Y-46027947D01*
X88680764Y-46038239D01*
X88624375Y-46248688D01*
X88622472Y-46259481D01*
X88603483Y-46476525D01*
X88603483Y-46487475D01*
X75989019Y-46487475D01*
X75989498Y-46482000D01*
X75969543Y-46253913D01*
X75932981Y-46117461D01*
X75911707Y-46038067D01*
X75911706Y-46038065D01*
X75910284Y-46032757D01*
X75815966Y-45830489D01*
X75815849Y-45830238D01*
X75815846Y-45830233D01*
X75813523Y-45825251D01*
X75682198Y-45637700D01*
X75520300Y-45475802D01*
X75515789Y-45472643D01*
X75511576Y-45469108D01*
X75512527Y-45467974D01*
X75472529Y-45417929D01*
X75465224Y-45347310D01*
X75497258Y-45283951D01*
X75558462Y-45247970D01*
X75575517Y-45244918D01*
X75586316Y-45243745D01*
X75722705Y-45192615D01*
X75839261Y-45105261D01*
X75926615Y-44988705D01*
X75977745Y-44852316D01*
X75984500Y-44790134D01*
X75984500Y-43942000D01*
X88602502Y-43942000D01*
X88622457Y-44170087D01*
X88681716Y-44391243D01*
X88684039Y-44396224D01*
X88684039Y-44396225D01*
X88776151Y-44593762D01*
X88776154Y-44593767D01*
X88778477Y-44598749D01*
X88909802Y-44786300D01*
X89071700Y-44948198D01*
X89076208Y-44951355D01*
X89076211Y-44951357D01*
X89117542Y-44980297D01*
X89259251Y-45079523D01*
X89264233Y-45081846D01*
X89264238Y-45081849D01*
X89299049Y-45098081D01*
X89352334Y-45144998D01*
X89371795Y-45213275D01*
X89351253Y-45281235D01*
X89299049Y-45326471D01*
X89264489Y-45342586D01*
X89254994Y-45348069D01*
X89202952Y-45384509D01*
X89194576Y-45394988D01*
X89201644Y-45408434D01*
X89903188Y-46109978D01*
X89917132Y-46117592D01*
X89918965Y-46117461D01*
X89925580Y-46113210D01*
X90631077Y-45407713D01*
X90637507Y-45395938D01*
X90628211Y-45383923D01*
X90577006Y-45348069D01*
X90567511Y-45342586D01*
X90532951Y-45326471D01*
X90479666Y-45279554D01*
X90460205Y-45211277D01*
X90480747Y-45143317D01*
X90532951Y-45098081D01*
X90567762Y-45081849D01*
X90567767Y-45081846D01*
X90572749Y-45079523D01*
X90714458Y-44980297D01*
X90755789Y-44951357D01*
X90755792Y-44951355D01*
X90760300Y-44948198D01*
X90922198Y-44786300D01*
X91053523Y-44598749D01*
X91055846Y-44593767D01*
X91055849Y-44593762D01*
X91147961Y-44396225D01*
X91147961Y-44396224D01*
X91150284Y-44391243D01*
X91209543Y-44170087D01*
X91229498Y-43942000D01*
X91218886Y-43820703D01*
X121334743Y-43820703D01*
X121372268Y-44105734D01*
X121448129Y-44383036D01*
X121560923Y-44647476D01*
X121572693Y-44667142D01*
X121678816Y-44844460D01*
X121708561Y-44894161D01*
X121888313Y-45118528D01*
X121969706Y-45195767D01*
X122062633Y-45283951D01*
X122096851Y-45316423D01*
X122330317Y-45484186D01*
X122334112Y-45486195D01*
X122334113Y-45486196D01*
X122355869Y-45497715D01*
X122584392Y-45618712D01*
X122854373Y-45717511D01*
X123135264Y-45778755D01*
X123163841Y-45781004D01*
X123358282Y-45796307D01*
X123358291Y-45796307D01*
X123360739Y-45796500D01*
X123516271Y-45796500D01*
X123518407Y-45796354D01*
X123518418Y-45796354D01*
X123726548Y-45782165D01*
X123726554Y-45782164D01*
X123730825Y-45781873D01*
X123735020Y-45781004D01*
X123735022Y-45781004D01*
X123871583Y-45752724D01*
X124012342Y-45723574D01*
X124283343Y-45627607D01*
X124538812Y-45495750D01*
X124542313Y-45493289D01*
X124542317Y-45493287D01*
X124697926Y-45383923D01*
X124774023Y-45330441D01*
X124876145Y-45235543D01*
X124981479Y-45137661D01*
X124981481Y-45137658D01*
X124984622Y-45134740D01*
X125166713Y-44912268D01*
X125316927Y-44667142D01*
X125432483Y-44403898D01*
X125437601Y-44385933D01*
X125510068Y-44131534D01*
X125511244Y-44127406D01*
X125551751Y-43842784D01*
X125551845Y-43824951D01*
X125553235Y-43559583D01*
X125553235Y-43559576D01*
X125553257Y-43555297D01*
X125545024Y-43492757D01*
X125527017Y-43355982D01*
X125515732Y-43270266D01*
X125439871Y-42992964D01*
X125348496Y-42778739D01*
X125328763Y-42732476D01*
X125328761Y-42732472D01*
X125327077Y-42728524D01*
X125179439Y-42481839D01*
X124999687Y-42257472D01*
X124791149Y-42059577D01*
X124557683Y-41891814D01*
X124535843Y-41880250D01*
X124512654Y-41867972D01*
X124303608Y-41757288D01*
X124033627Y-41658489D01*
X123752736Y-41597245D01*
X123721685Y-41594801D01*
X123529718Y-41579693D01*
X123529709Y-41579693D01*
X123527261Y-41579500D01*
X123371729Y-41579500D01*
X123369593Y-41579646D01*
X123369582Y-41579646D01*
X123161452Y-41593835D01*
X123161446Y-41593836D01*
X123157175Y-41594127D01*
X123152980Y-41594996D01*
X123152978Y-41594996D01*
X123016416Y-41623277D01*
X122875658Y-41652426D01*
X122604657Y-41748393D01*
X122349188Y-41880250D01*
X122345687Y-41882711D01*
X122345683Y-41882713D01*
X122335594Y-41889804D01*
X122113977Y-42045559D01*
X121903378Y-42241260D01*
X121721287Y-42463732D01*
X121571073Y-42708858D01*
X121455517Y-42972102D01*
X121376756Y-43248594D01*
X121360005Y-43366293D01*
X121338218Y-43519384D01*
X121336249Y-43533216D01*
X121336227Y-43537505D01*
X121336226Y-43537512D01*
X121334765Y-43816417D01*
X121334743Y-43820703D01*
X91218886Y-43820703D01*
X91209543Y-43713913D01*
X91167042Y-43555297D01*
X91151707Y-43498067D01*
X91151706Y-43498065D01*
X91150284Y-43492757D01*
X91137164Y-43464620D01*
X91055849Y-43290238D01*
X91055846Y-43290233D01*
X91053523Y-43285251D01*
X90922198Y-43097700D01*
X90760300Y-42935802D01*
X90755792Y-42932645D01*
X90755789Y-42932643D01*
X90677611Y-42877902D01*
X90572749Y-42804477D01*
X90567767Y-42802154D01*
X90567762Y-42802151D01*
X90370225Y-42710039D01*
X90370224Y-42710039D01*
X90365243Y-42707716D01*
X90359935Y-42706294D01*
X90359933Y-42706293D01*
X90149402Y-42649881D01*
X90149400Y-42649881D01*
X90144087Y-42648457D01*
X89916000Y-42628502D01*
X89687913Y-42648457D01*
X89682600Y-42649881D01*
X89682598Y-42649881D01*
X89472067Y-42706293D01*
X89472065Y-42706294D01*
X89466757Y-42707716D01*
X89461776Y-42710039D01*
X89461775Y-42710039D01*
X89264238Y-42802151D01*
X89264233Y-42802154D01*
X89259251Y-42804477D01*
X89154389Y-42877902D01*
X89076211Y-42932643D01*
X89076208Y-42932645D01*
X89071700Y-42935802D01*
X88909802Y-43097700D01*
X88778477Y-43285251D01*
X88776154Y-43290233D01*
X88776151Y-43290238D01*
X88694836Y-43464620D01*
X88681716Y-43492757D01*
X88680294Y-43498065D01*
X88680293Y-43498067D01*
X88664958Y-43555297D01*
X88622457Y-43713913D01*
X88602502Y-43942000D01*
X75984500Y-43942000D01*
X75984500Y-43093866D01*
X75977745Y-43031684D01*
X75926615Y-42895295D01*
X75839261Y-42778739D01*
X75722705Y-42691385D01*
X75586316Y-42640255D01*
X75524134Y-42633500D01*
X73827866Y-42633500D01*
X73765684Y-42640255D01*
X73629295Y-42691385D01*
X73512739Y-42778739D01*
X73425385Y-42895295D01*
X73374255Y-43031684D01*
X73367500Y-43093866D01*
X73367500Y-43243836D01*
X73347498Y-43311957D01*
X73296622Y-43355160D01*
X73297108Y-43355981D01*
X73292324Y-43358810D01*
X73292321Y-43358812D01*
X73290284Y-43360017D01*
X73290282Y-43360018D01*
X73279672Y-43366293D01*
X73261924Y-43374988D01*
X73243083Y-43382448D01*
X73236667Y-43387110D01*
X73236666Y-43387110D01*
X73207313Y-43408436D01*
X73197393Y-43414952D01*
X73166165Y-43433420D01*
X73166162Y-43433422D01*
X73159338Y-43437458D01*
X73145017Y-43451779D01*
X73129984Y-43464619D01*
X73113593Y-43476528D01*
X73085402Y-43510605D01*
X73077412Y-43519384D01*
X66352500Y-50244295D01*
X66290188Y-50278321D01*
X66263405Y-50281200D01*
X65016370Y-50281200D01*
X64948249Y-50261198D01*
X64901756Y-50207542D01*
X64891652Y-50137268D01*
X64896038Y-50117835D01*
X64908532Y-50077600D01*
X64956607Y-49922773D01*
X64961233Y-49887871D01*
X64986198Y-49699511D01*
X64986198Y-49699506D01*
X64986898Y-49694226D01*
X64978249Y-49463842D01*
X64930907Y-49238209D01*
X64913151Y-49193248D01*
X64848185Y-49028744D01*
X64848184Y-49028742D01*
X64846224Y-49023779D01*
X64821952Y-48983779D01*
X64729390Y-48831243D01*
X64726623Y-48826683D01*
X64639755Y-48726576D01*
X64579023Y-48656588D01*
X64579021Y-48656586D01*
X64575523Y-48652555D01*
X64511213Y-48599824D01*
X64401373Y-48509760D01*
X64401367Y-48509756D01*
X64397245Y-48506376D01*
X64392609Y-48503737D01*
X64392606Y-48503735D01*
X64201529Y-48394968D01*
X64196886Y-48392325D01*
X63980175Y-48313663D01*
X63974926Y-48312714D01*
X63974923Y-48312713D01*
X63757392Y-48273377D01*
X63757385Y-48273376D01*
X63753308Y-48272639D01*
X63735586Y-48271803D01*
X63730644Y-48271570D01*
X63730637Y-48271570D01*
X63729156Y-48271500D01*
X63317110Y-48271500D01*
X63250191Y-48277178D01*
X63150591Y-48285629D01*
X63150587Y-48285630D01*
X63145280Y-48286080D01*
X63140125Y-48287418D01*
X63140119Y-48287419D01*
X62927297Y-48342657D01*
X62927293Y-48342658D01*
X62922128Y-48343999D01*
X62917262Y-48346191D01*
X62917259Y-48346192D01*
X62808980Y-48394968D01*
X62711925Y-48438688D01*
X62520681Y-48567441D01*
X62516824Y-48571120D01*
X62516822Y-48571122D01*
X62480204Y-48606054D01*
X62353865Y-48726576D01*
X62216246Y-48911542D01*
X62213830Y-48916293D01*
X62213828Y-48916297D01*
X62164003Y-49014296D01*
X62111760Y-49117051D01*
X62110178Y-49122145D01*
X62110177Y-49122148D01*
X62057396Y-49292129D01*
X62043393Y-49337227D01*
X62042692Y-49342516D01*
X62024971Y-49476225D01*
X62013102Y-49565774D01*
X62013302Y-49571103D01*
X62013302Y-49571105D01*
X62016423Y-49654226D01*
X62021751Y-49796158D01*
X62069093Y-50021791D01*
X62071053Y-50026755D01*
X62071054Y-50026757D01*
X62103501Y-50108919D01*
X62109919Y-50179625D01*
X62077091Y-50242576D01*
X62015441Y-50277786D01*
X61986309Y-50281200D01*
X47967528Y-50281200D01*
X47899407Y-50261198D01*
X47852914Y-50207542D01*
X47842810Y-50137268D01*
X47850784Y-50107800D01*
X47850825Y-50107699D01*
X47853240Y-50102949D01*
X47921607Y-49882773D01*
X47933793Y-49790827D01*
X47951198Y-49659511D01*
X47951198Y-49659506D01*
X47951898Y-49654226D01*
X47948778Y-49571105D01*
X47946877Y-49520489D01*
X47943249Y-49423842D01*
X47895907Y-49198209D01*
X47893948Y-49193248D01*
X47813185Y-48988744D01*
X47813184Y-48988742D01*
X47811224Y-48983779D01*
X47767390Y-48911542D01*
X47694390Y-48791243D01*
X47691623Y-48786683D01*
X47604755Y-48686576D01*
X47544023Y-48616588D01*
X47544021Y-48616586D01*
X47540523Y-48612555D01*
X47481868Y-48564461D01*
X47366373Y-48469760D01*
X47366367Y-48469756D01*
X47362245Y-48466376D01*
X47357609Y-48463737D01*
X47357606Y-48463735D01*
X47166529Y-48354968D01*
X47161886Y-48352325D01*
X46945175Y-48273663D01*
X46939926Y-48272714D01*
X46939923Y-48272713D01*
X46722392Y-48233377D01*
X46722385Y-48233376D01*
X46718308Y-48232639D01*
X46700586Y-48231803D01*
X46695644Y-48231570D01*
X46695637Y-48231570D01*
X46694156Y-48231500D01*
X46282110Y-48231500D01*
X46215191Y-48237178D01*
X46115591Y-48245629D01*
X46115587Y-48245630D01*
X46110280Y-48246080D01*
X46105125Y-48247418D01*
X46105119Y-48247419D01*
X45892297Y-48302657D01*
X45892293Y-48302658D01*
X45887128Y-48303999D01*
X45882262Y-48306191D01*
X45882259Y-48306192D01*
X45773980Y-48354968D01*
X45676925Y-48398688D01*
X45485681Y-48527441D01*
X45481824Y-48531120D01*
X45481822Y-48531122D01*
X45424797Y-48585522D01*
X45318865Y-48686576D01*
X45181246Y-48871542D01*
X45178830Y-48876293D01*
X45178828Y-48876297D01*
X45163086Y-48907260D01*
X45076760Y-49077051D01*
X45075178Y-49082145D01*
X45075177Y-49082148D01*
X45028259Y-49233248D01*
X45008393Y-49297227D01*
X45007692Y-49302516D01*
X44985604Y-49469173D01*
X44978102Y-49525774D01*
X44986751Y-49756158D01*
X45034093Y-49981791D01*
X45036051Y-49986750D01*
X45036052Y-49986752D01*
X45087820Y-50117835D01*
X45118776Y-50196221D01*
X45121543Y-50200780D01*
X45121544Y-50200783D01*
X45176290Y-50291001D01*
X45238377Y-50393317D01*
X45241874Y-50397347D01*
X45379374Y-50555802D01*
X45389477Y-50567445D01*
X45393608Y-50570832D01*
X45563627Y-50710240D01*
X45563633Y-50710244D01*
X45567755Y-50713624D01*
X45599250Y-50731552D01*
X45648555Y-50782632D01*
X45662417Y-50852262D01*
X45636434Y-50918333D01*
X45607284Y-50945573D01*
X45485681Y-51027441D01*
X45318865Y-51186576D01*
X45181246Y-51371542D01*
X45178830Y-51376293D01*
X45178828Y-51376297D01*
X45131396Y-51469590D01*
X45076760Y-51577051D01*
X45075178Y-51582145D01*
X45075177Y-51582148D01*
X45057770Y-51638209D01*
X45008393Y-51797227D01*
X45007692Y-51802516D01*
X44979367Y-52016230D01*
X44978102Y-52025774D01*
X44978302Y-52031103D01*
X44978302Y-52031105D01*
X44981821Y-52124842D01*
X44986751Y-52256158D01*
X44987846Y-52261377D01*
X45007162Y-52353439D01*
X45034093Y-52481791D01*
X45036051Y-52486750D01*
X45036052Y-52486752D01*
X45108647Y-52670572D01*
X45118776Y-52696221D01*
X45121543Y-52700780D01*
X45121544Y-52700783D01*
X45176806Y-52791852D01*
X45238377Y-52893317D01*
X45241874Y-52897347D01*
X45363148Y-53037103D01*
X45389477Y-53067445D01*
X45393608Y-53070832D01*
X45563627Y-53210240D01*
X45563633Y-53210244D01*
X45567755Y-53213624D01*
X45599250Y-53231552D01*
X45648555Y-53282632D01*
X45662417Y-53352262D01*
X45636434Y-53418333D01*
X45607284Y-53445573D01*
X45485681Y-53527441D01*
X45481824Y-53531120D01*
X45481822Y-53531122D01*
X45431106Y-53579503D01*
X45318865Y-53686576D01*
X45181246Y-53871542D01*
X45178830Y-53876293D01*
X45178828Y-53876297D01*
X45149744Y-53933502D01*
X45076760Y-54077051D01*
X45075178Y-54082145D01*
X45075177Y-54082148D01*
X45028608Y-54232125D01*
X45008393Y-54297227D01*
X45007692Y-54302516D01*
X44981980Y-54496516D01*
X44978102Y-54525774D01*
X44978302Y-54531103D01*
X44978302Y-54531105D01*
X44981994Y-54629438D01*
X44986751Y-54756158D01*
X44987846Y-54761377D01*
X44990072Y-54771988D01*
X45034093Y-54981791D01*
X45036051Y-54986750D01*
X45036052Y-54986752D01*
X45111680Y-55178252D01*
X45118776Y-55196221D01*
X45121543Y-55200780D01*
X45121544Y-55200783D01*
X45156146Y-55257805D01*
X45238377Y-55393317D01*
X45241874Y-55397347D01*
X45363148Y-55537103D01*
X45389477Y-55567445D01*
X45393608Y-55570832D01*
X45425529Y-55597006D01*
X45465524Y-55655666D01*
X45467455Y-55726636D01*
X45430710Y-55787384D01*
X45411941Y-55801584D01*
X45272193Y-55888063D01*
X45260792Y-55897099D01*
X45146261Y-56011829D01*
X45137249Y-56023240D01*
X45052184Y-56161243D01*
X45046037Y-56174424D01*
X44994862Y-56328710D01*
X44991995Y-56342086D01*
X44982328Y-56436438D01*
X44982000Y-56442855D01*
X44982000Y-56817885D01*
X44986475Y-56833124D01*
X44987865Y-56834329D01*
X44995548Y-56836000D01*
X47929884Y-56836000D01*
X47945123Y-56831525D01*
X47946328Y-56830135D01*
X47947999Y-56822452D01*
X47947999Y-56442905D01*
X47947662Y-56436386D01*
X47937743Y-56340794D01*
X47934851Y-56327400D01*
X47883412Y-56173216D01*
X47877239Y-56160038D01*
X47791937Y-56022193D01*
X47782901Y-56010792D01*
X47668171Y-55896261D01*
X47656757Y-55887247D01*
X47517287Y-55801277D01*
X47469793Y-55748505D01*
X47458369Y-55678434D01*
X47486643Y-55613310D01*
X47496430Y-55602847D01*
X47508486Y-55591347D01*
X47611135Y-55493424D01*
X47748754Y-55308458D01*
X47751509Y-55303041D01*
X47818859Y-55170572D01*
X47853240Y-55102949D01*
X47854884Y-55097657D01*
X47920024Y-54887871D01*
X47921607Y-54882773D01*
X47933793Y-54790827D01*
X47951198Y-54659511D01*
X47951198Y-54659506D01*
X47951898Y-54654226D01*
X47950968Y-54629438D01*
X47943449Y-54429173D01*
X47943249Y-54423842D01*
X47895907Y-54198209D01*
X47855746Y-54096515D01*
X47813185Y-53988744D01*
X47813184Y-53988742D01*
X47811224Y-53983779D01*
X47794556Y-53956310D01*
X47694390Y-53791243D01*
X47691623Y-53786683D01*
X47646774Y-53734999D01*
X47544023Y-53616588D01*
X47544021Y-53616586D01*
X47540523Y-53612555D01*
X47451009Y-53539158D01*
X47366373Y-53469760D01*
X47366367Y-53469756D01*
X47362245Y-53466376D01*
X47330750Y-53448448D01*
X47281445Y-53397368D01*
X47267583Y-53327738D01*
X47293566Y-53261667D01*
X47322716Y-53234427D01*
X47380478Y-53195539D01*
X47444319Y-53152559D01*
X47611135Y-52993424D01*
X47748754Y-52808458D01*
X47754606Y-52796949D01*
X47830485Y-52647704D01*
X47853240Y-52602949D01*
X47863011Y-52571484D01*
X47920024Y-52387871D01*
X47921607Y-52382773D01*
X47925501Y-52353392D01*
X47951198Y-52159511D01*
X47951198Y-52159506D01*
X47951898Y-52154226D01*
X47949646Y-52094226D01*
X47943449Y-51929173D01*
X47943249Y-51923842D01*
X47896298Y-51700073D01*
X47901885Y-51629298D01*
X47944850Y-51572777D01*
X48011552Y-51548458D01*
X48019613Y-51548200D01*
X61962080Y-51548200D01*
X62030201Y-51568202D01*
X62076694Y-51621858D01*
X62086798Y-51692132D01*
X62082414Y-51711561D01*
X62043393Y-51837227D01*
X62042692Y-51842516D01*
X62018977Y-52021449D01*
X62013102Y-52065774D01*
X62013302Y-52071103D01*
X62013302Y-52071105D01*
X62016423Y-52154226D01*
X62021751Y-52296158D01*
X62022846Y-52301377D01*
X62038815Y-52377484D01*
X62069093Y-52521791D01*
X62071051Y-52526750D01*
X62071052Y-52526752D01*
X62103769Y-52609595D01*
X62153776Y-52736221D01*
X62156543Y-52740780D01*
X62156544Y-52740783D01*
X62200209Y-52812740D01*
X62273377Y-52933317D01*
X62276874Y-52937347D01*
X62363438Y-53037103D01*
X62424477Y-53107445D01*
X62428608Y-53110832D01*
X62598627Y-53250240D01*
X62598633Y-53250244D01*
X62602755Y-53253624D01*
X62634250Y-53271552D01*
X62683555Y-53322632D01*
X62697417Y-53392262D01*
X62671434Y-53458333D01*
X62642284Y-53485573D01*
X62520681Y-53567441D01*
X62516824Y-53571120D01*
X62516822Y-53571122D01*
X62476940Y-53609168D01*
X62353865Y-53726576D01*
X62216246Y-53911542D01*
X62213830Y-53916293D01*
X62213828Y-53916297D01*
X62172248Y-53998080D01*
X62111760Y-54117051D01*
X62110178Y-54122145D01*
X62110177Y-54122148D01*
X62065418Y-54266296D01*
X62043393Y-54337227D01*
X62042692Y-54342516D01*
X62014367Y-54556230D01*
X62013102Y-54565774D01*
X62013302Y-54571103D01*
X62013302Y-54571105D01*
X62016423Y-54654226D01*
X62021751Y-54796158D01*
X62069093Y-55021791D01*
X62071051Y-55026750D01*
X62071052Y-55026752D01*
X62148197Y-55222093D01*
X62153776Y-55236221D01*
X62156543Y-55240780D01*
X62156544Y-55240783D01*
X62200209Y-55312740D01*
X62273377Y-55433317D01*
X62276874Y-55437347D01*
X62415419Y-55597006D01*
X62424477Y-55607445D01*
X62428608Y-55610832D01*
X62598627Y-55750240D01*
X62598633Y-55750244D01*
X62602755Y-55753624D01*
X62634250Y-55771552D01*
X62683555Y-55822632D01*
X62697417Y-55892262D01*
X62671434Y-55958333D01*
X62642284Y-55985573D01*
X62520681Y-56067441D01*
X62516824Y-56071120D01*
X62516822Y-56071122D01*
X62451378Y-56133553D01*
X62353865Y-56226576D01*
X62216246Y-56411542D01*
X62213830Y-56416293D01*
X62213828Y-56416297D01*
X62174515Y-56493621D01*
X62111760Y-56617051D01*
X62110178Y-56622145D01*
X62110177Y-56622148D01*
X62065418Y-56766296D01*
X62043393Y-56837227D01*
X62042692Y-56842516D01*
X62021221Y-57004517D01*
X62013102Y-57065774D01*
X62013302Y-57071103D01*
X62013302Y-57071105D01*
X62014861Y-57112623D01*
X62021751Y-57296158D01*
X62022846Y-57301377D01*
X62026226Y-57317484D01*
X62069093Y-57521791D01*
X62071051Y-57526750D01*
X62071052Y-57526752D01*
X62123704Y-57660073D01*
X62153776Y-57736221D01*
X62156543Y-57740780D01*
X62156544Y-57740783D01*
X62180052Y-57779523D01*
X62273377Y-57933317D01*
X62276874Y-57937347D01*
X62414146Y-58095539D01*
X62424477Y-58107445D01*
X62428608Y-58110832D01*
X62598627Y-58250240D01*
X62598633Y-58250244D01*
X62602755Y-58253624D01*
X62634250Y-58271552D01*
X62683555Y-58322632D01*
X62697417Y-58392262D01*
X62671434Y-58458333D01*
X62642284Y-58485573D01*
X62520681Y-58567441D01*
X62516824Y-58571120D01*
X62516822Y-58571122D01*
X62497297Y-58589748D01*
X62353865Y-58726576D01*
X62216246Y-58911542D01*
X62213830Y-58916293D01*
X62213828Y-58916297D01*
X62191917Y-58959393D01*
X62111760Y-59117051D01*
X62110178Y-59122145D01*
X62110177Y-59122148D01*
X62048115Y-59322020D01*
X62043393Y-59337227D01*
X62042692Y-59342516D01*
X62026356Y-59465774D01*
X62013102Y-59565774D01*
X62013302Y-59571103D01*
X62013302Y-59571105D01*
X62014515Y-59603405D01*
X62021751Y-59796158D01*
X62069093Y-60021791D01*
X62071051Y-60026750D01*
X62071052Y-60026752D01*
X62134811Y-60188198D01*
X62153776Y-60236221D01*
X62156543Y-60240780D01*
X62156544Y-60240783D01*
X62163800Y-60252740D01*
X62273377Y-60433317D01*
X62276874Y-60437347D01*
X62363438Y-60537103D01*
X62424477Y-60607445D01*
X62460120Y-60636670D01*
X62500114Y-60695329D01*
X62502046Y-60766299D01*
X62465302Y-60827048D01*
X62446532Y-60841248D01*
X62393924Y-60873803D01*
X62300652Y-60931522D01*
X62175695Y-61056697D01*
X62171855Y-61062927D01*
X62171854Y-61062928D01*
X62104429Y-61172312D01*
X62082885Y-61207262D01*
X62063816Y-61264753D01*
X62033252Y-61356903D01*
X62027203Y-61375139D01*
X62026503Y-61381975D01*
X62026502Y-61381978D01*
X62023816Y-61408193D01*
X62016500Y-61479600D01*
X62016500Y-62780400D01*
X62016837Y-62783646D01*
X62016837Y-62783650D01*
X62024710Y-62859523D01*
X62027474Y-62886166D01*
X62029655Y-62892702D01*
X62029655Y-62892704D01*
X62040337Y-62924722D01*
X62083450Y-63053946D01*
X62176522Y-63204348D01*
X62301697Y-63329305D01*
X62307927Y-63333145D01*
X62307928Y-63333146D01*
X62445100Y-63417700D01*
X62452262Y-63422115D01*
X62492665Y-63435516D01*
X62613611Y-63475632D01*
X62613613Y-63475632D01*
X62620139Y-63477797D01*
X62626975Y-63478497D01*
X62626978Y-63478498D01*
X62670031Y-63482909D01*
X62724600Y-63488500D01*
X63386805Y-63488500D01*
X63454926Y-63508502D01*
X63501419Y-63562158D01*
X63511523Y-63632432D01*
X63482029Y-63697012D01*
X63475900Y-63703595D01*
X63019900Y-64159595D01*
X62957588Y-64193621D01*
X62930805Y-64196500D01*
X47865596Y-64196500D01*
X47797475Y-64176498D01*
X47757877Y-64135866D01*
X47740519Y-64107260D01*
X47691623Y-64026683D01*
X47604755Y-63926576D01*
X47544023Y-63856588D01*
X47544021Y-63856586D01*
X47540523Y-63852555D01*
X47485910Y-63807775D01*
X47366373Y-63709760D01*
X47366367Y-63709756D01*
X47362245Y-63706376D01*
X47357609Y-63703737D01*
X47357606Y-63703735D01*
X47166529Y-63594968D01*
X47161886Y-63592325D01*
X46945175Y-63513663D01*
X46939926Y-63512714D01*
X46939923Y-63512713D01*
X46722392Y-63473377D01*
X46722385Y-63473376D01*
X46718308Y-63472639D01*
X46700586Y-63471803D01*
X46695644Y-63471570D01*
X46695637Y-63471570D01*
X46694156Y-63471500D01*
X46282110Y-63471500D01*
X46215191Y-63477178D01*
X46115591Y-63485629D01*
X46115587Y-63485630D01*
X46110280Y-63486080D01*
X46105125Y-63487418D01*
X46105119Y-63487419D01*
X45892297Y-63542657D01*
X45892293Y-63542658D01*
X45887128Y-63543999D01*
X45882262Y-63546191D01*
X45882259Y-63546192D01*
X45773980Y-63594968D01*
X45676925Y-63638688D01*
X45485681Y-63767441D01*
X45318865Y-63926576D01*
X45181246Y-64111542D01*
X45178830Y-64116293D01*
X45178828Y-64116297D01*
X45148221Y-64176498D01*
X45076760Y-64317051D01*
X45008393Y-64537227D01*
X45007692Y-64542516D01*
X44980828Y-64745207D01*
X44978102Y-64765774D01*
X44978302Y-64771103D01*
X44978302Y-64771105D01*
X44981508Y-64856498D01*
X44986751Y-64996158D01*
X45034093Y-65221791D01*
X45036051Y-65226750D01*
X45036052Y-65226752D01*
X45053668Y-65271357D01*
X45118776Y-65436221D01*
X45238377Y-65633317D01*
X45241874Y-65637347D01*
X45379374Y-65795802D01*
X45389477Y-65807445D01*
X45393608Y-65810832D01*
X45563627Y-65950240D01*
X45563633Y-65950244D01*
X45567755Y-65953624D01*
X45599250Y-65971552D01*
X45648555Y-66022632D01*
X45662417Y-66092262D01*
X45636434Y-66158333D01*
X45607284Y-66185573D01*
X45485681Y-66267441D01*
X45481824Y-66271120D01*
X45481822Y-66271122D01*
X45445505Y-66305767D01*
X45318865Y-66426576D01*
X45315682Y-66430854D01*
X45296025Y-66457274D01*
X45181246Y-66611542D01*
X45178830Y-66616293D01*
X45178828Y-66616297D01*
X45153793Y-66665538D01*
X45076760Y-66817051D01*
X45075178Y-66822145D01*
X45075177Y-66822148D01*
X45052101Y-66896466D01*
X45008393Y-67037227D01*
X45007692Y-67042516D01*
X44979368Y-67256225D01*
X44978102Y-67265774D01*
X44986751Y-67496158D01*
X45034093Y-67721791D01*
X45036051Y-67726750D01*
X45036052Y-67726752D01*
X45088704Y-67860073D01*
X45118776Y-67936221D01*
X45121543Y-67940780D01*
X45121544Y-67940783D01*
X45170281Y-68021098D01*
X45238377Y-68133317D01*
X45241874Y-68137347D01*
X45328438Y-68237103D01*
X45389477Y-68307445D01*
X45393608Y-68310832D01*
X45563627Y-68450240D01*
X45563633Y-68450244D01*
X45567755Y-68453624D01*
X45599250Y-68471552D01*
X45648555Y-68522632D01*
X45662417Y-68592262D01*
X45636434Y-68658333D01*
X45607284Y-68685573D01*
X45485681Y-68767441D01*
X45318865Y-68926576D01*
X45181246Y-69111542D01*
X45178830Y-69116293D01*
X45178828Y-69116297D01*
X45153793Y-69165538D01*
X45076760Y-69317051D01*
X45075178Y-69322145D01*
X45075177Y-69322148D01*
X45036570Y-69446484D01*
X45008393Y-69537227D01*
X45007692Y-69542516D01*
X44980044Y-69751123D01*
X44978102Y-69765774D01*
X44978302Y-69771103D01*
X44978302Y-69771105D01*
X44978654Y-69780489D01*
X44986751Y-69996158D01*
X44987846Y-70001377D01*
X44989829Y-70010827D01*
X45034093Y-70221791D01*
X45036051Y-70226750D01*
X45036052Y-70226752D01*
X45049878Y-70261760D01*
X45118776Y-70436221D01*
X45121543Y-70440780D01*
X45121544Y-70440783D01*
X45201618Y-70572740D01*
X45238377Y-70633317D01*
X45241874Y-70637347D01*
X45345793Y-70757103D01*
X45389477Y-70807445D01*
X45425120Y-70836670D01*
X45465114Y-70895329D01*
X45467046Y-70966299D01*
X45430302Y-71027048D01*
X45411532Y-71041248D01*
X45336406Y-71087738D01*
X45265652Y-71131522D01*
X45140695Y-71256697D01*
X45136855Y-71262927D01*
X45136854Y-71262928D01*
X45071367Y-71369168D01*
X45047885Y-71407262D01*
X45034845Y-71446576D01*
X45005276Y-71535726D01*
X44992203Y-71575139D01*
X44991503Y-71581975D01*
X44991502Y-71581978D01*
X44988292Y-71613307D01*
X44981500Y-71679600D01*
X44981500Y-72980400D01*
X44981837Y-72983646D01*
X44981837Y-72983650D01*
X44991270Y-73074561D01*
X44992474Y-73086166D01*
X45048450Y-73253946D01*
X45141522Y-73404348D01*
X45266697Y-73529305D01*
X45272927Y-73533145D01*
X45272928Y-73533146D01*
X45410090Y-73617694D01*
X45417262Y-73622115D01*
X45466158Y-73638333D01*
X45578611Y-73675632D01*
X45578613Y-73675632D01*
X45585139Y-73677797D01*
X45591975Y-73678497D01*
X45591978Y-73678498D01*
X45635031Y-73682909D01*
X45689600Y-73688500D01*
X47240400Y-73688500D01*
X47243646Y-73688163D01*
X47243650Y-73688163D01*
X47339308Y-73678238D01*
X47339312Y-73678237D01*
X47346166Y-73677526D01*
X47352702Y-73675345D01*
X47352704Y-73675345D01*
X47484806Y-73631272D01*
X47513946Y-73621550D01*
X47664348Y-73528478D01*
X47789305Y-73403303D01*
X47803734Y-73379895D01*
X47878275Y-73258968D01*
X47878276Y-73258966D01*
X47882115Y-73252738D01*
X47937797Y-73084861D01*
X47938853Y-73074561D01*
X47948172Y-72983598D01*
X47948500Y-72980400D01*
X47948500Y-71794594D01*
X47968502Y-71726473D01*
X47985405Y-71705499D01*
X50345899Y-69345005D01*
X50408211Y-69310979D01*
X50434994Y-69308100D01*
X61949691Y-69308100D01*
X62017812Y-69328102D01*
X62064305Y-69381758D01*
X62074409Y-69452032D01*
X62070023Y-69471464D01*
X62043393Y-69557227D01*
X62042692Y-69562516D01*
X62014441Y-69775672D01*
X62013102Y-69785774D01*
X62021751Y-70016158D01*
X62069093Y-70241791D01*
X62071051Y-70246750D01*
X62071052Y-70246752D01*
X62145878Y-70436221D01*
X62153776Y-70456221D01*
X62156543Y-70460780D01*
X62156544Y-70460783D01*
X62166000Y-70476366D01*
X62273377Y-70653317D01*
X62276874Y-70657347D01*
X62363438Y-70757103D01*
X62424477Y-70827445D01*
X62466030Y-70861516D01*
X62598627Y-70970240D01*
X62598633Y-70970244D01*
X62602755Y-70973624D01*
X62634250Y-70991552D01*
X62683555Y-71042632D01*
X62697417Y-71112262D01*
X62671434Y-71178333D01*
X62642284Y-71205573D01*
X62520681Y-71287441D01*
X62516824Y-71291120D01*
X62516822Y-71291122D01*
X62467524Y-71338150D01*
X62353865Y-71446576D01*
X62216246Y-71631542D01*
X62213830Y-71636293D01*
X62213828Y-71636297D01*
X62178644Y-71705499D01*
X62111760Y-71837051D01*
X62110178Y-71842145D01*
X62110177Y-71842148D01*
X62103215Y-71864570D01*
X62043393Y-72057227D01*
X62042692Y-72062516D01*
X62023648Y-72206207D01*
X62013102Y-72285774D01*
X62021751Y-72516158D01*
X62067161Y-72732580D01*
X62068702Y-72739926D01*
X62063115Y-72810702D01*
X62020150Y-72867223D01*
X61953448Y-72891542D01*
X61945387Y-72891800D01*
X51913167Y-72891800D01*
X51901984Y-72891273D01*
X51894491Y-72889598D01*
X51886565Y-72889847D01*
X51886564Y-72889847D01*
X51826414Y-72891738D01*
X51822455Y-72891800D01*
X51794544Y-72891800D01*
X51790610Y-72892297D01*
X51790609Y-72892297D01*
X51790544Y-72892305D01*
X51778707Y-72893238D01*
X51746890Y-72894238D01*
X51742429Y-72894378D01*
X51734510Y-72894627D01*
X51716854Y-72899756D01*
X51715058Y-72900278D01*
X51695706Y-72904286D01*
X51688635Y-72905180D01*
X51675603Y-72906826D01*
X51668234Y-72909743D01*
X51668232Y-72909744D01*
X51634497Y-72923100D01*
X51623269Y-72926945D01*
X51580807Y-72939282D01*
X51573985Y-72943316D01*
X51573979Y-72943319D01*
X51563368Y-72949594D01*
X51545618Y-72958290D01*
X51534156Y-72962828D01*
X51534151Y-72962831D01*
X51526783Y-72965748D01*
X51520368Y-72970409D01*
X51491025Y-72991727D01*
X51481107Y-72998243D01*
X51462419Y-73009295D01*
X51443037Y-73020758D01*
X51428713Y-73035082D01*
X51413681Y-73047921D01*
X51397293Y-73059828D01*
X51370096Y-73092704D01*
X51369112Y-73093893D01*
X51361122Y-73102673D01*
X46072747Y-78391048D01*
X46064461Y-78398588D01*
X46057982Y-78402700D01*
X46052557Y-78408477D01*
X46011357Y-78452351D01*
X46008602Y-78455193D01*
X45988865Y-78474930D01*
X45986385Y-78478127D01*
X45978682Y-78487147D01*
X45948414Y-78519379D01*
X45944595Y-78526325D01*
X45944593Y-78526328D01*
X45938652Y-78537134D01*
X45927801Y-78553653D01*
X45915386Y-78569659D01*
X45912241Y-78576928D01*
X45912238Y-78576932D01*
X45897826Y-78610237D01*
X45892609Y-78620887D01*
X45871305Y-78659640D01*
X45866506Y-78678333D01*
X45866267Y-78679262D01*
X45859863Y-78697966D01*
X45851819Y-78716555D01*
X45850579Y-78724386D01*
X45850578Y-78724388D01*
X45848248Y-78739093D01*
X45817834Y-78803245D01*
X45775551Y-78834261D01*
X45676925Y-78878688D01*
X45485681Y-79007441D01*
X45481824Y-79011120D01*
X45481822Y-79011122D01*
X45444545Y-79046683D01*
X45318865Y-79166576D01*
X45181246Y-79351542D01*
X45178830Y-79356293D01*
X45178828Y-79356297D01*
X45156581Y-79400054D01*
X45076760Y-79557051D01*
X45075178Y-79562145D01*
X45075177Y-79562148D01*
X45037390Y-79683842D01*
X45008393Y-79777227D01*
X45007692Y-79782516D01*
X44981336Y-79981377D01*
X44978102Y-80005774D01*
X44978302Y-80011103D01*
X44978302Y-80011105D01*
X44981935Y-80107871D01*
X44986751Y-80236158D01*
X45034093Y-80461791D01*
X45118776Y-80676221D01*
X45121543Y-80680780D01*
X45121544Y-80680783D01*
X45207693Y-80822752D01*
X45238377Y-80873317D01*
X45241874Y-80877347D01*
X45328438Y-80977103D01*
X45389477Y-81047445D01*
X45419820Y-81072325D01*
X45563627Y-81190240D01*
X45563633Y-81190244D01*
X45567755Y-81193624D01*
X45599250Y-81211552D01*
X45648555Y-81262632D01*
X45662417Y-81332262D01*
X45636434Y-81398333D01*
X45607284Y-81425573D01*
X45485681Y-81507441D01*
X45318865Y-81666576D01*
X45315682Y-81670854D01*
X45291864Y-81702866D01*
X45181246Y-81851542D01*
X45178830Y-81856293D01*
X45178828Y-81856297D01*
X45149873Y-81913248D01*
X45076760Y-82057051D01*
X45075178Y-82062145D01*
X45075177Y-82062148D01*
X45019801Y-82240489D01*
X45008393Y-82277227D01*
X45007692Y-82282516D01*
X44981300Y-82481646D01*
X44978102Y-82505774D01*
X44978302Y-82511103D01*
X44978302Y-82511105D01*
X44981935Y-82607871D01*
X44986751Y-82736158D01*
X45034093Y-82961791D01*
X45036051Y-82966750D01*
X45036052Y-82966752D01*
X45115018Y-83166704D01*
X45118776Y-83176221D01*
X45121543Y-83180780D01*
X45121544Y-83180783D01*
X45183821Y-83283412D01*
X45238377Y-83373317D01*
X45241874Y-83377347D01*
X45385150Y-83542458D01*
X45389477Y-83547445D01*
X45393608Y-83550832D01*
X45563627Y-83690240D01*
X45563633Y-83690244D01*
X45567755Y-83693624D01*
X45599250Y-83711552D01*
X45648555Y-83762632D01*
X45662417Y-83832262D01*
X45636434Y-83898333D01*
X45607284Y-83925573D01*
X45485681Y-84007441D01*
X45318865Y-84166576D01*
X45181246Y-84351542D01*
X45178830Y-84356293D01*
X45178828Y-84356297D01*
X45131396Y-84449590D01*
X45076760Y-84557051D01*
X45075178Y-84562145D01*
X45075177Y-84562148D01*
X45013115Y-84762020D01*
X45008393Y-84777227D01*
X45007692Y-84782516D01*
X44979004Y-84998970D01*
X44978102Y-85005774D01*
X44978302Y-85011103D01*
X44978302Y-85011105D01*
X44979098Y-85032309D01*
X44986751Y-85236158D01*
X45034093Y-85461791D01*
X45036051Y-85466750D01*
X45036052Y-85466752D01*
X45095299Y-85616773D01*
X45118776Y-85676221D01*
X45121543Y-85680780D01*
X45121544Y-85680783D01*
X45145798Y-85720752D01*
X45238377Y-85873317D01*
X45241874Y-85877347D01*
X45385150Y-86042458D01*
X45389477Y-86047445D01*
X45425120Y-86076670D01*
X45465114Y-86135329D01*
X45467046Y-86206299D01*
X45430302Y-86267048D01*
X45411532Y-86281248D01*
X45373421Y-86304832D01*
X45265652Y-86371522D01*
X45140695Y-86496697D01*
X45136855Y-86502927D01*
X45136854Y-86502928D01*
X45056869Y-86632688D01*
X45047885Y-86647262D01*
X44992203Y-86815139D01*
X44981500Y-86919600D01*
X44981500Y-88220400D01*
X44992474Y-88326166D01*
X44994655Y-88332702D01*
X44994655Y-88332704D01*
X45009142Y-88376126D01*
X45048450Y-88493946D01*
X45141522Y-88644348D01*
X45266697Y-88769305D01*
X45272927Y-88773145D01*
X45272928Y-88773146D01*
X45410090Y-88857694D01*
X45417262Y-88862115D01*
X45476496Y-88881762D01*
X45578611Y-88915632D01*
X45578613Y-88915632D01*
X45585139Y-88917797D01*
X45591975Y-88918497D01*
X45591978Y-88918498D01*
X45635031Y-88922909D01*
X45689600Y-88928500D01*
X47240400Y-88928500D01*
X47243646Y-88928163D01*
X47243650Y-88928163D01*
X47339308Y-88918238D01*
X47339312Y-88918237D01*
X47346166Y-88917526D01*
X47352702Y-88915345D01*
X47352704Y-88915345D01*
X47484806Y-88871272D01*
X47513946Y-88861550D01*
X47664348Y-88768478D01*
X47789305Y-88643303D01*
X47882115Y-88492738D01*
X47926425Y-88359147D01*
X47935632Y-88331389D01*
X47935632Y-88331387D01*
X47937797Y-88324861D01*
X47948500Y-88220400D01*
X47948500Y-86919600D01*
X47948163Y-86916350D01*
X47938238Y-86820692D01*
X47938237Y-86820688D01*
X47937526Y-86813834D01*
X47921275Y-86765122D01*
X47883868Y-86653002D01*
X47881550Y-86646054D01*
X47788478Y-86495652D01*
X47663303Y-86370695D01*
X47517660Y-86280919D01*
X47470168Y-86228148D01*
X47458744Y-86158076D01*
X47487018Y-86092952D01*
X47496805Y-86082490D01*
X47607278Y-85977103D01*
X47611135Y-85973424D01*
X47748754Y-85788458D01*
X47783178Y-85720752D01*
X47850822Y-85587704D01*
X47853240Y-85582949D01*
X47889321Y-85466752D01*
X47920024Y-85367871D01*
X47921607Y-85362773D01*
X47935959Y-85254489D01*
X47951198Y-85139511D01*
X47951198Y-85139506D01*
X47951898Y-85134226D01*
X47943249Y-84903842D01*
X47895907Y-84678209D01*
X47872695Y-84619432D01*
X47866277Y-84548727D01*
X47899104Y-84485775D01*
X47934265Y-84462195D01*
X47933601Y-84460987D01*
X47940540Y-84457173D01*
X47947917Y-84454252D01*
X47983687Y-84428264D01*
X47993607Y-84421748D01*
X48024835Y-84403280D01*
X48024838Y-84403278D01*
X48031662Y-84399242D01*
X48045983Y-84384921D01*
X48061017Y-84372080D01*
X48070994Y-84364831D01*
X48077407Y-84360172D01*
X48105598Y-84326095D01*
X48113588Y-84317316D01*
X50735199Y-81695705D01*
X50797511Y-81661679D01*
X50824294Y-81658800D01*
X61890500Y-81658800D01*
X61958621Y-81678802D01*
X62005114Y-81732458D01*
X62016500Y-81784800D01*
X62016500Y-83000400D01*
X62016837Y-83003646D01*
X62016837Y-83003650D01*
X62026362Y-83095445D01*
X62027474Y-83106166D01*
X62029655Y-83112702D01*
X62029655Y-83112704D01*
X62037505Y-83136232D01*
X62083450Y-83273946D01*
X62176522Y-83424348D01*
X62301697Y-83549305D01*
X62307927Y-83553145D01*
X62307928Y-83553146D01*
X62428207Y-83627287D01*
X62452262Y-83642115D01*
X62489213Y-83654371D01*
X62613611Y-83695632D01*
X62613613Y-83695632D01*
X62620139Y-83697797D01*
X62626975Y-83698497D01*
X62626978Y-83698498D01*
X62670031Y-83702909D01*
X62724600Y-83708500D01*
X63128405Y-83708500D01*
X63196526Y-83728502D01*
X63243019Y-83782158D01*
X63253123Y-83852432D01*
X63223629Y-83917012D01*
X63217500Y-83923595D01*
X62224300Y-84916795D01*
X62161988Y-84950821D01*
X62135205Y-84953700D01*
X54407968Y-84953700D01*
X54396785Y-84953173D01*
X54389292Y-84951498D01*
X54381366Y-84951747D01*
X54381365Y-84951747D01*
X54321202Y-84953638D01*
X54317244Y-84953700D01*
X54289344Y-84953700D01*
X54285354Y-84954204D01*
X54273520Y-84955136D01*
X54229311Y-84956526D01*
X54221695Y-84958739D01*
X54221693Y-84958739D01*
X54209852Y-84962179D01*
X54190493Y-84966188D01*
X54189183Y-84966354D01*
X54170403Y-84968726D01*
X54163037Y-84971642D01*
X54163031Y-84971644D01*
X54129298Y-84985000D01*
X54118068Y-84988845D01*
X54083217Y-84998970D01*
X54075607Y-85001181D01*
X54068784Y-85005216D01*
X54058166Y-85011495D01*
X54040413Y-85020192D01*
X54032768Y-85023219D01*
X54021583Y-85027648D01*
X54015168Y-85032309D01*
X53985812Y-85053637D01*
X53975895Y-85060151D01*
X53937838Y-85082658D01*
X53923517Y-85096979D01*
X53908484Y-85109819D01*
X53892093Y-85121728D01*
X53887042Y-85127834D01*
X53863902Y-85155805D01*
X53855912Y-85164584D01*
X44748147Y-94272348D01*
X44739861Y-94279888D01*
X44733382Y-94284000D01*
X44727957Y-94289777D01*
X44686757Y-94333651D01*
X44684002Y-94336493D01*
X44664265Y-94356230D01*
X44661785Y-94359427D01*
X44654082Y-94368447D01*
X44623814Y-94400679D01*
X44619995Y-94407625D01*
X44619993Y-94407628D01*
X44614052Y-94418434D01*
X44603201Y-94434953D01*
X44590786Y-94450959D01*
X44587641Y-94458228D01*
X44587638Y-94458232D01*
X44573226Y-94491537D01*
X44568009Y-94502187D01*
X44546705Y-94540940D01*
X44544734Y-94548615D01*
X44544734Y-94548616D01*
X44541667Y-94560562D01*
X44535263Y-94579266D01*
X44527219Y-94597855D01*
X44525980Y-94605678D01*
X44525977Y-94605688D01*
X44520301Y-94641524D01*
X44517895Y-94653144D01*
X44510667Y-94681296D01*
X44506900Y-94695970D01*
X44506900Y-94716224D01*
X44505349Y-94735934D01*
X44502180Y-94755943D01*
X37338500Y-94755943D01*
X37338500Y-57737095D01*
X44982001Y-57737095D01*
X44982338Y-57743614D01*
X44992257Y-57839206D01*
X44995149Y-57852600D01*
X45046588Y-58006784D01*
X45052761Y-58019962D01*
X45138063Y-58157807D01*
X45147099Y-58169208D01*
X45261829Y-58283739D01*
X45273240Y-58292751D01*
X45411243Y-58377816D01*
X45424424Y-58383963D01*
X45578710Y-58435138D01*
X45592086Y-58438005D01*
X45686438Y-58447672D01*
X45692854Y-58448000D01*
X46192885Y-58448000D01*
X46208124Y-58443525D01*
X46209329Y-58442135D01*
X46211000Y-58434452D01*
X46211000Y-58429884D01*
X46719000Y-58429884D01*
X46723475Y-58445123D01*
X46724865Y-58446328D01*
X46732548Y-58447999D01*
X47237095Y-58447999D01*
X47243614Y-58447662D01*
X47339206Y-58437743D01*
X47352600Y-58434851D01*
X47506784Y-58383412D01*
X47519962Y-58377239D01*
X47657807Y-58291937D01*
X47669208Y-58282901D01*
X47783739Y-58168171D01*
X47792751Y-58156760D01*
X47877816Y-58018757D01*
X47883963Y-58005576D01*
X47935138Y-57851290D01*
X47938005Y-57837914D01*
X47947672Y-57743562D01*
X47948000Y-57737146D01*
X47948000Y-57362115D01*
X47943525Y-57346876D01*
X47942135Y-57345671D01*
X47934452Y-57344000D01*
X46737115Y-57344000D01*
X46721876Y-57348475D01*
X46720671Y-57349865D01*
X46719000Y-57357548D01*
X46719000Y-58429884D01*
X46211000Y-58429884D01*
X46211000Y-57362115D01*
X46206525Y-57346876D01*
X46205135Y-57345671D01*
X46197452Y-57344000D01*
X45000116Y-57344000D01*
X44984877Y-57348475D01*
X44983672Y-57349865D01*
X44982001Y-57357548D01*
X44982001Y-57737095D01*
X37338500Y-57737095D01*
X37338500Y-43820703D01*
X38530743Y-43820703D01*
X38568268Y-44105734D01*
X38644129Y-44383036D01*
X38756923Y-44647476D01*
X38768693Y-44667142D01*
X38874816Y-44844460D01*
X38904561Y-44894161D01*
X39084313Y-45118528D01*
X39165706Y-45195767D01*
X39258633Y-45283951D01*
X39292851Y-45316423D01*
X39526317Y-45484186D01*
X39530112Y-45486195D01*
X39530113Y-45486196D01*
X39551869Y-45497715D01*
X39780392Y-45618712D01*
X40050373Y-45717511D01*
X40331264Y-45778755D01*
X40359841Y-45781004D01*
X40554282Y-45796307D01*
X40554291Y-45796307D01*
X40556739Y-45796500D01*
X40712271Y-45796500D01*
X40714407Y-45796354D01*
X40714418Y-45796354D01*
X40922548Y-45782165D01*
X40922554Y-45782164D01*
X40926825Y-45781873D01*
X40931020Y-45781004D01*
X40931022Y-45781004D01*
X41067584Y-45752723D01*
X41208342Y-45723574D01*
X41479343Y-45627607D01*
X41734812Y-45495750D01*
X41738313Y-45493289D01*
X41738317Y-45493287D01*
X41893926Y-45383923D01*
X41970023Y-45330441D01*
X42072145Y-45235543D01*
X42177479Y-45137661D01*
X42177481Y-45137658D01*
X42180622Y-45134740D01*
X42362713Y-44912268D01*
X42512927Y-44667142D01*
X42628483Y-44403898D01*
X42633601Y-44385933D01*
X42706068Y-44131534D01*
X42707244Y-44127406D01*
X42747751Y-43842784D01*
X42747845Y-43824951D01*
X42749235Y-43559583D01*
X42749235Y-43559576D01*
X42749257Y-43555297D01*
X42741024Y-43492757D01*
X42723017Y-43355982D01*
X42711732Y-43270266D01*
X42635871Y-42992964D01*
X42544496Y-42778739D01*
X42524763Y-42732476D01*
X42524761Y-42732472D01*
X42523077Y-42728524D01*
X42375439Y-42481839D01*
X42195687Y-42257472D01*
X41987149Y-42059577D01*
X41753683Y-41891814D01*
X41731843Y-41880250D01*
X41708654Y-41867972D01*
X41499608Y-41757288D01*
X41229627Y-41658489D01*
X40948736Y-41597245D01*
X40917685Y-41594801D01*
X40725718Y-41579693D01*
X40725709Y-41579693D01*
X40723261Y-41579500D01*
X40567729Y-41579500D01*
X40565593Y-41579646D01*
X40565582Y-41579646D01*
X40357452Y-41593835D01*
X40357446Y-41593836D01*
X40353175Y-41594127D01*
X40348980Y-41594996D01*
X40348978Y-41594996D01*
X40212416Y-41623277D01*
X40071658Y-41652426D01*
X39800657Y-41748393D01*
X39545188Y-41880250D01*
X39541687Y-41882711D01*
X39541683Y-41882713D01*
X39531594Y-41889804D01*
X39309977Y-42045559D01*
X39099378Y-42241260D01*
X38917287Y-42463732D01*
X38767073Y-42708858D01*
X38651517Y-42972102D01*
X38572756Y-43248594D01*
X38556005Y-43366293D01*
X38534218Y-43519384D01*
X38532249Y-43533216D01*
X38532227Y-43537505D01*
X38532226Y-43537512D01*
X38530765Y-43816417D01*
X38530743Y-43820703D01*
X37338500Y-43820703D01*
X37338500Y-40766500D01*
X37358502Y-40698379D01*
X37412158Y-40651886D01*
X37464500Y-40640500D01*
X126619500Y-40640500D01*
X126687621Y-40660502D01*
G37*
%TD.AperFunction*%
%TA.AperFunction,Conductor*%
G36*
X73444831Y-45047940D02*
G01*
X73501625Y-45090431D01*
X73512739Y-45105261D01*
X73629295Y-45192615D01*
X73765684Y-45243745D01*
X73776474Y-45244917D01*
X73778606Y-45245803D01*
X73781222Y-45246425D01*
X73781121Y-45246848D01*
X73842035Y-45272155D01*
X73882463Y-45330517D01*
X73884922Y-45401471D01*
X73848629Y-45462490D01*
X73839969Y-45469489D01*
X73836207Y-45472646D01*
X73831700Y-45475802D01*
X73669802Y-45637700D01*
X73538477Y-45825251D01*
X73536154Y-45830233D01*
X73536151Y-45830238D01*
X73536034Y-45830489D01*
X73441716Y-46032757D01*
X73440294Y-46038065D01*
X73440293Y-46038067D01*
X73419019Y-46117461D01*
X73382457Y-46253913D01*
X73362502Y-46482000D01*
X73382457Y-46710087D01*
X73383881Y-46715400D01*
X73383881Y-46715402D01*
X73421025Y-46854022D01*
X73441716Y-46931243D01*
X73444039Y-46936224D01*
X73444039Y-46936225D01*
X73536151Y-47133762D01*
X73536154Y-47133767D01*
X73538477Y-47138749D01*
X73669802Y-47326300D01*
X73831700Y-47488198D01*
X73836208Y-47491355D01*
X73836211Y-47491357D01*
X73914389Y-47546098D01*
X74019251Y-47619523D01*
X74024233Y-47621846D01*
X74024238Y-47621849D01*
X74058457Y-47637805D01*
X74111742Y-47684722D01*
X74131203Y-47752999D01*
X74110661Y-47820959D01*
X74058457Y-47866195D01*
X74024238Y-47882151D01*
X74024233Y-47882154D01*
X74019251Y-47884477D01*
X73914389Y-47957902D01*
X73836211Y-48012643D01*
X73836208Y-48012645D01*
X73831700Y-48015802D01*
X73669802Y-48177700D01*
X73538477Y-48365251D01*
X73536154Y-48370233D01*
X73536151Y-48370238D01*
X73445584Y-48564461D01*
X73441716Y-48572757D01*
X73440294Y-48578065D01*
X73440293Y-48578067D01*
X73385655Y-48781978D01*
X73382457Y-48793913D01*
X73362502Y-49022000D01*
X73382457Y-49250087D01*
X73441716Y-49471243D01*
X73444039Y-49476224D01*
X73444039Y-49476225D01*
X73536151Y-49673762D01*
X73536154Y-49673767D01*
X73538477Y-49678749D01*
X73669802Y-49866300D01*
X73831700Y-50028198D01*
X73836208Y-50031355D01*
X73836211Y-50031357D01*
X73902253Y-50077600D01*
X74019251Y-50159523D01*
X74024233Y-50161846D01*
X74024238Y-50161849D01*
X74058457Y-50177805D01*
X74111742Y-50224722D01*
X74131203Y-50292999D01*
X74110661Y-50360959D01*
X74058457Y-50406195D01*
X74024238Y-50422151D01*
X74024233Y-50422154D01*
X74019251Y-50424477D01*
X73914389Y-50497902D01*
X73836211Y-50552643D01*
X73836208Y-50552645D01*
X73831700Y-50555802D01*
X73669802Y-50717700D01*
X73538477Y-50905251D01*
X73536154Y-50910233D01*
X73536151Y-50910238D01*
X73459066Y-51075550D01*
X73441716Y-51112757D01*
X73440294Y-51118065D01*
X73440293Y-51118067D01*
X73388707Y-51310588D01*
X73382457Y-51333913D01*
X73362502Y-51562000D01*
X73382457Y-51790087D01*
X73383881Y-51795400D01*
X73383881Y-51795402D01*
X73434987Y-51986129D01*
X73441716Y-52011243D01*
X73444039Y-52016225D01*
X73444041Y-52016230D01*
X73446355Y-52021192D01*
X73457018Y-52091384D01*
X73428040Y-52156197D01*
X73368621Y-52195055D01*
X73336121Y-52200383D01*
X73306111Y-52201326D01*
X73298497Y-52203538D01*
X73298492Y-52203539D01*
X73286659Y-52206977D01*
X73267296Y-52210988D01*
X73247203Y-52213526D01*
X73239836Y-52216443D01*
X73239831Y-52216444D01*
X73206092Y-52229802D01*
X73194865Y-52233646D01*
X73152407Y-52245982D01*
X73145581Y-52250019D01*
X73134972Y-52256293D01*
X73117224Y-52264988D01*
X73098383Y-52272448D01*
X73091967Y-52277110D01*
X73091966Y-52277110D01*
X73062613Y-52298436D01*
X73052693Y-52304952D01*
X73021465Y-52323420D01*
X73021462Y-52323422D01*
X73014638Y-52327458D01*
X73000317Y-52341779D01*
X72985284Y-52354619D01*
X72968893Y-52366528D01*
X72940702Y-52400605D01*
X72932712Y-52409384D01*
X68882500Y-56459595D01*
X68820188Y-56493621D01*
X68793405Y-56496500D01*
X64900596Y-56496500D01*
X64832475Y-56476498D01*
X64792877Y-56435866D01*
X64775519Y-56407260D01*
X64726623Y-56326683D01*
X64643467Y-56230854D01*
X64579023Y-56156588D01*
X64579021Y-56156586D01*
X64575523Y-56152555D01*
X64500900Y-56091368D01*
X64401373Y-56009760D01*
X64401367Y-56009756D01*
X64397245Y-56006376D01*
X64365750Y-55988448D01*
X64316445Y-55937368D01*
X64302583Y-55867738D01*
X64328566Y-55801667D01*
X64357716Y-55774427D01*
X64411578Y-55738165D01*
X64479319Y-55692559D01*
X64489187Y-55683146D01*
X64610472Y-55567445D01*
X64646135Y-55533424D01*
X64681275Y-55486195D01*
X64780568Y-55352740D01*
X64783754Y-55348458D01*
X64809943Y-55296949D01*
X64851567Y-55215079D01*
X64888240Y-55142949D01*
X64889838Y-55137805D01*
X64955024Y-54927871D01*
X64956607Y-54922773D01*
X64961233Y-54887871D01*
X64986198Y-54699511D01*
X64986198Y-54699506D01*
X64986898Y-54694226D01*
X64983835Y-54612623D01*
X64978449Y-54469173D01*
X64978249Y-54463842D01*
X64930907Y-54238209D01*
X64928948Y-54233248D01*
X64848185Y-54028744D01*
X64848184Y-54028742D01*
X64846224Y-54023779D01*
X64842142Y-54017051D01*
X64742223Y-53852391D01*
X64726623Y-53826683D01*
X64665405Y-53756135D01*
X64579023Y-53656588D01*
X64579021Y-53656586D01*
X64575523Y-53652555D01*
X64476649Y-53571483D01*
X64401373Y-53509760D01*
X64401367Y-53509756D01*
X64397245Y-53506376D01*
X64365750Y-53488448D01*
X64316445Y-53437368D01*
X64302583Y-53367738D01*
X64328566Y-53301667D01*
X64357716Y-53274427D01*
X64421403Y-53231550D01*
X64479319Y-53192559D01*
X64489187Y-53183146D01*
X64610472Y-53067445D01*
X64646135Y-53033424D01*
X64783754Y-52848458D01*
X64809943Y-52796949D01*
X64871542Y-52675791D01*
X64888240Y-52642949D01*
X64893349Y-52626498D01*
X64955024Y-52427871D01*
X64956607Y-52422773D01*
X64961233Y-52387871D01*
X64986198Y-52199511D01*
X64986198Y-52199506D01*
X64986898Y-52194226D01*
X64983835Y-52112623D01*
X64980216Y-52016230D01*
X64978249Y-51963842D01*
X64930907Y-51738209D01*
X64923906Y-51720481D01*
X64917488Y-51649777D01*
X64950314Y-51586825D01*
X65011964Y-51551614D01*
X65041098Y-51548200D01*
X66499233Y-51548200D01*
X66510416Y-51548727D01*
X66517909Y-51550402D01*
X66525835Y-51550153D01*
X66525836Y-51550153D01*
X66585986Y-51548262D01*
X66589945Y-51548200D01*
X66617856Y-51548200D01*
X66621791Y-51547703D01*
X66621856Y-51547695D01*
X66633693Y-51546762D01*
X66665951Y-51545748D01*
X66669970Y-51545622D01*
X66677889Y-51545373D01*
X66697343Y-51539721D01*
X66716700Y-51535713D01*
X66728930Y-51534168D01*
X66728931Y-51534168D01*
X66736797Y-51533174D01*
X66744168Y-51530255D01*
X66744170Y-51530255D01*
X66777912Y-51516896D01*
X66789142Y-51513051D01*
X66823983Y-51502929D01*
X66823984Y-51502929D01*
X66831593Y-51500718D01*
X66838412Y-51496685D01*
X66838417Y-51496683D01*
X66849028Y-51490407D01*
X66866776Y-51481712D01*
X66885617Y-51474252D01*
X66921387Y-51448264D01*
X66931307Y-51441748D01*
X66962535Y-51423280D01*
X66962538Y-51423278D01*
X66969362Y-51419242D01*
X66983683Y-51404921D01*
X66998717Y-51392080D01*
X67008694Y-51384831D01*
X67015107Y-51380172D01*
X67043298Y-51346095D01*
X67051288Y-51337316D01*
X73311704Y-45076901D01*
X73374016Y-45042875D01*
X73444831Y-45047940D01*
G37*
%TD.AperFunction*%
%TD*%
M02*
