%TF.GenerationSoftware,KiCad,Pcbnew,(6.0.6)*%
%TF.CreationDate,2022-07-31T16:56:07+07:00*%
%TF.ProjectId,ONGEKI PCB,4f4e4745-4b49-4205-9043-422e6b696361,rev?*%
%TF.SameCoordinates,Original*%
%TF.FileFunction,Copper,L2,Bot*%
%TF.FilePolarity,Positive*%
%FSLAX46Y46*%
G04 Gerber Fmt 4.6, Leading zero omitted, Abs format (unit mm)*
G04 Created by KiCad (PCBNEW (6.0.6)) date 2022-07-31 16:56:07*
%MOMM*%
%LPD*%
G01*
G04 APERTURE LIST*
G04 Aperture macros list*
%AMRoundRect*
0 Rectangle with rounded corners*
0 $1 Rounding radius*
0 $2 $3 $4 $5 $6 $7 $8 $9 X,Y pos of 4 corners*
0 Add a 4 corners polygon primitive as box body*
4,1,4,$2,$3,$4,$5,$6,$7,$8,$9,$2,$3,0*
0 Add four circle primitives for the rounded corners*
1,1,$1+$1,$2,$3*
1,1,$1+$1,$4,$5*
1,1,$1+$1,$6,$7*
1,1,$1+$1,$8,$9*
0 Add four rect primitives between the rounded corners*
20,1,$1+$1,$2,$3,$4,$5,0*
20,1,$1+$1,$4,$5,$6,$7,0*
20,1,$1+$1,$6,$7,$8,$9,0*
20,1,$1+$1,$8,$9,$2,$3,0*%
G04 Aperture macros list end*
%TA.AperFunction,ComponentPad*%
%ADD10RoundRect,0.250000X0.725000X-0.600000X0.725000X0.600000X-0.725000X0.600000X-0.725000X-0.600000X0*%
%TD*%
%TA.AperFunction,ComponentPad*%
%ADD11O,1.950000X1.700000*%
%TD*%
%TA.AperFunction,ComponentPad*%
%ADD12RoundRect,0.250000X-0.725000X0.600000X-0.725000X-0.600000X0.725000X-0.600000X0.725000X0.600000X0*%
%TD*%
%TA.AperFunction,ComponentPad*%
%ADD13RoundRect,0.250000X-0.600000X-0.725000X0.600000X-0.725000X0.600000X0.725000X-0.600000X0.725000X0*%
%TD*%
%TA.AperFunction,ComponentPad*%
%ADD14O,1.700000X1.950000*%
%TD*%
%TA.AperFunction,ComponentPad*%
%ADD15C,1.600000*%
%TD*%
%TA.AperFunction,ComponentPad*%
%ADD16R,1.600000X1.600000*%
%TD*%
%TA.AperFunction,ViaPad*%
%ADD17C,0.800000*%
%TD*%
%TA.AperFunction,Conductor*%
%ADD18C,0.250000*%
%TD*%
G04 APERTURE END LIST*
D10*
%TO.P,Func-L,1*%
%TO.N,GND1*%
X46465000Y-87570000D03*
D11*
%TO.P,Func-L,2*%
X46465000Y-85070000D03*
%TO.P,Func-L,3*%
%TO.N,PIN15*%
X46465000Y-82570000D03*
%TO.P,Func-L,4*%
X46465000Y-80070000D03*
%TD*%
D12*
%TO.P,Power VCC,1*%
%TO.N,VCC*%
X118110000Y-49784000D03*
D11*
%TO.P,Power VCC,2*%
X118110000Y-52284000D03*
%TO.P,Power VCC,3*%
X118110000Y-54784000D03*
%TO.P,Power VCC,4*%
X118110000Y-57284000D03*
%TD*%
D12*
%TO.P,Func-R,1*%
%TO.N,PIN10*%
X118093000Y-80324000D03*
D11*
%TO.P,Func-R,2*%
X118093000Y-82824000D03*
%TO.P,Func-R,3*%
%TO.N,GND1*%
X118093000Y-85324000D03*
%TO.P,Func-R,4*%
X118093000Y-87824000D03*
%TD*%
D12*
%TO.P,R-Button-1,1*%
%TO.N,L3OUT*%
X101600000Y-49530000D03*
D11*
%TO.P,R-Button-1,2*%
%TO.N,PIN6*%
X101600000Y-52030000D03*
%TO.P,R-Button-1,3*%
X101600000Y-54530000D03*
%TO.P,R-Button-1,4*%
%TO.N,GND1*%
X101600000Y-57030000D03*
%TO.P,R-Button-1,5*%
X101600000Y-59530000D03*
%TO.P,R-Button-1,6*%
%TO.N,R1OUT*%
X101600000Y-62030000D03*
%TD*%
D13*
%TO.P,Encoder/Potentiometer,1*%
%TO.N,VCC*%
X78546000Y-82279000D03*
D14*
%TO.P,Encoder/Potentiometer,2*%
%TO.N,PIN2/17*%
X81046000Y-82279000D03*
%TO.P,Encoder/Potentiometer,3*%
%TO.N,PIN3*%
X83546000Y-82279000D03*
%TO.P,Encoder/Potentiometer,4*%
%TO.N,GND2*%
X86046000Y-82279000D03*
%TD*%
D15*
%TO.P,ProMicro,VCC*%
%TO.N,VCC*%
X89916000Y-51562000D03*
D16*
%TO.P,ProMicro,TX0*%
%TO.N,TX0*%
X74676000Y-43942000D03*
D15*
%TO.P,ProMicro,RX1*%
%TO.N,RX1*%
X74676000Y-46482000D03*
%TO.P,ProMicro,RST*%
%TO.N,N/C*%
X89916000Y-49022000D03*
%TO.P,ProMicro,RAW*%
X89916000Y-43942000D03*
%TO.P,ProMicro,PIN8*%
%TO.N,PIN8*%
X74676000Y-69342000D03*
%TO.P,ProMicro,GND1*%
%TO.N,GND1*%
X74676000Y-49022000D03*
%TO.P,ProMicro,GND*%
%TO.N,GND2*%
X89916000Y-46482000D03*
%TO.N,GND1*%
X74676000Y-51562000D03*
%TO.P,ProMicro,A3*%
%TO.N,A3*%
X89916000Y-54102000D03*
%TO.P,ProMicro,A2*%
%TO.N,A2*%
X89916000Y-56642000D03*
%TO.P,ProMicro,A1*%
%TO.N,A1*%
X89916000Y-59182000D03*
%TO.P,ProMicro,A0*%
%TO.N,A0*%
X89916000Y-61722000D03*
%TO.P,ProMicro,16*%
%TO.N,PIN16*%
X89916000Y-69342000D03*
%TO.P,ProMicro,15*%
%TO.N,PIN15*%
X89916000Y-64262000D03*
%TO.P,ProMicro,14*%
%TO.N,PIN14*%
X89916000Y-66802000D03*
%TO.P,ProMicro,10*%
%TO.N,PIN10*%
X89916000Y-71882000D03*
%TO.P,ProMicro,9*%
%TO.N,PIN9*%
X74676000Y-71882000D03*
%TO.P,ProMicro,7*%
%TO.N,PIN7*%
X74676000Y-66802000D03*
%TO.P,ProMicro,6*%
%TO.N,PIN6*%
X74676000Y-64262000D03*
%TO.P,ProMicro,5*%
%TO.N,PIN5*%
X74676000Y-61722000D03*
%TO.P,ProMicro,4*%
%TO.N,PIN4*%
X74676000Y-59182000D03*
%TO.P,ProMicro,3*%
%TO.N,PIN3*%
X74676000Y-56642000D03*
%TO.P,ProMicro,2*%
%TO.N,PIN2/17*%
X74676000Y-54102000D03*
%TD*%
D10*
%TO.P,L-Button-1,1*%
%TO.N,L1OUT*%
X63500000Y-62130000D03*
D11*
%TO.P,L-Button-1,2*%
%TO.N,GND1*%
X63500000Y-59630000D03*
%TO.P,L-Button-1,3*%
X63500000Y-57130000D03*
%TO.P,L-Button-1,4*%
%TO.N,PIN9*%
X63500000Y-54630000D03*
%TO.P,L-Button-1,5*%
X63500000Y-52130000D03*
%TO.P,L-Button-1,6*%
%TO.N,A1*%
X63500000Y-49630000D03*
%TD*%
D12*
%TO.P,Side-R,1*%
%TO.N,PIN14*%
X118093000Y-95444000D03*
D11*
%TO.P,Side-R,2*%
X118093000Y-97944000D03*
%TO.P,Side-R,3*%
%TO.N,GND1*%
X118093000Y-100444000D03*
%TO.P,Side-R,4*%
X118093000Y-102944000D03*
%TD*%
D12*
%TO.P,R-Button-3,1*%
%TO.N,R2OUT*%
X101600000Y-90230000D03*
D11*
%TO.P,R-Button-3,2*%
%TO.N,PIN4*%
X101600000Y-92730000D03*
%TO.P,R-Button-3,3*%
X101600000Y-95230000D03*
%TO.P,R-Button-3,4*%
%TO.N,GND1*%
X101600000Y-97730000D03*
%TO.P,R-Button-3,5*%
X101600000Y-100230000D03*
%TO.P,R-Button-3,6*%
%TO.N,N/C*%
X101600000Y-102730000D03*
%TD*%
D12*
%TO.P,R-Button-2,1*%
%TO.N,R1OUT*%
X101600000Y-69810000D03*
D11*
%TO.P,R-Button-2,2*%
%TO.N,PIN5*%
X101600000Y-72310000D03*
%TO.P,R-Button-2,3*%
X101600000Y-74810000D03*
%TO.P,R-Button-2,4*%
%TO.N,GND1*%
X101600000Y-77310000D03*
%TO.P,R-Button-2,5*%
X101600000Y-79810000D03*
%TO.P,R-Button-2,6*%
%TO.N,R2OUT*%
X101600000Y-82310000D03*
%TD*%
D12*
%TO.P,Power GND,1*%
%TO.N,GND2*%
X118093000Y-64964000D03*
D11*
%TO.P,Power GND,2*%
X118093000Y-67464000D03*
%TO.P,Power GND,3*%
X118093000Y-69964000D03*
%TO.P,Power GND,4*%
X118093000Y-72464000D03*
%TD*%
D10*
%TO.P,Analog port,1*%
%TO.N,A0*%
X46465000Y-72330000D03*
D11*
%TO.P,Analog port,2*%
%TO.N,A1*%
X46465000Y-69830000D03*
%TO.P,Analog port,3*%
%TO.N,A2*%
X46465000Y-67330000D03*
%TO.P,Analog port,4*%
%TO.N,A3*%
X46465000Y-64830000D03*
%TD*%
D10*
%TO.P,Serial port,1*%
%TO.N,GND2*%
X46465000Y-57090000D03*
D11*
%TO.P,Serial port,2*%
%TO.N,RX1*%
X46465000Y-54590000D03*
%TO.P,Serial port,3*%
%TO.N,TX0*%
X46465000Y-52090000D03*
%TO.P,Serial port,4*%
%TO.N,VCC*%
X46465000Y-49590000D03*
%TD*%
D10*
%TO.P,L-Button-3,1*%
%TO.N,L3OUT*%
X63500000Y-102670000D03*
D11*
%TO.P,L-Button-3,2*%
%TO.N,GND1*%
X63500000Y-100170000D03*
%TO.P,L-Button-3,3*%
X63500000Y-97670000D03*
%TO.P,L-Button-3,4*%
%TO.N,PIN7*%
X63500000Y-95170000D03*
%TO.P,L-Button-3,5*%
X63500000Y-92670000D03*
%TO.P,L-Button-3,6*%
%TO.N,L2OUT*%
X63500000Y-90170000D03*
%TD*%
D10*
%TO.P,L-Button-2,1*%
%TO.N,L2OUT*%
X63500000Y-82350000D03*
D11*
%TO.P,L-Button-2,2*%
%TO.N,GND1*%
X63500000Y-79850000D03*
%TO.P,L-Button-2,3*%
X63500000Y-77350000D03*
%TO.P,L-Button-2,4*%
%TO.N,PIN8*%
X63500000Y-74850000D03*
%TO.P,L-Button-2,5*%
X63500000Y-72350000D03*
%TO.P,L-Button-2,6*%
%TO.N,L1OUT*%
X63500000Y-69850000D03*
%TD*%
D10*
%TO.P,Side-L,1*%
%TO.N,GND1*%
X46465000Y-102750000D03*
D11*
%TO.P,Side-L,2*%
X46465000Y-100250000D03*
%TO.P,Side-L,3*%
%TO.N,PIN16*%
X46465000Y-97750000D03*
%TO.P,Side-L,4*%
%TO.N,PIN10*%
X46465000Y-95250000D03*
%TD*%
D17*
%TO.N,PIN4*%
X81746600Y-77502900D03*
%TO.N,PIN5*%
X79581300Y-66217600D03*
%TD*%
D18*
%TO.N,RX1*%
X54573000Y-46482000D02*
X74676000Y-46482000D01*
X47640300Y-53414700D02*
X54573000Y-46482000D01*
X46465000Y-53414700D02*
X47640300Y-53414700D01*
X46465000Y-54590000D02*
X46465000Y-53414700D01*
%TO.N,PIN15*%
X46465000Y-80070000D02*
X46465000Y-82570000D01*
%TO.N,PIN14*%
X118093000Y-97944000D02*
X118093000Y-95444000D01*
X99174000Y-76060000D02*
X89916000Y-66802000D01*
X104317200Y-76060000D02*
X99174000Y-76060000D01*
X114831200Y-86574000D02*
X104317200Y-76060000D01*
X118690200Y-86574000D02*
X114831200Y-86574000D01*
X119398400Y-87282200D02*
X118690200Y-86574000D01*
X119398400Y-94138600D02*
X119398400Y-87282200D01*
X118093000Y-95444000D02*
X119398400Y-94138600D01*
%TO.N,PIN10*%
X118093000Y-82824000D02*
X118093000Y-80324000D01*
%TO.N,GND2*%
X118093000Y-72464000D02*
X118093000Y-69964000D01*
X118093000Y-69964000D02*
X118093000Y-67464000D01*
X118093000Y-67464000D02*
X118093000Y-64964000D01*
X102589100Y-48324200D02*
X91532500Y-48324200D01*
X118093000Y-63828100D02*
X102589100Y-48324200D01*
X118093000Y-64964000D02*
X118093000Y-63828100D01*
X91532500Y-61707600D02*
X91532500Y-48324200D01*
X90248100Y-62992000D02*
X91532500Y-61707600D01*
X89594200Y-62992000D02*
X90248100Y-62992000D01*
X86046000Y-66540200D02*
X89594200Y-62992000D01*
X86046000Y-82279000D02*
X86046000Y-66540200D01*
X91532500Y-48098500D02*
X89916000Y-46482000D01*
X91532500Y-48324200D02*
X91532500Y-48098500D01*
%TO.N,PIN3*%
X83546000Y-65512000D02*
X83546000Y-82279000D01*
X74676000Y-56642000D02*
X83546000Y-65512000D01*
%TO.N,PIN2/17*%
X79870700Y-67789000D02*
X79870700Y-82279000D01*
X75073700Y-62992000D02*
X79870700Y-67789000D01*
X74305200Y-62992000D02*
X75073700Y-62992000D01*
X73549900Y-62236700D02*
X74305200Y-62992000D01*
X73549900Y-55228100D02*
X73549900Y-62236700D01*
X74676000Y-54102000D02*
X73549900Y-55228100D01*
X81046000Y-82279000D02*
X79870700Y-82279000D01*
%TO.N,R2OUT*%
X101600000Y-82310000D02*
X101600000Y-90230000D01*
%TO.N,R1OUT*%
X101600000Y-69810000D02*
X101600000Y-62030000D01*
%TO.N,L3OUT*%
X96034500Y-55095500D02*
X101600000Y-49530000D01*
X96034500Y-59779800D02*
X96034500Y-55095500D01*
X90282300Y-65532000D02*
X96034500Y-59779800D01*
X89546600Y-65532000D02*
X90282300Y-65532000D01*
X88216100Y-66862500D02*
X89546600Y-65532000D01*
X88216100Y-81899400D02*
X88216100Y-66862500D01*
X67445500Y-102670000D02*
X88216100Y-81899400D01*
X63500000Y-102670000D02*
X67445500Y-102670000D01*
%TO.N,L2OUT*%
X63500000Y-82350000D02*
X63500000Y-90170000D01*
%TO.N,GND1*%
X46465000Y-100250000D02*
X46465000Y-102750000D01*
X45146700Y-88888300D02*
X46465000Y-87570000D01*
X45146700Y-98270600D02*
X45146700Y-88888300D01*
X45950800Y-99074700D02*
X45146700Y-98270600D01*
X46465000Y-99074700D02*
X45950800Y-99074700D01*
X46465000Y-100250000D02*
X46465000Y-99074700D01*
X63500000Y-97670000D02*
X63500000Y-100170000D01*
X101600000Y-79810000D02*
X101600000Y-77310000D01*
X118093000Y-102944000D02*
X118093000Y-100444000D01*
X118093000Y-100444000D02*
X118093000Y-99268700D01*
X118093000Y-87824000D02*
X118093000Y-88999300D01*
X74676000Y-51562000D02*
X74676000Y-49022000D01*
X63500000Y-57130000D02*
X63500000Y-59630000D01*
X101600000Y-59530000D02*
X101600000Y-57030000D01*
X101600000Y-79810000D02*
X101600000Y-80985300D01*
X101600000Y-100230000D02*
X101600000Y-97730000D01*
X101600000Y-97730000D02*
X101600000Y-96554700D01*
X46465000Y-85070000D02*
X46465000Y-87570000D01*
X102924600Y-90646000D02*
X116779600Y-90646000D01*
X102924600Y-95744300D02*
X102924600Y-90646000D01*
X102114200Y-96554700D02*
X102924600Y-95744300D01*
X101600000Y-96554700D02*
X102114200Y-96554700D01*
X102114200Y-80985300D02*
X101600000Y-80985300D01*
X102924600Y-81795700D02*
X102114200Y-80985300D01*
X102924600Y-90646000D02*
X102924600Y-81795700D01*
X116779600Y-98469500D02*
X116779600Y-90646000D01*
X117578800Y-99268700D02*
X116779600Y-98469500D01*
X118093000Y-99268700D02*
X117578800Y-99268700D01*
X116779600Y-90312700D02*
X118093000Y-88999300D01*
X116779600Y-90646000D02*
X116779600Y-90312700D01*
X63500000Y-59630000D02*
X63500000Y-60805300D01*
X63500000Y-79850000D02*
X63500000Y-77350000D01*
X64381500Y-60805300D02*
X63500000Y-60805300D01*
X64814600Y-61238400D02*
X64381500Y-60805300D01*
X64814600Y-75374300D02*
X64814600Y-61238400D01*
X64014200Y-76174700D02*
X64814600Y-75374300D01*
X63500000Y-76174700D02*
X64014200Y-76174700D01*
X63500000Y-77350000D02*
X63500000Y-76174700D01*
%TO.N,L1OUT*%
X63500000Y-69850000D02*
X63500000Y-62130000D01*
%TO.N,PIN4*%
X101600000Y-95230000D02*
X101600000Y-92730000D01*
X81746600Y-66252600D02*
X74676000Y-59182000D01*
X81746600Y-77502900D02*
X81746600Y-66252600D01*
%TO.N,PIN5*%
X101600000Y-74810000D02*
X101600000Y-72310000D01*
X75085700Y-61722000D02*
X74676000Y-61722000D01*
X79581300Y-66217600D02*
X75085700Y-61722000D01*
%TO.N,PIN6*%
X101600000Y-54530000D02*
X101600000Y-52030000D01*
%TO.N,PIN7*%
X63500000Y-95170000D02*
X63500000Y-92670000D01*
X75825400Y-67951400D02*
X74676000Y-66802000D01*
X75825400Y-79683500D02*
X75825400Y-67951400D01*
X64014200Y-91494700D02*
X75825400Y-79683500D01*
X63500000Y-91494700D02*
X64014200Y-91494700D01*
X63500000Y-92670000D02*
X63500000Y-91494700D01*
%TO.N,PIN8*%
X63500000Y-72350000D02*
X63500000Y-74850000D01*
%TO.N,PIN9*%
X63500000Y-52130000D02*
X63500000Y-54630000D01*
X65278200Y-62484200D02*
X74676000Y-71882000D01*
X65278200Y-57069300D02*
X65278200Y-62484200D01*
X64014200Y-55805300D02*
X65278200Y-57069300D01*
X63500000Y-55805300D02*
X64014200Y-55805300D01*
X63500000Y-54630000D02*
X63500000Y-55805300D01*
%TO.N,VCC*%
X118110000Y-57284000D02*
X118110000Y-54784000D01*
X118110000Y-54784000D02*
X118110000Y-52284000D01*
X79847300Y-83580300D02*
X78546000Y-82279000D01*
X84078400Y-83580300D02*
X79847300Y-83580300D01*
X84796000Y-82862700D02*
X84078400Y-83580300D01*
X84796000Y-65163000D02*
X84796000Y-82862700D01*
X89507000Y-60452000D02*
X84796000Y-65163000D01*
X90286600Y-60452000D02*
X89507000Y-60452000D01*
X91082100Y-59656500D02*
X90286600Y-60452000D01*
X91082100Y-52728100D02*
X91082100Y-59656500D01*
X89916000Y-51562000D02*
X91082100Y-52728100D01*
X83705900Y-45351900D02*
X89916000Y-51562000D01*
X49527800Y-45351900D02*
X83705900Y-45351900D01*
X46465000Y-48414700D02*
X49527800Y-45351900D01*
X46465000Y-49590000D02*
X46465000Y-48414700D01*
%TO.N,A1*%
X62985800Y-50805300D02*
X63500000Y-50805300D01*
X62175400Y-51615700D02*
X62985800Y-50805300D01*
X62175400Y-53458500D02*
X62175400Y-51615700D01*
X46979200Y-68654700D02*
X62175400Y-53458500D01*
X46465000Y-68654700D02*
X46979200Y-68654700D01*
X46465000Y-69830000D02*
X46465000Y-68654700D01*
X63500000Y-49630000D02*
X63500000Y-50217600D01*
X63500000Y-50217600D02*
X63500000Y-50805300D01*
X83566000Y-52832000D02*
X89916000Y-59182000D01*
X66114400Y-52832000D02*
X83566000Y-52832000D01*
X63500000Y-50217600D02*
X66114400Y-52832000D01*
%TD*%
%TA.AperFunction,Conductor*%
%TO.N,GND1*%
G36*
X126687621Y-40660502D02*
G01*
X126734114Y-40714158D01*
X126745500Y-40766500D01*
X126745500Y-111633500D01*
X126725498Y-111701621D01*
X126671842Y-111748114D01*
X126619500Y-111759500D01*
X37464500Y-111759500D01*
X37396379Y-111739498D01*
X37349886Y-111685842D01*
X37338500Y-111633500D01*
X37338500Y-108844703D01*
X38530743Y-108844703D01*
X38568268Y-109129734D01*
X38644129Y-109407036D01*
X38756923Y-109671476D01*
X38904561Y-109918161D01*
X39084313Y-110142528D01*
X39292851Y-110340423D01*
X39526317Y-110508186D01*
X39530112Y-110510195D01*
X39530113Y-110510196D01*
X39551869Y-110521715D01*
X39780392Y-110642712D01*
X40050373Y-110741511D01*
X40331264Y-110802755D01*
X40359841Y-110805004D01*
X40554282Y-110820307D01*
X40554291Y-110820307D01*
X40556739Y-110820500D01*
X40712271Y-110820500D01*
X40714407Y-110820354D01*
X40714418Y-110820354D01*
X40922548Y-110806165D01*
X40922554Y-110806164D01*
X40926825Y-110805873D01*
X40931020Y-110805004D01*
X40931022Y-110805004D01*
X41067583Y-110776724D01*
X41208342Y-110747574D01*
X41479343Y-110651607D01*
X41734812Y-110519750D01*
X41738313Y-110517289D01*
X41738317Y-110517287D01*
X41852418Y-110437095D01*
X41970023Y-110354441D01*
X42180622Y-110158740D01*
X42362713Y-109936268D01*
X42512927Y-109691142D01*
X42628483Y-109427898D01*
X42707244Y-109151406D01*
X42747751Y-108866784D01*
X42747845Y-108848951D01*
X42747867Y-108844703D01*
X121334743Y-108844703D01*
X121372268Y-109129734D01*
X121448129Y-109407036D01*
X121560923Y-109671476D01*
X121708561Y-109918161D01*
X121888313Y-110142528D01*
X122096851Y-110340423D01*
X122330317Y-110508186D01*
X122334112Y-110510195D01*
X122334113Y-110510196D01*
X122355869Y-110521715D01*
X122584392Y-110642712D01*
X122854373Y-110741511D01*
X123135264Y-110802755D01*
X123163841Y-110805004D01*
X123358282Y-110820307D01*
X123358291Y-110820307D01*
X123360739Y-110820500D01*
X123516271Y-110820500D01*
X123518407Y-110820354D01*
X123518418Y-110820354D01*
X123726548Y-110806165D01*
X123726554Y-110806164D01*
X123730825Y-110805873D01*
X123735020Y-110805004D01*
X123735022Y-110805004D01*
X123871583Y-110776724D01*
X124012342Y-110747574D01*
X124283343Y-110651607D01*
X124538812Y-110519750D01*
X124542313Y-110517289D01*
X124542317Y-110517287D01*
X124656418Y-110437095D01*
X124774023Y-110354441D01*
X124984622Y-110158740D01*
X125166713Y-109936268D01*
X125316927Y-109691142D01*
X125432483Y-109427898D01*
X125511244Y-109151406D01*
X125551751Y-108866784D01*
X125551845Y-108848951D01*
X125553235Y-108583583D01*
X125553235Y-108583576D01*
X125553257Y-108579297D01*
X125515732Y-108294266D01*
X125439871Y-108016964D01*
X125327077Y-107752524D01*
X125179439Y-107505839D01*
X124999687Y-107281472D01*
X124791149Y-107083577D01*
X124557683Y-106915814D01*
X124535843Y-106904250D01*
X124512654Y-106891972D01*
X124303608Y-106781288D01*
X124033627Y-106682489D01*
X123752736Y-106621245D01*
X123721685Y-106618801D01*
X123529718Y-106603693D01*
X123529709Y-106603693D01*
X123527261Y-106603500D01*
X123371729Y-106603500D01*
X123369593Y-106603646D01*
X123369582Y-106603646D01*
X123161452Y-106617835D01*
X123161446Y-106617836D01*
X123157175Y-106618127D01*
X123152980Y-106618996D01*
X123152978Y-106618996D01*
X123016416Y-106647277D01*
X122875658Y-106676426D01*
X122604657Y-106772393D01*
X122349188Y-106904250D01*
X122345687Y-106906711D01*
X122345683Y-106906713D01*
X122335594Y-106913804D01*
X122113977Y-107069559D01*
X121903378Y-107265260D01*
X121721287Y-107487732D01*
X121571073Y-107732858D01*
X121455517Y-107996102D01*
X121376756Y-108272594D01*
X121336249Y-108557216D01*
X121336227Y-108561505D01*
X121336226Y-108561512D01*
X121334765Y-108840417D01*
X121334743Y-108844703D01*
X42747867Y-108844703D01*
X42749235Y-108583583D01*
X42749235Y-108583576D01*
X42749257Y-108579297D01*
X42711732Y-108294266D01*
X42635871Y-108016964D01*
X42523077Y-107752524D01*
X42375439Y-107505839D01*
X42195687Y-107281472D01*
X41987149Y-107083577D01*
X41753683Y-106915814D01*
X41731843Y-106904250D01*
X41708654Y-106891972D01*
X41499608Y-106781288D01*
X41229627Y-106682489D01*
X40948736Y-106621245D01*
X40917685Y-106618801D01*
X40725718Y-106603693D01*
X40725709Y-106603693D01*
X40723261Y-106603500D01*
X40567729Y-106603500D01*
X40565593Y-106603646D01*
X40565582Y-106603646D01*
X40357452Y-106617835D01*
X40357446Y-106617836D01*
X40353175Y-106618127D01*
X40348980Y-106618996D01*
X40348978Y-106618996D01*
X40212416Y-106647277D01*
X40071658Y-106676426D01*
X39800657Y-106772393D01*
X39545188Y-106904250D01*
X39541687Y-106906711D01*
X39541683Y-106906713D01*
X39531594Y-106913804D01*
X39309977Y-107069559D01*
X39099378Y-107265260D01*
X38917287Y-107487732D01*
X38767073Y-107732858D01*
X38651517Y-107996102D01*
X38572756Y-108272594D01*
X38532249Y-108557216D01*
X38532227Y-108561505D01*
X38532226Y-108561512D01*
X38530765Y-108840417D01*
X38530743Y-108844703D01*
X37338500Y-108844703D01*
X37338500Y-103397095D01*
X44982001Y-103397095D01*
X44982338Y-103403614D01*
X44992257Y-103499206D01*
X44995149Y-103512600D01*
X45046588Y-103666784D01*
X45052761Y-103679962D01*
X45138063Y-103817807D01*
X45147099Y-103829208D01*
X45261829Y-103943739D01*
X45273240Y-103952751D01*
X45411243Y-104037816D01*
X45424424Y-104043963D01*
X45578710Y-104095138D01*
X45592086Y-104098005D01*
X45686438Y-104107672D01*
X45692854Y-104108000D01*
X46192885Y-104108000D01*
X46208124Y-104103525D01*
X46209329Y-104102135D01*
X46211000Y-104094452D01*
X46211000Y-104089884D01*
X46719000Y-104089884D01*
X46723475Y-104105123D01*
X46724865Y-104106328D01*
X46732548Y-104107999D01*
X47237095Y-104107999D01*
X47243614Y-104107662D01*
X47339206Y-104097743D01*
X47352600Y-104094851D01*
X47506784Y-104043412D01*
X47519962Y-104037239D01*
X47657807Y-103951937D01*
X47669208Y-103942901D01*
X47783739Y-103828171D01*
X47792751Y-103816760D01*
X47877816Y-103678757D01*
X47883963Y-103665576D01*
X47935138Y-103511290D01*
X47938005Y-103497914D01*
X47947672Y-103403562D01*
X47948000Y-103397146D01*
X47948000Y-103022115D01*
X47943525Y-103006876D01*
X47942135Y-103005671D01*
X47934452Y-103004000D01*
X46737115Y-103004000D01*
X46721876Y-103008475D01*
X46720671Y-103009865D01*
X46719000Y-103017548D01*
X46719000Y-104089884D01*
X46211000Y-104089884D01*
X46211000Y-103022115D01*
X46206525Y-103006876D01*
X46205135Y-103005671D01*
X46197452Y-103004000D01*
X45000116Y-103004000D01*
X44984877Y-103008475D01*
X44983672Y-103009865D01*
X44982001Y-103017548D01*
X44982001Y-103397095D01*
X37338500Y-103397095D01*
X37338500Y-102477885D01*
X44982000Y-102477885D01*
X44986475Y-102493124D01*
X44987865Y-102494329D01*
X44995548Y-102496000D01*
X46192885Y-102496000D01*
X46208124Y-102491525D01*
X46209329Y-102490135D01*
X46211000Y-102482452D01*
X46211000Y-102477885D01*
X46719000Y-102477885D01*
X46723475Y-102493124D01*
X46724865Y-102494329D01*
X46732548Y-102496000D01*
X47929884Y-102496000D01*
X47945123Y-102491525D01*
X47946328Y-102490135D01*
X47947999Y-102482452D01*
X47947999Y-102102905D01*
X47947662Y-102096386D01*
X47937743Y-102000794D01*
X47934851Y-101987400D01*
X47883412Y-101833216D01*
X47877239Y-101820038D01*
X47791937Y-101682193D01*
X47782901Y-101670792D01*
X47668171Y-101556261D01*
X47656760Y-101547249D01*
X47516846Y-101461005D01*
X47469353Y-101408233D01*
X47457929Y-101338161D01*
X47486203Y-101273037D01*
X47495990Y-101262576D01*
X47606900Y-101156772D01*
X47613941Y-101148814D01*
X47745141Y-100972475D01*
X47750745Y-100963438D01*
X47850357Y-100767516D01*
X47854357Y-100757665D01*
X47919534Y-100547760D01*
X47921817Y-100537376D01*
X47923861Y-100521957D01*
X47921665Y-100507793D01*
X47908478Y-100504000D01*
X46737115Y-100504000D01*
X46721876Y-100508475D01*
X46720671Y-100509865D01*
X46719000Y-100517548D01*
X46719000Y-102477885D01*
X46211000Y-102477885D01*
X46211000Y-100522115D01*
X46206525Y-100506876D01*
X46205135Y-100505671D01*
X46197452Y-100504000D01*
X45023808Y-100504000D01*
X45010277Y-100507973D01*
X45008752Y-100518580D01*
X45033477Y-100636421D01*
X45036537Y-100646617D01*
X45117263Y-100851029D01*
X45121994Y-100860561D01*
X45236016Y-101048462D01*
X45242280Y-101057052D01*
X45386327Y-101223052D01*
X45393956Y-101230470D01*
X45425978Y-101256726D01*
X45465973Y-101315385D01*
X45467906Y-101386355D01*
X45431162Y-101447104D01*
X45412391Y-101461305D01*
X45272193Y-101548063D01*
X45260792Y-101557099D01*
X45146261Y-101671829D01*
X45137249Y-101683240D01*
X45052184Y-101821243D01*
X45046037Y-101834424D01*
X44994862Y-101988710D01*
X44991995Y-102002086D01*
X44982328Y-102096438D01*
X44982000Y-102102855D01*
X44982000Y-102477885D01*
X37338500Y-102477885D01*
X37338500Y-97685774D01*
X44978102Y-97685774D01*
X44978302Y-97691103D01*
X44978302Y-97691105D01*
X44982427Y-97800966D01*
X44986751Y-97916158D01*
X44987846Y-97921377D01*
X45001336Y-97985671D01*
X45034093Y-98141791D01*
X45036051Y-98146750D01*
X45036052Y-98146752D01*
X45112592Y-98340561D01*
X45118776Y-98356221D01*
X45121543Y-98360780D01*
X45121544Y-98360783D01*
X45171701Y-98443438D01*
X45238377Y-98553317D01*
X45241874Y-98557347D01*
X45374749Y-98710472D01*
X45389477Y-98727445D01*
X45393608Y-98730832D01*
X45563627Y-98870240D01*
X45563633Y-98870244D01*
X45567755Y-98873624D01*
X45572398Y-98876267D01*
X45599735Y-98891829D01*
X45649041Y-98942912D01*
X45662902Y-99012542D01*
X45636918Y-99078613D01*
X45607768Y-99105851D01*
X45490422Y-99184852D01*
X45482130Y-99191519D01*
X45323100Y-99343228D01*
X45316059Y-99351186D01*
X45184859Y-99527525D01*
X45179255Y-99536562D01*
X45079643Y-99732484D01*
X45075643Y-99742335D01*
X45010466Y-99952240D01*
X45008183Y-99962624D01*
X45006139Y-99978043D01*
X45008335Y-99992207D01*
X45021522Y-99996000D01*
X47906192Y-99996000D01*
X47919723Y-99992027D01*
X47921248Y-99981420D01*
X47903754Y-99898043D01*
X62041139Y-99898043D01*
X62043335Y-99912207D01*
X62056522Y-99916000D01*
X63227885Y-99916000D01*
X63243124Y-99911525D01*
X63244329Y-99910135D01*
X63246000Y-99902452D01*
X63246000Y-99897885D01*
X63754000Y-99897885D01*
X63758475Y-99913124D01*
X63759865Y-99914329D01*
X63767548Y-99916000D01*
X64941192Y-99916000D01*
X64954723Y-99912027D01*
X64956248Y-99901420D01*
X64931523Y-99783579D01*
X64928463Y-99773383D01*
X64847737Y-99568971D01*
X64843006Y-99559439D01*
X64728984Y-99371538D01*
X64722720Y-99362948D01*
X64578673Y-99196948D01*
X64571042Y-99189528D01*
X64401089Y-99050174D01*
X64392323Y-99044150D01*
X64364801Y-99028483D01*
X64315496Y-98977400D01*
X64301635Y-98907770D01*
X64327619Y-98841699D01*
X64356768Y-98814462D01*
X64474575Y-98735150D01*
X64482870Y-98728481D01*
X64641900Y-98576772D01*
X64648941Y-98568814D01*
X64780141Y-98392475D01*
X64785745Y-98383438D01*
X64885357Y-98187516D01*
X64889357Y-98177665D01*
X64954534Y-97967760D01*
X64956817Y-97957376D01*
X64958861Y-97941957D01*
X64956665Y-97927793D01*
X64943478Y-97924000D01*
X63772115Y-97924000D01*
X63756876Y-97928475D01*
X63755671Y-97929865D01*
X63754000Y-97937548D01*
X63754000Y-99897885D01*
X63246000Y-99897885D01*
X63246000Y-97942115D01*
X63241525Y-97926876D01*
X63240135Y-97925671D01*
X63232452Y-97924000D01*
X62058808Y-97924000D01*
X62045277Y-97927973D01*
X62043752Y-97938580D01*
X62068477Y-98056421D01*
X62071537Y-98066617D01*
X62152263Y-98271029D01*
X62156994Y-98280561D01*
X62271013Y-98468458D01*
X62277280Y-98477052D01*
X62421327Y-98643052D01*
X62428958Y-98650472D01*
X62598911Y-98789826D01*
X62607677Y-98795850D01*
X62635199Y-98811517D01*
X62684504Y-98862600D01*
X62698365Y-98932230D01*
X62672381Y-98998301D01*
X62643232Y-99025538D01*
X62525425Y-99104850D01*
X62517130Y-99111519D01*
X62358100Y-99263228D01*
X62351059Y-99271186D01*
X62219859Y-99447525D01*
X62214255Y-99456562D01*
X62114643Y-99652484D01*
X62110643Y-99662335D01*
X62045466Y-99872240D01*
X62043183Y-99882624D01*
X62041139Y-99898043D01*
X47903754Y-99898043D01*
X47896523Y-99863579D01*
X47893463Y-99853383D01*
X47812737Y-99648971D01*
X47808006Y-99639439D01*
X47693984Y-99451538D01*
X47687720Y-99442948D01*
X47543673Y-99276948D01*
X47536042Y-99269528D01*
X47366089Y-99130174D01*
X47357326Y-99124152D01*
X47330289Y-99108762D01*
X47280982Y-99057680D01*
X47267120Y-98988049D01*
X47293103Y-98921978D01*
X47322253Y-98894739D01*
X47398886Y-98843146D01*
X47444319Y-98812559D01*
X47461835Y-98795850D01*
X47551333Y-98710472D01*
X47611135Y-98653424D01*
X47623525Y-98636772D01*
X47689010Y-98548757D01*
X47748754Y-98468458D01*
X47754606Y-98456949D01*
X47818859Y-98330572D01*
X47853240Y-98262949D01*
X47863011Y-98231484D01*
X47920024Y-98047871D01*
X47921607Y-98042773D01*
X47928894Y-97987793D01*
X47951198Y-97819511D01*
X47951198Y-97819506D01*
X47951898Y-97814226D01*
X47943249Y-97583842D01*
X47895907Y-97358209D01*
X47893948Y-97353248D01*
X47813185Y-97148744D01*
X47813184Y-97148742D01*
X47811224Y-97143779D01*
X47802239Y-97128971D01*
X47694390Y-96951243D01*
X47691623Y-96946683D01*
X47635009Y-96881441D01*
X47544023Y-96776588D01*
X47544021Y-96776586D01*
X47540523Y-96772555D01*
X47448314Y-96696948D01*
X47366373Y-96629760D01*
X47366367Y-96629756D01*
X47362245Y-96626376D01*
X47330750Y-96608448D01*
X47281445Y-96557368D01*
X47267583Y-96487738D01*
X47293566Y-96421667D01*
X47322716Y-96394427D01*
X47349697Y-96376262D01*
X47444319Y-96312559D01*
X47461398Y-96296267D01*
X47550956Y-96210832D01*
X47611135Y-96153424D01*
X47626016Y-96133424D01*
X47745568Y-95972740D01*
X47748754Y-95968458D01*
X47756746Y-95952740D01*
X47818511Y-95831256D01*
X47853240Y-95762949D01*
X47859451Y-95742949D01*
X47920024Y-95547871D01*
X47921607Y-95542773D01*
X47932911Y-95457484D01*
X47951198Y-95319511D01*
X47951198Y-95319506D01*
X47951898Y-95314226D01*
X47943249Y-95083842D01*
X47895907Y-94858209D01*
X47888009Y-94838209D01*
X47813185Y-94648744D01*
X47813184Y-94648742D01*
X47811224Y-94643779D01*
X47796320Y-94619217D01*
X47697457Y-94456297D01*
X47691623Y-94446683D01*
X47604755Y-94346576D01*
X47544023Y-94276588D01*
X47544021Y-94276586D01*
X47540523Y-94272555D01*
X47498970Y-94238484D01*
X47366373Y-94129760D01*
X47366367Y-94129756D01*
X47362245Y-94126376D01*
X47357609Y-94123737D01*
X47357606Y-94123735D01*
X47166529Y-94014968D01*
X47161886Y-94012325D01*
X46945175Y-93933663D01*
X46939926Y-93932714D01*
X46939923Y-93932713D01*
X46722392Y-93893377D01*
X46722385Y-93893376D01*
X46718308Y-93892639D01*
X46700586Y-93891803D01*
X46695644Y-93891570D01*
X46695637Y-93891570D01*
X46694156Y-93891500D01*
X46282110Y-93891500D01*
X46215191Y-93897178D01*
X46115591Y-93905629D01*
X46115587Y-93905630D01*
X46110280Y-93906080D01*
X46105125Y-93907418D01*
X46105119Y-93907419D01*
X45892297Y-93962657D01*
X45892293Y-93962658D01*
X45887128Y-93963999D01*
X45882262Y-93966191D01*
X45882259Y-93966192D01*
X45773980Y-94014968D01*
X45676925Y-94058688D01*
X45485681Y-94187441D01*
X45481824Y-94191120D01*
X45481822Y-94191122D01*
X45444935Y-94226311D01*
X45318865Y-94346576D01*
X45181246Y-94531542D01*
X45178830Y-94536293D01*
X45178828Y-94536297D01*
X45157579Y-94578091D01*
X45076760Y-94737051D01*
X45075178Y-94742145D01*
X45075177Y-94742148D01*
X45023494Y-94908594D01*
X45008393Y-94957227D01*
X45007692Y-94962516D01*
X44980753Y-95165774D01*
X44978102Y-95185774D01*
X44986751Y-95416158D01*
X45034093Y-95641791D01*
X45036051Y-95646750D01*
X45036052Y-95646752D01*
X45110878Y-95836221D01*
X45118776Y-95856221D01*
X45121543Y-95860780D01*
X45121544Y-95860783D01*
X45138338Y-95888458D01*
X45238377Y-96053317D01*
X45241874Y-96057347D01*
X45365806Y-96200166D01*
X45389477Y-96227445D01*
X45431030Y-96261516D01*
X45563627Y-96370240D01*
X45563633Y-96370244D01*
X45567755Y-96373624D01*
X45599250Y-96391552D01*
X45648555Y-96442632D01*
X45662417Y-96512262D01*
X45636434Y-96578333D01*
X45607284Y-96605573D01*
X45485681Y-96687441D01*
X45318865Y-96846576D01*
X45181246Y-97031542D01*
X45178830Y-97036293D01*
X45178828Y-97036297D01*
X45167062Y-97059439D01*
X45076760Y-97237051D01*
X45075178Y-97242145D01*
X45075177Y-97242148D01*
X45034782Y-97372240D01*
X45008393Y-97457227D01*
X45007692Y-97462516D01*
X44981980Y-97656516D01*
X44978102Y-97685774D01*
X37338500Y-97685774D01*
X37338500Y-88217095D01*
X44982001Y-88217095D01*
X44982338Y-88223614D01*
X44992257Y-88319206D01*
X44995149Y-88332600D01*
X45046588Y-88486784D01*
X45052761Y-88499962D01*
X45138063Y-88637807D01*
X45147099Y-88649208D01*
X45261829Y-88763739D01*
X45273240Y-88772751D01*
X45411243Y-88857816D01*
X45424424Y-88863963D01*
X45578710Y-88915138D01*
X45592086Y-88918005D01*
X45686438Y-88927672D01*
X45692854Y-88928000D01*
X46192885Y-88928000D01*
X46208124Y-88923525D01*
X46209329Y-88922135D01*
X46211000Y-88914452D01*
X46211000Y-88909884D01*
X46719000Y-88909884D01*
X46723475Y-88925123D01*
X46724865Y-88926328D01*
X46732548Y-88927999D01*
X47237095Y-88927999D01*
X47243614Y-88927662D01*
X47339206Y-88917743D01*
X47352600Y-88914851D01*
X47506784Y-88863412D01*
X47519962Y-88857239D01*
X47657807Y-88771937D01*
X47669208Y-88762901D01*
X47783739Y-88648171D01*
X47792751Y-88636760D01*
X47877816Y-88498757D01*
X47883963Y-88485576D01*
X47935138Y-88331290D01*
X47938005Y-88317914D01*
X47947672Y-88223562D01*
X47948000Y-88217146D01*
X47948000Y-87842115D01*
X47943525Y-87826876D01*
X47942135Y-87825671D01*
X47934452Y-87824000D01*
X46737115Y-87824000D01*
X46721876Y-87828475D01*
X46720671Y-87829865D01*
X46719000Y-87837548D01*
X46719000Y-88909884D01*
X46211000Y-88909884D01*
X46211000Y-87842115D01*
X46206525Y-87826876D01*
X46205135Y-87825671D01*
X46197452Y-87824000D01*
X45000116Y-87824000D01*
X44984877Y-87828475D01*
X44983672Y-87829865D01*
X44982001Y-87837548D01*
X44982001Y-88217095D01*
X37338500Y-88217095D01*
X37338500Y-87297885D01*
X44982000Y-87297885D01*
X44986475Y-87313124D01*
X44987865Y-87314329D01*
X44995548Y-87316000D01*
X46192885Y-87316000D01*
X46208124Y-87311525D01*
X46209329Y-87310135D01*
X46211000Y-87302452D01*
X46211000Y-87297885D01*
X46719000Y-87297885D01*
X46723475Y-87313124D01*
X46724865Y-87314329D01*
X46732548Y-87316000D01*
X47929884Y-87316000D01*
X47945123Y-87311525D01*
X47946328Y-87310135D01*
X47947999Y-87302452D01*
X47947999Y-86922905D01*
X47947662Y-86916386D01*
X47937743Y-86820794D01*
X47934851Y-86807400D01*
X47883412Y-86653216D01*
X47877239Y-86640038D01*
X47791937Y-86502193D01*
X47782901Y-86490792D01*
X47668171Y-86376261D01*
X47656760Y-86367249D01*
X47516846Y-86281005D01*
X47469353Y-86228233D01*
X47457929Y-86158161D01*
X47486203Y-86093037D01*
X47495990Y-86082576D01*
X47606900Y-85976772D01*
X47613941Y-85968814D01*
X47745141Y-85792475D01*
X47750745Y-85783438D01*
X47850357Y-85587516D01*
X47854357Y-85577665D01*
X47919534Y-85367760D01*
X47921817Y-85357376D01*
X47923861Y-85341957D01*
X47921665Y-85327793D01*
X47908478Y-85324000D01*
X46737115Y-85324000D01*
X46721876Y-85328475D01*
X46720671Y-85329865D01*
X46719000Y-85337548D01*
X46719000Y-87297885D01*
X46211000Y-87297885D01*
X46211000Y-85342115D01*
X46206525Y-85326876D01*
X46205135Y-85325671D01*
X46197452Y-85324000D01*
X45023808Y-85324000D01*
X45010277Y-85327973D01*
X45008752Y-85338580D01*
X45033477Y-85456421D01*
X45036537Y-85466617D01*
X45117263Y-85671029D01*
X45121994Y-85680561D01*
X45236016Y-85868462D01*
X45242280Y-85877052D01*
X45386327Y-86043052D01*
X45393956Y-86050470D01*
X45425978Y-86076726D01*
X45465973Y-86135385D01*
X45467906Y-86206355D01*
X45431162Y-86267104D01*
X45412391Y-86281305D01*
X45272193Y-86368063D01*
X45260792Y-86377099D01*
X45146261Y-86491829D01*
X45137249Y-86503240D01*
X45052184Y-86641243D01*
X45046037Y-86654424D01*
X44994862Y-86808710D01*
X44991995Y-86822086D01*
X44982328Y-86916438D01*
X44982000Y-86922855D01*
X44982000Y-87297885D01*
X37338500Y-87297885D01*
X37338500Y-82505774D01*
X44978102Y-82505774D01*
X44978302Y-82511103D01*
X44978302Y-82511105D01*
X44981935Y-82607871D01*
X44986751Y-82736158D01*
X45034093Y-82961791D01*
X45036051Y-82966750D01*
X45036052Y-82966752D01*
X45115018Y-83166704D01*
X45118776Y-83176221D01*
X45121543Y-83180780D01*
X45121544Y-83180783D01*
X45183821Y-83283412D01*
X45238377Y-83373317D01*
X45241874Y-83377347D01*
X45385877Y-83543296D01*
X45389477Y-83547445D01*
X45393608Y-83550832D01*
X45563627Y-83690240D01*
X45563633Y-83690244D01*
X45567755Y-83693624D01*
X45572398Y-83696267D01*
X45599735Y-83711829D01*
X45649041Y-83762912D01*
X45662902Y-83832542D01*
X45636918Y-83898613D01*
X45607768Y-83925851D01*
X45490422Y-84004852D01*
X45482130Y-84011519D01*
X45323100Y-84163228D01*
X45316059Y-84171186D01*
X45184859Y-84347525D01*
X45179255Y-84356562D01*
X45079643Y-84552484D01*
X45075643Y-84562335D01*
X45010466Y-84772240D01*
X45008183Y-84782624D01*
X45006139Y-84798043D01*
X45008335Y-84812207D01*
X45021522Y-84816000D01*
X47906192Y-84816000D01*
X47919723Y-84812027D01*
X47921248Y-84801420D01*
X47896523Y-84683579D01*
X47893463Y-84673383D01*
X47812737Y-84468971D01*
X47808006Y-84459439D01*
X47693984Y-84271538D01*
X47687720Y-84262948D01*
X47543673Y-84096948D01*
X47536042Y-84089528D01*
X47366089Y-83950174D01*
X47357326Y-83944152D01*
X47330289Y-83928762D01*
X47280982Y-83877680D01*
X47267120Y-83808049D01*
X47293103Y-83741978D01*
X47322253Y-83714739D01*
X47392805Y-83667240D01*
X47444319Y-83632559D01*
X47494953Y-83584257D01*
X47581901Y-83501312D01*
X47611135Y-83473424D01*
X47748754Y-83288458D01*
X47756133Y-83273946D01*
X47837800Y-83113317D01*
X47853240Y-83082949D01*
X47868831Y-83032740D01*
X47920024Y-82867871D01*
X47921607Y-82862773D01*
X47935959Y-82754489D01*
X47951198Y-82639511D01*
X47951198Y-82639506D01*
X47951898Y-82634226D01*
X47943249Y-82403842D01*
X47935917Y-82368895D01*
X47910083Y-82245774D01*
X47895907Y-82178209D01*
X47882335Y-82143842D01*
X47813185Y-81968744D01*
X47813184Y-81968742D01*
X47811224Y-81963779D01*
X47802413Y-81949258D01*
X47694390Y-81771243D01*
X47691623Y-81766683D01*
X47664932Y-81735924D01*
X47544023Y-81596588D01*
X47544021Y-81596586D01*
X47540523Y-81592555D01*
X47460751Y-81527146D01*
X47366373Y-81449760D01*
X47366367Y-81449756D01*
X47362245Y-81446376D01*
X47330750Y-81428448D01*
X47281445Y-81377368D01*
X47267583Y-81307738D01*
X47293566Y-81241667D01*
X47322716Y-81214427D01*
X47359355Y-81189760D01*
X47444319Y-81132559D01*
X47492153Y-81086928D01*
X47584920Y-80998432D01*
X47611135Y-80973424D01*
X47631149Y-80946525D01*
X47739608Y-80800751D01*
X47748754Y-80788458D01*
X47853240Y-80582949D01*
X47856493Y-80572475D01*
X47920024Y-80367871D01*
X47921607Y-80362773D01*
X47926280Y-80327516D01*
X47951198Y-80139511D01*
X47951198Y-80139506D01*
X47951898Y-80134226D01*
X47951438Y-80121957D01*
X47944062Y-79925505D01*
X47943249Y-79903842D01*
X47895907Y-79678209D01*
X47892824Y-79670402D01*
X47856349Y-79578043D01*
X62041139Y-79578043D01*
X62043335Y-79592207D01*
X62056522Y-79596000D01*
X63227885Y-79596000D01*
X63243124Y-79591525D01*
X63244329Y-79590135D01*
X63246000Y-79582452D01*
X63246000Y-79577885D01*
X63754000Y-79577885D01*
X63758475Y-79593124D01*
X63759865Y-79594329D01*
X63767548Y-79596000D01*
X64941192Y-79596000D01*
X64954723Y-79592027D01*
X64956248Y-79581420D01*
X64931523Y-79463579D01*
X64928463Y-79453383D01*
X64847737Y-79248971D01*
X64843006Y-79239439D01*
X64728984Y-79051538D01*
X64722720Y-79042948D01*
X64578673Y-78876948D01*
X64571042Y-78869528D01*
X64401089Y-78730174D01*
X64392323Y-78724150D01*
X64364801Y-78708483D01*
X64315496Y-78657400D01*
X64301635Y-78587770D01*
X64327619Y-78521699D01*
X64356768Y-78494462D01*
X64474575Y-78415150D01*
X64482870Y-78408481D01*
X64641900Y-78256772D01*
X64648941Y-78248814D01*
X64780141Y-78072475D01*
X64785745Y-78063438D01*
X64885357Y-77867516D01*
X64889357Y-77857665D01*
X64954534Y-77647760D01*
X64956817Y-77637376D01*
X64958861Y-77621957D01*
X64956665Y-77607793D01*
X64943478Y-77604000D01*
X63772115Y-77604000D01*
X63756876Y-77608475D01*
X63755671Y-77609865D01*
X63754000Y-77617548D01*
X63754000Y-79577885D01*
X63246000Y-79577885D01*
X63246000Y-77622115D01*
X63241525Y-77606876D01*
X63240135Y-77605671D01*
X63232452Y-77604000D01*
X62058808Y-77604000D01*
X62045277Y-77607973D01*
X62043752Y-77618580D01*
X62068477Y-77736421D01*
X62071537Y-77746617D01*
X62152263Y-77951029D01*
X62156994Y-77960561D01*
X62271016Y-78148462D01*
X62277280Y-78157052D01*
X62421327Y-78323052D01*
X62428958Y-78330472D01*
X62598911Y-78469826D01*
X62607677Y-78475850D01*
X62635199Y-78491517D01*
X62684504Y-78542600D01*
X62698365Y-78612230D01*
X62672381Y-78678301D01*
X62643232Y-78705538D01*
X62525425Y-78784850D01*
X62517130Y-78791519D01*
X62358100Y-78943228D01*
X62351059Y-78951186D01*
X62219859Y-79127525D01*
X62214255Y-79136562D01*
X62114643Y-79332484D01*
X62110643Y-79342335D01*
X62045466Y-79552240D01*
X62043183Y-79562624D01*
X62041139Y-79578043D01*
X47856349Y-79578043D01*
X47813185Y-79468744D01*
X47813184Y-79468742D01*
X47811224Y-79463779D01*
X47807718Y-79458000D01*
X47694390Y-79271243D01*
X47691623Y-79266683D01*
X47673256Y-79245517D01*
X47544023Y-79096588D01*
X47544021Y-79096586D01*
X47540523Y-79092555D01*
X47480023Y-79042948D01*
X47366373Y-78949760D01*
X47366367Y-78949756D01*
X47362245Y-78946376D01*
X47357609Y-78943737D01*
X47357606Y-78943735D01*
X47166529Y-78834968D01*
X47161886Y-78832325D01*
X46945175Y-78753663D01*
X46939926Y-78752714D01*
X46939923Y-78752713D01*
X46722392Y-78713377D01*
X46722385Y-78713376D01*
X46718308Y-78712639D01*
X46700586Y-78711803D01*
X46695644Y-78711570D01*
X46695637Y-78711570D01*
X46694156Y-78711500D01*
X46282110Y-78711500D01*
X46215191Y-78717178D01*
X46115591Y-78725629D01*
X46115587Y-78725630D01*
X46110280Y-78726080D01*
X46105125Y-78727418D01*
X46105119Y-78727419D01*
X45892297Y-78782657D01*
X45892293Y-78782658D01*
X45887128Y-78783999D01*
X45882262Y-78786191D01*
X45882259Y-78786192D01*
X45773980Y-78834968D01*
X45676925Y-78878688D01*
X45485681Y-79007441D01*
X45481824Y-79011120D01*
X45481822Y-79011122D01*
X45412464Y-79077287D01*
X45318865Y-79166576D01*
X45181246Y-79351542D01*
X45178830Y-79356293D01*
X45178828Y-79356297D01*
X45137784Y-79437026D01*
X45076760Y-79557051D01*
X45075178Y-79562145D01*
X45075177Y-79562148D01*
X45033719Y-79695665D01*
X45008393Y-79777227D01*
X45007692Y-79782516D01*
X44988741Y-79925505D01*
X44978102Y-80005774D01*
X44978302Y-80011103D01*
X44978302Y-80011105D01*
X44981466Y-80095386D01*
X44986751Y-80236158D01*
X45034093Y-80461791D01*
X45036051Y-80466750D01*
X45036052Y-80466752D01*
X45092017Y-80608462D01*
X45118776Y-80676221D01*
X45121543Y-80680780D01*
X45121544Y-80680783D01*
X45207875Y-80823052D01*
X45238377Y-80873317D01*
X45241874Y-80877347D01*
X45369132Y-81023999D01*
X45389477Y-81047445D01*
X45402899Y-81058450D01*
X45563627Y-81190240D01*
X45563633Y-81190244D01*
X45567755Y-81193624D01*
X45599250Y-81211552D01*
X45648555Y-81262632D01*
X45662417Y-81332262D01*
X45636434Y-81398333D01*
X45607284Y-81425573D01*
X45485681Y-81507441D01*
X45318865Y-81666576D01*
X45315682Y-81670854D01*
X45291901Y-81702817D01*
X45181246Y-81851542D01*
X45076760Y-82057051D01*
X45075178Y-82062145D01*
X45075177Y-82062148D01*
X45024784Y-82224441D01*
X45008393Y-82277227D01*
X45007692Y-82282516D01*
X44981336Y-82481377D01*
X44978102Y-82505774D01*
X37338500Y-82505774D01*
X37338500Y-69765774D01*
X44978102Y-69765774D01*
X44986751Y-69996158D01*
X44987846Y-70001377D01*
X44989829Y-70010827D01*
X45034093Y-70221791D01*
X45036051Y-70226750D01*
X45036052Y-70226752D01*
X45088972Y-70360752D01*
X45118776Y-70436221D01*
X45121543Y-70440780D01*
X45121544Y-70440783D01*
X45200089Y-70570221D01*
X45238377Y-70633317D01*
X45241874Y-70637347D01*
X45345793Y-70757103D01*
X45389477Y-70807445D01*
X45425120Y-70836670D01*
X45465114Y-70895329D01*
X45467046Y-70966299D01*
X45430302Y-71027048D01*
X45411532Y-71041248D01*
X45336406Y-71087738D01*
X45265652Y-71131522D01*
X45140695Y-71256697D01*
X45136855Y-71262927D01*
X45136854Y-71262928D01*
X45071367Y-71369168D01*
X45047885Y-71407262D01*
X45034845Y-71446576D01*
X44998254Y-71556897D01*
X44992203Y-71575139D01*
X44981500Y-71679600D01*
X44981500Y-72980400D01*
X44981837Y-72983646D01*
X44981837Y-72983650D01*
X44990820Y-73070221D01*
X44992474Y-73086166D01*
X44994655Y-73092702D01*
X44994655Y-73092704D01*
X45022293Y-73175543D01*
X45048450Y-73253946D01*
X45141522Y-73404348D01*
X45266697Y-73529305D01*
X45272927Y-73533145D01*
X45272928Y-73533146D01*
X45410090Y-73617694D01*
X45417262Y-73622115D01*
X45466158Y-73638333D01*
X45578611Y-73675632D01*
X45578613Y-73675632D01*
X45585139Y-73677797D01*
X45591975Y-73678497D01*
X45591978Y-73678498D01*
X45635031Y-73682909D01*
X45689600Y-73688500D01*
X47240400Y-73688500D01*
X47243646Y-73688163D01*
X47243650Y-73688163D01*
X47339308Y-73678238D01*
X47339312Y-73678237D01*
X47346166Y-73677526D01*
X47352702Y-73675345D01*
X47352704Y-73675345D01*
X47484806Y-73631272D01*
X47513946Y-73621550D01*
X47664348Y-73528478D01*
X47789305Y-73403303D01*
X47808256Y-73372559D01*
X47878275Y-73258968D01*
X47878276Y-73258966D01*
X47882115Y-73252738D01*
X47937797Y-73084861D01*
X47948500Y-72980400D01*
X47948500Y-71679600D01*
X47948163Y-71676350D01*
X47938238Y-71580692D01*
X47938237Y-71580688D01*
X47937526Y-71573834D01*
X47931876Y-71556897D01*
X47883868Y-71413002D01*
X47881550Y-71406054D01*
X47788478Y-71255652D01*
X47663303Y-71130695D01*
X47633502Y-71112325D01*
X47587939Y-71084240D01*
X47517660Y-71040919D01*
X47470168Y-70988148D01*
X47458744Y-70918076D01*
X47487018Y-70852952D01*
X47496805Y-70842490D01*
X47547937Y-70793712D01*
X47611135Y-70733424D01*
X47748754Y-70548458D01*
X47751509Y-70543041D01*
X47843469Y-70362167D01*
X47853240Y-70342949D01*
X47855689Y-70335064D01*
X47920024Y-70127871D01*
X47921607Y-70122773D01*
X47922308Y-70117484D01*
X47951198Y-69899511D01*
X47951198Y-69899506D01*
X47951898Y-69894226D01*
X47947833Y-69785933D01*
X47943449Y-69669173D01*
X47943249Y-69663842D01*
X47895907Y-69438209D01*
X47864795Y-69359428D01*
X47813185Y-69228744D01*
X47813184Y-69228742D01*
X47811224Y-69223779D01*
X47799206Y-69203973D01*
X47694390Y-69031243D01*
X47691623Y-69026683D01*
X47688128Y-69022656D01*
X47688122Y-69022647D01*
X47680983Y-69014420D01*
X47651446Y-68949860D01*
X47661502Y-68879579D01*
X47687056Y-68842748D01*
X57171761Y-59358043D01*
X62041139Y-59358043D01*
X62043335Y-59372207D01*
X62056522Y-59376000D01*
X63227885Y-59376000D01*
X63243124Y-59371525D01*
X63244329Y-59370135D01*
X63246000Y-59362452D01*
X63246000Y-57402115D01*
X63241525Y-57386876D01*
X63240135Y-57385671D01*
X63232452Y-57384000D01*
X62058808Y-57384000D01*
X62045277Y-57387973D01*
X62043752Y-57398580D01*
X62068477Y-57516421D01*
X62071537Y-57526617D01*
X62152263Y-57731029D01*
X62156994Y-57740561D01*
X62271016Y-57928462D01*
X62277280Y-57937052D01*
X62421327Y-58103052D01*
X62428958Y-58110472D01*
X62598911Y-58249826D01*
X62607677Y-58255850D01*
X62635199Y-58271517D01*
X62684504Y-58322600D01*
X62698365Y-58392230D01*
X62672381Y-58458301D01*
X62643232Y-58485538D01*
X62525425Y-58564850D01*
X62517130Y-58571519D01*
X62358100Y-58723228D01*
X62351059Y-58731186D01*
X62219859Y-58907525D01*
X62214255Y-58916562D01*
X62114643Y-59112484D01*
X62110643Y-59122335D01*
X62045466Y-59332240D01*
X62043183Y-59342624D01*
X62041139Y-59358043D01*
X57171761Y-59358043D01*
X61807977Y-54721827D01*
X61870289Y-54687801D01*
X61941104Y-54692866D01*
X61997940Y-54735413D01*
X62021687Y-54794460D01*
X62021751Y-54796158D01*
X62022845Y-54801374D01*
X62022846Y-54801379D01*
X62064138Y-54998177D01*
X62069093Y-55021791D01*
X62071051Y-55026750D01*
X62071052Y-55026752D01*
X62145765Y-55215935D01*
X62153776Y-55236221D01*
X62156543Y-55240780D01*
X62156544Y-55240783D01*
X62200209Y-55312740D01*
X62273377Y-55433317D01*
X62276874Y-55437347D01*
X62414146Y-55595539D01*
X62424477Y-55607445D01*
X62433606Y-55614930D01*
X62598627Y-55750240D01*
X62598633Y-55750244D01*
X62602755Y-55753624D01*
X62607398Y-55756267D01*
X62634735Y-55771829D01*
X62684041Y-55822912D01*
X62697902Y-55892542D01*
X62671918Y-55958613D01*
X62642768Y-55985851D01*
X62525422Y-56064852D01*
X62517130Y-56071519D01*
X62358100Y-56223228D01*
X62351059Y-56231186D01*
X62219859Y-56407525D01*
X62214255Y-56416562D01*
X62114643Y-56612484D01*
X62110643Y-56622335D01*
X62045466Y-56832240D01*
X62043183Y-56842624D01*
X62041139Y-56858043D01*
X62043335Y-56872207D01*
X62056522Y-56876000D01*
X63628000Y-56876000D01*
X63696121Y-56896002D01*
X63742614Y-56949658D01*
X63754000Y-57002000D01*
X63754000Y-59758000D01*
X63733998Y-59826121D01*
X63680342Y-59872614D01*
X63628000Y-59884000D01*
X62058808Y-59884000D01*
X62045277Y-59887973D01*
X62043752Y-59898580D01*
X62068477Y-60016421D01*
X62071537Y-60026617D01*
X62152263Y-60231029D01*
X62156994Y-60240561D01*
X62271016Y-60428462D01*
X62277280Y-60437052D01*
X62421327Y-60603052D01*
X62428956Y-60610470D01*
X62460569Y-60636391D01*
X62500564Y-60695051D01*
X62502496Y-60766021D01*
X62465752Y-60826770D01*
X62446983Y-60840969D01*
X62300652Y-60931522D01*
X62175695Y-61056697D01*
X62171855Y-61062927D01*
X62171854Y-61062928D01*
X62134889Y-61122897D01*
X62082885Y-61207262D01*
X62027203Y-61375139D01*
X62016500Y-61479600D01*
X62016500Y-62780400D01*
X62016837Y-62783646D01*
X62016837Y-62783650D01*
X62022409Y-62837347D01*
X62027474Y-62886166D01*
X62029655Y-62892702D01*
X62029655Y-62892704D01*
X62044468Y-62937103D01*
X62083450Y-63053946D01*
X62176522Y-63204348D01*
X62301697Y-63329305D01*
X62307927Y-63333145D01*
X62307928Y-63333146D01*
X62445100Y-63417700D01*
X62452262Y-63422115D01*
X62516926Y-63443563D01*
X62613611Y-63475632D01*
X62613613Y-63475632D01*
X62620139Y-63477797D01*
X62626975Y-63478497D01*
X62626978Y-63478498D01*
X62670031Y-63482909D01*
X62724600Y-63488500D01*
X62740500Y-63488500D01*
X62808621Y-63508502D01*
X62855114Y-63562158D01*
X62866500Y-63614500D01*
X62866500Y-68507622D01*
X62846498Y-68575743D01*
X62792250Y-68622504D01*
X62716790Y-68656496D01*
X62716786Y-68656498D01*
X62711925Y-68658688D01*
X62520681Y-68787441D01*
X62353865Y-68946576D01*
X62216246Y-69131542D01*
X62213830Y-69136293D01*
X62213828Y-69136297D01*
X62187652Y-69187782D01*
X62111760Y-69337051D01*
X62110178Y-69342145D01*
X62110177Y-69342148D01*
X62067365Y-69480026D01*
X62043393Y-69557227D01*
X62042692Y-69562516D01*
X62015753Y-69765774D01*
X62013102Y-69785774D01*
X62021751Y-70016158D01*
X62069093Y-70241791D01*
X62071051Y-70246750D01*
X62071052Y-70246752D01*
X62145878Y-70436221D01*
X62153776Y-70456221D01*
X62273377Y-70653317D01*
X62276874Y-70657347D01*
X62363438Y-70757103D01*
X62424477Y-70827445D01*
X62442826Y-70842490D01*
X62598627Y-70970240D01*
X62598633Y-70970244D01*
X62602755Y-70973624D01*
X62634250Y-70991552D01*
X62683555Y-71042632D01*
X62697417Y-71112262D01*
X62671434Y-71178333D01*
X62642284Y-71205573D01*
X62520681Y-71287441D01*
X62353865Y-71446576D01*
X62350682Y-71450854D01*
X62326640Y-71483168D01*
X62216246Y-71631542D01*
X62213830Y-71636293D01*
X62213828Y-71636297D01*
X62164003Y-71734296D01*
X62111760Y-71837051D01*
X62110178Y-71842145D01*
X62110177Y-71842148D01*
X62057396Y-72012129D01*
X62043393Y-72057227D01*
X62042692Y-72062516D01*
X62027304Y-72178623D01*
X62013102Y-72285774D01*
X62013302Y-72291103D01*
X62013302Y-72291105D01*
X62016423Y-72374226D01*
X62021751Y-72516158D01*
X62069093Y-72741791D01*
X62071051Y-72746750D01*
X62071052Y-72746752D01*
X62110078Y-72845570D01*
X62153776Y-72956221D01*
X62156543Y-72960780D01*
X62156544Y-72960783D01*
X62200209Y-73032740D01*
X62273377Y-73153317D01*
X62276874Y-73157347D01*
X62368234Y-73262630D01*
X62424477Y-73327445D01*
X62428608Y-73330832D01*
X62598627Y-73470240D01*
X62598633Y-73470244D01*
X62602755Y-73473624D01*
X62634250Y-73491552D01*
X62683555Y-73542632D01*
X62697417Y-73612262D01*
X62671434Y-73678333D01*
X62642284Y-73705573D01*
X62520681Y-73787441D01*
X62516824Y-73791120D01*
X62516822Y-73791122D01*
X62484003Y-73822430D01*
X62353865Y-73946576D01*
X62216246Y-74131542D01*
X62213830Y-74136293D01*
X62213828Y-74136297D01*
X62164003Y-74234296D01*
X62111760Y-74337051D01*
X62110178Y-74342145D01*
X62110177Y-74342148D01*
X62057396Y-74512129D01*
X62043393Y-74557227D01*
X62042692Y-74562516D01*
X62027304Y-74678623D01*
X62013102Y-74785774D01*
X62013302Y-74791103D01*
X62013302Y-74791105D01*
X62016423Y-74874226D01*
X62021751Y-75016158D01*
X62069093Y-75241791D01*
X62071051Y-75246750D01*
X62071052Y-75246752D01*
X62146381Y-75437495D01*
X62153776Y-75456221D01*
X62156543Y-75460780D01*
X62156544Y-75460783D01*
X62174557Y-75490467D01*
X62273377Y-75653317D01*
X62276874Y-75657347D01*
X62363438Y-75757103D01*
X62424477Y-75827445D01*
X62428608Y-75830832D01*
X62598627Y-75970240D01*
X62598633Y-75970244D01*
X62602755Y-75973624D01*
X62607398Y-75976267D01*
X62634735Y-75991829D01*
X62684041Y-76042912D01*
X62697902Y-76112542D01*
X62671918Y-76178613D01*
X62642768Y-76205851D01*
X62525422Y-76284852D01*
X62517130Y-76291519D01*
X62358100Y-76443228D01*
X62351059Y-76451186D01*
X62219859Y-76627525D01*
X62214255Y-76636562D01*
X62114643Y-76832484D01*
X62110643Y-76842335D01*
X62045466Y-77052240D01*
X62043183Y-77062624D01*
X62041139Y-77078043D01*
X62043335Y-77092207D01*
X62056522Y-77096000D01*
X64941192Y-77096000D01*
X64954723Y-77092027D01*
X64956248Y-77081420D01*
X64931523Y-76963579D01*
X64928463Y-76953383D01*
X64847737Y-76748971D01*
X64843006Y-76739439D01*
X64728984Y-76551538D01*
X64722720Y-76542948D01*
X64578673Y-76376948D01*
X64571042Y-76369528D01*
X64401089Y-76230174D01*
X64392326Y-76224152D01*
X64365289Y-76208762D01*
X64315982Y-76157680D01*
X64302120Y-76088049D01*
X64328103Y-76021978D01*
X64357253Y-75994739D01*
X64410532Y-75958869D01*
X64479319Y-75912559D01*
X64646135Y-75753424D01*
X64783754Y-75568458D01*
X64801451Y-75533652D01*
X64856213Y-75425941D01*
X64888240Y-75362949D01*
X64891379Y-75352842D01*
X64955024Y-75147871D01*
X64956607Y-75142773D01*
X64961232Y-75107875D01*
X64986198Y-74919511D01*
X64986198Y-74919506D01*
X64986898Y-74914226D01*
X64978249Y-74683842D01*
X64930907Y-74458209D01*
X64867262Y-74297051D01*
X64848185Y-74248744D01*
X64848184Y-74248742D01*
X64846224Y-74243779D01*
X64821952Y-74203779D01*
X64729390Y-74051243D01*
X64726623Y-74046683D01*
X64639755Y-73946576D01*
X64579023Y-73876588D01*
X64579021Y-73876586D01*
X64575523Y-73872555D01*
X64513325Y-73821556D01*
X64401373Y-73729760D01*
X64401367Y-73729756D01*
X64397245Y-73726376D01*
X64365750Y-73708448D01*
X64316445Y-73657368D01*
X64302583Y-73587738D01*
X64328566Y-73521667D01*
X64357716Y-73494427D01*
X64442403Y-73437412D01*
X64479319Y-73412559D01*
X64487927Y-73404348D01*
X64610472Y-73287445D01*
X64646135Y-73253424D01*
X64783754Y-73068458D01*
X64888240Y-72862949D01*
X64892084Y-72850572D01*
X64955024Y-72647871D01*
X64956607Y-72642773D01*
X64961233Y-72607871D01*
X64986198Y-72419511D01*
X64986198Y-72419506D01*
X64986898Y-72414226D01*
X64986356Y-72399774D01*
X64978449Y-72189173D01*
X64978249Y-72183842D01*
X64974533Y-72166129D01*
X64932002Y-71963428D01*
X64930907Y-71958209D01*
X64928080Y-71951051D01*
X64848185Y-71748744D01*
X64848184Y-71748742D01*
X64846224Y-71743779D01*
X64821952Y-71703779D01*
X64729390Y-71551243D01*
X64726623Y-71546683D01*
X64688416Y-71502653D01*
X64579023Y-71376588D01*
X64579021Y-71376586D01*
X64575523Y-71372555D01*
X64510907Y-71319573D01*
X64401373Y-71229760D01*
X64401367Y-71229756D01*
X64397245Y-71226376D01*
X64365750Y-71208448D01*
X64316445Y-71157368D01*
X64302583Y-71087738D01*
X64328566Y-71021667D01*
X64357716Y-70994427D01*
X64471124Y-70918076D01*
X64479319Y-70912559D01*
X64500285Y-70892559D01*
X64585958Y-70810830D01*
X64646135Y-70753424D01*
X64661016Y-70733424D01*
X64780568Y-70572740D01*
X64783754Y-70568458D01*
X64788407Y-70559308D01*
X64885822Y-70367704D01*
X64888240Y-70362949D01*
X64891840Y-70351357D01*
X64955024Y-70147871D01*
X64956607Y-70142773D01*
X64962233Y-70100323D01*
X64986198Y-69919511D01*
X64986198Y-69919506D01*
X64986898Y-69914226D01*
X64986356Y-69899774D01*
X64978449Y-69689173D01*
X64978249Y-69683842D01*
X64974533Y-69666129D01*
X64932002Y-69463428D01*
X64930907Y-69458209D01*
X64928080Y-69451051D01*
X64848185Y-69248744D01*
X64848184Y-69248742D01*
X64846224Y-69243779D01*
X64831320Y-69219217D01*
X64729390Y-69051243D01*
X64726623Y-69046683D01*
X64698627Y-69014420D01*
X64579023Y-68876588D01*
X64579021Y-68876586D01*
X64575523Y-68872555D01*
X64510907Y-68819573D01*
X64401373Y-68729760D01*
X64401367Y-68729756D01*
X64397245Y-68726376D01*
X64197167Y-68612485D01*
X64147862Y-68561404D01*
X64133500Y-68502984D01*
X64133500Y-63614500D01*
X64153502Y-63546379D01*
X64207158Y-63499886D01*
X64259500Y-63488500D01*
X64275400Y-63488500D01*
X64278646Y-63488163D01*
X64278650Y-63488163D01*
X64374308Y-63478238D01*
X64374312Y-63478237D01*
X64381166Y-63477526D01*
X64387702Y-63475345D01*
X64387704Y-63475345D01*
X64520234Y-63431129D01*
X64548946Y-63421550D01*
X64699348Y-63328478D01*
X64824305Y-63203303D01*
X64833842Y-63187831D01*
X64846333Y-63167568D01*
X64899106Y-63120076D01*
X64969178Y-63108654D01*
X65034301Y-63136929D01*
X65042687Y-63144591D01*
X73366848Y-71468752D01*
X73400874Y-71531064D01*
X73399459Y-71590459D01*
X73383882Y-71648591D01*
X73383881Y-71648598D01*
X73382457Y-71653913D01*
X73362502Y-71882000D01*
X73382457Y-72110087D01*
X73383881Y-72115400D01*
X73383881Y-72115402D01*
X73434195Y-72303173D01*
X73441716Y-72331243D01*
X73444039Y-72336224D01*
X73444039Y-72336225D01*
X73536151Y-72533762D01*
X73536154Y-72533767D01*
X73538477Y-72538749D01*
X73606137Y-72635377D01*
X73652641Y-72701791D01*
X73669802Y-72726300D01*
X73831700Y-72888198D01*
X73836208Y-72891355D01*
X73836211Y-72891357D01*
X73864630Y-72911256D01*
X74019251Y-73019523D01*
X74024233Y-73021846D01*
X74024238Y-73021849D01*
X74162168Y-73086166D01*
X74226757Y-73116284D01*
X74232065Y-73117706D01*
X74232067Y-73117707D01*
X74442598Y-73174119D01*
X74442600Y-73174119D01*
X74447913Y-73175543D01*
X74676000Y-73195498D01*
X74904087Y-73175543D01*
X75033290Y-73140923D01*
X75104265Y-73142613D01*
X75163061Y-73182407D01*
X75191009Y-73247671D01*
X75191900Y-73262630D01*
X75191900Y-79368905D01*
X75171898Y-79437026D01*
X75154995Y-79458000D01*
X65036410Y-89576585D01*
X64974098Y-89610611D01*
X64903283Y-89605546D01*
X64846447Y-89562999D01*
X64839596Y-89552856D01*
X64729390Y-89371243D01*
X64726623Y-89366683D01*
X64639755Y-89266576D01*
X64579023Y-89196588D01*
X64579021Y-89196586D01*
X64575523Y-89192555D01*
X64494352Y-89125999D01*
X64401373Y-89049760D01*
X64401367Y-89049756D01*
X64397245Y-89046376D01*
X64197167Y-88932485D01*
X64147862Y-88881404D01*
X64133500Y-88822984D01*
X64133500Y-83834500D01*
X64153502Y-83766379D01*
X64207158Y-83719886D01*
X64259500Y-83708500D01*
X64275400Y-83708500D01*
X64278646Y-83708163D01*
X64278650Y-83708163D01*
X64374308Y-83698238D01*
X64374312Y-83698237D01*
X64381166Y-83697526D01*
X64387702Y-83695345D01*
X64387704Y-83695345D01*
X64519806Y-83651272D01*
X64548946Y-83641550D01*
X64699348Y-83548478D01*
X64824305Y-83423303D01*
X64879244Y-83334176D01*
X64913275Y-83278968D01*
X64913276Y-83278966D01*
X64917115Y-83272738D01*
X64968846Y-83116773D01*
X64970632Y-83111389D01*
X64970632Y-83111387D01*
X64972797Y-83104861D01*
X64983500Y-83000400D01*
X64983500Y-81699600D01*
X64983163Y-81696350D01*
X64973238Y-81600692D01*
X64973237Y-81600688D01*
X64972526Y-81593834D01*
X64950006Y-81526332D01*
X64918868Y-81433002D01*
X64916550Y-81426054D01*
X64823478Y-81275652D01*
X64698303Y-81150695D01*
X64662910Y-81128878D01*
X64594491Y-81086704D01*
X64552220Y-81060647D01*
X64504727Y-81007876D01*
X64493303Y-80937804D01*
X64521577Y-80872680D01*
X64531364Y-80862218D01*
X64641906Y-80756766D01*
X64648941Y-80748814D01*
X64780141Y-80572475D01*
X64785745Y-80563438D01*
X64885357Y-80367516D01*
X64889357Y-80357665D01*
X64954534Y-80147760D01*
X64956817Y-80137376D01*
X64958861Y-80121957D01*
X64956665Y-80107793D01*
X64943478Y-80104000D01*
X62058808Y-80104000D01*
X62045277Y-80107973D01*
X62043752Y-80118580D01*
X62068477Y-80236421D01*
X62071537Y-80246617D01*
X62152263Y-80451029D01*
X62156994Y-80460561D01*
X62271016Y-80648462D01*
X62277280Y-80657052D01*
X62421327Y-80823052D01*
X62428956Y-80830470D01*
X62460569Y-80856391D01*
X62500564Y-80915051D01*
X62502496Y-80986021D01*
X62465752Y-81046770D01*
X62446983Y-81060969D01*
X62300652Y-81151522D01*
X62175695Y-81276697D01*
X62171855Y-81282927D01*
X62171854Y-81282928D01*
X62096005Y-81405978D01*
X62082885Y-81427262D01*
X62080581Y-81434209D01*
X62030631Y-81584805D01*
X62027203Y-81595139D01*
X62016500Y-81699600D01*
X62016500Y-83000400D01*
X62016837Y-83003646D01*
X62016837Y-83003650D01*
X62019856Y-83032740D01*
X62027474Y-83106166D01*
X62029655Y-83112702D01*
X62029655Y-83112704D01*
X62043202Y-83153308D01*
X62083450Y-83273946D01*
X62176522Y-83424348D01*
X62301697Y-83549305D01*
X62307927Y-83553145D01*
X62307928Y-83553146D01*
X62445090Y-83637694D01*
X62452262Y-83642115D01*
X62528012Y-83667240D01*
X62613611Y-83695632D01*
X62613613Y-83695632D01*
X62620139Y-83697797D01*
X62626975Y-83698497D01*
X62626978Y-83698498D01*
X62670031Y-83702909D01*
X62724600Y-83708500D01*
X62740500Y-83708500D01*
X62808621Y-83728502D01*
X62855114Y-83782158D01*
X62866500Y-83834500D01*
X62866500Y-88827622D01*
X62846498Y-88895743D01*
X62792250Y-88942504D01*
X62716790Y-88976496D01*
X62716786Y-88976498D01*
X62711925Y-88978688D01*
X62520681Y-89107441D01*
X62516824Y-89111120D01*
X62516822Y-89111122D01*
X62467840Y-89157849D01*
X62353865Y-89266576D01*
X62216246Y-89451542D01*
X62213830Y-89456293D01*
X62213828Y-89456297D01*
X62164735Y-89552856D01*
X62111760Y-89657051D01*
X62043393Y-89877227D01*
X62013102Y-90105774D01*
X62021751Y-90336158D01*
X62069093Y-90561791D01*
X62153776Y-90776221D01*
X62273377Y-90973317D01*
X62424477Y-91147445D01*
X62432406Y-91153946D01*
X62598627Y-91290240D01*
X62598633Y-91290244D01*
X62602755Y-91293624D01*
X62634250Y-91311552D01*
X62683555Y-91362632D01*
X62697417Y-91432262D01*
X62671434Y-91498333D01*
X62642284Y-91525573D01*
X62520681Y-91607441D01*
X62516824Y-91611120D01*
X62516822Y-91611122D01*
X62460689Y-91664671D01*
X62353865Y-91766576D01*
X62216246Y-91951542D01*
X62213830Y-91956293D01*
X62213828Y-91956297D01*
X62185740Y-92011542D01*
X62111760Y-92157051D01*
X62110178Y-92162145D01*
X62110177Y-92162148D01*
X62053888Y-92343428D01*
X62043393Y-92377227D01*
X62042692Y-92382516D01*
X62018660Y-92563842D01*
X62013102Y-92605774D01*
X62013302Y-92611103D01*
X62013302Y-92611105D01*
X62015555Y-92671105D01*
X62021751Y-92836158D01*
X62069093Y-93061791D01*
X62153776Y-93276221D01*
X62273377Y-93473317D01*
X62276874Y-93477347D01*
X62415503Y-93637103D01*
X62424477Y-93647445D01*
X62428608Y-93650832D01*
X62598627Y-93790240D01*
X62598633Y-93790244D01*
X62602755Y-93793624D01*
X62634250Y-93811552D01*
X62683555Y-93862632D01*
X62697417Y-93932262D01*
X62671434Y-93998333D01*
X62642284Y-94025573D01*
X62520681Y-94107441D01*
X62516824Y-94111120D01*
X62516822Y-94111122D01*
X62469457Y-94156306D01*
X62353865Y-94266576D01*
X62216246Y-94451542D01*
X62213830Y-94456293D01*
X62213828Y-94456297D01*
X62175572Y-94531542D01*
X62111760Y-94657051D01*
X62110178Y-94662145D01*
X62110177Y-94662148D01*
X62053888Y-94843428D01*
X62043393Y-94877227D01*
X62042692Y-94882516D01*
X62016009Y-95083842D01*
X62013102Y-95105774D01*
X62013302Y-95111103D01*
X62013302Y-95111105D01*
X62015555Y-95171105D01*
X62021751Y-95336158D01*
X62069093Y-95561791D01*
X62071051Y-95566750D01*
X62071052Y-95566752D01*
X62148535Y-95762949D01*
X62153776Y-95776221D01*
X62156543Y-95780780D01*
X62156544Y-95780783D01*
X62218998Y-95883703D01*
X62273377Y-95973317D01*
X62276874Y-95977347D01*
X62415503Y-96137103D01*
X62424477Y-96147445D01*
X62428608Y-96150832D01*
X62598627Y-96290240D01*
X62598633Y-96290244D01*
X62602755Y-96293624D01*
X62607398Y-96296267D01*
X62634735Y-96311829D01*
X62684041Y-96362912D01*
X62697902Y-96432542D01*
X62671918Y-96498613D01*
X62642768Y-96525851D01*
X62525422Y-96604852D01*
X62517130Y-96611519D01*
X62358100Y-96763228D01*
X62351059Y-96771186D01*
X62219859Y-96947525D01*
X62214255Y-96956562D01*
X62114643Y-97152484D01*
X62110643Y-97162335D01*
X62045466Y-97372240D01*
X62043183Y-97382624D01*
X62041139Y-97398043D01*
X62043335Y-97412207D01*
X62056522Y-97416000D01*
X64941192Y-97416000D01*
X64954723Y-97412027D01*
X64956248Y-97401420D01*
X64931523Y-97283579D01*
X64928463Y-97273383D01*
X64847737Y-97068971D01*
X64843006Y-97059439D01*
X64728984Y-96871538D01*
X64722720Y-96862948D01*
X64578673Y-96696948D01*
X64571042Y-96689528D01*
X64401089Y-96550174D01*
X64392326Y-96544152D01*
X64365289Y-96528762D01*
X64315982Y-96477680D01*
X64302120Y-96408049D01*
X64328103Y-96341978D01*
X64357253Y-96314739D01*
X64410532Y-96278869D01*
X64479319Y-96232559D01*
X64507801Y-96205389D01*
X64587723Y-96129146D01*
X64646135Y-96073424D01*
X64783754Y-95888458D01*
X64802669Y-95851256D01*
X64885822Y-95687704D01*
X64888240Y-95682949D01*
X64924321Y-95566752D01*
X64955024Y-95467871D01*
X64956607Y-95462773D01*
X64966143Y-95390827D01*
X64986198Y-95239511D01*
X64986198Y-95239506D01*
X64986898Y-95234226D01*
X64978249Y-95003842D01*
X64930907Y-94778209D01*
X64912775Y-94732296D01*
X64848185Y-94568744D01*
X64848184Y-94568742D01*
X64846224Y-94563779D01*
X64835529Y-94546153D01*
X64729390Y-94371243D01*
X64726623Y-94366683D01*
X64691820Y-94326576D01*
X64579023Y-94196588D01*
X64579021Y-94196586D01*
X64575523Y-94192555D01*
X64531314Y-94156306D01*
X64401373Y-94049760D01*
X64401367Y-94049756D01*
X64397245Y-94046376D01*
X64365750Y-94028448D01*
X64316445Y-93977368D01*
X64302583Y-93907738D01*
X64328566Y-93841667D01*
X64357716Y-93814427D01*
X64395665Y-93788878D01*
X64479319Y-93732559D01*
X64646135Y-93573424D01*
X64783754Y-93388458D01*
X64888240Y-93182949D01*
X64924321Y-93066752D01*
X64955024Y-92967871D01*
X64956607Y-92962773D01*
X64966143Y-92890827D01*
X64986198Y-92739511D01*
X64986198Y-92739506D01*
X64986898Y-92734226D01*
X64978249Y-92503842D01*
X64930907Y-92278209D01*
X64928948Y-92273248D01*
X64848185Y-92068744D01*
X64848184Y-92068742D01*
X64846224Y-92063779D01*
X64811928Y-92007260D01*
X64729390Y-91871243D01*
X64726623Y-91866683D01*
X64723128Y-91862656D01*
X64723122Y-91862647D01*
X64715983Y-91854420D01*
X64686446Y-91789860D01*
X64696502Y-91719579D01*
X64722056Y-91682748D01*
X76217647Y-80187157D01*
X76225937Y-80179613D01*
X76232418Y-80175500D01*
X76279059Y-80125832D01*
X76281813Y-80122991D01*
X76301534Y-80103270D01*
X76304012Y-80100075D01*
X76311718Y-80091053D01*
X76323431Y-80078580D01*
X76341986Y-80058821D01*
X76351746Y-80041068D01*
X76362599Y-80024545D01*
X76370153Y-80014806D01*
X76375013Y-80008541D01*
X76392576Y-79967957D01*
X76397783Y-79957327D01*
X76419095Y-79918560D01*
X76421066Y-79910883D01*
X76421068Y-79910878D01*
X76424132Y-79898942D01*
X76430538Y-79880230D01*
X76435434Y-79868917D01*
X76438581Y-79861645D01*
X76439820Y-79853820D01*
X76439823Y-79853811D01*
X76445500Y-79817969D01*
X76447906Y-79806347D01*
X76456692Y-79772129D01*
X76458900Y-79763530D01*
X76458900Y-79743276D01*
X76460451Y-79723565D01*
X76462380Y-79711386D01*
X76463620Y-79703557D01*
X76459459Y-79659538D01*
X76458900Y-79647681D01*
X76458900Y-68030167D01*
X76459427Y-68018984D01*
X76461102Y-68011491D01*
X76458962Y-67943414D01*
X76458900Y-67939455D01*
X76458900Y-67911544D01*
X76458395Y-67907544D01*
X76457462Y-67895701D01*
X76456322Y-67859430D01*
X76456073Y-67851511D01*
X76450421Y-67832057D01*
X76446413Y-67812700D01*
X76444868Y-67800470D01*
X76444868Y-67800469D01*
X76443874Y-67792603D01*
X76437726Y-67777075D01*
X76427596Y-67751488D01*
X76423751Y-67740258D01*
X76413629Y-67705417D01*
X76413629Y-67705416D01*
X76411418Y-67697807D01*
X76407385Y-67690988D01*
X76407383Y-67690983D01*
X76401107Y-67680372D01*
X76392412Y-67662624D01*
X76384952Y-67643783D01*
X76358964Y-67608013D01*
X76352448Y-67598093D01*
X76333980Y-67566865D01*
X76333978Y-67566862D01*
X76329942Y-67560038D01*
X76315621Y-67545717D01*
X76302780Y-67530683D01*
X76290872Y-67514293D01*
X76256795Y-67486102D01*
X76248016Y-67478112D01*
X75985152Y-67215248D01*
X75951126Y-67152936D01*
X75952541Y-67093541D01*
X75968118Y-67035409D01*
X75968120Y-67035398D01*
X75969543Y-67030087D01*
X75989498Y-66802000D01*
X75969543Y-66573913D01*
X75938305Y-66457331D01*
X75911707Y-66358067D01*
X75911706Y-66358065D01*
X75910284Y-66352757D01*
X75887907Y-66304768D01*
X75815849Y-66150238D01*
X75815846Y-66150233D01*
X75813523Y-66145251D01*
X75740098Y-66040389D01*
X75685357Y-65962211D01*
X75685355Y-65962208D01*
X75682198Y-65957700D01*
X75520300Y-65795802D01*
X75515792Y-65792645D01*
X75515789Y-65792643D01*
X75410417Y-65718861D01*
X75332749Y-65664477D01*
X75327767Y-65662154D01*
X75327762Y-65662151D01*
X75293543Y-65646195D01*
X75240258Y-65599278D01*
X75220797Y-65531001D01*
X75241339Y-65463041D01*
X75293543Y-65417805D01*
X75327762Y-65401849D01*
X75327767Y-65401846D01*
X75332749Y-65399523D01*
X75465499Y-65306570D01*
X75515789Y-65271357D01*
X75515792Y-65271355D01*
X75520300Y-65268198D01*
X75682198Y-65106300D01*
X75687101Y-65099299D01*
X75763053Y-64990827D01*
X75813523Y-64918749D01*
X75815846Y-64913768D01*
X75815852Y-64913757D01*
X75830025Y-64883362D01*
X75876942Y-64830078D01*
X75945219Y-64810617D01*
X76013179Y-64831159D01*
X76033314Y-64847518D01*
X79200295Y-68014499D01*
X79234321Y-68076811D01*
X79237200Y-68103594D01*
X79237200Y-80669500D01*
X79217198Y-80737621D01*
X79163542Y-80784114D01*
X79111200Y-80795500D01*
X77895600Y-80795500D01*
X77892354Y-80795837D01*
X77892350Y-80795837D01*
X77796692Y-80805762D01*
X77796688Y-80805763D01*
X77789834Y-80806474D01*
X77783298Y-80808655D01*
X77783296Y-80808655D01*
X77737374Y-80823976D01*
X77622054Y-80862450D01*
X77471652Y-80955522D01*
X77466479Y-80960704D01*
X77424782Y-81002474D01*
X77346695Y-81080697D01*
X77342855Y-81086927D01*
X77342854Y-81086928D01*
X77266036Y-81211550D01*
X77253885Y-81231262D01*
X77246285Y-81254176D01*
X77200879Y-81391072D01*
X77198203Y-81399139D01*
X77197503Y-81405975D01*
X77197502Y-81405978D01*
X77195200Y-81428450D01*
X77187500Y-81503600D01*
X77187500Y-83054400D01*
X77187837Y-83057646D01*
X77187837Y-83057650D01*
X77194501Y-83121871D01*
X77198474Y-83160166D01*
X77254450Y-83327946D01*
X77347522Y-83478348D01*
X77472697Y-83603305D01*
X77478927Y-83607145D01*
X77478928Y-83607146D01*
X77583839Y-83671814D01*
X77623262Y-83696115D01*
X77630447Y-83698498D01*
X77784611Y-83749632D01*
X77784613Y-83749632D01*
X77791139Y-83751797D01*
X77797975Y-83752497D01*
X77797978Y-83752498D01*
X77841031Y-83756909D01*
X77895600Y-83762500D01*
X79081405Y-83762500D01*
X79149526Y-83782502D01*
X79170500Y-83799405D01*
X79343648Y-83972553D01*
X79351188Y-83980839D01*
X79355300Y-83987318D01*
X79361077Y-83992743D01*
X79404951Y-84033943D01*
X79407793Y-84036698D01*
X79427530Y-84056435D01*
X79430727Y-84058915D01*
X79439747Y-84066618D01*
X79471979Y-84096886D01*
X79478925Y-84100705D01*
X79478928Y-84100707D01*
X79489734Y-84106648D01*
X79506253Y-84117499D01*
X79522259Y-84129914D01*
X79529528Y-84133059D01*
X79529532Y-84133062D01*
X79562837Y-84147474D01*
X79573487Y-84152691D01*
X79612240Y-84173995D01*
X79619915Y-84175966D01*
X79619916Y-84175966D01*
X79631862Y-84179033D01*
X79650567Y-84185437D01*
X79669155Y-84193481D01*
X79676978Y-84194720D01*
X79676988Y-84194723D01*
X79712824Y-84200399D01*
X79724444Y-84202805D01*
X79756259Y-84210973D01*
X79767270Y-84213800D01*
X79787524Y-84213800D01*
X79807234Y-84215351D01*
X79827243Y-84218520D01*
X79835135Y-84217774D01*
X79853880Y-84216002D01*
X79871262Y-84214359D01*
X79883119Y-84213800D01*
X83999633Y-84213800D01*
X84010816Y-84214327D01*
X84018309Y-84216002D01*
X84026235Y-84215753D01*
X84026236Y-84215753D01*
X84086386Y-84213862D01*
X84090345Y-84213800D01*
X84118256Y-84213800D01*
X84122191Y-84213303D01*
X84122256Y-84213295D01*
X84134093Y-84212362D01*
X84166351Y-84211348D01*
X84170370Y-84211222D01*
X84178289Y-84210973D01*
X84197743Y-84205321D01*
X84217100Y-84201313D01*
X84229330Y-84199768D01*
X84229331Y-84199768D01*
X84237197Y-84198774D01*
X84244568Y-84195855D01*
X84244570Y-84195855D01*
X84278312Y-84182496D01*
X84289542Y-84178651D01*
X84324383Y-84168529D01*
X84324384Y-84168529D01*
X84331993Y-84166318D01*
X84338812Y-84162285D01*
X84338817Y-84162283D01*
X84349428Y-84156007D01*
X84367176Y-84147312D01*
X84386017Y-84139852D01*
X84421787Y-84113864D01*
X84431707Y-84107348D01*
X84462935Y-84088880D01*
X84462938Y-84088878D01*
X84469762Y-84084842D01*
X84484083Y-84070521D01*
X84499117Y-84057680D01*
X84509094Y-84050431D01*
X84515507Y-84045772D01*
X84543698Y-84011695D01*
X84551688Y-84002916D01*
X85058087Y-83496517D01*
X85120399Y-83462491D01*
X85191214Y-83467556D01*
X85222394Y-83484522D01*
X85240957Y-83498333D01*
X85327542Y-83562754D01*
X85332298Y-83565172D01*
X85332306Y-83565177D01*
X85391116Y-83595078D01*
X85442774Y-83643781D01*
X85459900Y-83712681D01*
X85437057Y-83779902D01*
X85423106Y-83796489D01*
X67220000Y-101999595D01*
X67157688Y-102033621D01*
X67130905Y-102036500D01*
X65098856Y-102036500D01*
X65030735Y-102016498D01*
X64984242Y-101962842D01*
X64973529Y-101923504D01*
X64972526Y-101913834D01*
X64963080Y-101885519D01*
X64918868Y-101753002D01*
X64916550Y-101746054D01*
X64823478Y-101595652D01*
X64698303Y-101470695D01*
X64660032Y-101447104D01*
X64623316Y-101424472D01*
X64552220Y-101380647D01*
X64504727Y-101327876D01*
X64493303Y-101257804D01*
X64521577Y-101192680D01*
X64531364Y-101182218D01*
X64641906Y-101076766D01*
X64648941Y-101068814D01*
X64780141Y-100892475D01*
X64785745Y-100883438D01*
X64885357Y-100687516D01*
X64889357Y-100677665D01*
X64954534Y-100467760D01*
X64956817Y-100457376D01*
X64958861Y-100441957D01*
X64956665Y-100427793D01*
X64943478Y-100424000D01*
X62058808Y-100424000D01*
X62045277Y-100427973D01*
X62043752Y-100438580D01*
X62068477Y-100556421D01*
X62071537Y-100566617D01*
X62152263Y-100771029D01*
X62156994Y-100780561D01*
X62271016Y-100968462D01*
X62277280Y-100977052D01*
X62421327Y-101143052D01*
X62428956Y-101150470D01*
X62460569Y-101176391D01*
X62500564Y-101235051D01*
X62502496Y-101306021D01*
X62465752Y-101366770D01*
X62446983Y-101380969D01*
X62300652Y-101471522D01*
X62175695Y-101596697D01*
X62171855Y-101602927D01*
X62171854Y-101602928D01*
X62108178Y-101706230D01*
X62082885Y-101747262D01*
X62027203Y-101915139D01*
X62016500Y-102019600D01*
X62016500Y-103320400D01*
X62016837Y-103323646D01*
X62016837Y-103323650D01*
X62026487Y-103416651D01*
X62027474Y-103426166D01*
X62029655Y-103432702D01*
X62029655Y-103432704D01*
X62064567Y-103537347D01*
X62083450Y-103593946D01*
X62176522Y-103744348D01*
X62301697Y-103869305D01*
X62307927Y-103873145D01*
X62307928Y-103873146D01*
X62445090Y-103957694D01*
X62452262Y-103962115D01*
X62532005Y-103988564D01*
X62613611Y-104015632D01*
X62613613Y-104015632D01*
X62620139Y-104017797D01*
X62626975Y-104018497D01*
X62626978Y-104018498D01*
X62670031Y-104022909D01*
X62724600Y-104028500D01*
X64275400Y-104028500D01*
X64278646Y-104028163D01*
X64278650Y-104028163D01*
X64374308Y-104018238D01*
X64374312Y-104018237D01*
X64381166Y-104017526D01*
X64387702Y-104015345D01*
X64387704Y-104015345D01*
X64538509Y-103965032D01*
X64548946Y-103961550D01*
X64699348Y-103868478D01*
X64824305Y-103743303D01*
X64828146Y-103737072D01*
X64913275Y-103598968D01*
X64913276Y-103598966D01*
X64917115Y-103592738D01*
X64964970Y-103448458D01*
X64970632Y-103431389D01*
X64970632Y-103431387D01*
X64972797Y-103424861D01*
X64973498Y-103418020D01*
X64973499Y-103418015D01*
X64973639Y-103416651D01*
X64973960Y-103415864D01*
X64974941Y-103411290D01*
X64975757Y-103411465D01*
X65000483Y-103350925D01*
X65058600Y-103310146D01*
X65098982Y-103303500D01*
X67366733Y-103303500D01*
X67377916Y-103304027D01*
X67385409Y-103305702D01*
X67393335Y-103305453D01*
X67393336Y-103305453D01*
X67453486Y-103303562D01*
X67457445Y-103303500D01*
X67485356Y-103303500D01*
X67489291Y-103303003D01*
X67489356Y-103302995D01*
X67501193Y-103302062D01*
X67533451Y-103301048D01*
X67537470Y-103300922D01*
X67545389Y-103300673D01*
X67564843Y-103295021D01*
X67584200Y-103291013D01*
X67596430Y-103289468D01*
X67596431Y-103289468D01*
X67604297Y-103288474D01*
X67611668Y-103285555D01*
X67611670Y-103285555D01*
X67645412Y-103272196D01*
X67656642Y-103268351D01*
X67691483Y-103258229D01*
X67691484Y-103258229D01*
X67699093Y-103256018D01*
X67705912Y-103251985D01*
X67705917Y-103251983D01*
X67716528Y-103245707D01*
X67734276Y-103237012D01*
X67753117Y-103229552D01*
X67788887Y-103203564D01*
X67798807Y-103197048D01*
X67830035Y-103178580D01*
X67830038Y-103178578D01*
X67836862Y-103174542D01*
X67851183Y-103160221D01*
X67866217Y-103147380D01*
X67876194Y-103140131D01*
X67882607Y-103135472D01*
X67910798Y-103101395D01*
X67918788Y-103092616D01*
X68345630Y-102665774D01*
X100113102Y-102665774D01*
X100113302Y-102671103D01*
X100113302Y-102671105D01*
X100113949Y-102688329D01*
X100121751Y-102896158D01*
X100169093Y-103121791D01*
X100171051Y-103126750D01*
X100171052Y-103126752D01*
X100241075Y-103304059D01*
X100253776Y-103336221D01*
X100256543Y-103340780D01*
X100256544Y-103340783D01*
X100307564Y-103424861D01*
X100373377Y-103533317D01*
X100376874Y-103537347D01*
X100500629Y-103679962D01*
X100524477Y-103707445D01*
X100528608Y-103710832D01*
X100698627Y-103850240D01*
X100698633Y-103850244D01*
X100702755Y-103853624D01*
X100707391Y-103856263D01*
X100707394Y-103856265D01*
X100735620Y-103872332D01*
X100903114Y-103967675D01*
X101119825Y-104046337D01*
X101125074Y-104047286D01*
X101125077Y-104047287D01*
X101342608Y-104086623D01*
X101342615Y-104086624D01*
X101346692Y-104087361D01*
X101364414Y-104088197D01*
X101369356Y-104088430D01*
X101369363Y-104088430D01*
X101370844Y-104088500D01*
X101782890Y-104088500D01*
X101849809Y-104082822D01*
X101949409Y-104074371D01*
X101949413Y-104074370D01*
X101954720Y-104073920D01*
X101959875Y-104072582D01*
X101959881Y-104072581D01*
X102172703Y-104017343D01*
X102172707Y-104017342D01*
X102177872Y-104016001D01*
X102182738Y-104013809D01*
X102182741Y-104013808D01*
X102383202Y-103923507D01*
X102388075Y-103921312D01*
X102579319Y-103792559D01*
X102622830Y-103751052D01*
X102711165Y-103666784D01*
X102746135Y-103633424D01*
X102883754Y-103448458D01*
X102892433Y-103431389D01*
X102943767Y-103330421D01*
X102988240Y-103242949D01*
X102990086Y-103237006D01*
X102997670Y-103212580D01*
X116636752Y-103212580D01*
X116661477Y-103330421D01*
X116664537Y-103340617D01*
X116745263Y-103545029D01*
X116749994Y-103554561D01*
X116864016Y-103742462D01*
X116870280Y-103751052D01*
X117014327Y-103917052D01*
X117021958Y-103924472D01*
X117191911Y-104063826D01*
X117200678Y-104069850D01*
X117391682Y-104178576D01*
X117401346Y-104183041D01*
X117607941Y-104258031D01*
X117618208Y-104260802D01*
X117821174Y-104297504D01*
X117834414Y-104296085D01*
X117839000Y-104281450D01*
X117839000Y-104277849D01*
X118347000Y-104277849D01*
X118351310Y-104292527D01*
X118363193Y-104294590D01*
X118442325Y-104287876D01*
X118452797Y-104286086D01*
X118665535Y-104230870D01*
X118675575Y-104227335D01*
X118875970Y-104137063D01*
X118885256Y-104131894D01*
X119067575Y-104009150D01*
X119075870Y-104002481D01*
X119234900Y-103850772D01*
X119241941Y-103842814D01*
X119373141Y-103666475D01*
X119378745Y-103657438D01*
X119478357Y-103461516D01*
X119482357Y-103451665D01*
X119547534Y-103241760D01*
X119549817Y-103231376D01*
X119551861Y-103215957D01*
X119549665Y-103201793D01*
X119536478Y-103198000D01*
X118365115Y-103198000D01*
X118349876Y-103202475D01*
X118348671Y-103203865D01*
X118347000Y-103211548D01*
X118347000Y-104277849D01*
X117839000Y-104277849D01*
X117839000Y-103216115D01*
X117834525Y-103200876D01*
X117833135Y-103199671D01*
X117825452Y-103198000D01*
X116651808Y-103198000D01*
X116638277Y-103201973D01*
X116636752Y-103212580D01*
X102997670Y-103212580D01*
X103055024Y-103027871D01*
X103056607Y-103022773D01*
X103059095Y-103004000D01*
X103086198Y-102799511D01*
X103086198Y-102799506D01*
X103086898Y-102794226D01*
X103082311Y-102672043D01*
X116634139Y-102672043D01*
X116636335Y-102686207D01*
X116649522Y-102690000D01*
X117820885Y-102690000D01*
X117836124Y-102685525D01*
X117837329Y-102684135D01*
X117839000Y-102676452D01*
X117839000Y-102671885D01*
X118347000Y-102671885D01*
X118351475Y-102687124D01*
X118352865Y-102688329D01*
X118360548Y-102690000D01*
X119534192Y-102690000D01*
X119547723Y-102686027D01*
X119549248Y-102675420D01*
X119524523Y-102557579D01*
X119521463Y-102547383D01*
X119440737Y-102342971D01*
X119436006Y-102333439D01*
X119321984Y-102145538D01*
X119315720Y-102136948D01*
X119171673Y-101970948D01*
X119164042Y-101963528D01*
X118994089Y-101824174D01*
X118985323Y-101818150D01*
X118957801Y-101802483D01*
X118908496Y-101751400D01*
X118894635Y-101681770D01*
X118920619Y-101615699D01*
X118949768Y-101588462D01*
X119067575Y-101509150D01*
X119075870Y-101502481D01*
X119234900Y-101350772D01*
X119241941Y-101342814D01*
X119373141Y-101166475D01*
X119378745Y-101157438D01*
X119478357Y-100961516D01*
X119482357Y-100951665D01*
X119547534Y-100741760D01*
X119549817Y-100731376D01*
X119551861Y-100715957D01*
X119549665Y-100701793D01*
X119536478Y-100698000D01*
X118365115Y-100698000D01*
X118349876Y-100702475D01*
X118348671Y-100703865D01*
X118347000Y-100711548D01*
X118347000Y-102671885D01*
X117839000Y-102671885D01*
X117839000Y-100716115D01*
X117834525Y-100700876D01*
X117833135Y-100699671D01*
X117825452Y-100698000D01*
X116651808Y-100698000D01*
X116638277Y-100701973D01*
X116636752Y-100712580D01*
X116661477Y-100830421D01*
X116664537Y-100840617D01*
X116745263Y-101045029D01*
X116749994Y-101054561D01*
X116864016Y-101242462D01*
X116870280Y-101251052D01*
X117014327Y-101417052D01*
X117021958Y-101424472D01*
X117191911Y-101563826D01*
X117200677Y-101569850D01*
X117228199Y-101585517D01*
X117277504Y-101636600D01*
X117291365Y-101706230D01*
X117265381Y-101772301D01*
X117236232Y-101799538D01*
X117118425Y-101878850D01*
X117110130Y-101885519D01*
X116951100Y-102037228D01*
X116944059Y-102045186D01*
X116812859Y-102221525D01*
X116807255Y-102230562D01*
X116707643Y-102426484D01*
X116703643Y-102436335D01*
X116638466Y-102646240D01*
X116636183Y-102656624D01*
X116634139Y-102672043D01*
X103082311Y-102672043D01*
X103078249Y-102563842D01*
X103064015Y-102496000D01*
X103032002Y-102343428D01*
X103030907Y-102338209D01*
X102946224Y-102123779D01*
X102933558Y-102102905D01*
X102829390Y-101931243D01*
X102826623Y-101926683D01*
X102737671Y-101824174D01*
X102679023Y-101756588D01*
X102679021Y-101756586D01*
X102675523Y-101752555D01*
X102619026Y-101706230D01*
X102501373Y-101609760D01*
X102501367Y-101609756D01*
X102497245Y-101606376D01*
X102489347Y-101601880D01*
X102465265Y-101588171D01*
X102415959Y-101537088D01*
X102402098Y-101467458D01*
X102428082Y-101401387D01*
X102457232Y-101374149D01*
X102574578Y-101295148D01*
X102582870Y-101288481D01*
X102741900Y-101136772D01*
X102748941Y-101128814D01*
X102880141Y-100952475D01*
X102885745Y-100943438D01*
X102985357Y-100747516D01*
X102989357Y-100737665D01*
X103054534Y-100527760D01*
X103056817Y-100517376D01*
X103058861Y-100501957D01*
X103056665Y-100487793D01*
X103043478Y-100484000D01*
X100158808Y-100484000D01*
X100145277Y-100487973D01*
X100143752Y-100498580D01*
X100168477Y-100616421D01*
X100171537Y-100626617D01*
X100252263Y-100831029D01*
X100256994Y-100840561D01*
X100371016Y-101028462D01*
X100377280Y-101037052D01*
X100521327Y-101203052D01*
X100528958Y-101210472D01*
X100698911Y-101349826D01*
X100707674Y-101355848D01*
X100734711Y-101371238D01*
X100784018Y-101422320D01*
X100797880Y-101491951D01*
X100771897Y-101558022D01*
X100742747Y-101585261D01*
X100715310Y-101603733D01*
X100620681Y-101667441D01*
X100453865Y-101826576D01*
X100316246Y-102011542D01*
X100313830Y-102016293D01*
X100313828Y-102016297D01*
X100273109Y-102096386D01*
X100211760Y-102217051D01*
X100210178Y-102222145D01*
X100210177Y-102222148D01*
X100148115Y-102422020D01*
X100143393Y-102437227D01*
X100142692Y-102442516D01*
X100114315Y-102656624D01*
X100113102Y-102665774D01*
X68345630Y-102665774D01*
X71053361Y-99958043D01*
X100141139Y-99958043D01*
X100143335Y-99972207D01*
X100156522Y-99976000D01*
X101327885Y-99976000D01*
X101343124Y-99971525D01*
X101344329Y-99970135D01*
X101346000Y-99962452D01*
X101346000Y-99957885D01*
X101854000Y-99957885D01*
X101858475Y-99973124D01*
X101859865Y-99974329D01*
X101867548Y-99976000D01*
X103041192Y-99976000D01*
X103054723Y-99972027D01*
X103056248Y-99961420D01*
X103031523Y-99843579D01*
X103028463Y-99833383D01*
X102947737Y-99628971D01*
X102943006Y-99619439D01*
X102828984Y-99431538D01*
X102822720Y-99422948D01*
X102678673Y-99256948D01*
X102671042Y-99249528D01*
X102501089Y-99110174D01*
X102492323Y-99104150D01*
X102464801Y-99088483D01*
X102415496Y-99037400D01*
X102401635Y-98967770D01*
X102427619Y-98901699D01*
X102456768Y-98874462D01*
X102574575Y-98795150D01*
X102582870Y-98788481D01*
X102741900Y-98636772D01*
X102748941Y-98628814D01*
X102880141Y-98452475D01*
X102885745Y-98443438D01*
X102985357Y-98247516D01*
X102989357Y-98237665D01*
X103054534Y-98027760D01*
X103056817Y-98017376D01*
X103058861Y-98001957D01*
X103056665Y-97987793D01*
X103043478Y-97984000D01*
X101872115Y-97984000D01*
X101856876Y-97988475D01*
X101855671Y-97989865D01*
X101854000Y-97997548D01*
X101854000Y-99957885D01*
X101346000Y-99957885D01*
X101346000Y-98002115D01*
X101341525Y-97986876D01*
X101340135Y-97985671D01*
X101332452Y-97984000D01*
X100158808Y-97984000D01*
X100145277Y-97987973D01*
X100143752Y-97998580D01*
X100168477Y-98116421D01*
X100171537Y-98126617D01*
X100252263Y-98331029D01*
X100256994Y-98340561D01*
X100371016Y-98528462D01*
X100377280Y-98537052D01*
X100521327Y-98703052D01*
X100528958Y-98710472D01*
X100698911Y-98849826D01*
X100707677Y-98855850D01*
X100735199Y-98871517D01*
X100784504Y-98922600D01*
X100798365Y-98992230D01*
X100772381Y-99058301D01*
X100743232Y-99085538D01*
X100625425Y-99164850D01*
X100617130Y-99171519D01*
X100458100Y-99323228D01*
X100451059Y-99331186D01*
X100319859Y-99507525D01*
X100314255Y-99516562D01*
X100214643Y-99712484D01*
X100210643Y-99722335D01*
X100145466Y-99932240D01*
X100143183Y-99942624D01*
X100141139Y-99958043D01*
X71053361Y-99958043D01*
X75845630Y-95165774D01*
X100113102Y-95165774D01*
X100121751Y-95396158D01*
X100169093Y-95621791D01*
X100171051Y-95626750D01*
X100171052Y-95626752D01*
X100193246Y-95682949D01*
X100253776Y-95836221D01*
X100256543Y-95840780D01*
X100256544Y-95840783D01*
X100346045Y-95988276D01*
X100373377Y-96033317D01*
X100376874Y-96037347D01*
X100518161Y-96200166D01*
X100524477Y-96207445D01*
X100555106Y-96232559D01*
X100698627Y-96350240D01*
X100698633Y-96350244D01*
X100702755Y-96353624D01*
X100707398Y-96356267D01*
X100734735Y-96371829D01*
X100784041Y-96422912D01*
X100797902Y-96492542D01*
X100771918Y-96558613D01*
X100742768Y-96585851D01*
X100625422Y-96664852D01*
X100617130Y-96671519D01*
X100458100Y-96823228D01*
X100451059Y-96831186D01*
X100319859Y-97007525D01*
X100314255Y-97016562D01*
X100214643Y-97212484D01*
X100210643Y-97222335D01*
X100145466Y-97432240D01*
X100143183Y-97442624D01*
X100141139Y-97458043D01*
X100143335Y-97472207D01*
X100156522Y-97476000D01*
X103041192Y-97476000D01*
X103054723Y-97472027D01*
X103056248Y-97461420D01*
X103031523Y-97343579D01*
X103028463Y-97333383D01*
X102947737Y-97128971D01*
X102943006Y-97119439D01*
X102828984Y-96931538D01*
X102822720Y-96922948D01*
X102678673Y-96756948D01*
X102671042Y-96749528D01*
X102501089Y-96610174D01*
X102492326Y-96604152D01*
X102465289Y-96588762D01*
X102415982Y-96537680D01*
X102402120Y-96468049D01*
X102428103Y-96401978D01*
X102457253Y-96374739D01*
X102510532Y-96338869D01*
X102579319Y-96292559D01*
X102746135Y-96133424D01*
X102883754Y-95948458D01*
X102912083Y-95892740D01*
X102969004Y-95780783D01*
X102988240Y-95742949D01*
X103008454Y-95677852D01*
X103055024Y-95527871D01*
X103056607Y-95522773D01*
X103070046Y-95421377D01*
X103086198Y-95299511D01*
X103086198Y-95299506D01*
X103086898Y-95294226D01*
X103084646Y-95234226D01*
X103078449Y-95069173D01*
X103078249Y-95063842D01*
X103030907Y-94838209D01*
X103023518Y-94819499D01*
X102948185Y-94628744D01*
X102948184Y-94628742D01*
X102946224Y-94623779D01*
X102920225Y-94580933D01*
X102849050Y-94463641D01*
X102826623Y-94426683D01*
X102757110Y-94346576D01*
X102679023Y-94256588D01*
X102679021Y-94256586D01*
X102675523Y-94252555D01*
X102624478Y-94210701D01*
X102501373Y-94109760D01*
X102501367Y-94109756D01*
X102497245Y-94106376D01*
X102465750Y-94088448D01*
X102416445Y-94037368D01*
X102402583Y-93967738D01*
X102428566Y-93901667D01*
X102457716Y-93874427D01*
X102506376Y-93841667D01*
X102579319Y-93792559D01*
X102746135Y-93633424D01*
X102883754Y-93448458D01*
X102912083Y-93392740D01*
X102969004Y-93280783D01*
X102988240Y-93242949D01*
X103008454Y-93177852D01*
X103055024Y-93027871D01*
X103056607Y-93022773D01*
X103065260Y-92957484D01*
X103086198Y-92799511D01*
X103086198Y-92799506D01*
X103086898Y-92794226D01*
X103084646Y-92734226D01*
X103078449Y-92569173D01*
X103078249Y-92563842D01*
X103030907Y-92338209D01*
X102946224Y-92123779D01*
X102826623Y-91926683D01*
X102739755Y-91826576D01*
X102679023Y-91756588D01*
X102679021Y-91756586D01*
X102675523Y-91752555D01*
X102639880Y-91723330D01*
X102599886Y-91664671D01*
X102597954Y-91593701D01*
X102634698Y-91532952D01*
X102653468Y-91518752D01*
X102793120Y-91432332D01*
X102799348Y-91428478D01*
X102924305Y-91303303D01*
X103017115Y-91152738D01*
X103072797Y-90984861D01*
X103083500Y-90880400D01*
X103083500Y-89579600D01*
X103083163Y-89576350D01*
X103073238Y-89480692D01*
X103073237Y-89480688D01*
X103072526Y-89473834D01*
X103036778Y-89366683D01*
X103018868Y-89313002D01*
X103016550Y-89306054D01*
X102923478Y-89155652D01*
X102798303Y-89030695D01*
X102792072Y-89026854D01*
X102653968Y-88941725D01*
X102653966Y-88941724D01*
X102647738Y-88937885D01*
X102487254Y-88884655D01*
X102486389Y-88884368D01*
X102486387Y-88884368D01*
X102479861Y-88882203D01*
X102473025Y-88881503D01*
X102473022Y-88881502D01*
X102429969Y-88877091D01*
X102375400Y-88871500D01*
X102359500Y-88871500D01*
X102291379Y-88851498D01*
X102244886Y-88797842D01*
X102233500Y-88745500D01*
X102233500Y-88092580D01*
X116636752Y-88092580D01*
X116661477Y-88210421D01*
X116664537Y-88220617D01*
X116745263Y-88425029D01*
X116749994Y-88434561D01*
X116864016Y-88622462D01*
X116870280Y-88631052D01*
X117014327Y-88797052D01*
X117021958Y-88804472D01*
X117191911Y-88943826D01*
X117200678Y-88949850D01*
X117391682Y-89058576D01*
X117401346Y-89063041D01*
X117607941Y-89138031D01*
X117618208Y-89140802D01*
X117821174Y-89177504D01*
X117834414Y-89176085D01*
X117839000Y-89161450D01*
X117839000Y-88096115D01*
X117834525Y-88080876D01*
X117833135Y-88079671D01*
X117825452Y-88078000D01*
X116651808Y-88078000D01*
X116638277Y-88081973D01*
X116636752Y-88092580D01*
X102233500Y-88092580D01*
X102233500Y-83652378D01*
X102253502Y-83584257D01*
X102307750Y-83537496D01*
X102383210Y-83503504D01*
X102383214Y-83503502D01*
X102388075Y-83501312D01*
X102579319Y-83372559D01*
X102746135Y-83213424D01*
X102883754Y-83028458D01*
X102896394Y-83003598D01*
X102952364Y-82893511D01*
X102988240Y-82822949D01*
X103024321Y-82706752D01*
X103055024Y-82607871D01*
X103056607Y-82602773D01*
X103066765Y-82526129D01*
X103086198Y-82379511D01*
X103086198Y-82379506D01*
X103086898Y-82374226D01*
X103085572Y-82338891D01*
X103078449Y-82149173D01*
X103078249Y-82143842D01*
X103076281Y-82134460D01*
X103035367Y-81939465D01*
X103030907Y-81918209D01*
X103002888Y-81847260D01*
X102948185Y-81708744D01*
X102948184Y-81708742D01*
X102946224Y-81703779D01*
X102928496Y-81674563D01*
X102829390Y-81511243D01*
X102826623Y-81506683D01*
X102777228Y-81449760D01*
X102679023Y-81336588D01*
X102679021Y-81336586D01*
X102675523Y-81332555D01*
X102614999Y-81282928D01*
X102501373Y-81189760D01*
X102501367Y-81189756D01*
X102497245Y-81186376D01*
X102492602Y-81183733D01*
X102465265Y-81168171D01*
X102415959Y-81117088D01*
X102402098Y-81047458D01*
X102428082Y-80981387D01*
X102457232Y-80954149D01*
X102574578Y-80875148D01*
X102582870Y-80868481D01*
X102741900Y-80716772D01*
X102748941Y-80708814D01*
X102880141Y-80532475D01*
X102885745Y-80523438D01*
X102985357Y-80327516D01*
X102989357Y-80317665D01*
X103054534Y-80107760D01*
X103056817Y-80097376D01*
X103058861Y-80081957D01*
X103056665Y-80067793D01*
X103043478Y-80064000D01*
X100158808Y-80064000D01*
X100145277Y-80067973D01*
X100143752Y-80078580D01*
X100168477Y-80196421D01*
X100171537Y-80206617D01*
X100252263Y-80411029D01*
X100256994Y-80420561D01*
X100371016Y-80608462D01*
X100377280Y-80617052D01*
X100521327Y-80783052D01*
X100528958Y-80790472D01*
X100698911Y-80929826D01*
X100707674Y-80935848D01*
X100734711Y-80951238D01*
X100784018Y-81002320D01*
X100797880Y-81071951D01*
X100771897Y-81138022D01*
X100742747Y-81165261D01*
X100738425Y-81168171D01*
X100620681Y-81247441D01*
X100616824Y-81251120D01*
X100616822Y-81251122D01*
X100561279Y-81304108D01*
X100453865Y-81406576D01*
X100316246Y-81591542D01*
X100313830Y-81596293D01*
X100313828Y-81596297D01*
X100285037Y-81652926D01*
X100211760Y-81797051D01*
X100210178Y-81802145D01*
X100210177Y-81802148D01*
X100172076Y-81924854D01*
X100143393Y-82017227D01*
X100142692Y-82022516D01*
X100116894Y-82217165D01*
X100113102Y-82245774D01*
X100121751Y-82476158D01*
X100122846Y-82481377D01*
X100134415Y-82536516D01*
X100169093Y-82701791D01*
X100171051Y-82706750D01*
X100171052Y-82706752D01*
X100234682Y-82867871D01*
X100253776Y-82916221D01*
X100256543Y-82920780D01*
X100256544Y-82920783D01*
X100284439Y-82966752D01*
X100373377Y-83113317D01*
X100376874Y-83117347D01*
X100505687Y-83265791D01*
X100524477Y-83287445D01*
X100528608Y-83290832D01*
X100698627Y-83430240D01*
X100698633Y-83430244D01*
X100702755Y-83433624D01*
X100902833Y-83547515D01*
X100952138Y-83598596D01*
X100966500Y-83657016D01*
X100966500Y-88745500D01*
X100946498Y-88813621D01*
X100892842Y-88860114D01*
X100840500Y-88871500D01*
X100824600Y-88871500D01*
X100821354Y-88871837D01*
X100821350Y-88871837D01*
X100725692Y-88881762D01*
X100725688Y-88881763D01*
X100718834Y-88882474D01*
X100712298Y-88884655D01*
X100712296Y-88884655D01*
X100582379Y-88927999D01*
X100551054Y-88938450D01*
X100400652Y-89031522D01*
X100275695Y-89156697D01*
X100271855Y-89162927D01*
X100271854Y-89162928D01*
X100219441Y-89247958D01*
X100182885Y-89307262D01*
X100180581Y-89314209D01*
X100133453Y-89456297D01*
X100127203Y-89475139D01*
X100116500Y-89579600D01*
X100116500Y-90880400D01*
X100116837Y-90883646D01*
X100116837Y-90883650D01*
X100126141Y-90973317D01*
X100127474Y-90986166D01*
X100183450Y-91153946D01*
X100276522Y-91304348D01*
X100401697Y-91429305D01*
X100547340Y-91519081D01*
X100594832Y-91571852D01*
X100606256Y-91641924D01*
X100577982Y-91707048D01*
X100568195Y-91717510D01*
X100453865Y-91826576D01*
X100316246Y-92011542D01*
X100211760Y-92217051D01*
X100210178Y-92222145D01*
X100210177Y-92222148D01*
X100163607Y-92372129D01*
X100143393Y-92437227D01*
X100142692Y-92442516D01*
X100120348Y-92611105D01*
X100113102Y-92665774D01*
X100121751Y-92896158D01*
X100169093Y-93121791D01*
X100171051Y-93126750D01*
X100171052Y-93126752D01*
X100193246Y-93182949D01*
X100253776Y-93336221D01*
X100256543Y-93340780D01*
X100256544Y-93340783D01*
X100346045Y-93488276D01*
X100373377Y-93533317D01*
X100376874Y-93537347D01*
X100463438Y-93637103D01*
X100524477Y-93707445D01*
X100555106Y-93732559D01*
X100698627Y-93850240D01*
X100698633Y-93850244D01*
X100702755Y-93853624D01*
X100734250Y-93871552D01*
X100783555Y-93922632D01*
X100797417Y-93992262D01*
X100771434Y-94058333D01*
X100742284Y-94085573D01*
X100620681Y-94167441D01*
X100616824Y-94171120D01*
X100616822Y-94171122D01*
X100547464Y-94237287D01*
X100453865Y-94326576D01*
X100450682Y-94330854D01*
X100435802Y-94350854D01*
X100316246Y-94511542D01*
X100313830Y-94516293D01*
X100313828Y-94516297D01*
X100307772Y-94528209D01*
X100211760Y-94717051D01*
X100210178Y-94722145D01*
X100210177Y-94722148D01*
X100169469Y-94853248D01*
X100143393Y-94937227D01*
X100142692Y-94942516D01*
X100120348Y-95111105D01*
X100113102Y-95165774D01*
X75845630Y-95165774D01*
X88608347Y-82403057D01*
X88616637Y-82395513D01*
X88623118Y-82391400D01*
X88669759Y-82341732D01*
X88672513Y-82338891D01*
X88692234Y-82319170D01*
X88694712Y-82315975D01*
X88702418Y-82306953D01*
X88727258Y-82280501D01*
X88732686Y-82274721D01*
X88742446Y-82256968D01*
X88753299Y-82240445D01*
X88760853Y-82230706D01*
X88765713Y-82224441D01*
X88783276Y-82183857D01*
X88788483Y-82173227D01*
X88809795Y-82134460D01*
X88811766Y-82126783D01*
X88811768Y-82126778D01*
X88814832Y-82114842D01*
X88821238Y-82096130D01*
X88826133Y-82084819D01*
X88829281Y-82077545D01*
X88830521Y-82069717D01*
X88830523Y-82069710D01*
X88836199Y-82033876D01*
X88838605Y-82022256D01*
X88847628Y-81987111D01*
X88847628Y-81987110D01*
X88849600Y-81979430D01*
X88849600Y-81959176D01*
X88851151Y-81939465D01*
X88853080Y-81927286D01*
X88854320Y-81919457D01*
X88850159Y-81875438D01*
X88849600Y-81863581D01*
X88849600Y-79538043D01*
X100141139Y-79538043D01*
X100143335Y-79552207D01*
X100156522Y-79556000D01*
X101327885Y-79556000D01*
X101343124Y-79551525D01*
X101344329Y-79550135D01*
X101346000Y-79542452D01*
X101346000Y-79537885D01*
X101854000Y-79537885D01*
X101858475Y-79553124D01*
X101859865Y-79554329D01*
X101867548Y-79556000D01*
X103041192Y-79556000D01*
X103054723Y-79552027D01*
X103056248Y-79541420D01*
X103031523Y-79423579D01*
X103028463Y-79413383D01*
X102947737Y-79208971D01*
X102943006Y-79199439D01*
X102828984Y-79011538D01*
X102822720Y-79002948D01*
X102678673Y-78836948D01*
X102671042Y-78829528D01*
X102501089Y-78690174D01*
X102492323Y-78684150D01*
X102464801Y-78668483D01*
X102415496Y-78617400D01*
X102401635Y-78547770D01*
X102427619Y-78481699D01*
X102456768Y-78454462D01*
X102574575Y-78375150D01*
X102582870Y-78368481D01*
X102741900Y-78216772D01*
X102748941Y-78208814D01*
X102880141Y-78032475D01*
X102885745Y-78023438D01*
X102985357Y-77827516D01*
X102989357Y-77817665D01*
X103054534Y-77607760D01*
X103056817Y-77597376D01*
X103058861Y-77581957D01*
X103056665Y-77567793D01*
X103043478Y-77564000D01*
X101872115Y-77564000D01*
X101856876Y-77568475D01*
X101855671Y-77569865D01*
X101854000Y-77577548D01*
X101854000Y-79537885D01*
X101346000Y-79537885D01*
X101346000Y-77582115D01*
X101341525Y-77566876D01*
X101340135Y-77565671D01*
X101332452Y-77564000D01*
X100158808Y-77564000D01*
X100145277Y-77567973D01*
X100143752Y-77578580D01*
X100168477Y-77696421D01*
X100171537Y-77706617D01*
X100252263Y-77911029D01*
X100256994Y-77920561D01*
X100371016Y-78108462D01*
X100377280Y-78117052D01*
X100521327Y-78283052D01*
X100528958Y-78290472D01*
X100698911Y-78429826D01*
X100707677Y-78435850D01*
X100735199Y-78451517D01*
X100784504Y-78502600D01*
X100798365Y-78572230D01*
X100772381Y-78638301D01*
X100743232Y-78665538D01*
X100625425Y-78744850D01*
X100617130Y-78751519D01*
X100458100Y-78903228D01*
X100451059Y-78911186D01*
X100319859Y-79087525D01*
X100314255Y-79096562D01*
X100214643Y-79292484D01*
X100210643Y-79302335D01*
X100145466Y-79512240D01*
X100143183Y-79522624D01*
X100141139Y-79538043D01*
X88849600Y-79538043D01*
X88849600Y-72970288D01*
X88869602Y-72902167D01*
X88923258Y-72855674D01*
X88993532Y-72845570D01*
X89058112Y-72875064D01*
X89064695Y-72881193D01*
X89071700Y-72888198D01*
X89076208Y-72891355D01*
X89076211Y-72891357D01*
X89104630Y-72911256D01*
X89259251Y-73019523D01*
X89264233Y-73021846D01*
X89264238Y-73021849D01*
X89402168Y-73086166D01*
X89466757Y-73116284D01*
X89472065Y-73117706D01*
X89472067Y-73117707D01*
X89682598Y-73174119D01*
X89682600Y-73174119D01*
X89687913Y-73175543D01*
X89916000Y-73195498D01*
X90144087Y-73175543D01*
X90149400Y-73174119D01*
X90149402Y-73174119D01*
X90359933Y-73117707D01*
X90359935Y-73117706D01*
X90365243Y-73116284D01*
X90429832Y-73086166D01*
X90567762Y-73021849D01*
X90567767Y-73021846D01*
X90572749Y-73019523D01*
X90727370Y-72911256D01*
X90755789Y-72891357D01*
X90755792Y-72891355D01*
X90760300Y-72888198D01*
X90922198Y-72726300D01*
X90939360Y-72701791D01*
X90985863Y-72635377D01*
X91053523Y-72538749D01*
X91055846Y-72533767D01*
X91055849Y-72533762D01*
X91147961Y-72336225D01*
X91147961Y-72336224D01*
X91150284Y-72331243D01*
X91157806Y-72303173D01*
X91208119Y-72115402D01*
X91208119Y-72115400D01*
X91209543Y-72110087D01*
X91229498Y-71882000D01*
X91209543Y-71653913D01*
X91192831Y-71591542D01*
X91151707Y-71438067D01*
X91151706Y-71438065D01*
X91150284Y-71432757D01*
X91135681Y-71401441D01*
X91055849Y-71230238D01*
X91055846Y-71230233D01*
X91053523Y-71225251D01*
X90964947Y-71098752D01*
X90925357Y-71042211D01*
X90925355Y-71042208D01*
X90922198Y-71037700D01*
X90760300Y-70875802D01*
X90755792Y-70872645D01*
X90755789Y-70872643D01*
X90655901Y-70802701D01*
X90572749Y-70744477D01*
X90567767Y-70742154D01*
X90567762Y-70742151D01*
X90533543Y-70726195D01*
X90480258Y-70679278D01*
X90460797Y-70611001D01*
X90481339Y-70543041D01*
X90533543Y-70497805D01*
X90567762Y-70481849D01*
X90567767Y-70481846D01*
X90572749Y-70479523D01*
X90732443Y-70367704D01*
X90755789Y-70351357D01*
X90755792Y-70351355D01*
X90760300Y-70348198D01*
X90922198Y-70186300D01*
X90949107Y-70147871D01*
X91032883Y-70028226D01*
X91053523Y-69998749D01*
X91055846Y-69993767D01*
X91055849Y-69993762D01*
X91147961Y-69796225D01*
X91147961Y-69796224D01*
X91150284Y-69791243D01*
X91151750Y-69785774D01*
X91208119Y-69575402D01*
X91208119Y-69575400D01*
X91209543Y-69570087D01*
X91229498Y-69342000D01*
X91229019Y-69336525D01*
X91229019Y-69336514D01*
X91227974Y-69324570D01*
X91241962Y-69254965D01*
X91291361Y-69203973D01*
X91360487Y-69187782D01*
X91427393Y-69211534D01*
X91442589Y-69224493D01*
X98670343Y-76452247D01*
X98677887Y-76460537D01*
X98682000Y-76467018D01*
X98687777Y-76472443D01*
X98731667Y-76513658D01*
X98734509Y-76516413D01*
X98754230Y-76536134D01*
X98757425Y-76538612D01*
X98766447Y-76546318D01*
X98798679Y-76576586D01*
X98805628Y-76580406D01*
X98816432Y-76586346D01*
X98832956Y-76597199D01*
X98848959Y-76609613D01*
X98889543Y-76627176D01*
X98900173Y-76632383D01*
X98938940Y-76653695D01*
X98946617Y-76655666D01*
X98946622Y-76655668D01*
X98958558Y-76658732D01*
X98977266Y-76665137D01*
X98995855Y-76673181D01*
X99003683Y-76674421D01*
X99003690Y-76674423D01*
X99039524Y-76680099D01*
X99051144Y-76682505D01*
X99086289Y-76691528D01*
X99093970Y-76693500D01*
X99114224Y-76693500D01*
X99133934Y-76695051D01*
X99153943Y-76698220D01*
X99161835Y-76697474D01*
X99197961Y-76694059D01*
X99209819Y-76693500D01*
X100073378Y-76693500D01*
X100141499Y-76713502D01*
X100187992Y-76767158D01*
X100198096Y-76837432D01*
X100193711Y-76856864D01*
X100145466Y-77012240D01*
X100143183Y-77022624D01*
X100141139Y-77038043D01*
X100143335Y-77052207D01*
X100156522Y-77056000D01*
X103041192Y-77056000D01*
X103054723Y-77052027D01*
X103056248Y-77041420D01*
X103031523Y-76923579D01*
X103028464Y-76913387D01*
X103009664Y-76865782D01*
X103003246Y-76795076D01*
X103036073Y-76732125D01*
X103097723Y-76696914D01*
X103126856Y-76693500D01*
X104002606Y-76693500D01*
X104070727Y-76713502D01*
X104091701Y-76730405D01*
X114327543Y-86966247D01*
X114335087Y-86974537D01*
X114339200Y-86981018D01*
X114344977Y-86986443D01*
X114388867Y-87027658D01*
X114391709Y-87030413D01*
X114411430Y-87050134D01*
X114414625Y-87052612D01*
X114423647Y-87060318D01*
X114455879Y-87090586D01*
X114462828Y-87094406D01*
X114473632Y-87100346D01*
X114490156Y-87111199D01*
X114506159Y-87123613D01*
X114546743Y-87141176D01*
X114557373Y-87146383D01*
X114596140Y-87167695D01*
X114603817Y-87169666D01*
X114603822Y-87169668D01*
X114615758Y-87172732D01*
X114634466Y-87179137D01*
X114653055Y-87187181D01*
X114660880Y-87188420D01*
X114660882Y-87188421D01*
X114696719Y-87194097D01*
X114708340Y-87196504D01*
X114743489Y-87205528D01*
X114751170Y-87207500D01*
X114771431Y-87207500D01*
X114791140Y-87209051D01*
X114811143Y-87212219D01*
X114819035Y-87211473D01*
X114824262Y-87210979D01*
X114855154Y-87208059D01*
X114867011Y-87207500D01*
X116566378Y-87207500D01*
X116634499Y-87227502D01*
X116680992Y-87281158D01*
X116691096Y-87351432D01*
X116686711Y-87370864D01*
X116638466Y-87526240D01*
X116636183Y-87536624D01*
X116634139Y-87552043D01*
X116636335Y-87566207D01*
X116649522Y-87570000D01*
X117820885Y-87570000D01*
X117836124Y-87565525D01*
X117837329Y-87564135D01*
X117839000Y-87556452D01*
X117839000Y-87333500D01*
X117859002Y-87265379D01*
X117912658Y-87218886D01*
X117965000Y-87207500D01*
X118221000Y-87207500D01*
X118289121Y-87227502D01*
X118335614Y-87281158D01*
X118347000Y-87333500D01*
X118347000Y-89157849D01*
X118351310Y-89172527D01*
X118363193Y-89174590D01*
X118442325Y-89167876D01*
X118452797Y-89166086D01*
X118607246Y-89125999D01*
X118678207Y-89128246D01*
X118736688Y-89168501D01*
X118764123Y-89233983D01*
X118764900Y-89247958D01*
X118764900Y-93824005D01*
X118744898Y-93892126D01*
X118727995Y-93913100D01*
X118592500Y-94048595D01*
X118530188Y-94082621D01*
X118503405Y-94085500D01*
X117317600Y-94085500D01*
X117314354Y-94085837D01*
X117314350Y-94085837D01*
X117218692Y-94095762D01*
X117218688Y-94095763D01*
X117211834Y-94096474D01*
X117205298Y-94098655D01*
X117205296Y-94098655D01*
X117157366Y-94114646D01*
X117044054Y-94152450D01*
X116893652Y-94245522D01*
X116768695Y-94370697D01*
X116764855Y-94376927D01*
X116764854Y-94376928D01*
X116681877Y-94511542D01*
X116675885Y-94521262D01*
X116673581Y-94528209D01*
X116641536Y-94624823D01*
X116620203Y-94689139D01*
X116609500Y-94793600D01*
X116609500Y-96094400D01*
X116609837Y-96097646D01*
X116609837Y-96097650D01*
X116615004Y-96147445D01*
X116620474Y-96200166D01*
X116622655Y-96206702D01*
X116622655Y-96206704D01*
X116629575Y-96227445D01*
X116676450Y-96367946D01*
X116769522Y-96518348D01*
X116894697Y-96643305D01*
X116900927Y-96647145D01*
X116900928Y-96647146D01*
X116936637Y-96669157D01*
X117040340Y-96733081D01*
X117087832Y-96785852D01*
X117099256Y-96855924D01*
X117070982Y-96921048D01*
X117061195Y-96931510D01*
X116946865Y-97040576D01*
X116809246Y-97225542D01*
X116806830Y-97230293D01*
X116806828Y-97230297D01*
X116757003Y-97328297D01*
X116704760Y-97431051D01*
X116703178Y-97436145D01*
X116703177Y-97436148D01*
X116658937Y-97578623D01*
X116636393Y-97651227D01*
X116635692Y-97656516D01*
X116614790Y-97814226D01*
X116606102Y-97879774D01*
X116614751Y-98110158D01*
X116662093Y-98335791D01*
X116746776Y-98550221D01*
X116749543Y-98554780D01*
X116749544Y-98554783D01*
X116803107Y-98643052D01*
X116866377Y-98747317D01*
X116869874Y-98751347D01*
X116994303Y-98894739D01*
X117017477Y-98921445D01*
X117021608Y-98924832D01*
X117191627Y-99064240D01*
X117191633Y-99064244D01*
X117195755Y-99067624D01*
X117200398Y-99070267D01*
X117227735Y-99085829D01*
X117277041Y-99136912D01*
X117290902Y-99206542D01*
X117264918Y-99272613D01*
X117235768Y-99299851D01*
X117118422Y-99378852D01*
X117110130Y-99385519D01*
X116951100Y-99537228D01*
X116944059Y-99545186D01*
X116812859Y-99721525D01*
X116807255Y-99730562D01*
X116707643Y-99926484D01*
X116703643Y-99936335D01*
X116638466Y-100146240D01*
X116636183Y-100156624D01*
X116634139Y-100172043D01*
X116636335Y-100186207D01*
X116649522Y-100190000D01*
X119534192Y-100190000D01*
X119547723Y-100186027D01*
X119549248Y-100175420D01*
X119524523Y-100057579D01*
X119521463Y-100047383D01*
X119440737Y-99842971D01*
X119436006Y-99833439D01*
X119321984Y-99645538D01*
X119315720Y-99636948D01*
X119171673Y-99470948D01*
X119164042Y-99463528D01*
X118994089Y-99324174D01*
X118985326Y-99318152D01*
X118958289Y-99302762D01*
X118908982Y-99251680D01*
X118895120Y-99182049D01*
X118921103Y-99115978D01*
X118950253Y-99088739D01*
X119063432Y-99012542D01*
X119072319Y-99006559D01*
X119091723Y-98988049D01*
X119189536Y-98894739D01*
X119239135Y-98847424D01*
X119263660Y-98814462D01*
X119373568Y-98666740D01*
X119376754Y-98662458D01*
X119381348Y-98653424D01*
X119436342Y-98545256D01*
X119481240Y-98456949D01*
X119485436Y-98443438D01*
X119548024Y-98241871D01*
X119549607Y-98236773D01*
X119562196Y-98141791D01*
X119579198Y-98013511D01*
X119579198Y-98013506D01*
X119579898Y-98008226D01*
X119579097Y-97986876D01*
X119571449Y-97783173D01*
X119571249Y-97777842D01*
X119523907Y-97552209D01*
X119521948Y-97547248D01*
X119441185Y-97342744D01*
X119441184Y-97342742D01*
X119439224Y-97337779D01*
X119400148Y-97273383D01*
X119326784Y-97152484D01*
X119319623Y-97140683D01*
X119309460Y-97128971D01*
X119172023Y-96970588D01*
X119172021Y-96970586D01*
X119168523Y-96966555D01*
X119132880Y-96937330D01*
X119092886Y-96878671D01*
X119090954Y-96807701D01*
X119127698Y-96746952D01*
X119146468Y-96732752D01*
X119286120Y-96646332D01*
X119292348Y-96642478D01*
X119417305Y-96517303D01*
X119476475Y-96421312D01*
X119506275Y-96372968D01*
X119506276Y-96372966D01*
X119510115Y-96366738D01*
X119557654Y-96223412D01*
X119563632Y-96205389D01*
X119563632Y-96205387D01*
X119565797Y-96198861D01*
X119570076Y-96157103D01*
X119576172Y-96097598D01*
X119576500Y-96094400D01*
X119576500Y-94908594D01*
X119596502Y-94840473D01*
X119613405Y-94819499D01*
X119790647Y-94642257D01*
X119798937Y-94634713D01*
X119805418Y-94630600D01*
X119852059Y-94580932D01*
X119854813Y-94578091D01*
X119874534Y-94558370D01*
X119877012Y-94555175D01*
X119884718Y-94546153D01*
X119898439Y-94531542D01*
X119914986Y-94513921D01*
X119924746Y-94496168D01*
X119935599Y-94479645D01*
X119943153Y-94469906D01*
X119948013Y-94463641D01*
X119965576Y-94423057D01*
X119970783Y-94412427D01*
X119992095Y-94373660D01*
X119994066Y-94365983D01*
X119994068Y-94365978D01*
X119997132Y-94354042D01*
X120003538Y-94335330D01*
X120008434Y-94324017D01*
X120011581Y-94316745D01*
X120017942Y-94276588D01*
X120018497Y-94273081D01*
X120020904Y-94261460D01*
X120029928Y-94226311D01*
X120029928Y-94226310D01*
X120031900Y-94218630D01*
X120031900Y-94198369D01*
X120033451Y-94178658D01*
X120035379Y-94166485D01*
X120036619Y-94158657D01*
X120032459Y-94114646D01*
X120031900Y-94102789D01*
X120031900Y-87360967D01*
X120032427Y-87349784D01*
X120034102Y-87342291D01*
X120031962Y-87274214D01*
X120031900Y-87270255D01*
X120031900Y-87242344D01*
X120031395Y-87238344D01*
X120030462Y-87226501D01*
X120029322Y-87190230D01*
X120029073Y-87182311D01*
X120023421Y-87162857D01*
X120019413Y-87143500D01*
X120017868Y-87131270D01*
X120017868Y-87131269D01*
X120016874Y-87123403D01*
X120012042Y-87111199D01*
X120000596Y-87082288D01*
X119996751Y-87071058D01*
X119986629Y-87036217D01*
X119986629Y-87036216D01*
X119984418Y-87028607D01*
X119980385Y-87021788D01*
X119980383Y-87021783D01*
X119974107Y-87011172D01*
X119965412Y-86993424D01*
X119957952Y-86974583D01*
X119931964Y-86938813D01*
X119925448Y-86928893D01*
X119906980Y-86897665D01*
X119906978Y-86897662D01*
X119902942Y-86890838D01*
X119888621Y-86876517D01*
X119875780Y-86861483D01*
X119868532Y-86851507D01*
X119863872Y-86845093D01*
X119829807Y-86816912D01*
X119821026Y-86808922D01*
X119315918Y-86303813D01*
X119281893Y-86241501D01*
X119286958Y-86170685D01*
X119303925Y-86139505D01*
X119373141Y-86046475D01*
X119378745Y-86037438D01*
X119478357Y-85841516D01*
X119482357Y-85831665D01*
X119547534Y-85621760D01*
X119549817Y-85611376D01*
X119551861Y-85595957D01*
X119549665Y-85581793D01*
X119536478Y-85578000D01*
X118365115Y-85578000D01*
X118349876Y-85582475D01*
X118348671Y-85583865D01*
X118347000Y-85591548D01*
X118347000Y-85814500D01*
X118326998Y-85882621D01*
X118273342Y-85929114D01*
X118221000Y-85940500D01*
X117965000Y-85940500D01*
X117896879Y-85920498D01*
X117850386Y-85866842D01*
X117839000Y-85814500D01*
X117839000Y-85596115D01*
X117834525Y-85580876D01*
X117833135Y-85579671D01*
X117825452Y-85578000D01*
X116651808Y-85578000D01*
X116638277Y-85581973D01*
X116636752Y-85592580D01*
X116661477Y-85710421D01*
X116664536Y-85720613D01*
X116683336Y-85768218D01*
X116689754Y-85838924D01*
X116656927Y-85901875D01*
X116595277Y-85937086D01*
X116566144Y-85940500D01*
X115145795Y-85940500D01*
X115077674Y-85920498D01*
X115056700Y-85903595D01*
X111912879Y-82759774D01*
X116606102Y-82759774D01*
X116614751Y-82990158D01*
X116662093Y-83215791D01*
X116664051Y-83220750D01*
X116664052Y-83220752D01*
X116744457Y-83424348D01*
X116746776Y-83430221D01*
X116866377Y-83627317D01*
X116869874Y-83631347D01*
X117000741Y-83782158D01*
X117017477Y-83801445D01*
X117057790Y-83834500D01*
X117191627Y-83944240D01*
X117191633Y-83944244D01*
X117195755Y-83947624D01*
X117200398Y-83950267D01*
X117227735Y-83965829D01*
X117277041Y-84016912D01*
X117290902Y-84086542D01*
X117264918Y-84152613D01*
X117235768Y-84179851D01*
X117118422Y-84258852D01*
X117110130Y-84265519D01*
X116951100Y-84417228D01*
X116944059Y-84425186D01*
X116812859Y-84601525D01*
X116807255Y-84610562D01*
X116707643Y-84806484D01*
X116703643Y-84816335D01*
X116638466Y-85026240D01*
X116636183Y-85036624D01*
X116634139Y-85052043D01*
X116636335Y-85066207D01*
X116649522Y-85070000D01*
X119534192Y-85070000D01*
X119547723Y-85066027D01*
X119549248Y-85055420D01*
X119524523Y-84937579D01*
X119521463Y-84927383D01*
X119440737Y-84722971D01*
X119436006Y-84713439D01*
X119321984Y-84525538D01*
X119315720Y-84516948D01*
X119171673Y-84350948D01*
X119164042Y-84343528D01*
X118994089Y-84204174D01*
X118985326Y-84198152D01*
X118958289Y-84182762D01*
X118908982Y-84131680D01*
X118895120Y-84062049D01*
X118921103Y-83995978D01*
X118950253Y-83968739D01*
X119003532Y-83932869D01*
X119072319Y-83886559D01*
X119239135Y-83727424D01*
X119244744Y-83719886D01*
X119310619Y-83631347D01*
X119376754Y-83542458D01*
X119399189Y-83498333D01*
X119437335Y-83423303D01*
X119481240Y-83336949D01*
X119494968Y-83292740D01*
X119548024Y-83121871D01*
X119549607Y-83116773D01*
X119554090Y-83082949D01*
X119579198Y-82893511D01*
X119579198Y-82893506D01*
X119579898Y-82888226D01*
X119578943Y-82862773D01*
X119571449Y-82663173D01*
X119571249Y-82657842D01*
X119559695Y-82602773D01*
X119525002Y-82437428D01*
X119523907Y-82432209D01*
X119505509Y-82385623D01*
X119441185Y-82222744D01*
X119441184Y-82222742D01*
X119439224Y-82217779D01*
X119418650Y-82183873D01*
X119322390Y-82025243D01*
X119319623Y-82020683D01*
X119274553Y-81968744D01*
X119172023Y-81850588D01*
X119172021Y-81850586D01*
X119168523Y-81846555D01*
X119132880Y-81817330D01*
X119092886Y-81758671D01*
X119090954Y-81687701D01*
X119127698Y-81626952D01*
X119146468Y-81612752D01*
X119286120Y-81526332D01*
X119292348Y-81522478D01*
X119308116Y-81506683D01*
X119412134Y-81402483D01*
X119417305Y-81397303D01*
X119429593Y-81377368D01*
X119506275Y-81252968D01*
X119506276Y-81252966D01*
X119510115Y-81246738D01*
X119546174Y-81138022D01*
X119563632Y-81085389D01*
X119563632Y-81085387D01*
X119565797Y-81078861D01*
X119576500Y-80974400D01*
X119576500Y-79673600D01*
X119575041Y-79659539D01*
X119566238Y-79574692D01*
X119566237Y-79574688D01*
X119565526Y-79567834D01*
X119561929Y-79557051D01*
X119511868Y-79407002D01*
X119509550Y-79400054D01*
X119416478Y-79249652D01*
X119291303Y-79124695D01*
X119233668Y-79089168D01*
X119146968Y-79035725D01*
X119146966Y-79035724D01*
X119140738Y-79031885D01*
X118980254Y-78978655D01*
X118979389Y-78978368D01*
X118979387Y-78978368D01*
X118972861Y-78976203D01*
X118966025Y-78975503D01*
X118966022Y-78975502D01*
X118922969Y-78971091D01*
X118868400Y-78965500D01*
X117317600Y-78965500D01*
X117314354Y-78965837D01*
X117314350Y-78965837D01*
X117218692Y-78975762D01*
X117218688Y-78975763D01*
X117211834Y-78976474D01*
X117205298Y-78978655D01*
X117205296Y-78978655D01*
X117106735Y-79011538D01*
X117044054Y-79032450D01*
X116893652Y-79125522D01*
X116768695Y-79250697D01*
X116764855Y-79256927D01*
X116764854Y-79256928D01*
X116718281Y-79332484D01*
X116675885Y-79401262D01*
X116655149Y-79463779D01*
X116625790Y-79552296D01*
X116620203Y-79569139D01*
X116619503Y-79575975D01*
X116619502Y-79575978D01*
X116617622Y-79594329D01*
X116609500Y-79673600D01*
X116609500Y-80974400D01*
X116609837Y-80977646D01*
X116609837Y-80977650D01*
X116619622Y-81071951D01*
X116620474Y-81080166D01*
X116622655Y-81086702D01*
X116622655Y-81086704D01*
X116646009Y-81156704D01*
X116676450Y-81247946D01*
X116769522Y-81398348D01*
X116894697Y-81523305D01*
X117040340Y-81613081D01*
X117087832Y-81665852D01*
X117099256Y-81735924D01*
X117070982Y-81801048D01*
X117061195Y-81811510D01*
X116946865Y-81920576D01*
X116809246Y-82105542D01*
X116806830Y-82110293D01*
X116806828Y-82110297D01*
X116757003Y-82208297D01*
X116704760Y-82311051D01*
X116703178Y-82316145D01*
X116703177Y-82316148D01*
X116651872Y-82481377D01*
X116636393Y-82531227D01*
X116635692Y-82536516D01*
X116609939Y-82730827D01*
X116606102Y-82759774D01*
X111912879Y-82759774D01*
X104820852Y-75667747D01*
X104813312Y-75659461D01*
X104809200Y-75652982D01*
X104759548Y-75606356D01*
X104756707Y-75603602D01*
X104736970Y-75583865D01*
X104733773Y-75581385D01*
X104724751Y-75573680D01*
X104698300Y-75548841D01*
X104692521Y-75543414D01*
X104685575Y-75539595D01*
X104685572Y-75539593D01*
X104674766Y-75533652D01*
X104658247Y-75522801D01*
X104657783Y-75522441D01*
X104642241Y-75510386D01*
X104634972Y-75507241D01*
X104634968Y-75507238D01*
X104601663Y-75492826D01*
X104591013Y-75487609D01*
X104552260Y-75466305D01*
X104532637Y-75461267D01*
X104513934Y-75454863D01*
X104502620Y-75449967D01*
X104502619Y-75449967D01*
X104495345Y-75446819D01*
X104487522Y-75445580D01*
X104487512Y-75445577D01*
X104451676Y-75439901D01*
X104440056Y-75437495D01*
X104404911Y-75428472D01*
X104404910Y-75428472D01*
X104397230Y-75426500D01*
X104376976Y-75426500D01*
X104357265Y-75424949D01*
X104345086Y-75423020D01*
X104337257Y-75421780D01*
X104329365Y-75422526D01*
X104293239Y-75425941D01*
X104281381Y-75426500D01*
X103127145Y-75426500D01*
X103059024Y-75406498D01*
X103012531Y-75352842D01*
X103002427Y-75282568D01*
X103006813Y-75263136D01*
X103055023Y-75107875D01*
X103055024Y-75107873D01*
X103056607Y-75102773D01*
X103068793Y-75010827D01*
X103086198Y-74879511D01*
X103086198Y-74879506D01*
X103086898Y-74874226D01*
X103083778Y-74791105D01*
X103078449Y-74649173D01*
X103078249Y-74643842D01*
X103030907Y-74418209D01*
X102946224Y-74203779D01*
X102902390Y-74131542D01*
X102829390Y-74011243D01*
X102826623Y-74006683D01*
X102739755Y-73906576D01*
X102679023Y-73836588D01*
X102679021Y-73836586D01*
X102675523Y-73832555D01*
X102576478Y-73751343D01*
X102501373Y-73689760D01*
X102501367Y-73689756D01*
X102497245Y-73686376D01*
X102465750Y-73668448D01*
X102416445Y-73617368D01*
X102402583Y-73547738D01*
X102428566Y-73481667D01*
X102457716Y-73454427D01*
X102515478Y-73415539D01*
X102579319Y-73372559D01*
X102589187Y-73363146D01*
X102710940Y-73246998D01*
X102746135Y-73213424D01*
X102883754Y-73028458D01*
X102887115Y-73021849D01*
X102943342Y-72911256D01*
X102988240Y-72822949D01*
X103007206Y-72761871D01*
X103055024Y-72607871D01*
X103056607Y-72602773D01*
X103068793Y-72510827D01*
X103086198Y-72379511D01*
X103086198Y-72379506D01*
X103086898Y-72374226D01*
X103083835Y-72292623D01*
X103078449Y-72149173D01*
X103078249Y-72143842D01*
X103030907Y-71918209D01*
X103028948Y-71913248D01*
X102948185Y-71708744D01*
X102948184Y-71708742D01*
X102946224Y-71703779D01*
X102902390Y-71631542D01*
X102829390Y-71511243D01*
X102826623Y-71506683D01*
X102762474Y-71432757D01*
X102679023Y-71336588D01*
X102679021Y-71336586D01*
X102675523Y-71332555D01*
X102639880Y-71303330D01*
X102599886Y-71244671D01*
X102597954Y-71173701D01*
X102634698Y-71112952D01*
X102653468Y-71098752D01*
X102793120Y-71012332D01*
X102799348Y-71008478D01*
X102924305Y-70883303D01*
X103017115Y-70732738D01*
X103053086Y-70624288D01*
X103070632Y-70571389D01*
X103070632Y-70571387D01*
X103072797Y-70564861D01*
X103074861Y-70544722D01*
X103077909Y-70514969D01*
X103083500Y-70460400D01*
X103083500Y-69159600D01*
X103080589Y-69131542D01*
X103073238Y-69060692D01*
X103073237Y-69060688D01*
X103072526Y-69053834D01*
X103059377Y-69014420D01*
X103022912Y-68905122D01*
X103016550Y-68886054D01*
X102923478Y-68735652D01*
X102798303Y-68610695D01*
X102792072Y-68606854D01*
X102653968Y-68521725D01*
X102653966Y-68521724D01*
X102647738Y-68517885D01*
X102567995Y-68491436D01*
X102486389Y-68464368D01*
X102486387Y-68464368D01*
X102479861Y-68462203D01*
X102473025Y-68461503D01*
X102473022Y-68461502D01*
X102429969Y-68457091D01*
X102375400Y-68451500D01*
X102359500Y-68451500D01*
X102291379Y-68431498D01*
X102244886Y-68377842D01*
X102233500Y-68325500D01*
X102233500Y-63372378D01*
X102253502Y-63304257D01*
X102307750Y-63257496D01*
X102383210Y-63223504D01*
X102383214Y-63223502D01*
X102388075Y-63221312D01*
X102579319Y-63092559D01*
X102746135Y-62933424D01*
X102883754Y-62748458D01*
X102907376Y-62701998D01*
X102948437Y-62621235D01*
X102988240Y-62542949D01*
X102996527Y-62516263D01*
X103055024Y-62327871D01*
X103056607Y-62322773D01*
X103062211Y-62280491D01*
X103086198Y-62099511D01*
X103086198Y-62099506D01*
X103086898Y-62094226D01*
X103078249Y-61863842D01*
X103030907Y-61638209D01*
X102981181Y-61512296D01*
X102948185Y-61428744D01*
X102948184Y-61428742D01*
X102946224Y-61423779D01*
X102920859Y-61381978D01*
X102829390Y-61231243D01*
X102826623Y-61226683D01*
X102739755Y-61126576D01*
X102679023Y-61056588D01*
X102679021Y-61056586D01*
X102675523Y-61052555D01*
X102633970Y-61018484D01*
X102501373Y-60909760D01*
X102501367Y-60909756D01*
X102497245Y-60906376D01*
X102492602Y-60903733D01*
X102465265Y-60888171D01*
X102415959Y-60837088D01*
X102402098Y-60767458D01*
X102428082Y-60701387D01*
X102457232Y-60674149D01*
X102574578Y-60595148D01*
X102582870Y-60588481D01*
X102741900Y-60436772D01*
X102748941Y-60428814D01*
X102880141Y-60252475D01*
X102885745Y-60243438D01*
X102985357Y-60047516D01*
X102989357Y-60037665D01*
X103054534Y-59827760D01*
X103056817Y-59817376D01*
X103058861Y-59801957D01*
X103056665Y-59787793D01*
X103043478Y-59784000D01*
X100158808Y-59784000D01*
X100145277Y-59787973D01*
X100143752Y-59798580D01*
X100168477Y-59916421D01*
X100171537Y-59926617D01*
X100252263Y-60131029D01*
X100256994Y-60140561D01*
X100371016Y-60328462D01*
X100377280Y-60337052D01*
X100521327Y-60503052D01*
X100528958Y-60510472D01*
X100698911Y-60649826D01*
X100707674Y-60655848D01*
X100734711Y-60671238D01*
X100784018Y-60722320D01*
X100797880Y-60791951D01*
X100771897Y-60858022D01*
X100742747Y-60885261D01*
X100738425Y-60888171D01*
X100620681Y-60967441D01*
X100453865Y-61126576D01*
X100316246Y-61311542D01*
X100313830Y-61316293D01*
X100313828Y-61316297D01*
X100264003Y-61414296D01*
X100211760Y-61517051D01*
X100210178Y-61522145D01*
X100210177Y-61522148D01*
X100163715Y-61671781D01*
X100143393Y-61737227D01*
X100142692Y-61742516D01*
X100115246Y-61949601D01*
X100113102Y-61965774D01*
X100121751Y-62196158D01*
X100169093Y-62421791D01*
X100171051Y-62426750D01*
X100171052Y-62426752D01*
X100247858Y-62621235D01*
X100253776Y-62636221D01*
X100256543Y-62640780D01*
X100256544Y-62640783D01*
X100295984Y-62705777D01*
X100373377Y-62833317D01*
X100376874Y-62837347D01*
X100463438Y-62937103D01*
X100524477Y-63007445D01*
X100528608Y-63010832D01*
X100698627Y-63150240D01*
X100698633Y-63150244D01*
X100702755Y-63153624D01*
X100902833Y-63267515D01*
X100952138Y-63318596D01*
X100966500Y-63377016D01*
X100966500Y-68325500D01*
X100946498Y-68393621D01*
X100892842Y-68440114D01*
X100840500Y-68451500D01*
X100824600Y-68451500D01*
X100821354Y-68451837D01*
X100821350Y-68451837D01*
X100725692Y-68461762D01*
X100725688Y-68461763D01*
X100718834Y-68462474D01*
X100712298Y-68464655D01*
X100712296Y-68464655D01*
X100624930Y-68493803D01*
X100551054Y-68518450D01*
X100400652Y-68611522D01*
X100275695Y-68736697D01*
X100271855Y-68742927D01*
X100271854Y-68742928D01*
X100189465Y-68876588D01*
X100182885Y-68887262D01*
X100170117Y-68925758D01*
X100130008Y-69046683D01*
X100127203Y-69055139D01*
X100126503Y-69061975D01*
X100126502Y-69061978D01*
X100122091Y-69105031D01*
X100116500Y-69159600D01*
X100116500Y-70460400D01*
X100116837Y-70463646D01*
X100116837Y-70463650D01*
X100125637Y-70548458D01*
X100127474Y-70566166D01*
X100129655Y-70572702D01*
X100129655Y-70572704D01*
X100135665Y-70590717D01*
X100183450Y-70733946D01*
X100276522Y-70884348D01*
X100401697Y-71009305D01*
X100547340Y-71099081D01*
X100594832Y-71151852D01*
X100606256Y-71221924D01*
X100577982Y-71287048D01*
X100568195Y-71297510D01*
X100535007Y-71329170D01*
X100453865Y-71406576D01*
X100316246Y-71591542D01*
X100313830Y-71596293D01*
X100313828Y-71596297D01*
X100273127Y-71676350D01*
X100211760Y-71797051D01*
X100210178Y-71802145D01*
X100210177Y-71802148D01*
X100165418Y-71946296D01*
X100143393Y-72017227D01*
X100142692Y-72022516D01*
X100120604Y-72189173D01*
X100113102Y-72245774D01*
X100121751Y-72476158D01*
X100169093Y-72701791D01*
X100171051Y-72706750D01*
X100171052Y-72706752D01*
X100243957Y-72891357D01*
X100253776Y-72916221D01*
X100256543Y-72920780D01*
X100256544Y-72920783D01*
X100316461Y-73019523D01*
X100373377Y-73113317D01*
X100376874Y-73117347D01*
X100502944Y-73262630D01*
X100524477Y-73287445D01*
X100528608Y-73290832D01*
X100698627Y-73430240D01*
X100698633Y-73430244D01*
X100702755Y-73433624D01*
X100734250Y-73451552D01*
X100783555Y-73502632D01*
X100797417Y-73572262D01*
X100771434Y-73638333D01*
X100742284Y-73665573D01*
X100620681Y-73747441D01*
X100616824Y-73751120D01*
X100616822Y-73751122D01*
X100588106Y-73778516D01*
X100453865Y-73906576D01*
X100316246Y-74091542D01*
X100211760Y-74297051D01*
X100210178Y-74302145D01*
X100210177Y-74302148D01*
X100163259Y-74453248D01*
X100143393Y-74517227D01*
X100142692Y-74522516D01*
X100120604Y-74689173D01*
X100113102Y-74745774D01*
X100121751Y-74976158D01*
X100169093Y-75201791D01*
X100189798Y-75254220D01*
X100196216Y-75324923D01*
X100163389Y-75387875D01*
X100101739Y-75423086D01*
X100072606Y-75426500D01*
X99488595Y-75426500D01*
X99420474Y-75406498D01*
X99399500Y-75389595D01*
X91225152Y-67215247D01*
X91191126Y-67152935D01*
X91192540Y-67093541D01*
X91209543Y-67030087D01*
X91229498Y-66802000D01*
X91209543Y-66573913D01*
X91178305Y-66457331D01*
X91151707Y-66358067D01*
X91151706Y-66358065D01*
X91150284Y-66352757D01*
X91127907Y-66304768D01*
X91055849Y-66150238D01*
X91055846Y-66150233D01*
X91053523Y-66145251D01*
X90922198Y-65957700D01*
X90918601Y-65954103D01*
X90890184Y-65889185D01*
X90901396Y-65819080D01*
X90926074Y-65784130D01*
X96426747Y-60283457D01*
X96435037Y-60275913D01*
X96441518Y-60271800D01*
X96488159Y-60222132D01*
X96490913Y-60219291D01*
X96510634Y-60199570D01*
X96513112Y-60196375D01*
X96520818Y-60187353D01*
X96545658Y-60160901D01*
X96551086Y-60155121D01*
X96557232Y-60143942D01*
X96560846Y-60137368D01*
X96571699Y-60120845D01*
X96579253Y-60111106D01*
X96584113Y-60104841D01*
X96601676Y-60064257D01*
X96606883Y-60053627D01*
X96628195Y-60014860D01*
X96630166Y-60007183D01*
X96630168Y-60007178D01*
X96633232Y-59995242D01*
X96639638Y-59976530D01*
X96644533Y-59965219D01*
X96647681Y-59957945D01*
X96648921Y-59950117D01*
X96648923Y-59950110D01*
X96654599Y-59914276D01*
X96657005Y-59902656D01*
X96666028Y-59867511D01*
X96666028Y-59867510D01*
X96668000Y-59859830D01*
X96668000Y-59839576D01*
X96669551Y-59819865D01*
X96671480Y-59807686D01*
X96672720Y-59799857D01*
X96668559Y-59755838D01*
X96668000Y-59743981D01*
X96668000Y-59258043D01*
X100141139Y-59258043D01*
X100143335Y-59272207D01*
X100156522Y-59276000D01*
X101327885Y-59276000D01*
X101343124Y-59271525D01*
X101344329Y-59270135D01*
X101346000Y-59262452D01*
X101346000Y-59257885D01*
X101854000Y-59257885D01*
X101858475Y-59273124D01*
X101859865Y-59274329D01*
X101867548Y-59276000D01*
X103041192Y-59276000D01*
X103054723Y-59272027D01*
X103056248Y-59261420D01*
X103031523Y-59143579D01*
X103028463Y-59133383D01*
X102947737Y-58928971D01*
X102943006Y-58919439D01*
X102828984Y-58731538D01*
X102822720Y-58722948D01*
X102678673Y-58556948D01*
X102671042Y-58549528D01*
X102501089Y-58410174D01*
X102492323Y-58404150D01*
X102464801Y-58388483D01*
X102415496Y-58337400D01*
X102401635Y-58267770D01*
X102427619Y-58201699D01*
X102456768Y-58174462D01*
X102574575Y-58095150D01*
X102582870Y-58088481D01*
X102741900Y-57936772D01*
X102748941Y-57928814D01*
X102880141Y-57752475D01*
X102885745Y-57743438D01*
X102985357Y-57547516D01*
X102989357Y-57537665D01*
X103054534Y-57327760D01*
X103056817Y-57317376D01*
X103058861Y-57301957D01*
X103056665Y-57287793D01*
X103043478Y-57284000D01*
X101872115Y-57284000D01*
X101856876Y-57288475D01*
X101855671Y-57289865D01*
X101854000Y-57297548D01*
X101854000Y-59257885D01*
X101346000Y-59257885D01*
X101346000Y-57302115D01*
X101341525Y-57286876D01*
X101340135Y-57285671D01*
X101332452Y-57284000D01*
X100158808Y-57284000D01*
X100145277Y-57287973D01*
X100143752Y-57298580D01*
X100168477Y-57416421D01*
X100171537Y-57426617D01*
X100252263Y-57631029D01*
X100256994Y-57640561D01*
X100371016Y-57828462D01*
X100377280Y-57837052D01*
X100521327Y-58003052D01*
X100528958Y-58010472D01*
X100698911Y-58149826D01*
X100707677Y-58155850D01*
X100735199Y-58171517D01*
X100784504Y-58222600D01*
X100798365Y-58292230D01*
X100772381Y-58358301D01*
X100743232Y-58385538D01*
X100625425Y-58464850D01*
X100617130Y-58471519D01*
X100458100Y-58623228D01*
X100451059Y-58631186D01*
X100319859Y-58807525D01*
X100314255Y-58816562D01*
X100214643Y-59012484D01*
X100210643Y-59022335D01*
X100145466Y-59232240D01*
X100143183Y-59242624D01*
X100141139Y-59258043D01*
X96668000Y-59258043D01*
X96668000Y-55410094D01*
X96688002Y-55341973D01*
X96704905Y-55320999D01*
X99907551Y-52118353D01*
X99969863Y-52084327D01*
X100040678Y-52089392D01*
X100097514Y-52131939D01*
X100121587Y-52191798D01*
X100121751Y-52196158D01*
X100122848Y-52201385D01*
X100122848Y-52201387D01*
X100134340Y-52256158D01*
X100169093Y-52421791D01*
X100171051Y-52426750D01*
X100171052Y-52426752D01*
X100230299Y-52576773D01*
X100253776Y-52636221D01*
X100256543Y-52640780D01*
X100256544Y-52640783D01*
X100292953Y-52700783D01*
X100373377Y-52833317D01*
X100376874Y-52837347D01*
X100520150Y-53002458D01*
X100524477Y-53007445D01*
X100528608Y-53010832D01*
X100698627Y-53150240D01*
X100698633Y-53150244D01*
X100702755Y-53153624D01*
X100734250Y-53171552D01*
X100783555Y-53222632D01*
X100797417Y-53292262D01*
X100771434Y-53358333D01*
X100742284Y-53385573D01*
X100620681Y-53467441D01*
X100453865Y-53626576D01*
X100316246Y-53811542D01*
X100313830Y-53816293D01*
X100313828Y-53816297D01*
X100287237Y-53868598D01*
X100211760Y-54017051D01*
X100210178Y-54022145D01*
X100210177Y-54022148D01*
X100153888Y-54203428D01*
X100143393Y-54237227D01*
X100142692Y-54242516D01*
X100114050Y-54458623D01*
X100113102Y-54465774D01*
X100113302Y-54471103D01*
X100113302Y-54471105D01*
X100115555Y-54531105D01*
X100121751Y-54696158D01*
X100122846Y-54701377D01*
X100125597Y-54714489D01*
X100169093Y-54921791D01*
X100171051Y-54926750D01*
X100171052Y-54926752D01*
X100249493Y-55125375D01*
X100253776Y-55136221D01*
X100256543Y-55140780D01*
X100256544Y-55140783D01*
X100324482Y-55252740D01*
X100373377Y-55333317D01*
X100376874Y-55337347D01*
X100520150Y-55502458D01*
X100524477Y-55507445D01*
X100528608Y-55510832D01*
X100698627Y-55650240D01*
X100698633Y-55650244D01*
X100702755Y-55653624D01*
X100707398Y-55656267D01*
X100734735Y-55671829D01*
X100784041Y-55722912D01*
X100797902Y-55792542D01*
X100771918Y-55858613D01*
X100742768Y-55885851D01*
X100625422Y-55964852D01*
X100617130Y-55971519D01*
X100458100Y-56123228D01*
X100451059Y-56131186D01*
X100319859Y-56307525D01*
X100314255Y-56316562D01*
X100214643Y-56512484D01*
X100210643Y-56522335D01*
X100145466Y-56732240D01*
X100143183Y-56742624D01*
X100141139Y-56758043D01*
X100143335Y-56772207D01*
X100156522Y-56776000D01*
X103041192Y-56776000D01*
X103054723Y-56772027D01*
X103056248Y-56761420D01*
X103031523Y-56643579D01*
X103028463Y-56633383D01*
X102947737Y-56428971D01*
X102943006Y-56419439D01*
X102828984Y-56231538D01*
X102822720Y-56222948D01*
X102678673Y-56056948D01*
X102671042Y-56049528D01*
X102501089Y-55910174D01*
X102492326Y-55904152D01*
X102465289Y-55888762D01*
X102415982Y-55837680D01*
X102402120Y-55768049D01*
X102428103Y-55701978D01*
X102457253Y-55674739D01*
X102563198Y-55603412D01*
X102579319Y-55592559D01*
X102746135Y-55433424D01*
X102883754Y-55248458D01*
X102887115Y-55241849D01*
X102943342Y-55131256D01*
X102988240Y-55042949D01*
X102990484Y-55035724D01*
X103055024Y-54827871D01*
X103056607Y-54822773D01*
X103059443Y-54801379D01*
X103086198Y-54599511D01*
X103086198Y-54599506D01*
X103086898Y-54594226D01*
X103078249Y-54363842D01*
X103030907Y-54138209D01*
X103028948Y-54133248D01*
X102948185Y-53928744D01*
X102948184Y-53928742D01*
X102946224Y-53923779D01*
X102930525Y-53897907D01*
X102829390Y-53731243D01*
X102826623Y-53726683D01*
X102788628Y-53682897D01*
X102679023Y-53556588D01*
X102679021Y-53556586D01*
X102675523Y-53552555D01*
X102619204Y-53506376D01*
X102501373Y-53409760D01*
X102501367Y-53409756D01*
X102497245Y-53406376D01*
X102465750Y-53388448D01*
X102416445Y-53337368D01*
X102402583Y-53267738D01*
X102428566Y-53201667D01*
X102457716Y-53174427D01*
X102503050Y-53143906D01*
X102579319Y-53092559D01*
X102746135Y-52933424D01*
X102883754Y-52748458D01*
X102906322Y-52704071D01*
X102973732Y-52571484D01*
X102988240Y-52542949D01*
X103022225Y-52433502D01*
X103055024Y-52327871D01*
X103056607Y-52322773D01*
X103066143Y-52250827D01*
X103086198Y-52099511D01*
X103086198Y-52099506D01*
X103086898Y-52094226D01*
X103086527Y-52084327D01*
X103080654Y-51927902D01*
X103078249Y-51863842D01*
X103030907Y-51638209D01*
X103028948Y-51633248D01*
X102948185Y-51428744D01*
X102948184Y-51428742D01*
X102946224Y-51423779D01*
X102943304Y-51418966D01*
X102829390Y-51231243D01*
X102826623Y-51226683D01*
X102746686Y-51134563D01*
X102679023Y-51056588D01*
X102679021Y-51056586D01*
X102675523Y-51052555D01*
X102639880Y-51023330D01*
X102599886Y-50964671D01*
X102597954Y-50893701D01*
X102634698Y-50832952D01*
X102653468Y-50818752D01*
X102793120Y-50732332D01*
X102799348Y-50728478D01*
X102924305Y-50603303D01*
X102928146Y-50597072D01*
X103013275Y-50458968D01*
X103013276Y-50458966D01*
X103017115Y-50452738D01*
X103064970Y-50308458D01*
X103070632Y-50291389D01*
X103070632Y-50291387D01*
X103072797Y-50284861D01*
X103083500Y-50180400D01*
X103083500Y-50018694D01*
X103103502Y-49950573D01*
X103157158Y-49904080D01*
X103227432Y-49893976D01*
X103292012Y-49923470D01*
X103298595Y-49929599D01*
X116929932Y-63560936D01*
X116963958Y-63623248D01*
X116958893Y-63694063D01*
X116916346Y-63750899D01*
X116907142Y-63757174D01*
X116893652Y-63765522D01*
X116768695Y-63890697D01*
X116764855Y-63896927D01*
X116764854Y-63896928D01*
X116684872Y-64026683D01*
X116675885Y-64041262D01*
X116620203Y-64209139D01*
X116609500Y-64313600D01*
X116609500Y-65614400D01*
X116609837Y-65617646D01*
X116609837Y-65617650D01*
X116614455Y-65662151D01*
X116620474Y-65720166D01*
X116622655Y-65726702D01*
X116622655Y-65726704D01*
X116626257Y-65737499D01*
X116676450Y-65887946D01*
X116769522Y-66038348D01*
X116894697Y-66163305D01*
X117040340Y-66253081D01*
X117087832Y-66305852D01*
X117099256Y-66375924D01*
X117070982Y-66441048D01*
X117061195Y-66451510D01*
X116946865Y-66560576D01*
X116809246Y-66745542D01*
X116806830Y-66750293D01*
X116806828Y-66750297D01*
X116759979Y-66842443D01*
X116704760Y-66951051D01*
X116703178Y-66956145D01*
X116703177Y-66956148D01*
X116660515Y-67093541D01*
X116636393Y-67171227D01*
X116635692Y-67176516D01*
X116608284Y-67383313D01*
X116606102Y-67399774D01*
X116614751Y-67630158D01*
X116662093Y-67855791D01*
X116664051Y-67860750D01*
X116664052Y-67860752D01*
X116733374Y-68036284D01*
X116746776Y-68070221D01*
X116749543Y-68074780D01*
X116749544Y-68074783D01*
X116787509Y-68137347D01*
X116866377Y-68267317D01*
X116869874Y-68271347D01*
X116975978Y-68393621D01*
X117017477Y-68441445D01*
X117035548Y-68456262D01*
X117191627Y-68584240D01*
X117191633Y-68584244D01*
X117195755Y-68587624D01*
X117227250Y-68605552D01*
X117276555Y-68656632D01*
X117290417Y-68726262D01*
X117264434Y-68792333D01*
X117235284Y-68819573D01*
X117113681Y-68901441D01*
X116946865Y-69060576D01*
X116943682Y-69064854D01*
X116908945Y-69111542D01*
X116809246Y-69245542D01*
X116806830Y-69250293D01*
X116806828Y-69250297D01*
X116762988Y-69336525D01*
X116704760Y-69451051D01*
X116703178Y-69456145D01*
X116703177Y-69456148D01*
X116641115Y-69656020D01*
X116636393Y-69671227D01*
X116635692Y-69676516D01*
X116607544Y-69888895D01*
X116606102Y-69899774D01*
X116606302Y-69905103D01*
X116606302Y-69905105D01*
X116606843Y-69919511D01*
X116614751Y-70130158D01*
X116615846Y-70135377D01*
X116625584Y-70181789D01*
X116662093Y-70355791D01*
X116664051Y-70360750D01*
X116664052Y-70360752D01*
X116709711Y-70476366D01*
X116746776Y-70570221D01*
X116749543Y-70574780D01*
X116749544Y-70574783D01*
X116813974Y-70680959D01*
X116866377Y-70767317D01*
X116869874Y-70771347D01*
X116991725Y-70911768D01*
X117017477Y-70941445D01*
X117047789Y-70966299D01*
X117191627Y-71084240D01*
X117191633Y-71084244D01*
X117195755Y-71087624D01*
X117227250Y-71105552D01*
X117276555Y-71156632D01*
X117290417Y-71226262D01*
X117264434Y-71292333D01*
X117235284Y-71319573D01*
X117113681Y-71401441D01*
X117109824Y-71405120D01*
X117109822Y-71405122D01*
X117086076Y-71427775D01*
X116946865Y-71560576D01*
X116809246Y-71745542D01*
X116806830Y-71750293D01*
X116806828Y-71750297D01*
X116780466Y-71802148D01*
X116704760Y-71951051D01*
X116703178Y-71956145D01*
X116703177Y-71956148D01*
X116657079Y-72104607D01*
X116636393Y-72171227D01*
X116635692Y-72176516D01*
X116608788Y-72379511D01*
X116606102Y-72399774D01*
X116606302Y-72405103D01*
X116606302Y-72405105D01*
X116610271Y-72510827D01*
X116614751Y-72630158D01*
X116615846Y-72635377D01*
X116628686Y-72696572D01*
X116662093Y-72855791D01*
X116664051Y-72860750D01*
X116664052Y-72860752D01*
X116725508Y-73016366D01*
X116746776Y-73070221D01*
X116749543Y-73074780D01*
X116749544Y-73074783D01*
X116794433Y-73148757D01*
X116866377Y-73267317D01*
X116869874Y-73271347D01*
X117007754Y-73430240D01*
X117017477Y-73441445D01*
X117021608Y-73444832D01*
X117191627Y-73584240D01*
X117191633Y-73584244D01*
X117195755Y-73587624D01*
X117200391Y-73590263D01*
X117200394Y-73590265D01*
X117332692Y-73665573D01*
X117396114Y-73701675D01*
X117612825Y-73780337D01*
X117618074Y-73781286D01*
X117618077Y-73781287D01*
X117835608Y-73820623D01*
X117835615Y-73820624D01*
X117839692Y-73821361D01*
X117857414Y-73822197D01*
X117862356Y-73822430D01*
X117862363Y-73822430D01*
X117863844Y-73822500D01*
X118275890Y-73822500D01*
X118342809Y-73816822D01*
X118442409Y-73808371D01*
X118442413Y-73808370D01*
X118447720Y-73807920D01*
X118452875Y-73806582D01*
X118452881Y-73806581D01*
X118665703Y-73751343D01*
X118665707Y-73751342D01*
X118670872Y-73750001D01*
X118675738Y-73747809D01*
X118675741Y-73747808D01*
X118836603Y-73675345D01*
X118881075Y-73655312D01*
X119072319Y-73526559D01*
X119239135Y-73367424D01*
X119376754Y-73182458D01*
X119380027Y-73176022D01*
X119452874Y-73032740D01*
X119481240Y-72976949D01*
X119483309Y-72970288D01*
X119548024Y-72761871D01*
X119549607Y-72756773D01*
X119565417Y-72637484D01*
X119579198Y-72533511D01*
X119579198Y-72533506D01*
X119579898Y-72528226D01*
X119571249Y-72297842D01*
X119523907Y-72072209D01*
X119504282Y-72022516D01*
X119441185Y-71862744D01*
X119441184Y-71862742D01*
X119439224Y-71857779D01*
X119319623Y-71660683D01*
X119244260Y-71573834D01*
X119172023Y-71490588D01*
X119172021Y-71490586D01*
X119168523Y-71486555D01*
X119076199Y-71410854D01*
X118994373Y-71343760D01*
X118994367Y-71343756D01*
X118990245Y-71340376D01*
X118958750Y-71322448D01*
X118909445Y-71271368D01*
X118895583Y-71201738D01*
X118921566Y-71135667D01*
X118950716Y-71108427D01*
X118986642Y-71084240D01*
X119072319Y-71026559D01*
X119086380Y-71013146D01*
X119187341Y-70916833D01*
X119239135Y-70867424D01*
X119257687Y-70842490D01*
X119338834Y-70733424D01*
X119376754Y-70682458D01*
X119393889Y-70648757D01*
X119437132Y-70563703D01*
X119481240Y-70476949D01*
X119485370Y-70463650D01*
X119548024Y-70261871D01*
X119549607Y-70256773D01*
X119565417Y-70137484D01*
X119579198Y-70033511D01*
X119579198Y-70033506D01*
X119579898Y-70028226D01*
X119571249Y-69797842D01*
X119523907Y-69572209D01*
X119470988Y-69438209D01*
X119441185Y-69362744D01*
X119441184Y-69362742D01*
X119439224Y-69357779D01*
X119432978Y-69347485D01*
X119322390Y-69165243D01*
X119319623Y-69160683D01*
X119236467Y-69064854D01*
X119172023Y-68990588D01*
X119172021Y-68990586D01*
X119168523Y-68986555D01*
X119100591Y-68930854D01*
X118994373Y-68843760D01*
X118994367Y-68843756D01*
X118990245Y-68840376D01*
X118958750Y-68822448D01*
X118909445Y-68771368D01*
X118895583Y-68701738D01*
X118921566Y-68635667D01*
X118950716Y-68608427D01*
X119011247Y-68567675D01*
X119072319Y-68526559D01*
X119076778Y-68522306D01*
X119171968Y-68431498D01*
X119239135Y-68367424D01*
X119376754Y-68182458D01*
X119416851Y-68103594D01*
X119443385Y-68051404D01*
X119481240Y-67976949D01*
X119487185Y-67957805D01*
X119548024Y-67761871D01*
X119549607Y-67756773D01*
X119558575Y-67689110D01*
X119579198Y-67533511D01*
X119579198Y-67533506D01*
X119579898Y-67528226D01*
X119578140Y-67481383D01*
X119571449Y-67303173D01*
X119571249Y-67297842D01*
X119523907Y-67072209D01*
X119505109Y-67024609D01*
X119441185Y-66862744D01*
X119441184Y-66862742D01*
X119439224Y-66857779D01*
X119405377Y-66802000D01*
X119322390Y-66665243D01*
X119319623Y-66660683D01*
X119273265Y-66607260D01*
X119172023Y-66490588D01*
X119172021Y-66490586D01*
X119168523Y-66486555D01*
X119132880Y-66457330D01*
X119092886Y-66398671D01*
X119090954Y-66327701D01*
X119127698Y-66266952D01*
X119146468Y-66252752D01*
X119286120Y-66166332D01*
X119292348Y-66162478D01*
X119417305Y-66037303D01*
X119423242Y-66027672D01*
X119506275Y-65892968D01*
X119506276Y-65892966D01*
X119510115Y-65886738D01*
X119559615Y-65737499D01*
X119563632Y-65725389D01*
X119563632Y-65725387D01*
X119565797Y-65718861D01*
X119576500Y-65614400D01*
X119576500Y-64313600D01*
X119576163Y-64310350D01*
X119566238Y-64214692D01*
X119566237Y-64214688D01*
X119565526Y-64207834D01*
X119509550Y-64040054D01*
X119416478Y-63889652D01*
X119291303Y-63764695D01*
X119268922Y-63750899D01*
X119146968Y-63675725D01*
X119146966Y-63675724D01*
X119140738Y-63671885D01*
X119034034Y-63636493D01*
X118979389Y-63618368D01*
X118979387Y-63618368D01*
X118972861Y-63616203D01*
X118966025Y-63615503D01*
X118966022Y-63615502D01*
X118914701Y-63610244D01*
X118868400Y-63605500D01*
X118771842Y-63605500D01*
X118703721Y-63585498D01*
X118661173Y-63533764D01*
X118659289Y-63534800D01*
X118655471Y-63527856D01*
X118652552Y-63520483D01*
X118626563Y-63484712D01*
X118620047Y-63474792D01*
X118618774Y-63472639D01*
X118597542Y-63436738D01*
X118583221Y-63422417D01*
X118570380Y-63407383D01*
X118563131Y-63397406D01*
X118558472Y-63390993D01*
X118524395Y-63362802D01*
X118515616Y-63354812D01*
X112380578Y-57219774D01*
X116623102Y-57219774D01*
X116623302Y-57225103D01*
X116623302Y-57225105D01*
X116626187Y-57301957D01*
X116631751Y-57450158D01*
X116679093Y-57675791D01*
X116681051Y-57680750D01*
X116681052Y-57680752D01*
X116703319Y-57737134D01*
X116763776Y-57890221D01*
X116766543Y-57894780D01*
X116766544Y-57894783D01*
X116792024Y-57936772D01*
X116883377Y-58087317D01*
X116886874Y-58091347D01*
X117024395Y-58249826D01*
X117034477Y-58261445D01*
X117038608Y-58264832D01*
X117208627Y-58404240D01*
X117208633Y-58404244D01*
X117212755Y-58407624D01*
X117217391Y-58410263D01*
X117217394Y-58410265D01*
X117325002Y-58471519D01*
X117413114Y-58521675D01*
X117629825Y-58600337D01*
X117635074Y-58601286D01*
X117635077Y-58601287D01*
X117852608Y-58640623D01*
X117852615Y-58640624D01*
X117856692Y-58641361D01*
X117874414Y-58642197D01*
X117879356Y-58642430D01*
X117879363Y-58642430D01*
X117880844Y-58642500D01*
X118292890Y-58642500D01*
X118359809Y-58636822D01*
X118459409Y-58628371D01*
X118459413Y-58628370D01*
X118464720Y-58627920D01*
X118469875Y-58626582D01*
X118469881Y-58626581D01*
X118682703Y-58571343D01*
X118682707Y-58571342D01*
X118687872Y-58570001D01*
X118692738Y-58567809D01*
X118692741Y-58567808D01*
X118893202Y-58477507D01*
X118898075Y-58475312D01*
X119089319Y-58346559D01*
X119114435Y-58322600D01*
X119252278Y-58191103D01*
X119256135Y-58187424D01*
X119393754Y-58002458D01*
X119427151Y-57936772D01*
X119473880Y-57844861D01*
X119498240Y-57796949D01*
X119534321Y-57680752D01*
X119565024Y-57581871D01*
X119566607Y-57576773D01*
X119574606Y-57516421D01*
X119596198Y-57353511D01*
X119596198Y-57353506D01*
X119596898Y-57348226D01*
X119594996Y-57297548D01*
X119588938Y-57136207D01*
X119588249Y-57117842D01*
X119540907Y-56892209D01*
X119529716Y-56863872D01*
X119458185Y-56682744D01*
X119458184Y-56682742D01*
X119456224Y-56677779D01*
X119447631Y-56663617D01*
X119339390Y-56485243D01*
X119336623Y-56480683D01*
X119287304Y-56423848D01*
X119189023Y-56310588D01*
X119189021Y-56310586D01*
X119185523Y-56306555D01*
X119107289Y-56242407D01*
X119011373Y-56163760D01*
X119011367Y-56163756D01*
X119007245Y-56160376D01*
X118975750Y-56142448D01*
X118926445Y-56091368D01*
X118912583Y-56021738D01*
X118938566Y-55955667D01*
X118967716Y-55928427D01*
X119014836Y-55896704D01*
X119089319Y-55846559D01*
X119114108Y-55822912D01*
X119171618Y-55768049D01*
X119256135Y-55687424D01*
X119393754Y-55502458D01*
X119398348Y-55493424D01*
X119469874Y-55352740D01*
X119498240Y-55296949D01*
X119511968Y-55252740D01*
X119565024Y-55081871D01*
X119566607Y-55076773D01*
X119571126Y-55042680D01*
X119596198Y-54853511D01*
X119596199Y-54853499D01*
X119596898Y-54848226D01*
X119595943Y-54822773D01*
X119591117Y-54694226D01*
X119588249Y-54617842D01*
X119540907Y-54392209D01*
X119516374Y-54330087D01*
X119458185Y-54182744D01*
X119458184Y-54182742D01*
X119456224Y-54177779D01*
X119432213Y-54138209D01*
X119339390Y-53985243D01*
X119336623Y-53980683D01*
X119333126Y-53976653D01*
X119189023Y-53810588D01*
X119189021Y-53810586D01*
X119185523Y-53806555D01*
X119143970Y-53772484D01*
X119011373Y-53663760D01*
X119011367Y-53663756D01*
X119007245Y-53660376D01*
X118975750Y-53642448D01*
X118926445Y-53591368D01*
X118912583Y-53521738D01*
X118938566Y-53455667D01*
X118967716Y-53428427D01*
X119038113Y-53381033D01*
X119089319Y-53346559D01*
X119109115Y-53327675D01*
X119171944Y-53267738D01*
X119256135Y-53187424D01*
X119393754Y-53002458D01*
X119411460Y-52967634D01*
X119469874Y-52852740D01*
X119498240Y-52796949D01*
X119511968Y-52752740D01*
X119565024Y-52581871D01*
X119566607Y-52576773D01*
X119571090Y-52542949D01*
X119596198Y-52353511D01*
X119596198Y-52353506D01*
X119596898Y-52348226D01*
X119595943Y-52322773D01*
X119590526Y-52178498D01*
X119588249Y-52117842D01*
X119540907Y-51892209D01*
X119517175Y-51832115D01*
X119458185Y-51682744D01*
X119458184Y-51682742D01*
X119456224Y-51677779D01*
X119433094Y-51639661D01*
X119344002Y-51492844D01*
X119336623Y-51480683D01*
X119291553Y-51428744D01*
X119189023Y-51310588D01*
X119189021Y-51310586D01*
X119185523Y-51306555D01*
X119149880Y-51277330D01*
X119109886Y-51218671D01*
X119107954Y-51147701D01*
X119144698Y-51086952D01*
X119163468Y-51072752D01*
X119303120Y-50986332D01*
X119309348Y-50982478D01*
X119434305Y-50857303D01*
X119513714Y-50728478D01*
X119523275Y-50712968D01*
X119523276Y-50712966D01*
X119527115Y-50706738D01*
X119582797Y-50538861D01*
X119587076Y-50497103D01*
X119588038Y-50487713D01*
X119593500Y-50434400D01*
X119593500Y-49133600D01*
X119588323Y-49083700D01*
X119583238Y-49034692D01*
X119583237Y-49034688D01*
X119582526Y-49027834D01*
X119579591Y-49019035D01*
X119528868Y-48867002D01*
X119526550Y-48860054D01*
X119433478Y-48709652D01*
X119308303Y-48584695D01*
X119302072Y-48580854D01*
X119163968Y-48495725D01*
X119163966Y-48495724D01*
X119157738Y-48491885D01*
X119077995Y-48465436D01*
X118996389Y-48438368D01*
X118996387Y-48438368D01*
X118989861Y-48436203D01*
X118983025Y-48435503D01*
X118983022Y-48435502D01*
X118939969Y-48431091D01*
X118885400Y-48425500D01*
X117334600Y-48425500D01*
X117331354Y-48425837D01*
X117331350Y-48425837D01*
X117235692Y-48435762D01*
X117235688Y-48435763D01*
X117228834Y-48436474D01*
X117222298Y-48438655D01*
X117222296Y-48438655D01*
X117196852Y-48447144D01*
X117061054Y-48492450D01*
X116910652Y-48585522D01*
X116785695Y-48710697D01*
X116781855Y-48716927D01*
X116781854Y-48716928D01*
X116730968Y-48799481D01*
X116692885Y-48861262D01*
X116690581Y-48868209D01*
X116641701Y-49015579D01*
X116637203Y-49029139D01*
X116636503Y-49035975D01*
X116636502Y-49035978D01*
X116632781Y-49072296D01*
X116626500Y-49133600D01*
X116626500Y-50434400D01*
X116626837Y-50437646D01*
X116626837Y-50437650D01*
X116632032Y-50487713D01*
X116637474Y-50540166D01*
X116639655Y-50546702D01*
X116639655Y-50546704D01*
X116646575Y-50567445D01*
X116693450Y-50707946D01*
X116786522Y-50858348D01*
X116911697Y-50983305D01*
X117057340Y-51073081D01*
X117104832Y-51125852D01*
X117116256Y-51195924D01*
X117087982Y-51261048D01*
X117078195Y-51271510D01*
X117072093Y-51277331D01*
X116963865Y-51380576D01*
X116826246Y-51565542D01*
X116823830Y-51570293D01*
X116823828Y-51570297D01*
X116789300Y-51638209D01*
X116721760Y-51771051D01*
X116720178Y-51776145D01*
X116720177Y-51776148D01*
X116680258Y-51904709D01*
X116653393Y-51991227D01*
X116652692Y-51996516D01*
X116623899Y-52213762D01*
X116623102Y-52219774D01*
X116623302Y-52225103D01*
X116623302Y-52225105D01*
X116625635Y-52287242D01*
X116631751Y-52450158D01*
X116679093Y-52675791D01*
X116681051Y-52680750D01*
X116681052Y-52680752D01*
X116739503Y-52828757D01*
X116763776Y-52890221D01*
X116883377Y-53087317D01*
X116886874Y-53091347D01*
X117027846Y-53253803D01*
X117034477Y-53261445D01*
X117038608Y-53264832D01*
X117208627Y-53404240D01*
X117208633Y-53404244D01*
X117212755Y-53407624D01*
X117244250Y-53425552D01*
X117293555Y-53476632D01*
X117307417Y-53546262D01*
X117281434Y-53612333D01*
X117252284Y-53639573D01*
X117130681Y-53721441D01*
X116963865Y-53880576D01*
X116826246Y-54065542D01*
X116823830Y-54070293D01*
X116823828Y-54070297D01*
X116789300Y-54138209D01*
X116721760Y-54271051D01*
X116720178Y-54276145D01*
X116720177Y-54276148D01*
X116675937Y-54418623D01*
X116653393Y-54491227D01*
X116652692Y-54496516D01*
X116625788Y-54699511D01*
X116623102Y-54719774D01*
X116623302Y-54725103D01*
X116623302Y-54725105D01*
X116623689Y-54735413D01*
X116631751Y-54950158D01*
X116632846Y-54955377D01*
X116645455Y-55015470D01*
X116679093Y-55175791D01*
X116681051Y-55180750D01*
X116681052Y-55180752D01*
X116756975Y-55372999D01*
X116763776Y-55390221D01*
X116766543Y-55394780D01*
X116766544Y-55394783D01*
X116823805Y-55489146D01*
X116883377Y-55587317D01*
X116886874Y-55591347D01*
X117029984Y-55756267D01*
X117034477Y-55761445D01*
X117073940Y-55793803D01*
X117208627Y-55904240D01*
X117208633Y-55904244D01*
X117212755Y-55907624D01*
X117244250Y-55925552D01*
X117293555Y-55976632D01*
X117307417Y-56046262D01*
X117281434Y-56112333D01*
X117252284Y-56139573D01*
X117130681Y-56221441D01*
X117126824Y-56225120D01*
X117126822Y-56225122D01*
X117108703Y-56242407D01*
X116963865Y-56380576D01*
X116826246Y-56565542D01*
X116823830Y-56570293D01*
X116823828Y-56570297D01*
X116784026Y-56648583D01*
X116721760Y-56771051D01*
X116720178Y-56776145D01*
X116720177Y-56776148D01*
X116680748Y-56903131D01*
X116653393Y-56991227D01*
X116652692Y-56996516D01*
X116634178Y-57136207D01*
X116623102Y-57219774D01*
X112380578Y-57219774D01*
X103092752Y-47931947D01*
X103085212Y-47923661D01*
X103081100Y-47917182D01*
X103031448Y-47870556D01*
X103028607Y-47867802D01*
X103008870Y-47848065D01*
X103005673Y-47845585D01*
X102996651Y-47837880D01*
X102970200Y-47813041D01*
X102964421Y-47807614D01*
X102957475Y-47803795D01*
X102957472Y-47803793D01*
X102946666Y-47797852D01*
X102930147Y-47787001D01*
X102929683Y-47786641D01*
X102914141Y-47774586D01*
X102906872Y-47771441D01*
X102906868Y-47771438D01*
X102873563Y-47757026D01*
X102862913Y-47751809D01*
X102824160Y-47730505D01*
X102804537Y-47725467D01*
X102785834Y-47719063D01*
X102774520Y-47714167D01*
X102774519Y-47714167D01*
X102767245Y-47711019D01*
X102759422Y-47709780D01*
X102759412Y-47709777D01*
X102723576Y-47704101D01*
X102711956Y-47701695D01*
X102676811Y-47692672D01*
X102676810Y-47692672D01*
X102669130Y-47690700D01*
X102648876Y-47690700D01*
X102629165Y-47689149D01*
X102616986Y-47687220D01*
X102609157Y-47685980D01*
X102601265Y-47686726D01*
X102565139Y-47690141D01*
X102553281Y-47690700D01*
X92078655Y-47690700D01*
X92010534Y-47670698D01*
X91998535Y-47660712D01*
X91997972Y-47661393D01*
X91963907Y-47633212D01*
X91955127Y-47625222D01*
X91225152Y-46895247D01*
X91191126Y-46832935D01*
X91192540Y-46773541D01*
X91209543Y-46710087D01*
X91229498Y-46482000D01*
X91209543Y-46253913D01*
X91180095Y-46144011D01*
X91151707Y-46038067D01*
X91151706Y-46038065D01*
X91150284Y-46032757D01*
X91128201Y-45985400D01*
X91055849Y-45830238D01*
X91055846Y-45830233D01*
X91053523Y-45825251D01*
X90922198Y-45637700D01*
X90760300Y-45475802D01*
X90755792Y-45472645D01*
X90755789Y-45472643D01*
X90677611Y-45417902D01*
X90572749Y-45344477D01*
X90567767Y-45342154D01*
X90567762Y-45342151D01*
X90533543Y-45326195D01*
X90480258Y-45279278D01*
X90460797Y-45211001D01*
X90481339Y-45143041D01*
X90533543Y-45097805D01*
X90567762Y-45081849D01*
X90567767Y-45081846D01*
X90572749Y-45079523D01*
X90677611Y-45006098D01*
X90755789Y-44951357D01*
X90755792Y-44951355D01*
X90760300Y-44948198D01*
X90922198Y-44786300D01*
X90925741Y-44781241D01*
X91003073Y-44670799D01*
X91053523Y-44598749D01*
X91055846Y-44593767D01*
X91055849Y-44593762D01*
X91147961Y-44396225D01*
X91147961Y-44396224D01*
X91150284Y-44391243D01*
X91209543Y-44170087D01*
X91229498Y-43942000D01*
X91218886Y-43820703D01*
X121334743Y-43820703D01*
X121372268Y-44105734D01*
X121448129Y-44383036D01*
X121560923Y-44647476D01*
X121614788Y-44737477D01*
X121693321Y-44868696D01*
X121708561Y-44894161D01*
X121888313Y-45118528D01*
X122096851Y-45316423D01*
X122330317Y-45484186D01*
X122334112Y-45486195D01*
X122334113Y-45486196D01*
X122355869Y-45497715D01*
X122584392Y-45618712D01*
X122854373Y-45717511D01*
X123135264Y-45778755D01*
X123163841Y-45781004D01*
X123358282Y-45796307D01*
X123358291Y-45796307D01*
X123360739Y-45796500D01*
X123516271Y-45796500D01*
X123518407Y-45796354D01*
X123518418Y-45796354D01*
X123726548Y-45782165D01*
X123726554Y-45782164D01*
X123730825Y-45781873D01*
X123735020Y-45781004D01*
X123735022Y-45781004D01*
X123871583Y-45752724D01*
X124012342Y-45723574D01*
X124283343Y-45627607D01*
X124538812Y-45495750D01*
X124542313Y-45493289D01*
X124542317Y-45493287D01*
X124656418Y-45413095D01*
X124774023Y-45330441D01*
X124863046Y-45247716D01*
X124981479Y-45137661D01*
X124981481Y-45137658D01*
X124984622Y-45134740D01*
X125166713Y-44912268D01*
X125316927Y-44667142D01*
X125319834Y-44660521D01*
X125430757Y-44407830D01*
X125432483Y-44403898D01*
X125437601Y-44385933D01*
X125510068Y-44131534D01*
X125511244Y-44127406D01*
X125551751Y-43842784D01*
X125551845Y-43824951D01*
X125553235Y-43559583D01*
X125553235Y-43559576D01*
X125553257Y-43555297D01*
X125545024Y-43492757D01*
X125516292Y-43274522D01*
X125515732Y-43270266D01*
X125439871Y-42992964D01*
X125348496Y-42778739D01*
X125328763Y-42732476D01*
X125328761Y-42732472D01*
X125327077Y-42728524D01*
X125179439Y-42481839D01*
X124999687Y-42257472D01*
X124791149Y-42059577D01*
X124557683Y-41891814D01*
X124535843Y-41880250D01*
X124512654Y-41867972D01*
X124303608Y-41757288D01*
X124033627Y-41658489D01*
X123752736Y-41597245D01*
X123721685Y-41594801D01*
X123529718Y-41579693D01*
X123529709Y-41579693D01*
X123527261Y-41579500D01*
X123371729Y-41579500D01*
X123369593Y-41579646D01*
X123369582Y-41579646D01*
X123161452Y-41593835D01*
X123161446Y-41593836D01*
X123157175Y-41594127D01*
X123152980Y-41594996D01*
X123152978Y-41594996D01*
X123016416Y-41623277D01*
X122875658Y-41652426D01*
X122604657Y-41748393D01*
X122349188Y-41880250D01*
X122345687Y-41882711D01*
X122345683Y-41882713D01*
X122335594Y-41889804D01*
X122113977Y-42045559D01*
X121903378Y-42241260D01*
X121721287Y-42463732D01*
X121571073Y-42708858D01*
X121455517Y-42972102D01*
X121376756Y-43248594D01*
X121336249Y-43533216D01*
X121336227Y-43537505D01*
X121336226Y-43537512D01*
X121334765Y-43816417D01*
X121334743Y-43820703D01*
X91218886Y-43820703D01*
X91209543Y-43713913D01*
X91167042Y-43555297D01*
X91151707Y-43498067D01*
X91151706Y-43498065D01*
X91150284Y-43492757D01*
X91147961Y-43487775D01*
X91055849Y-43290238D01*
X91055846Y-43290233D01*
X91053523Y-43285251D01*
X90922198Y-43097700D01*
X90760300Y-42935802D01*
X90755792Y-42932645D01*
X90755789Y-42932643D01*
X90677611Y-42877902D01*
X90572749Y-42804477D01*
X90567767Y-42802154D01*
X90567762Y-42802151D01*
X90370225Y-42710039D01*
X90370224Y-42710039D01*
X90365243Y-42707716D01*
X90359935Y-42706294D01*
X90359933Y-42706293D01*
X90149402Y-42649881D01*
X90149400Y-42649881D01*
X90144087Y-42648457D01*
X89916000Y-42628502D01*
X89687913Y-42648457D01*
X89682600Y-42649881D01*
X89682598Y-42649881D01*
X89472067Y-42706293D01*
X89472065Y-42706294D01*
X89466757Y-42707716D01*
X89461776Y-42710039D01*
X89461775Y-42710039D01*
X89264238Y-42802151D01*
X89264233Y-42802154D01*
X89259251Y-42804477D01*
X89154389Y-42877902D01*
X89076211Y-42932643D01*
X89076208Y-42932645D01*
X89071700Y-42935802D01*
X88909802Y-43097700D01*
X88778477Y-43285251D01*
X88776154Y-43290233D01*
X88776151Y-43290238D01*
X88684039Y-43487775D01*
X88681716Y-43492757D01*
X88680294Y-43498065D01*
X88680293Y-43498067D01*
X88664958Y-43555297D01*
X88622457Y-43713913D01*
X88602502Y-43942000D01*
X88622457Y-44170087D01*
X88681716Y-44391243D01*
X88684039Y-44396224D01*
X88684039Y-44396225D01*
X88776151Y-44593762D01*
X88776154Y-44593767D01*
X88778477Y-44598749D01*
X88828927Y-44670799D01*
X88906260Y-44781241D01*
X88909802Y-44786300D01*
X89071700Y-44948198D01*
X89076208Y-44951355D01*
X89076211Y-44951357D01*
X89154389Y-45006098D01*
X89259251Y-45079523D01*
X89264233Y-45081846D01*
X89264238Y-45081849D01*
X89298457Y-45097805D01*
X89351742Y-45144722D01*
X89371203Y-45212999D01*
X89350661Y-45280959D01*
X89298457Y-45326195D01*
X89264238Y-45342151D01*
X89264233Y-45342154D01*
X89259251Y-45344477D01*
X89154389Y-45417902D01*
X89076211Y-45472643D01*
X89076208Y-45472645D01*
X89071700Y-45475802D01*
X88909802Y-45637700D01*
X88778477Y-45825251D01*
X88776154Y-45830233D01*
X88776151Y-45830238D01*
X88703799Y-45985400D01*
X88681716Y-46032757D01*
X88680294Y-46038065D01*
X88680293Y-46038067D01*
X88651905Y-46144011D01*
X88622457Y-46253913D01*
X88602502Y-46482000D01*
X88622457Y-46710087D01*
X88623880Y-46715398D01*
X88623881Y-46715402D01*
X88639460Y-46773541D01*
X88681716Y-46931243D01*
X88684039Y-46936224D01*
X88684039Y-46936225D01*
X88776151Y-47133762D01*
X88776154Y-47133767D01*
X88778477Y-47138749D01*
X88909802Y-47326300D01*
X89071700Y-47488198D01*
X89076208Y-47491355D01*
X89076211Y-47491357D01*
X89154389Y-47546098D01*
X89259251Y-47619523D01*
X89264233Y-47621846D01*
X89264238Y-47621849D01*
X89298457Y-47637805D01*
X89351742Y-47684722D01*
X89371203Y-47752999D01*
X89350661Y-47820959D01*
X89298457Y-47866195D01*
X89264238Y-47882151D01*
X89264233Y-47882154D01*
X89259251Y-47884477D01*
X89202080Y-47924509D01*
X89076211Y-48012643D01*
X89076208Y-48012645D01*
X89071700Y-48015802D01*
X88909802Y-48177700D01*
X88906645Y-48182208D01*
X88906643Y-48182211D01*
X88894704Y-48199262D01*
X88778477Y-48365251D01*
X88776154Y-48370233D01*
X88776151Y-48370238D01*
X88685584Y-48564461D01*
X88681716Y-48572757D01*
X88680294Y-48578065D01*
X88680293Y-48578067D01*
X88659253Y-48656588D01*
X88622457Y-48793913D01*
X88602502Y-49022000D01*
X88602981Y-49027475D01*
X88602981Y-49027486D01*
X88604026Y-49039430D01*
X88590038Y-49109035D01*
X88540639Y-49160027D01*
X88471513Y-49176218D01*
X88404607Y-49152466D01*
X88389411Y-49139507D01*
X86419134Y-47169229D01*
X84209552Y-44959647D01*
X84202012Y-44951361D01*
X84197900Y-44944882D01*
X84148248Y-44898256D01*
X84145407Y-44895502D01*
X84125670Y-44875765D01*
X84122473Y-44873285D01*
X84113451Y-44865580D01*
X84100016Y-44852964D01*
X84081221Y-44835314D01*
X84074275Y-44831495D01*
X84074272Y-44831493D01*
X84063466Y-44825552D01*
X84046947Y-44814701D01*
X84046483Y-44814341D01*
X84030941Y-44802286D01*
X84023672Y-44799141D01*
X84023668Y-44799138D01*
X83990363Y-44784726D01*
X83979713Y-44779509D01*
X83940960Y-44758205D01*
X83921337Y-44753167D01*
X83902634Y-44746763D01*
X83891320Y-44741867D01*
X83891319Y-44741867D01*
X83884045Y-44738719D01*
X83876222Y-44737480D01*
X83876212Y-44737477D01*
X83840376Y-44731801D01*
X83828756Y-44729395D01*
X83793611Y-44720372D01*
X83793610Y-44720372D01*
X83785930Y-44718400D01*
X83765676Y-44718400D01*
X83745965Y-44716849D01*
X83733786Y-44714920D01*
X83725957Y-44713680D01*
X83696686Y-44716447D01*
X83681939Y-44717841D01*
X83670081Y-44718400D01*
X76110500Y-44718400D01*
X76042379Y-44698398D01*
X75995886Y-44644742D01*
X75984500Y-44592400D01*
X75984500Y-43093866D01*
X75977745Y-43031684D01*
X75926615Y-42895295D01*
X75839261Y-42778739D01*
X75722705Y-42691385D01*
X75586316Y-42640255D01*
X75524134Y-42633500D01*
X73827866Y-42633500D01*
X73765684Y-42640255D01*
X73629295Y-42691385D01*
X73512739Y-42778739D01*
X73425385Y-42895295D01*
X73374255Y-43031684D01*
X73367500Y-43093866D01*
X73367500Y-44592400D01*
X73347498Y-44660521D01*
X73293842Y-44707014D01*
X73241500Y-44718400D01*
X49606567Y-44718400D01*
X49595384Y-44717873D01*
X49587891Y-44716198D01*
X49579965Y-44716447D01*
X49579964Y-44716447D01*
X49519814Y-44718338D01*
X49515855Y-44718400D01*
X49487944Y-44718400D01*
X49484010Y-44718897D01*
X49484009Y-44718897D01*
X49483944Y-44718905D01*
X49472107Y-44719838D01*
X49440290Y-44720838D01*
X49435829Y-44720978D01*
X49427910Y-44721227D01*
X49410254Y-44726356D01*
X49408458Y-44726878D01*
X49389106Y-44730886D01*
X49382035Y-44731780D01*
X49369003Y-44733426D01*
X49361634Y-44736343D01*
X49361632Y-44736344D01*
X49327897Y-44749700D01*
X49316669Y-44753545D01*
X49274207Y-44765882D01*
X49267385Y-44769916D01*
X49267379Y-44769919D01*
X49256768Y-44776194D01*
X49239018Y-44784890D01*
X49227556Y-44789428D01*
X49227551Y-44789431D01*
X49220183Y-44792348D01*
X49202770Y-44804999D01*
X49184425Y-44818327D01*
X49174507Y-44824843D01*
X49163263Y-44831493D01*
X49136437Y-44847358D01*
X49122113Y-44861682D01*
X49107081Y-44874521D01*
X49090693Y-44886428D01*
X49062512Y-44920493D01*
X49054522Y-44929273D01*
X46072747Y-47911048D01*
X46064461Y-47918588D01*
X46057982Y-47922700D01*
X46052557Y-47928477D01*
X46011357Y-47972351D01*
X46008602Y-47975193D01*
X45988865Y-47994930D01*
X45986385Y-47998127D01*
X45978682Y-48007147D01*
X45948414Y-48039379D01*
X45944595Y-48046325D01*
X45944593Y-48046328D01*
X45938652Y-48057134D01*
X45927801Y-48073653D01*
X45915386Y-48089659D01*
X45912241Y-48096928D01*
X45912238Y-48096932D01*
X45897826Y-48130237D01*
X45892609Y-48140887D01*
X45871305Y-48179640D01*
X45869334Y-48187315D01*
X45869334Y-48187316D01*
X45866267Y-48199262D01*
X45859863Y-48217966D01*
X45851819Y-48236555D01*
X45850579Y-48244386D01*
X45850578Y-48244388D01*
X45848248Y-48259093D01*
X45817834Y-48323245D01*
X45775551Y-48354261D01*
X45676925Y-48398688D01*
X45485681Y-48527441D01*
X45481824Y-48531120D01*
X45481822Y-48531122D01*
X45424797Y-48585522D01*
X45318865Y-48686576D01*
X45181246Y-48871542D01*
X45076760Y-49077051D01*
X45075178Y-49082145D01*
X45075177Y-49082148D01*
X45028259Y-49233248D01*
X45008393Y-49297227D01*
X45007692Y-49302516D01*
X44985604Y-49469173D01*
X44978102Y-49525774D01*
X44986751Y-49756158D01*
X45034093Y-49981791D01*
X45036051Y-49986750D01*
X45036052Y-49986752D01*
X45102865Y-50155931D01*
X45118776Y-50196221D01*
X45121543Y-50200780D01*
X45121544Y-50200783D01*
X45145817Y-50240783D01*
X45238377Y-50393317D01*
X45241874Y-50397347D01*
X45379374Y-50555802D01*
X45389477Y-50567445D01*
X45393608Y-50570832D01*
X45563627Y-50710240D01*
X45563633Y-50710244D01*
X45567755Y-50713624D01*
X45599250Y-50731552D01*
X45648555Y-50782632D01*
X45662417Y-50852262D01*
X45636434Y-50918333D01*
X45607284Y-50945573D01*
X45485681Y-51027441D01*
X45318865Y-51186576D01*
X45181246Y-51371542D01*
X45178830Y-51376293D01*
X45178828Y-51376297D01*
X45166644Y-51400262D01*
X45076760Y-51577051D01*
X45075178Y-51582145D01*
X45075177Y-51582148D01*
X45017997Y-51766296D01*
X45008393Y-51797227D01*
X45007692Y-51802516D01*
X44978967Y-52019249D01*
X44978102Y-52025774D01*
X44978302Y-52031103D01*
X44978302Y-52031105D01*
X44981821Y-52124842D01*
X44986751Y-52256158D01*
X44987846Y-52261377D01*
X45007163Y-52353441D01*
X45034093Y-52481791D01*
X45036051Y-52486750D01*
X45036052Y-52486752D01*
X45109243Y-52672081D01*
X45118776Y-52696221D01*
X45121543Y-52700780D01*
X45121544Y-52700783D01*
X45208270Y-52843703D01*
X45238377Y-52893317D01*
X45241874Y-52897347D01*
X45363148Y-53037103D01*
X45389477Y-53067445D01*
X45418628Y-53091347D01*
X45563627Y-53210240D01*
X45563633Y-53210244D01*
X45567755Y-53213624D01*
X45599250Y-53231552D01*
X45648555Y-53282632D01*
X45662417Y-53352262D01*
X45636434Y-53418333D01*
X45607284Y-53445573D01*
X45600355Y-53450238D01*
X45485681Y-53527441D01*
X45481824Y-53531120D01*
X45481822Y-53531122D01*
X45418668Y-53591368D01*
X45318865Y-53686576D01*
X45181246Y-53871542D01*
X45178830Y-53876293D01*
X45178828Y-53876297D01*
X45131396Y-53969590D01*
X45076760Y-54077051D01*
X45075178Y-54082145D01*
X45075177Y-54082148D01*
X45028607Y-54232129D01*
X45008393Y-54297227D01*
X45007692Y-54302516D01*
X44981980Y-54496516D01*
X44978102Y-54525774D01*
X44978302Y-54531103D01*
X44978302Y-54531105D01*
X44982426Y-54640966D01*
X44986751Y-54756158D01*
X44987846Y-54761377D01*
X45000728Y-54822773D01*
X45034093Y-54981791D01*
X45036051Y-54986750D01*
X45036052Y-54986752D01*
X45111676Y-55178242D01*
X45118776Y-55196221D01*
X45121543Y-55200780D01*
X45121544Y-55200783D01*
X45207221Y-55341973D01*
X45238377Y-55393317D01*
X45241874Y-55397347D01*
X45363305Y-55537284D01*
X45389477Y-55567445D01*
X45425120Y-55596670D01*
X45465114Y-55655329D01*
X45467046Y-55726299D01*
X45430302Y-55787048D01*
X45411532Y-55801248D01*
X45409976Y-55802211D01*
X45265652Y-55891522D01*
X45140695Y-56016697D01*
X45136855Y-56022927D01*
X45136854Y-56022928D01*
X45052130Y-56160376D01*
X45047885Y-56167262D01*
X45026566Y-56231538D01*
X44998365Y-56316562D01*
X44992203Y-56335139D01*
X44991503Y-56341975D01*
X44991502Y-56341978D01*
X44987548Y-56380576D01*
X44981500Y-56439600D01*
X44981500Y-57740400D01*
X44981837Y-57743646D01*
X44981837Y-57743650D01*
X44991566Y-57837414D01*
X44992474Y-57846166D01*
X45048450Y-58013946D01*
X45141522Y-58164348D01*
X45146704Y-58169521D01*
X45151654Y-58174462D01*
X45266697Y-58289305D01*
X45272927Y-58293145D01*
X45272928Y-58293146D01*
X45410090Y-58377694D01*
X45417262Y-58382115D01*
X45447758Y-58392230D01*
X45578611Y-58435632D01*
X45578613Y-58435632D01*
X45585139Y-58437797D01*
X45591975Y-58438497D01*
X45591978Y-58438498D01*
X45635031Y-58442909D01*
X45689600Y-58448500D01*
X47240400Y-58448500D01*
X47243646Y-58448163D01*
X47243650Y-58448163D01*
X47339308Y-58438238D01*
X47339312Y-58438237D01*
X47346166Y-58437526D01*
X47352702Y-58435345D01*
X47352704Y-58435345D01*
X47493165Y-58388483D01*
X47513946Y-58381550D01*
X47664348Y-58288478D01*
X47789305Y-58163303D01*
X47793899Y-58155850D01*
X47878275Y-58018968D01*
X47878276Y-58018966D01*
X47882115Y-58012738D01*
X47927375Y-57876284D01*
X47935632Y-57851389D01*
X47935632Y-57851387D01*
X47937797Y-57844861D01*
X47948500Y-57740400D01*
X47948500Y-56439600D01*
X47946408Y-56419439D01*
X47938238Y-56340692D01*
X47938237Y-56340688D01*
X47937526Y-56333834D01*
X47929771Y-56310588D01*
X47883868Y-56173002D01*
X47881550Y-56166054D01*
X47788478Y-56015652D01*
X47663303Y-55890695D01*
X47517660Y-55800919D01*
X47470168Y-55748148D01*
X47458744Y-55678076D01*
X47487018Y-55612952D01*
X47496805Y-55602490D01*
X47569204Y-55533424D01*
X47611135Y-55493424D01*
X47748754Y-55308458D01*
X47751509Y-55303041D01*
X47834004Y-55140783D01*
X47853240Y-55102949D01*
X47859331Y-55083335D01*
X47920024Y-54887871D01*
X47921607Y-54882773D01*
X47931115Y-54811037D01*
X47951198Y-54659511D01*
X47951198Y-54659506D01*
X47951898Y-54654226D01*
X47949646Y-54594226D01*
X47943449Y-54429173D01*
X47943249Y-54423842D01*
X47895907Y-54198209D01*
X47872695Y-54139432D01*
X47866277Y-54068727D01*
X47899104Y-54005775D01*
X47934265Y-53982195D01*
X47933601Y-53980987D01*
X47940540Y-53977173D01*
X47947917Y-53974252D01*
X47983687Y-53948264D01*
X47993607Y-53941748D01*
X48024835Y-53923280D01*
X48024838Y-53923278D01*
X48031662Y-53919242D01*
X48045983Y-53904921D01*
X48061017Y-53892080D01*
X48077407Y-53880172D01*
X48105598Y-53846095D01*
X48113588Y-53837316D01*
X54798499Y-47152405D01*
X54860811Y-47118379D01*
X54887594Y-47115500D01*
X73456606Y-47115500D01*
X73524727Y-47135502D01*
X73559819Y-47169229D01*
X73669802Y-47326300D01*
X73831700Y-47488198D01*
X73836208Y-47491355D01*
X73836211Y-47491357D01*
X73914389Y-47546098D01*
X74019251Y-47619523D01*
X74024233Y-47621846D01*
X74024238Y-47621849D01*
X74059049Y-47638081D01*
X74112334Y-47684998D01*
X74131795Y-47753275D01*
X74111253Y-47821235D01*
X74059049Y-47866471D01*
X74024489Y-47882586D01*
X74014994Y-47888069D01*
X73962952Y-47924509D01*
X73954576Y-47934988D01*
X73961644Y-47948434D01*
X74663188Y-48649978D01*
X74677132Y-48657592D01*
X74678965Y-48657461D01*
X74685580Y-48653210D01*
X75391077Y-47947713D01*
X75397507Y-47935938D01*
X75388211Y-47923923D01*
X75337006Y-47888069D01*
X75327511Y-47882586D01*
X75292951Y-47866471D01*
X75239666Y-47819554D01*
X75220205Y-47751277D01*
X75240747Y-47683317D01*
X75292951Y-47638081D01*
X75327762Y-47621849D01*
X75327767Y-47621846D01*
X75332749Y-47619523D01*
X75437611Y-47546098D01*
X75515789Y-47491357D01*
X75515792Y-47491355D01*
X75520300Y-47488198D01*
X75682198Y-47326300D01*
X75813523Y-47138749D01*
X75815846Y-47133767D01*
X75815849Y-47133762D01*
X75907961Y-46936225D01*
X75907961Y-46936224D01*
X75910284Y-46931243D01*
X75952541Y-46773541D01*
X75968119Y-46715402D01*
X75968120Y-46715398D01*
X75969543Y-46710087D01*
X75989498Y-46482000D01*
X75969543Y-46253913D01*
X75940095Y-46144011D01*
X75941785Y-46073035D01*
X75981579Y-46014239D01*
X76046844Y-45986291D01*
X76061802Y-45985400D01*
X83391306Y-45985400D01*
X83459427Y-46005402D01*
X83480401Y-46022305D01*
X88606848Y-51148752D01*
X88640874Y-51211064D01*
X88639459Y-51270459D01*
X88623882Y-51328591D01*
X88623880Y-51328602D01*
X88622457Y-51333913D01*
X88602502Y-51562000D01*
X88622457Y-51790087D01*
X88623881Y-51795400D01*
X88623881Y-51795402D01*
X88674987Y-51986129D01*
X88681716Y-52011243D01*
X88684039Y-52016224D01*
X88684039Y-52016225D01*
X88776151Y-52213762D01*
X88776154Y-52213767D01*
X88778477Y-52218749D01*
X88831729Y-52294801D01*
X88872790Y-52353441D01*
X88909802Y-52406300D01*
X89071700Y-52568198D01*
X89076208Y-52571355D01*
X89076211Y-52571357D01*
X89083946Y-52576773D01*
X89259251Y-52699523D01*
X89264233Y-52701846D01*
X89264238Y-52701849D01*
X89298457Y-52717805D01*
X89351742Y-52764722D01*
X89371203Y-52832999D01*
X89350661Y-52900959D01*
X89298457Y-52946195D01*
X89264238Y-52962151D01*
X89264233Y-52962154D01*
X89259251Y-52964477D01*
X89166894Y-53029146D01*
X89076211Y-53092643D01*
X89076208Y-53092645D01*
X89071700Y-53095802D01*
X88909802Y-53257700D01*
X88906645Y-53262208D01*
X88906643Y-53262211D01*
X88872755Y-53310608D01*
X88778477Y-53445251D01*
X88776154Y-53450233D01*
X88776151Y-53450238D01*
X88700566Y-53612333D01*
X88681716Y-53652757D01*
X88680294Y-53658065D01*
X88680293Y-53658067D01*
X88640317Y-53807260D01*
X88622457Y-53873913D01*
X88602502Y-54102000D01*
X88622457Y-54330087D01*
X88623881Y-54335400D01*
X88623881Y-54335402D01*
X88674892Y-54525774D01*
X88681716Y-54551243D01*
X88684039Y-54556224D01*
X88684039Y-54556225D01*
X88776151Y-54753762D01*
X88776154Y-54753767D01*
X88778477Y-54758749D01*
X88823307Y-54822773D01*
X88892641Y-54921791D01*
X88909802Y-54946300D01*
X89071700Y-55108198D01*
X89076208Y-55111355D01*
X89076211Y-55111357D01*
X89087785Y-55119461D01*
X89259251Y-55239523D01*
X89264233Y-55241846D01*
X89264238Y-55241849D01*
X89298457Y-55257805D01*
X89351742Y-55304722D01*
X89371203Y-55372999D01*
X89350661Y-55440959D01*
X89298457Y-55486195D01*
X89264238Y-55502151D01*
X89264233Y-55502154D01*
X89259251Y-55504477D01*
X89217911Y-55533424D01*
X89076211Y-55632643D01*
X89076208Y-55632645D01*
X89071700Y-55635802D01*
X88909802Y-55797700D01*
X88906645Y-55802208D01*
X88906643Y-55802211D01*
X88878168Y-55842878D01*
X88778477Y-55985251D01*
X88776154Y-55990233D01*
X88776151Y-55990238D01*
X88696269Y-56161548D01*
X88681716Y-56192757D01*
X88680294Y-56198065D01*
X88680293Y-56198067D01*
X88641732Y-56341978D01*
X88622457Y-56413913D01*
X88602502Y-56642000D01*
X88602981Y-56647475D01*
X88602981Y-56647486D01*
X88604026Y-56659430D01*
X88590038Y-56729035D01*
X88540639Y-56780027D01*
X88471513Y-56796218D01*
X88404607Y-56772466D01*
X88389411Y-56759507D01*
X86365318Y-54735413D01*
X84069652Y-52439747D01*
X84062112Y-52431461D01*
X84058000Y-52424982D01*
X84042256Y-52410197D01*
X84008349Y-52378357D01*
X84005507Y-52375602D01*
X83985770Y-52355865D01*
X83982573Y-52353385D01*
X83973551Y-52345680D01*
X83954586Y-52327871D01*
X83941321Y-52315414D01*
X83934375Y-52311595D01*
X83934372Y-52311593D01*
X83923566Y-52305652D01*
X83907047Y-52294801D01*
X83906583Y-52294441D01*
X83891041Y-52282386D01*
X83883772Y-52279241D01*
X83883768Y-52279238D01*
X83850463Y-52264826D01*
X83839813Y-52259609D01*
X83801060Y-52238305D01*
X83781437Y-52233267D01*
X83762734Y-52226863D01*
X83751420Y-52221967D01*
X83751419Y-52221967D01*
X83744145Y-52218819D01*
X83736322Y-52217580D01*
X83736312Y-52217577D01*
X83700476Y-52211901D01*
X83688856Y-52209495D01*
X83653711Y-52200472D01*
X83653710Y-52200472D01*
X83646030Y-52198500D01*
X83625776Y-52198500D01*
X83606065Y-52196949D01*
X83593886Y-52195020D01*
X83586057Y-52193780D01*
X83578165Y-52194526D01*
X83542039Y-52197941D01*
X83530181Y-52198500D01*
X76020194Y-52198500D01*
X75952073Y-52178498D01*
X75905580Y-52124842D01*
X75895476Y-52054568D01*
X75906000Y-52019249D01*
X75907488Y-52016058D01*
X75911236Y-52005761D01*
X75967625Y-51795312D01*
X75969528Y-51784519D01*
X75988517Y-51567475D01*
X75988517Y-51556525D01*
X75969528Y-51339481D01*
X75967625Y-51328688D01*
X75911236Y-51118239D01*
X75907490Y-51107947D01*
X75815414Y-50910489D01*
X75809931Y-50900994D01*
X75773491Y-50848952D01*
X75763012Y-50840576D01*
X75749566Y-50847644D01*
X74765095Y-51832115D01*
X74702783Y-51866141D01*
X74631968Y-51861076D01*
X74586905Y-51832115D01*
X73601713Y-50846923D01*
X73589938Y-50840493D01*
X73577923Y-50849789D01*
X73542069Y-50900994D01*
X73536586Y-50910489D01*
X73444510Y-51107947D01*
X73440764Y-51118239D01*
X73384375Y-51328688D01*
X73382472Y-51339481D01*
X73363483Y-51556525D01*
X73363483Y-51567475D01*
X73382472Y-51784519D01*
X73384375Y-51795312D01*
X73440764Y-52005761D01*
X73444512Y-52016058D01*
X73446000Y-52019249D01*
X73446234Y-52020789D01*
X73446393Y-52021226D01*
X73446305Y-52021258D01*
X73456662Y-52089441D01*
X73427683Y-52154254D01*
X73368263Y-52193110D01*
X73331806Y-52198500D01*
X66428994Y-52198500D01*
X66360873Y-52178498D01*
X66339899Y-52161595D01*
X64751091Y-50572786D01*
X64717065Y-50510474D01*
X64722130Y-50439658D01*
X64739094Y-50408483D01*
X64783754Y-50348458D01*
X64812770Y-50291389D01*
X64843342Y-50231256D01*
X64888240Y-50142949D01*
X64896113Y-50117596D01*
X64899073Y-50108062D01*
X73954493Y-50108062D01*
X73963789Y-50120077D01*
X74014994Y-50155931D01*
X74024489Y-50161414D01*
X74059641Y-50177805D01*
X74112926Y-50224722D01*
X74132387Y-50292999D01*
X74111845Y-50360959D01*
X74059641Y-50406195D01*
X74024489Y-50422586D01*
X74014994Y-50428069D01*
X73962952Y-50464509D01*
X73954576Y-50474988D01*
X73961644Y-50488434D01*
X74663188Y-51189978D01*
X74677132Y-51197592D01*
X74678965Y-51197461D01*
X74685580Y-51193210D01*
X75391077Y-50487713D01*
X75397507Y-50475938D01*
X75388211Y-50463923D01*
X75337006Y-50428069D01*
X75327511Y-50422586D01*
X75292359Y-50406195D01*
X75239074Y-50359278D01*
X75219613Y-50291001D01*
X75240155Y-50223041D01*
X75292359Y-50177805D01*
X75327511Y-50161414D01*
X75337006Y-50155931D01*
X75389048Y-50119491D01*
X75397424Y-50109012D01*
X75390356Y-50095566D01*
X74688812Y-49394022D01*
X74674868Y-49386408D01*
X74673035Y-49386539D01*
X74666420Y-49390790D01*
X73960923Y-50096287D01*
X73954493Y-50108062D01*
X64899073Y-50108062D01*
X64955024Y-49927871D01*
X64956607Y-49922773D01*
X64961233Y-49887871D01*
X64986198Y-49699511D01*
X64986198Y-49699506D01*
X64986898Y-49694226D01*
X64978249Y-49463842D01*
X64930907Y-49238209D01*
X64913151Y-49193248D01*
X64848185Y-49028744D01*
X64848184Y-49028742D01*
X64847684Y-49027475D01*
X73363483Y-49027475D01*
X73382472Y-49244519D01*
X73384375Y-49255312D01*
X73440764Y-49465761D01*
X73444510Y-49476053D01*
X73536586Y-49673511D01*
X73542069Y-49683006D01*
X73578509Y-49735048D01*
X73588988Y-49743424D01*
X73602434Y-49736356D01*
X74303978Y-49034812D01*
X74310356Y-49023132D01*
X75040408Y-49023132D01*
X75040539Y-49024965D01*
X75044790Y-49031580D01*
X75750287Y-49737077D01*
X75762062Y-49743507D01*
X75774077Y-49734211D01*
X75809931Y-49683006D01*
X75815414Y-49673511D01*
X75907490Y-49476053D01*
X75911236Y-49465761D01*
X75967625Y-49255312D01*
X75969528Y-49244519D01*
X75988517Y-49027475D01*
X75988517Y-49016525D01*
X75969528Y-48799481D01*
X75967625Y-48788688D01*
X75911236Y-48578239D01*
X75907490Y-48567947D01*
X75815414Y-48370489D01*
X75809931Y-48360994D01*
X75773491Y-48308952D01*
X75763012Y-48300576D01*
X75749566Y-48307644D01*
X75048022Y-49009188D01*
X75040408Y-49023132D01*
X74310356Y-49023132D01*
X74311592Y-49020868D01*
X74311461Y-49019035D01*
X74307210Y-49012420D01*
X73601713Y-48306923D01*
X73589938Y-48300493D01*
X73577923Y-48309789D01*
X73542069Y-48360994D01*
X73536586Y-48370489D01*
X73444510Y-48567947D01*
X73440764Y-48578239D01*
X73384375Y-48788688D01*
X73382472Y-48799481D01*
X73363483Y-49016525D01*
X73363483Y-49027475D01*
X64847684Y-49027475D01*
X64846224Y-49023779D01*
X64843346Y-49019035D01*
X64729390Y-48831243D01*
X64726623Y-48826683D01*
X64639755Y-48726576D01*
X64579023Y-48656588D01*
X64579021Y-48656586D01*
X64575523Y-48652555D01*
X64522615Y-48609173D01*
X64401373Y-48509760D01*
X64401367Y-48509756D01*
X64397245Y-48506376D01*
X64392609Y-48503737D01*
X64392606Y-48503735D01*
X64201529Y-48394968D01*
X64196886Y-48392325D01*
X63980175Y-48313663D01*
X63974926Y-48312714D01*
X63974923Y-48312713D01*
X63757392Y-48273377D01*
X63757385Y-48273376D01*
X63753308Y-48272639D01*
X63735586Y-48271803D01*
X63730644Y-48271570D01*
X63730637Y-48271570D01*
X63729156Y-48271500D01*
X63317110Y-48271500D01*
X63250191Y-48277178D01*
X63150591Y-48285629D01*
X63150587Y-48285630D01*
X63145280Y-48286080D01*
X63140125Y-48287418D01*
X63140119Y-48287419D01*
X62927297Y-48342657D01*
X62927293Y-48342658D01*
X62922128Y-48343999D01*
X62917262Y-48346191D01*
X62917259Y-48346192D01*
X62808980Y-48394968D01*
X62711925Y-48438688D01*
X62520681Y-48567441D01*
X62516824Y-48571120D01*
X62516822Y-48571122D01*
X62496295Y-48590704D01*
X62353865Y-48726576D01*
X62216246Y-48911542D01*
X62213830Y-48916293D01*
X62213828Y-48916297D01*
X62166600Y-49009188D01*
X62111760Y-49117051D01*
X62110178Y-49122145D01*
X62110177Y-49122148D01*
X62072180Y-49244519D01*
X62043393Y-49337227D01*
X62042692Y-49342516D01*
X62027304Y-49458623D01*
X62013102Y-49565774D01*
X62013302Y-49571103D01*
X62013302Y-49571105D01*
X62016423Y-49654226D01*
X62021751Y-49796158D01*
X62069093Y-50021791D01*
X62071051Y-50026750D01*
X62071052Y-50026752D01*
X62130461Y-50177183D01*
X62153776Y-50236221D01*
X62156543Y-50240780D01*
X62156544Y-50240783D01*
X62200209Y-50312740D01*
X62273377Y-50433317D01*
X62276874Y-50437347D01*
X62284014Y-50445575D01*
X62313554Y-50510134D01*
X62303500Y-50580415D01*
X62277944Y-50617251D01*
X61783147Y-51112048D01*
X61774861Y-51119588D01*
X61768382Y-51123700D01*
X61762957Y-51129477D01*
X61721757Y-51173351D01*
X61719002Y-51176193D01*
X61699265Y-51195930D01*
X61696785Y-51199127D01*
X61689082Y-51208147D01*
X61658814Y-51240379D01*
X61654995Y-51247325D01*
X61654993Y-51247328D01*
X61649052Y-51258134D01*
X61638201Y-51274653D01*
X61625786Y-51290659D01*
X61622641Y-51297928D01*
X61622638Y-51297932D01*
X61608226Y-51331237D01*
X61603009Y-51341887D01*
X61581705Y-51380640D01*
X61579734Y-51388315D01*
X61579734Y-51388316D01*
X61576667Y-51400262D01*
X61570263Y-51418966D01*
X61562219Y-51437555D01*
X61560980Y-51445378D01*
X61560977Y-51445388D01*
X61555301Y-51481224D01*
X61552895Y-51492844D01*
X61541900Y-51535670D01*
X61541900Y-51555924D01*
X61540349Y-51575634D01*
X61537180Y-51595643D01*
X61537926Y-51603535D01*
X61541341Y-51639661D01*
X61541900Y-51651519D01*
X61541900Y-53143906D01*
X61521898Y-53212027D01*
X61504995Y-53233001D01*
X48001410Y-66736585D01*
X47939098Y-66770611D01*
X47868283Y-66765546D01*
X47811447Y-66722999D01*
X47804596Y-66712856D01*
X47694390Y-66531243D01*
X47691623Y-66526683D01*
X47663373Y-66494128D01*
X47544023Y-66356588D01*
X47544021Y-66356586D01*
X47540523Y-66352555D01*
X47482243Y-66304768D01*
X47366373Y-66209760D01*
X47366367Y-66209756D01*
X47362245Y-66206376D01*
X47330750Y-66188448D01*
X47281445Y-66137368D01*
X47267583Y-66067738D01*
X47293566Y-66001667D01*
X47322716Y-65974427D01*
X47351536Y-65955024D01*
X47444319Y-65892559D01*
X47457704Y-65879791D01*
X47554646Y-65787312D01*
X47611135Y-65733424D01*
X47748754Y-65548458D01*
X47853240Y-65342949D01*
X47863751Y-65309100D01*
X47920024Y-65127871D01*
X47921607Y-65122773D01*
X47927953Y-65074893D01*
X47951198Y-64899511D01*
X47951198Y-64899506D01*
X47951898Y-64894226D01*
X47943249Y-64663842D01*
X47895907Y-64438209D01*
X47845413Y-64310350D01*
X47813185Y-64228744D01*
X47813184Y-64228742D01*
X47811224Y-64223779D01*
X47806491Y-64215978D01*
X47694390Y-64031243D01*
X47691623Y-64026683D01*
X47604755Y-63926576D01*
X47544023Y-63856588D01*
X47544021Y-63856586D01*
X47540523Y-63852555D01*
X47454852Y-63782309D01*
X47366373Y-63709760D01*
X47366367Y-63709756D01*
X47362245Y-63706376D01*
X47357609Y-63703737D01*
X47357606Y-63703735D01*
X47166529Y-63594968D01*
X47161886Y-63592325D01*
X46945175Y-63513663D01*
X46939926Y-63512714D01*
X46939923Y-63512713D01*
X46722392Y-63473377D01*
X46722385Y-63473376D01*
X46718308Y-63472639D01*
X46700586Y-63471803D01*
X46695644Y-63471570D01*
X46695637Y-63471570D01*
X46694156Y-63471500D01*
X46282110Y-63471500D01*
X46215191Y-63477178D01*
X46115591Y-63485629D01*
X46115587Y-63485630D01*
X46110280Y-63486080D01*
X46105125Y-63487418D01*
X46105119Y-63487419D01*
X45892297Y-63542657D01*
X45892293Y-63542658D01*
X45887128Y-63543999D01*
X45882262Y-63546191D01*
X45882259Y-63546192D01*
X45773980Y-63594968D01*
X45676925Y-63638688D01*
X45485681Y-63767441D01*
X45318865Y-63926576D01*
X45181246Y-64111542D01*
X45076760Y-64317051D01*
X45075178Y-64322145D01*
X45075177Y-64322148D01*
X45024732Y-64484607D01*
X45008393Y-64537227D01*
X45007692Y-64542516D01*
X44980676Y-64746356D01*
X44978102Y-64765774D01*
X44986751Y-64996158D01*
X45034093Y-65221791D01*
X45036051Y-65226750D01*
X45036052Y-65226752D01*
X45110660Y-65415669D01*
X45118776Y-65436221D01*
X45238377Y-65633317D01*
X45241874Y-65637347D01*
X45382853Y-65799811D01*
X45389477Y-65807445D01*
X45393608Y-65810832D01*
X45563627Y-65950240D01*
X45563633Y-65950244D01*
X45567755Y-65953624D01*
X45599250Y-65971552D01*
X45648555Y-66022632D01*
X45662417Y-66092262D01*
X45636434Y-66158333D01*
X45607284Y-66185573D01*
X45485681Y-66267441D01*
X45481824Y-66271120D01*
X45481822Y-66271122D01*
X45436043Y-66314793D01*
X45318865Y-66426576D01*
X45315682Y-66430854D01*
X45297755Y-66454949D01*
X45181246Y-66611542D01*
X45178830Y-66616293D01*
X45178828Y-66616297D01*
X45129735Y-66712856D01*
X45076760Y-66817051D01*
X45075178Y-66822145D01*
X45075177Y-66822148D01*
X45033569Y-66956148D01*
X45008393Y-67037227D01*
X45007692Y-67042516D01*
X44979368Y-67256225D01*
X44978102Y-67265774D01*
X44986751Y-67496158D01*
X45034093Y-67721791D01*
X45036051Y-67726750D01*
X45036052Y-67726752D01*
X45109031Y-67911544D01*
X45118776Y-67936221D01*
X45121543Y-67940780D01*
X45121544Y-67940783D01*
X45164451Y-68011491D01*
X45238377Y-68133317D01*
X45389477Y-68307445D01*
X45393608Y-68310832D01*
X45563627Y-68450240D01*
X45563633Y-68450244D01*
X45567755Y-68453624D01*
X45599250Y-68471552D01*
X45648555Y-68522632D01*
X45662417Y-68592262D01*
X45636434Y-68658333D01*
X45607284Y-68685573D01*
X45485681Y-68767441D01*
X45481824Y-68771120D01*
X45481822Y-68771122D01*
X45431033Y-68819573D01*
X45318865Y-68926576D01*
X45315682Y-68930854D01*
X45303951Y-68946621D01*
X45181246Y-69111542D01*
X45178830Y-69116293D01*
X45178828Y-69116297D01*
X45153943Y-69165243D01*
X45076760Y-69317051D01*
X45075178Y-69322145D01*
X45075177Y-69322148D01*
X45021127Y-69496217D01*
X45008393Y-69537227D01*
X45007692Y-69542516D01*
X44981866Y-69737378D01*
X44978102Y-69765774D01*
X37338500Y-69765774D01*
X37338500Y-43820703D01*
X38530743Y-43820703D01*
X38568268Y-44105734D01*
X38644129Y-44383036D01*
X38756923Y-44647476D01*
X38810788Y-44737477D01*
X38889321Y-44868696D01*
X38904561Y-44894161D01*
X39084313Y-45118528D01*
X39292851Y-45316423D01*
X39526317Y-45484186D01*
X39530112Y-45486195D01*
X39530113Y-45486196D01*
X39551869Y-45497715D01*
X39780392Y-45618712D01*
X40050373Y-45717511D01*
X40331264Y-45778755D01*
X40359841Y-45781004D01*
X40554282Y-45796307D01*
X40554291Y-45796307D01*
X40556739Y-45796500D01*
X40712271Y-45796500D01*
X40714407Y-45796354D01*
X40714418Y-45796354D01*
X40922548Y-45782165D01*
X40922554Y-45782164D01*
X40926825Y-45781873D01*
X40931020Y-45781004D01*
X40931022Y-45781004D01*
X41067584Y-45752723D01*
X41208342Y-45723574D01*
X41479343Y-45627607D01*
X41734812Y-45495750D01*
X41738313Y-45493289D01*
X41738317Y-45493287D01*
X41852417Y-45413096D01*
X41970023Y-45330441D01*
X42059046Y-45247716D01*
X42177479Y-45137661D01*
X42177481Y-45137658D01*
X42180622Y-45134740D01*
X42362713Y-44912268D01*
X42512927Y-44667142D01*
X42515834Y-44660521D01*
X42626757Y-44407830D01*
X42628483Y-44403898D01*
X42633601Y-44385933D01*
X42706068Y-44131534D01*
X42707244Y-44127406D01*
X42747751Y-43842784D01*
X42747845Y-43824951D01*
X42749235Y-43559583D01*
X42749235Y-43559576D01*
X42749257Y-43555297D01*
X42741024Y-43492757D01*
X42712292Y-43274522D01*
X42711732Y-43270266D01*
X42635871Y-42992964D01*
X42544496Y-42778739D01*
X42524763Y-42732476D01*
X42524761Y-42732472D01*
X42523077Y-42728524D01*
X42375439Y-42481839D01*
X42195687Y-42257472D01*
X41987149Y-42059577D01*
X41753683Y-41891814D01*
X41731843Y-41880250D01*
X41708654Y-41867972D01*
X41499608Y-41757288D01*
X41229627Y-41658489D01*
X40948736Y-41597245D01*
X40917685Y-41594801D01*
X40725718Y-41579693D01*
X40725709Y-41579693D01*
X40723261Y-41579500D01*
X40567729Y-41579500D01*
X40565593Y-41579646D01*
X40565582Y-41579646D01*
X40357452Y-41593835D01*
X40357446Y-41593836D01*
X40353175Y-41594127D01*
X40348980Y-41594996D01*
X40348978Y-41594996D01*
X40212416Y-41623277D01*
X40071658Y-41652426D01*
X39800657Y-41748393D01*
X39545188Y-41880250D01*
X39541687Y-41882711D01*
X39541683Y-41882713D01*
X39531594Y-41889804D01*
X39309977Y-42045559D01*
X39099378Y-42241260D01*
X38917287Y-42463732D01*
X38767073Y-42708858D01*
X38651517Y-42972102D01*
X38572756Y-43248594D01*
X38532249Y-43533216D01*
X38532227Y-43537505D01*
X38532226Y-43537512D01*
X38530765Y-43816417D01*
X38530743Y-43820703D01*
X37338500Y-43820703D01*
X37338500Y-40766500D01*
X37358502Y-40698379D01*
X37412158Y-40651886D01*
X37464500Y-40640500D01*
X126619500Y-40640500D01*
X126687621Y-40660502D01*
G37*
%TD.AperFunction*%
%TD*%
M02*
