%TF.GenerationSoftware,KiCad,Pcbnew,(6.0.6)*%
%TF.CreationDate,2022-07-31T16:56:09+07:00*%
%TF.ProjectId,ONGEKI PCB,4f4e4745-4b49-4205-9043-422e6b696361,rev?*%
%TF.SameCoordinates,Original*%
%TF.FileFunction,Soldermask,Bot*%
%TF.FilePolarity,Negative*%
%FSLAX46Y46*%
G04 Gerber Fmt 4.6, Leading zero omitted, Abs format (unit mm)*
G04 Created by KiCad (PCBNEW (6.0.6)) date 2022-07-31 16:56:09*
%MOMM*%
%LPD*%
G01*
G04 APERTURE LIST*
G04 Aperture macros list*
%AMRoundRect*
0 Rectangle with rounded corners*
0 $1 Rounding radius*
0 $2 $3 $4 $5 $6 $7 $8 $9 X,Y pos of 4 corners*
0 Add a 4 corners polygon primitive as box body*
4,1,4,$2,$3,$4,$5,$6,$7,$8,$9,$2,$3,0*
0 Add four circle primitives for the rounded corners*
1,1,$1+$1,$2,$3*
1,1,$1+$1,$4,$5*
1,1,$1+$1,$6,$7*
1,1,$1+$1,$8,$9*
0 Add four rect primitives between the rounded corners*
20,1,$1+$1,$2,$3,$4,$5,0*
20,1,$1+$1,$4,$5,$6,$7,0*
20,1,$1+$1,$6,$7,$8,$9,0*
20,1,$1+$1,$8,$9,$2,$3,0*%
G04 Aperture macros list end*
%ADD10RoundRect,0.250000X0.725000X-0.600000X0.725000X0.600000X-0.725000X0.600000X-0.725000X-0.600000X0*%
%ADD11O,1.950000X1.700000*%
%ADD12RoundRect,0.250000X-0.725000X0.600000X-0.725000X-0.600000X0.725000X-0.600000X0.725000X0.600000X0*%
%ADD13C,3.200000*%
%ADD14RoundRect,0.250000X-0.600000X-0.725000X0.600000X-0.725000X0.600000X0.725000X-0.600000X0.725000X0*%
%ADD15O,1.700000X1.950000*%
%ADD16C,1.600000*%
%ADD17R,1.600000X1.600000*%
G04 APERTURE END LIST*
D10*
%TO.C,Func-L*%
X46465000Y-87570000D03*
D11*
X46465000Y-85070000D03*
X46465000Y-82570000D03*
X46465000Y-80070000D03*
%TD*%
D12*
%TO.C,Power VCC*%
X118110000Y-49784000D03*
D11*
X118110000Y-52284000D03*
X118110000Y-54784000D03*
X118110000Y-57284000D03*
%TD*%
D13*
%TO.C,REF5\u002A\u002A*%
X123444000Y-108712000D03*
%TD*%
D12*
%TO.C,Func-R*%
X118093000Y-80324000D03*
D11*
X118093000Y-82824000D03*
X118093000Y-85324000D03*
X118093000Y-87824000D03*
%TD*%
D12*
%TO.C,R-Button-1*%
X101600000Y-49530000D03*
D11*
X101600000Y-52030000D03*
X101600000Y-54530000D03*
X101600000Y-57030000D03*
X101600000Y-59530000D03*
X101600000Y-62030000D03*
%TD*%
D14*
%TO.C,Encoder/Potentiometer*%
X78546000Y-82279000D03*
D15*
X81046000Y-82279000D03*
X83546000Y-82279000D03*
X86046000Y-82279000D03*
%TD*%
D16*
%TO.C,ProMicro*%
X89916000Y-51562000D03*
D17*
X74676000Y-43942000D03*
D16*
X74676000Y-46482000D03*
X89916000Y-49022000D03*
X89916000Y-43942000D03*
X74676000Y-69342000D03*
X74676000Y-49022000D03*
X89916000Y-46482000D03*
X74676000Y-51562000D03*
X89916000Y-54102000D03*
X89916000Y-56642000D03*
X89916000Y-59182000D03*
X89916000Y-61722000D03*
X89916000Y-69342000D03*
X89916000Y-64262000D03*
X89916000Y-66802000D03*
X89916000Y-71882000D03*
X74676000Y-71882000D03*
X74676000Y-66802000D03*
X74676000Y-64262000D03*
X74676000Y-61722000D03*
X74676000Y-59182000D03*
X74676000Y-56642000D03*
X74676000Y-54102000D03*
%TD*%
D10*
%TO.C,L-Button-1*%
X63500000Y-62130000D03*
D11*
X63500000Y-59630000D03*
X63500000Y-57130000D03*
X63500000Y-54630000D03*
X63500000Y-52130000D03*
X63500000Y-49630000D03*
%TD*%
D12*
%TO.C,Side-R*%
X118093000Y-95444000D03*
D11*
X118093000Y-97944000D03*
X118093000Y-100444000D03*
X118093000Y-102944000D03*
%TD*%
D13*
%TO.C,REF1\u002A\u002A*%
X40640000Y-43688000D03*
%TD*%
D12*
%TO.C,R-Button-3*%
X101600000Y-90230000D03*
D11*
X101600000Y-92730000D03*
X101600000Y-95230000D03*
X101600000Y-97730000D03*
X101600000Y-100230000D03*
X101600000Y-102730000D03*
%TD*%
D13*
%TO.C,REF4\u002A\u002A*%
X40640000Y-108712000D03*
%TD*%
%TO.C,REF2\u002A\u002A*%
X123444000Y-43688000D03*
%TD*%
D12*
%TO.C,R-Button-2*%
X101600000Y-69810000D03*
D11*
X101600000Y-72310000D03*
X101600000Y-74810000D03*
X101600000Y-77310000D03*
X101600000Y-79810000D03*
X101600000Y-82310000D03*
%TD*%
D12*
%TO.C,Power GND*%
X118093000Y-64964000D03*
D11*
X118093000Y-67464000D03*
X118093000Y-69964000D03*
X118093000Y-72464000D03*
%TD*%
D10*
%TO.C,Analog port*%
X46465000Y-72330000D03*
D11*
X46465000Y-69830000D03*
X46465000Y-67330000D03*
X46465000Y-64830000D03*
%TD*%
D10*
%TO.C,Serial port*%
X46465000Y-57090000D03*
D11*
X46465000Y-54590000D03*
X46465000Y-52090000D03*
X46465000Y-49590000D03*
%TD*%
D10*
%TO.C,L-Button-3*%
X63500000Y-102670000D03*
D11*
X63500000Y-100170000D03*
X63500000Y-97670000D03*
X63500000Y-95170000D03*
X63500000Y-92670000D03*
X63500000Y-90170000D03*
%TD*%
D10*
%TO.C,L-Button-2*%
X63500000Y-82350000D03*
D11*
X63500000Y-79850000D03*
X63500000Y-77350000D03*
X63500000Y-74850000D03*
X63500000Y-72350000D03*
X63500000Y-69850000D03*
%TD*%
D10*
%TO.C,Side-L*%
X46465000Y-102750000D03*
D11*
X46465000Y-100250000D03*
X46465000Y-97750000D03*
X46465000Y-95250000D03*
%TD*%
M02*
