M48
; DRILL file {KiCad (6.0.6)} date Sun Jul 31 16:56:04 2022
; FORMAT={-:-/ absolute / inch / decimal}
; #@! TF.CreationDate,2022-07-31T16:56:04+07:00
; #@! TF.GenerationSoftware,Kicad,Pcbnew,(6.0.6)
; #@! TF.FileFunction,MixedPlating,1,2
FMAT,2
INCH
; #@! TA.AperFunction,Plated,PTH,ViaDrill
T1C0.0157
; #@! TA.AperFunction,Plated,PTH,ComponentDrill
T2C0.0374
; #@! TA.AperFunction,Plated,PTH,ComponentDrill
T3C0.0433
; #@! TA.AperFunction,NonPlated,NPTH,ComponentDrill
T4C0.1260
%
G90
G05
T1
X3.1331Y-2.607
X3.2184Y-3.0513
T2
X1.8293Y-1.9524
X1.8293Y-2.0508
X1.8293Y-2.1492
X1.8293Y-2.2476
X1.8293Y-2.5524
X1.8293Y-2.6508
X1.8293Y-2.7492
X1.8293Y-2.8476
X1.8293Y-3.1524
X1.8293Y-3.2508
X1.8293Y-3.3492
X1.8293Y-3.4476
X1.8293Y-3.75
X1.8293Y-3.8484
X1.8293Y-3.9469
X1.8293Y-4.0453
X2.5Y-1.9539
X2.5Y-2.0524
X2.5Y-2.1508
X2.5Y-2.2492
X2.5Y-2.3476
X2.5Y-2.4461
X2.5Y-2.75
X2.5Y-2.8484
X2.5Y-2.9469
X2.5Y-3.0453
X2.5Y-3.1437
X2.5Y-3.2421
X2.5Y-3.55
X2.5Y-3.6484
X2.5Y-3.7469
X2.5Y-3.8453
X2.5Y-3.9437
X2.5Y-4.0421
X3.0924Y-3.2393
X3.1908Y-3.2393
X3.2892Y-3.2393
X3.3876Y-3.2393
X4.0Y-1.95
X4.0Y-2.0484
X4.0Y-2.1469
X4.0Y-2.2453
X4.0Y-2.3437
X4.0Y-2.4421
X4.0Y-2.7484
X4.0Y-2.8469
X4.0Y-2.9453
X4.0Y-3.0437
X4.0Y-3.1421
X4.0Y-3.2406
X4.0Y-3.5524
X4.0Y-3.6508
X4.0Y-3.7492
X4.0Y-3.8476
X4.0Y-3.9461
X4.0Y-4.0445
X4.6493Y-2.5576
X4.6493Y-2.6561
X4.6493Y-2.7545
X4.6493Y-2.8529
X4.6493Y-3.1624
X4.6493Y-3.2608
X4.6493Y-3.3592
X4.6493Y-3.4576
X4.6493Y-3.7576
X4.6493Y-3.8561
X4.6493Y-3.9545
X4.6493Y-4.0529
X4.65Y-1.96
X4.65Y-2.0584
X4.65Y-2.1569
X4.65Y-2.2553
T3
X2.94Y-1.73
X2.94Y-1.83
X2.94Y-1.93
X2.94Y-2.03
X2.94Y-2.13
X2.94Y-2.23
X2.94Y-2.33
X2.94Y-2.43
X2.94Y-2.53
X2.94Y-2.63
X2.94Y-2.73
X2.94Y-2.83
X3.54Y-1.73
X3.54Y-1.83
X3.54Y-1.93
X3.54Y-2.03
X3.54Y-2.13
X3.54Y-2.23
X3.54Y-2.33
X3.54Y-2.43
X3.54Y-2.53
X3.54Y-2.63
X3.54Y-2.73
X3.54Y-2.83
T4
X1.6Y-1.72
X1.6Y-4.28
X4.86Y-1.72
X4.86Y-4.28
T0
M30
